<svg version="1.1" xmlns="http://www.w3.org/2000/svg" viewBox="0 0 2304.818333807021 944.2484045209812" width="6914.455001421064" height="2832.7452135629437">
  <!-- svg-source:excalidraw -->
  
  <defs>
    <style class="style-fonts">
      @font-face {
        font-family: "Virgil";
        src: url("https://excalidraw.com/Virgil.woff2");
      }
      @font-face {
        font-family: "Cascadia";
        src: url("https://excalidraw.com/Cascadia.woff2");
      }
      @font-face {
        font-family: "Assistant";
        src: url("https://excalidraw.com/Assistant-Regular.woff2");
      }
    </style>
    
  </defs>
  <rect x="0" y="0" width="2304.818333807021" height="944.2484045209812" fill="#ffffff"></rect><g stroke-linecap="round" transform="translate(532.2627680351457 94.00632973802817) rotate(0 240.05900538162632 144.5179656010755)"><path d="M32 0 C158.66 0.55, 288.93 -1.55, 448.12 0 C471.65 2.41, 482.92 12.91, 480.12 32 C477.39 116.86, 477.67 208.28, 480.12 257.04 C478.86 276.06, 471.87 290.91, 448.12 289.04 C292.85 290.6, 138.34 291.85, 32 289.04 C12.69 291.96, 1.28 277.6, 0 257.04 C-0.01 164.51, 3.15 79.16, 0 32 C1.02 12.62, 9.1 2.81, 32 0" stroke="none" stroke-width="0" fill="#a5d8ff"></path><path d="M32 0 C165.57 -1.04, 300.3 -2.12, 448.12 0 M32 0 C132.58 -1.37, 232.11 -1.48, 448.12 0 M448.12 0 C469.93 -0.84, 480.17 11.84, 480.12 32 M448.12 0 C469.21 1.41, 481.73 10.09, 480.12 32 M480.12 32 C479.65 120.35, 477.88 206.22, 480.12 257.04 M480.12 32 C480.11 100.52, 479.65 168.52, 480.12 257.04 M480.12 257.04 C479.26 279.52, 469.49 287.44, 448.12 289.04 M480.12 257.04 C479.15 277.2, 467.71 286.86, 448.12 289.04 M448.12 289.04 C282.32 290.6, 118.13 290.13, 32 289.04 M448.12 289.04 C296.97 287.23, 146.18 287.03, 32 289.04 M32 289.04 C11.3 288.63, 1.26 277.63, 0 257.04 M32 289.04 C8.37 288.42, -2.21 279.02, 0 257.04 M0 257.04 C-0.31 195.93, 1.07 133.74, 0 32 M0 257.04 C-0.78 167.66, -1.47 78.88, 0 32 M0 32 C1.58 8.8, 10.86 -1.89, 32 0 M0 32 C1.13 11.2, 9.88 -1.45, 32 0" stroke="#1e1e1e" stroke-width="2" fill="none"></path></g><g stroke-linecap="round" transform="translate(1092.243460682796 435.7808749311496) rotate(0 568.6672364156454 89.19460188936023)"><path d="M32 0 C435.79 -2.14, 841.43 -1.98, 1105.33 0 C1123.85 2.5, 1135.1 11.81, 1137.33 32 C1139.21 65.82, 1134.51 102.82, 1137.33 146.39 C1135.9 168.65, 1129.35 179.71, 1105.33 178.39 C762.46 182.94, 419.93 183.8, 32 178.39 C12.46 179.05, -3.41 167.35, 0 146.39 C-4.02 100.01, -0.66 58.71, 0 32 C3.1 7.93, 9.22 -3.34, 32 0" stroke="none" stroke-width="0" fill="#ffec99"></path><path d="M32 0 C329.8 -2.46, 626.87 -2.35, 1105.33 0 M32 0 C316.62 -1.91, 601.34 -2.67, 1105.33 0 M1105.33 0 C1125.49 0.8, 1135.58 11.3, 1137.33 32 M1105.33 0 C1127.3 2.03, 1139.17 9.07, 1137.33 32 M1137.33 32 C1136.87 53.49, 1137.6 77.16, 1137.33 146.39 M1137.33 32 C1136.8 65.77, 1136.41 99.59, 1137.33 146.39 M1137.33 146.39 C1136.07 167.45, 1127.93 177.92, 1105.33 178.39 M1137.33 146.39 C1138.6 168.79, 1127.23 177.37, 1105.33 178.39 M1105.33 178.39 C853.06 175.04, 601.56 174.71, 32 178.39 M1105.33 178.39 C752.47 181.7, 400.14 182.46, 32 178.39 M32 178.39 C9.92 178.41, 0.86 166, 0 146.39 M32 178.39 C11.33 178.12, -1.06 169.31, 0 146.39 M0 146.39 C-1.84 110.37, 0.26 75.95, 0 32 M0 146.39 C0.85 116.54, 0.26 89.17, 0 32 M0 32 C0.87 12.31, 11.73 1.2, 32 0 M0 32 C1.42 9.82, 8.98 1.64, 32 0" stroke="#1e1e1e" stroke-width="2" fill="none"></path></g><g stroke-linecap="round" transform="translate(560.7997018124106 120.72087265635219) rotate(0 128.603091722327 65.14758821888609)"><path d="M32 0 C95.43 0.5, 161.15 -0.08, 225.21 0 C244.31 1.15, 257.2 11.32, 257.21 32 C254.51 48.32, 256.27 61.09, 257.21 98.3 C259.89 120.94, 247.25 131.98, 225.21 130.3 C156.15 128.04, 83.82 128.79, 32 130.3 C7.25 129.92, 2.95 121.45, 0 98.3 C1.37 74.8, 4.09 49.15, 0 32 C-1.44 7.32, 8.45 2.2, 32 0" stroke="none" stroke-width="0" fill="#ffffff"></path><path d="M32 0 C99.92 0.24, 165.78 1.27, 225.21 0 M32 0 C100.57 -2.78, 167.84 -1.4, 225.21 0 M225.21 0 C244.78 0.63, 257.75 12.43, 257.21 32 M225.21 0 C248.37 -1.59, 255.02 8.59, 257.21 32 M257.21 32 C258.69 50.81, 257.25 71.74, 257.21 98.3 M257.21 32 C257.27 46.15, 256.75 58.87, 257.21 98.3 M257.21 98.3 C258.47 119.16, 247.64 131.22, 225.21 130.3 M257.21 98.3 C257.77 118.6, 245.03 131.09, 225.21 130.3 M225.21 130.3 C179.2 127.96, 137.21 130.75, 32 130.3 M225.21 130.3 C150.48 129.33, 75.61 128.41, 32 130.3 M32 130.3 C11.52 128.58, 0.58 119.39, 0 98.3 M32 130.3 C9.61 131.89, 0.28 119.97, 0 98.3 M0 98.3 C0.98 80.16, -0.37 58.15, 0 32 M0 98.3 C-0.66 76.75, 0.59 54.41, 0 32 M0 32 C1.06 11.87, 11.9 -0.73, 32 0 M0 32 C-1.68 12.3, 12.45 0.34, 32 0" stroke="#1e1e1e" stroke-width="2" fill="none"></path></g><g transform="translate(646.9428249678431 173.36846087523827) rotate(0 42.45996856689453 12.5)"><text x="42.45996856689453" y="17.52" font-family="Virgil, Segoe UI Emoji" font-size="20px" fill="#1e1e1e" text-anchor="middle" style="white-space: pre;" direction="ltr" dominant-baseline="alphabetic">Swift UI</text></g><g stroke-linecap="round" transform="translate(1047.5002498015815 84.01246111179921) rotate(0 623.6590420027198 425.117971704591)"><path d="M32 0 C344.46 -0.68, 656.81 -0.43, 1215.32 0 M32 0 C270.83 -1.77, 510.48 -1.54, 1215.32 0 M1215.32 0 C1238.25 -1.39, 1245.42 8.86, 1247.32 32 M1215.32 0 C1236.89 0.66, 1245.05 12.16, 1247.32 32 M1247.32 32 C1246.32 198.65, 1247.32 364.77, 1247.32 818.24 M1247.32 32 C1245.58 318.83, 1245.54 606.03, 1247.32 818.24 M1247.32 818.24 C1247.81 838.68, 1235.34 850.93, 1215.32 850.24 M1247.32 818.24 C1245.69 837.45, 1235.77 848.25, 1215.32 850.24 M1215.32 850.24 C955.22 852.48, 692.97 852.98, 32 850.24 M1215.32 850.24 C750.65 849.94, 285.75 850.23, 32 850.24 M32 850.24 C9.74 851.62, 0.24 839.87, 0 818.24 M32 850.24 C10.4 848.32, -0.35 840.06, 0 818.24 M0 818.24 C1.76 543.11, 0.79 267.7, 0 32 M0 818.24 C-1.15 519.03, -1.12 219.2, 0 32 M0 32 C-1.46 12.09, 12.22 0.3, 32 0 M0 32 C0.96 8.37, 12.37 -1.63, 32 0" stroke="#1e1e1e" stroke-width="2" fill="none"></path></g><g stroke-linecap="round" transform="translate(1103.8114952003748 696.3725147109888) rotate(0 575.5115253231686 96.3322710700811)"><path d="M32 0 C433.46 -2.23, 833.66 -1.9, 1119.02 0 C1139.89 -3.2, 1153.27 9.24, 1151.02 32 C1153.46 75.6, 1155.29 116.67, 1151.02 160.66 C1148.79 184.52, 1140.27 194.46, 1119.02 192.66 C774.26 192.59, 427.85 190.67, 32 192.66 C7.97 193.05, -0.29 185.1, 0 160.66 C-1.29 134.07, -1.02 101.66, 0 32 C-1.72 12.82, 7.13 0.31, 32 0" stroke="none" stroke-width="0" fill="#b2f2bb"></path><path d="M32 0 C375.28 0.07, 716.28 -0.69, 1119.02 0 M32 0 C401.66 -1.01, 771.42 -1.65, 1119.02 0 M1119.02 0 C1138.46 -1.81, 1151.23 11.24, 1151.02 32 M1119.02 0 C1138.09 1.49, 1148.99 10.5, 1151.02 32 M1151.02 32 C1150.38 61.31, 1151.08 89.81, 1151.02 160.66 M1151.02 32 C1152.39 69.28, 1152.08 105.2, 1151.02 160.66 M1151.02 160.66 C1149.71 182.69, 1138.94 190.82, 1119.02 192.66 M1151.02 160.66 C1150.14 180.02, 1138.53 193.32, 1119.02 192.66 M1119.02 192.66 C727.09 189.38, 337.48 189.18, 32 192.66 M1119.02 192.66 C792 188.88, 464.57 189.2, 32 192.66 M32 192.66 C10.91 192.96, -0.23 180.33, 0 160.66 M32 192.66 C10.32 193.16, 1.14 180.93, 0 160.66 M0 160.66 C-2.14 132.61, 1.14 108.7, 0 32 M0 160.66 C-0.07 111.16, -1.41 63.09, 0 32 M0 32 C1.55 10.96, 11.5 -2, 32 0 M0 32 C1.7 9.04, 12.63 -1.8, 32 0" stroke="#1e1e1e" stroke-width="2" fill="none"></path></g><g stroke-linecap="round" transform="translate(1092.24346060174 128.5267359610582) rotate(0 565.8014778646241 97.25955316245813)"><path d="M32 0 C385.07 -0.8, 740.48 -2.68, 1099.6 0 C1123.18 -1.43, 1132.53 13.35, 1131.6 32 C1134.61 76.77, 1129.83 122.38, 1131.6 162.52 C1131.51 185.64, 1121.59 191.11, 1099.6 194.52 C791.04 197.22, 479.95 198.57, 32 194.52 C10.37 197.62, -2.74 182.41, 0 162.52 C-0.51 134.09, -0.28 110.6, 0 32 C-3.54 10.98, 8.55 2.92, 32 0" stroke="none" stroke-width="0" fill="#a5d8ff"></path><path d="M32 0 C356.73 -2, 683.35 -2.23, 1099.6 0 M32 0 C386.18 -4.05, 739.35 -4.13, 1099.6 0 M1099.6 0 C1121.14 0.57, 1129.63 11.96, 1131.6 32 M1099.6 0 C1118.9 -0.17, 1129.98 8.45, 1131.6 32 M1131.6 32 C1133.29 73.45, 1131.72 118.69, 1131.6 162.52 M1131.6 32 C1132.57 67.65, 1131.67 104.54, 1131.6 162.52 M1131.6 162.52 C1130.19 182.01, 1120.17 192.8, 1099.6 194.52 M1131.6 162.52 C1129.77 184.51, 1122.31 196.5, 1099.6 194.52 M1099.6 194.52 C858.39 193.73, 615.7 194.38, 32 194.52 M1099.6 194.52 C870.88 194.29, 642.57 194.07, 32 194.52 M32 194.52 C10.44 192.85, -0.3 184.28, 0 162.52 M32 194.52 C11.81 193.45, -2.18 184.71, 0 162.52 M0 162.52 C2.7 127.31, 2.72 91.43, 0 32 M0 162.52 C-1.54 116.25, -0.03 68.7, 0 32 M0 32 C0.83 8.67, 12.15 -1.42, 32 0 M0 32 C1.96 8.87, 12.26 -1.43, 32 0" stroke="#1e1e1e" stroke-width="2" fill="none"></path></g><g transform="translate(1071.0996723092917 10) rotate(0 184.35594177246094 22.5)"><text x="0" y="31.536" font-family="Virgil, Segoe UI Emoji" font-size="36px" fill="#1e1e1e" text-anchor="start" style="white-space: pre;" direction="ltr" dominant-baseline="alphabetic">Shared (KMP module)</text></g><g stroke-linecap="round" transform="translate(1405.0363018715302 483.4629300827478) rotate(0 110.60306120474888 49.14760347767515)"><path d="M24.57 0 C70.67 -1.6, 115.83 0.23, 196.63 0 C213.86 -2.24, 223.73 8.1, 221.21 24.57 C221 44.71, 223.19 60.75, 221.21 73.72 C218.23 87.41, 213.4 98, 196.63 98.3 C126.85 94.84, 65.97 95.1, 24.57 98.3 C6.8 96.57, 2.15 86.57, 0 73.72 C-1.38 61.9, -1.09 44.3, 0 24.57 C3.14 6.27, 7.47 1.18, 24.57 0" stroke="none" stroke-width="0" fill="#ffffff"></path><path d="M24.57 0 C79.51 -3.27, 135.41 -1.16, 196.63 0 M24.57 0 C80.21 -1.19, 136.9 -2.08, 196.63 0 M196.63 0 C213.56 0.6, 220.97 9.49, 221.21 24.57 M196.63 0 C211.56 -0.32, 222.66 7.65, 221.21 24.57 M221.21 24.57 C220.54 40.72, 222.13 58.07, 221.21 73.72 M221.21 24.57 C220.22 35.07, 221.62 45.86, 221.21 73.72 M221.21 73.72 C219.74 88.14, 212.79 100.15, 196.63 98.3 M221.21 73.72 C220.35 90.13, 214 96.32, 196.63 98.3 M196.63 98.3 C141.41 97.75, 83.72 97.27, 24.57 98.3 M196.63 98.3 C159.87 98.2, 121.16 99.03, 24.57 98.3 M24.57 98.3 C7.72 96.63, -1.64 91.72, 0 73.72 M24.57 98.3 C9.19 100.18, 1.22 91.48, 0 73.72 M0 73.72 C1.6 57.5, 0.48 39.01, 0 24.57 M0 73.72 C0.49 63.1, 0.33 53.43, 0 24.57 M0 24.57 C0.64 8.19, 8.56 -1.75, 24.57 0 M0 24.57 C0.96 7.89, 6.15 1.43, 24.57 0" stroke="#1e1e1e" stroke-width="2" fill="none"></path></g><g transform="translate(1469.6694076319432 520.1105335604229) rotate(0 45.96995544433594 12.5)"><text x="45.96995544433594" y="17.52" font-family="Virgil, Segoe UI Emoji" font-size="20px" fill="#1e1e1e" text-anchor="middle" style="white-space: pre;" direction="ltr" dominant-baseline="alphabetic">viewModel</text></g><g stroke-linecap="round" transform="translate(1693.5747181698566 486.0126951800405) rotate(0 110.60306120474911 49.14760347767515)"><path d="M24.57 0 C80.43 -4.42, 137.13 -2.27, 196.63 0 C214.81 0.66, 217.79 7.82, 221.21 24.57 C218.67 40.65, 222.04 61.82, 221.21 73.72 C224.31 87.36, 211.57 94.95, 196.63 98.3 C154.21 94.89, 116.73 93.08, 24.57 98.3 C8.5 96.18, 2.92 88.2, 0 73.72 C3.54 52.49, -0.32 36.28, 0 24.57 C-3.12 11.48, 9.54 -0.66, 24.57 0" stroke="none" stroke-width="0" fill="#ffffff"></path><path d="M24.57 0 C60.43 -2.15, 96.45 -1.94, 196.63 0 M24.57 0 C75.19 1.96, 125.15 2.31, 196.63 0 M196.63 0 C211.75 -0.28, 222.47 7.72, 221.21 24.57 M196.63 0 C214.28 1.07, 221.77 7.17, 221.21 24.57 M221.21 24.57 C219.53 35.32, 219.65 46.02, 221.21 73.72 M221.21 24.57 C220.77 39.74, 221.39 57.79, 221.21 73.72 M221.21 73.72 C220.46 90.12, 213.87 96.58, 196.63 98.3 M221.21 73.72 C221.87 89.83, 211.95 99.89, 196.63 98.3 M196.63 98.3 C141.24 97.79, 89.62 99.09, 24.57 98.3 M196.63 98.3 C152.75 98.1, 108.53 99.74, 24.57 98.3 M24.57 98.3 C9.06 99.93, 1.06 91.3, 0 73.72 M24.57 98.3 C9.61 97.45, -1.68 91.74, 0 73.72 M0 73.72 C-2.07 56.64, -1.49 38.32, 0 24.57 M0 73.72 C-0.02 62.82, -0.16 51.05, 0 24.57 M0 24.57 C0.83 7.93, 6.41 1.25, 24.57 0 M0 24.57 C-0.91 8.78, 9.9 0.84, 24.57 0" stroke="#1e1e1e" stroke-width="2" fill="none"></path></g><g transform="translate(1756.1378394942344 522.6602986577157) rotate(0 48.039939880371094 12.5)"><text x="48.039939880371094" y="17.52" font-family="Virgil, Segoe UI Emoji" font-size="20px" fill="#1e1e1e" text-anchor="middle" style="white-space: pre;" direction="ltr" dominant-baseline="alphabetic">repository</text></g><g stroke-linecap="round" transform="translate(1966.940475966243 482.7305219815405) rotate(0 110.60306120474888 49.14760347767515)"><path d="M24.57 0 C67.29 0.73, 103 -0.29, 196.63 0 C215.97 1.82, 223 5.21, 221.21 24.57 C224.4 32.9, 219.86 43.37, 221.21 73.72 C218.99 92.31, 211.06 96.9, 196.63 98.3 C153.56 93.13, 112.78 93.35, 24.57 98.3 C11.54 96.68, 0.92 93.24, 0 73.72 C-2.94 64.89, 1.53 48.82, 0 24.57 C-3.51 5.96, 11.26 -0.36, 24.57 0" stroke="none" stroke-width="0" fill="#ffffff"></path><path d="M24.57 0 C59.09 0.11, 91.98 2.06, 196.63 0 M24.57 0 C80.7 -1.26, 138.72 -1.35, 196.63 0 M196.63 0 C214.12 0.93, 221.69 7.3, 221.21 24.57 M196.63 0 C211.51 0.8, 219.58 6.07, 221.21 24.57 M221.21 24.57 C221.35 38.62, 222.51 48.81, 221.21 73.72 M221.21 24.57 C220.78 34.5, 221.58 43.55, 221.21 73.72 M221.21 73.72 C221.79 89.87, 212.09 99.68, 196.63 98.3 M221.21 73.72 C221.49 90.45, 212.75 96.38, 196.63 98.3 M196.63 98.3 C146.69 97.26, 99.35 98.68, 24.57 98.3 M196.63 98.3 C159.74 100.51, 122.52 100.29, 24.57 98.3 M24.57 98.3 C9.42 97.56, -1.46 91.53, 0 73.72 M24.57 98.3 C9.97 98.64, 0.96 87.81, 0 73.72 M0 73.72 C-1.22 56.73, -0.89 37.6, 0 24.57 M0 73.72 C0.33 58.86, -0.98 44.88, 0 24.57 M0 24.57 C-0.79 8.71, 9.68 0.73, 24.57 0 M0 24.57 C0.45 9.27, 9.81 0.54, 24.57 0" stroke="#1e1e1e" stroke-width="2" fill="none"></path></g><g transform="translate(2016.4235878301715 519.3781254592157) rotate(0 61.11994934082031 12.5)"><text x="61.11994934082031" y="17.52" font-family="Virgil, Segoe UI Emoji" font-size="20px" fill="#1e1e1e" text-anchor="middle" style="white-space: pre;" direction="ltr" dominant-baseline="alphabetic">data source</text></g><g transform="translate(1127.9585214241674 513.4232334617736) rotate(0 98.31597137451172 22.5)"><text x="0" y="31.536" font-family="Virgil, Segoe UI Emoji" font-size="36px" fill="#1e1e1e" text-anchor="start" style="white-space: pre;" direction="ltr" dominant-baseline="alphabetic">commonMain</text></g><g stroke-linecap="round"><g transform="translate(442.12801084998046 800.0622854322618) rotate(0 58.74766355207339 2.409971265245076)"><path d="M-0.14 0.78 C8.8 0.59, 34.06 -1.42, 53.94 -0.79 C73.82 -0.16, 108.31 3.53, 119.17 4.56 M-1.67 0.14 C7.62 0.11, 36.17 -0.27, 56.25 0.66 C76.33 1.59, 108.23 5.32, 118.8 5.73" stroke="#1e1e1e" stroke-width="2" fill="none"></path></g><g transform="translate(442.12801084998046 800.0622854322618) rotate(0 58.74766355207339 2.409971265245076)"><path d="M94.72 12.46 C103.88 9.02, 110.18 9.34, 118.8 5.73 M94.72 12.46 C101.59 10.04, 107.34 8.97, 118.8 5.73" stroke="#1e1e1e" stroke-width="2" fill="none"></path></g><g transform="translate(442.12801084998046 800.0622854322618) rotate(0 58.74766355207339 2.409971265245076)"><path d="M96.03 -4.59 C104.81 -2.45, 110.68 3.45, 118.8 5.73 M96.03 -4.59 C102.62 -2.29, 108.02 1.36, 118.8 5.73" stroke="#1e1e1e" stroke-width="2" fill="none"></path></g></g><mask></mask><g transform="translate(10 778.0161784665808) rotate(0 207.08993530273438 22.5)"><text x="0" y="31.536" font-family="Virgil, Segoe UI Emoji" font-size="36px" fill="#1e1e1e" text-anchor="start" style="white-space: pre;" direction="ltr" dominant-baseline="alphabetic">Entry Point for Android</text></g><g transform="translate(51.22509248208644 173.63373818147465) rotate(0 172.69195556640625 22.5)"><text x="0" y="31.536" font-family="Virgil, Segoe UI Emoji" font-size="36px" fill="#1e1e1e" text-anchor="start" style="white-space: pre;" direction="ltr" dominant-baseline="alphabetic">Entry Point for iOS</text></g><g stroke-linecap="round"><g transform="translate(424.64831175669315 190.3529357464572) rotate(0 58.37531053248313 2.270164173036733)"><path d="M0.66 0.56 C20.07 1.18, 97.96 2.83, 117.2 3.48 M-0.45 -0.2 C18.76 0.61, 96.56 4.32, 116.41 4.74" stroke="#1e1e1e" stroke-width="2" fill="none"></path></g><g transform="translate(424.64831175669315 190.3529357464572) rotate(0 58.37531053248313 2.270164173036733)"><path d="M92.62 12.43 C102.2 10, 109.02 5.4, 116.41 4.74 M92.62 12.43 C100.25 9.22, 107.8 7.79, 116.41 4.74" stroke="#1e1e1e" stroke-width="2" fill="none"></path></g><g transform="translate(424.64831175669315 190.3529357464572) rotate(0 58.37531053248313 2.270164173036733)"><path d="M93.24 -4.66 C102.56 -0.89, 109.15 0.72, 116.41 4.74 M93.24 -4.66 C100.54 -2.16, 107.88 2.13, 116.41 4.74" stroke="#1e1e1e" stroke-width="2" fill="none"></path></g></g><mask></mask><g stroke-linecap="round"><g transform="translate(1638.7429183276104 536.0567290007075) rotate(0 24.68578870418105 -0.9029092704592472)"><path d="M-0.85 -1.11 C7.65 -1.63, 41.79 -2.69, 50.22 -2.73 M0.91 0.93 C9.28 0.48, 40.49 -1, 49.03 -1.74" stroke="#1e1e1e" stroke-width="2" fill="none"></path></g><g transform="translate(1638.7429183276104 536.0567290007075) rotate(0 24.68578870418105 -0.9029092704592472)"><path d="M26.14 8.32 C29.63 5.35, 35.11 2.17, 49.03 -1.74 M26.14 8.32 C32.87 3.84, 41 2.44, 49.03 -1.74" stroke="#1e1e1e" stroke-width="2" fill="none"></path></g><g transform="translate(1638.7429183276104 536.0567290007075) rotate(0 24.68578870418105 -0.9029092704592472)"><path d="M25.03 -8.75 C28.84 -7.7, 34.58 -6.88, 49.03 -1.74 M25.03 -8.75 C32.22 -7.63, 40.73 -3.42, 49.03 -1.74" stroke="#1e1e1e" stroke-width="2" fill="none"></path></g></g><mask></mask><g stroke-linecap="round"><g transform="translate(1920.97604358042 532.7199473364276) rotate(0 20.085270369908358 -1.0058738227905906)"><path d="M-0.21 -0.47 C6.42 -0.66, 32.65 -1.46, 39.37 -1.6 M0.68 0.47 C7.51 0.16, 33.84 -2.05, 40.38 -2.48" stroke="#1e1e1e" stroke-width="2" fill="none"></path></g><g transform="translate(1920.97604358042 532.7199473364276) rotate(0 20.085270369908358 -1.0058738227905906)"><path d="M22.23 5.72 C25.57 3.08, 30.87 2.59, 40.38 -2.48 M22.23 5.72 C29.21 3.11, 36.09 -0.52, 40.38 -2.48" stroke="#1e1e1e" stroke-width="2" fill="none"></path></g><g transform="translate(1920.97604358042 532.7199473364276) rotate(0 20.085270369908358 -1.0058738227905906)"><path d="M21.2 -7.87 C24.71 -7.39, 30.25 -4.77, 40.38 -2.48 M21.2 -7.87 C28.53 -5.23, 35.81 -3.61, 40.38 -2.48" stroke="#1e1e1e" stroke-width="2" fill="none"></path></g></g><mask></mask><g stroke-linecap="round"><g transform="translate(1500.7211352355894 480.83737520609293) rotate(0 -0.632598654100093 -100.99266094134379)"><path d="M-0.88 -1.18 C-1.18 -34.89, -1.01 -167.73, -1.1 -201.27 M0.86 0.82 C0.32 -32.69, -1.58 -169.16, -2.12 -202.8" stroke="#1e1e1e" stroke-width="2" fill="none"></path></g><g transform="translate(1500.7211352355894 480.83737520609293) rotate(0 -0.632598654100093 -100.99266094134379)"><path d="M6.78 -179.44 C1.41 -188.14, 2.03 -197.07, -2.12 -202.8 M6.78 -179.44 C4.29 -186.67, 0.86 -192.89, -2.12 -202.8" stroke="#1e1e1e" stroke-width="2" fill="none"></path></g><g transform="translate(1500.7211352355894 480.83737520609293) rotate(0 -0.632598654100093 -100.99266094134379)"><path d="M-10.32 -179.19 C-9.54 -187.85, -2.77 -196.87, -2.12 -202.8 M-10.32 -179.19 C-7.67 -186.34, -5.95 -192.64, -2.12 -202.8" stroke="#1e1e1e" stroke-width="2" fill="none"></path></g></g><mask></mask><g stroke-linecap="round"><g transform="translate(1506.7614083436624 590.6208104993555) rotate(0 0.17080475806710638 72.30752584837518)"><path d="M-0.14 1.11 C0.34 25.05, 1.49 119.04, 2.01 142.42 M-1.67 0.65 C-1.31 24.89, 0.14 120.38, 0.83 143.96" stroke="#1e1e1e" stroke-width="2" fill="none"></path></g><g transform="translate(1506.7614083436624 590.6208104993555) rotate(0 0.17080475806710638 72.30752584837518)"><path d="M-8.22 120.65 C-4.54 125.2, -4.33 132.09, 0.83 143.96 M-8.22 120.65 C-6.68 126.35, -4.16 130.79, 0.83 143.96" stroke="#1e1e1e" stroke-width="2" fill="none"></path></g><g transform="translate(1506.7614083436624 590.6208104993555) rotate(0 0.17080475806710638 72.30752584837518)"><path d="M8.88 120.29 C8.68 124.9, 5.02 131.87, 0.83 143.96 M8.88 120.29 C6.76 126.04, 5.62 130.57, 0.83 143.96" stroke="#1e1e1e" stroke-width="2" fill="none"></path></g></g><mask></mask><g stroke-linecap="round"><g transform="translate(2076.7107111935566 480.27255054678426) rotate(0 -2.773974314466159 -94.68654010361774)"><path d="M-0.45 0.01 C-1.49 -31.74, -5.37 -157.97, -6.39 -189.38 M1.52 -1.03 C0.37 -32.15, -5.62 -157.35, -7.06 -188.39" stroke="#1e1e1e" stroke-width="2" fill="none"></path></g><g transform="translate(2076.7107111935566 480.27255054678426) rotate(0 -2.773974314466159 -94.68654010361774)"><path d="M2.58 -165.32 C-0.4 -171.16, -4.92 -178.09, -7.06 -188.39 M2.58 -165.32 C0.03 -171.76, -2.99 -179.38, -7.06 -188.39" stroke="#1e1e1e" stroke-width="2" fill="none"></path></g><g transform="translate(2076.7107111935566 480.27255054678426) rotate(0 -2.773974314466159 -94.68654010361774)"><path d="M-14.5 -164.52 C-12.56 -170.52, -12.15 -177.69, -7.06 -188.39 M-14.5 -164.52 C-12.13 -171.3, -10.22 -179.16, -7.06 -188.39" stroke="#1e1e1e" stroke-width="2" fill="none"></path></g></g><mask></mask><g stroke-linecap="round"><g transform="translate(2075.4737762468358 587.9510963885516) rotate(0 2.412594083458771 71.38523762823536)"><path d="M0.51 -1.03 C1.51 22.69, 4.82 118.28, 5.5 142.34 M-0.67 1.04 C0.23 24.95, 4.03 120.41, 4.73 143.8" stroke="#1e1e1e" stroke-width="2" fill="none"></path></g><g transform="translate(2075.4737762468358 587.9510963885516) rotate(0 2.412594083458771 71.38523762823536)"><path d="M-4.65 120.63 C-3.9 127.25, 0.04 131.84, 4.73 143.8 M-4.65 120.63 C-1.27 128.34, 2.16 137.94, 4.73 143.8" stroke="#1e1e1e" stroke-width="2" fill="none"></path></g><g transform="translate(2075.4737762468358 587.9510963885516) rotate(0 2.412594083458771 71.38523762823536)"><path d="M12.44 120.02 C8.7 126.88, 8.16 131.62, 4.73 143.8 M12.44 120.02 C9.51 127.98, 6.63 137.8, 4.73 143.8" stroke="#1e1e1e" stroke-width="2" fill="none"></path></g></g><mask></mask><g transform="translate(1165.9585517539235 188.10433497894587) rotate(0 64.92596435546875 22.5)"><text x="0" y="31.536" font-family="Virgil, Segoe UI Emoji" font-size="36px" fill="#1e1e1e" text-anchor="start" style="white-space: pre;" direction="ltr" dominant-baseline="alphabetic">iOsMain</text></g><g transform="translate(1127.9585221479429 780.7611286280651) rotate(0 100.49396514892578 22.5)"><text x="0" y="31.536" font-family="Virgil, Segoe UI Emoji" font-size="36px" fill="#1e1e1e" text-anchor="start" style="white-space: pre;" direction="ltr" dominant-baseline="alphabetic">AndroidMain</text></g><g stroke-linecap="round" transform="translate(1391.8670507779975 754.1135254610524) rotate(0 110.60306120474888 49.14760347767515)"><path d="M24.57 0 C80.42 6.09, 140.38 0.07, 196.63 0 C216.11 -3, 218.12 4.91, 221.21 24.57 C222.11 41.65, 224.81 57.69, 221.21 73.72 C222.73 92.75, 216.21 96.06, 196.63 98.3 C141.99 99.1, 88.24 95.79, 24.57 98.3 C8.2 95.58, -2.98 87.72, 0 73.72 C4.06 59.28, -2.09 47.37, 0 24.57 C2.65 8.07, 7.87 1.42, 24.57 0" stroke="none" stroke-width="0" fill="#ffffff"></path><path d="M24.57 0 C68.55 -0.44, 110.26 -0.51, 196.63 0 M24.57 0 C78.92 1.17, 134.92 -0.03, 196.63 0 M196.63 0 C211.37 1.62, 222.08 9.83, 221.21 24.57 M196.63 0 C214.23 1.38, 222.62 7.35, 221.21 24.57 M221.21 24.57 C221.85 36.55, 219.56 48.35, 221.21 73.72 M221.21 24.57 C222.32 35.21, 221.94 47.09, 221.21 73.72 M221.21 73.72 C221.57 88.35, 213.85 98.04, 196.63 98.3 M221.21 73.72 C219.16 91.54, 212.1 98.89, 196.63 98.3 M196.63 98.3 C133.13 100.05, 68.23 97.39, 24.57 98.3 M196.63 98.3 C133.12 98.2, 69.15 99.97, 24.57 98.3 M24.57 98.3 C9.2 99.29, -1.66 88.61, 0 73.72 M24.57 98.3 C8.44 98.11, 1.98 88.35, 0 73.72 M0 73.72 C1.68 59.86, -0.32 47.21, 0 24.57 M0 73.72 C-0.11 56.85, -0.05 39.28, 0 24.57 M0 24.57 C-0.9 8.7, 9.94 -1.07, 24.57 0 M0 24.57 C-0.46 8.95, 6.2 2.1, 24.57 0" stroke="#1e1e1e" stroke-width="2" fill="none"></path></g><g transform="translate(1419.010189192219 790.7611289387276) rotate(0 83.45992279052734 12.5)"><text x="83.45992279052734" y="17.52" font-family="Virgil, Segoe UI Emoji" font-size="20px" fill="#1e1e1e" text-anchor="middle" style="white-space: pre;" direction="ltr" dominant-baseline="alphabetic">viewModel.android</text></g><g stroke-linecap="round" transform="translate(1388.439212878197 163.45673864978107) rotate(0 110.60306120474888 49.14760347767515)"><path d="M24.57 0 C93.96 -0.46, 154.07 -0.74, 196.63 0 C213.9 2.22, 223.02 8.55, 221.21 24.57 C223.48 43.5, 225.15 54.91, 221.21 73.72 C221.66 86.75, 213.37 97.43, 196.63 98.3 C142.65 93.16, 85.67 93.49, 24.57 98.3 C8.25 95.04, 1.85 93.37, 0 73.72 C3.36 58.33, 0.39 44.6, 0 24.57 C-3.6 7.03, 6.26 3.06, 24.57 0" stroke="none" stroke-width="0" fill="#ffffff"></path><path d="M24.57 0 C74.64 1.25, 122.92 -1.63, 196.63 0 M24.57 0 C81.77 2.24, 141.04 2.25, 196.63 0 M196.63 0 C214.08 1.2, 222.44 7.46, 221.21 24.57 M196.63 0 C211.33 1.64, 222.99 8.53, 221.21 24.57 M221.21 24.57 C219.3 43.06, 219.15 59.53, 221.21 73.72 M221.21 24.57 C221.55 35.4, 221.78 47.84, 221.21 73.72 M221.21 73.72 C219.43 91.35, 212.22 98.81, 196.63 98.3 M221.21 73.72 C222.92 90.94, 213.47 99.37, 196.63 98.3 M196.63 98.3 C134.28 97.18, 70.13 97.59, 24.57 98.3 M196.63 98.3 C161.84 100.2, 125.2 98.96, 24.57 98.3 M24.57 98.3 C8.41 98.13, 1.72 88.58, 0 73.72 M24.57 98.3 C7.27 96.16, -1.42 91.51, 0 73.72 M0 73.72 C1.39 59.68, 0.36 48.38, 0 24.57 M0 73.72 C-0.19 55.25, 1.13 35.73, 0 24.57 M0 24.57 C-0.4 8.85, 6.46 1.83, 24.57 0 M0 24.57 C0.86 7.77, 5.95 -1.43, 24.57 0" stroke="#1e1e1e" stroke-width="2" fill="none"></path></g><g transform="translate(1437.1723400009146 200.10434212745622) rotate(0 61.86993408203125 12.5)"><text x="61.86993408203125" y="17.52" font-family="Virgil, Segoe UI Emoji" font-size="20px" fill="#1e1e1e" text-anchor="middle" style="white-space: pre;" direction="ltr" dominant-baseline="alphabetic">viewModel.ios</text></g><g stroke-linecap="round" transform="translate(1959.7884458218268 172.3334882737231) rotate(0 110.60306120474888 49.14760347767515)"><path d="M24.57 0 C62.75 5.04, 100.98 3.18, 196.63 0 C214.14 3.06, 222.42 9.71, 221.21 24.57 C222.44 39.58, 222.35 60.42, 221.21 73.72 C221.7 89.27, 210.2 98.3, 196.63 98.3 C158.05 92.99, 121.19 99.5, 24.57 98.3 C8.58 95.4, 3.3 92.76, 0 73.72 C-3.52 57.98, -1.85 47.62, 0 24.57 C0.81 10.77, 11.58 -3.33, 24.57 0" stroke="none" stroke-width="0" fill="#ffffff"></path><path d="M24.57 0 C85.49 1.16, 143.25 -0.01, 196.63 0 M24.57 0 C90.63 -0.81, 156.25 -1.78, 196.63 0 M196.63 0 C211.55 1.42, 222.76 8.49, 221.21 24.57 M196.63 0 C213.97 -2.3, 222.91 6.56, 221.21 24.57 M221.21 24.57 C219.58 44.14, 220.82 62.8, 221.21 73.72 M221.21 24.57 C220.52 35.64, 221.01 45.71, 221.21 73.72 M221.21 73.72 C222.7 90.84, 213.41 99.23, 196.63 98.3 M221.21 73.72 C222.83 90.64, 211.59 99.91, 196.63 98.3 M196.63 98.3 C143.54 98.4, 95.89 99.62, 24.57 98.3 M196.63 98.3 C136.53 96.93, 77.07 96.25, 24.57 98.3 M24.57 98.3 C7.39 96.44, -1.23 91.33, 0 73.72 M24.57 98.3 C6.94 97.4, -1.1 91.48, 0 73.72 M0 73.72 C1.58 62.75, 1.82 52.99, 0 24.57 M0 73.72 C-0.63 58.05, -1.3 42.64, 0 24.57 M0 24.57 C0.75 7.83, 6.24 -1.24, 24.57 0 M0 24.57 C1.96 7.96, 6.31 1.98, 24.57 0" stroke="#1e1e1e" stroke-width="2" fill="none"></path></g><g transform="translate(1997.7215775221812 208.98109175139825) rotate(0 72.66992950439453 12.5)"><text x="72.66992950439453" y="17.52" font-family="Virgil, Segoe UI Emoji" font-size="20px" fill="#1e1e1e" text-anchor="middle" style="white-space: pre;" direction="ltr" dominant-baseline="alphabetic">dataSource.ios</text></g><g stroke-linecap="round" transform="translate(1967.8816586334142 752.5708143117326) rotate(0 110.60306120474888 49.14760347767515)"><path d="M24.57 0 C87.91 2.76, 150.2 1.21, 196.63 0 C215.66 3.2, 218.97 8.64, 221.21 24.57 C221.79 33.91, 218.48 44.92, 221.21 73.72 C218.49 87.12, 210.63 98.35, 196.63 98.3 C160.93 98.21, 127.77 103.76, 24.57 98.3 C8.07 97.98, 1.42 86.51, 0 73.72 C1.28 63.14, 3.86 44.08, 0 24.57 C1.08 11.59, 5.62 -0.86, 24.57 0" stroke="none" stroke-width="0" fill="#ffffff"></path><path d="M24.57 0 C73.75 2.28, 121.33 2.47, 196.63 0 M24.57 0 C85.78 1.34, 149.22 0.78, 196.63 0 M196.63 0 C213.85 -2, 222.68 6.77, 221.21 24.57 M196.63 0 C214.97 -1.8, 222.8 6.77, 221.21 24.57 M221.21 24.57 C219.45 41.72, 220.95 55.42, 221.21 73.72 M221.21 24.57 C221.76 42.74, 221.21 60.65, 221.21 73.72 M221.21 73.72 C222.62 90.57, 211.77 99.7, 196.63 98.3 M221.21 73.72 C221.15 91.25, 213.43 96.11, 196.63 98.3 M196.63 98.3 C147.79 97.51, 95.45 99.38, 24.57 98.3 M196.63 98.3 C146.02 96.06, 95.59 97.6, 24.57 98.3 M24.57 98.3 C7.11 97.52, -0.96 91.3, 0 73.72 M24.57 98.3 C5.93 98.5, -1.35 91.97, 0 73.72 M0 73.72 C0.05 63.32, -1.52 49.03, 0 24.57 M0 73.72 C0.8 57.18, -0.55 40.38, 0 24.57 M0 24.57 C1.71 7.99, 6.55 1.72, 24.57 0 M0 24.57 C-1.91 6.22, 6.09 0.56, 24.57 0" stroke="#1e1e1e" stroke-width="2" fill="none"></path></g><g transform="translate(1984.2248016252724 789.2184177894078) rotate(0 94.25991821289062 12.5)"><text x="94.25991821289062" y="17.52" font-family="Virgil, Segoe UI Emoji" font-size="20px" fill="#1e1e1e" text-anchor="middle" style="white-space: pre;" direction="ltr" dominant-baseline="alphabetic">dataSource.android</text></g><g stroke-linecap="round" transform="translate(1688.388962276414 166.1284968554844) rotate(0 110.60306120474911 49.14760347767515)"><path d="M3.44 9.62 C3.44 9.62, 3.44 9.62, 3.44 9.62 M3.44 9.62 C3.44 9.62, 3.44 9.62, 3.44 9.62 M0.29 25.43 C5.86 19.66, 12.5 10.86, 21.29 1.28 M0.29 25.43 C8.88 15.25, 17.6 7.14, 21.29 1.28 M0.43 37.47 C11.55 27.05, 17.26 18.55, 32.57 0.49 M0.43 37.47 C7.96 30.36, 15.19 21.83, 32.57 0.49 M0.56 49.51 C15.12 34.58, 30.18 15.62, 43.2 0.46 M0.56 49.51 C14.1 34.27, 27.44 18.02, 43.2 0.46 M0.69 61.55 C15.78 43.68, 31.25 26.33, 53.83 0.42 M0.69 61.55 C22.3 38.84, 42.11 14.13, 53.83 0.42 M0.83 73.59 C22.08 50.65, 45.2 25.54, 64.46 0.39 M0.83 73.59 C27.53 43.83, 51.43 15.17, 64.46 0.39 M2.27 84.13 C19.81 62.6, 39.49 41.26, 75.09 0.35 M2.27 84.13 C23.96 60.36, 45.09 34.85, 75.09 0.35 M6.34 91.64 C35.56 55.76, 67.98 16.78, 85.72 0.32 M6.34 91.64 C36.07 57.13, 64.66 24.59, 85.72 0.32 M13.03 96.13 C42.75 65.23, 70.32 32.32, 96.35 0.28 M13.03 96.13 C32.45 73.48, 50.98 52.36, 96.35 0.28 M21.7 98.36 C39.71 77.37, 56.43 57.22, 106.98 0.25 M21.7 98.36 C48.01 69.45, 75.65 38.19, 106.98 0.25 M31.67 99.08 C64.11 61.5, 97.91 22.53, 117.61 0.21 M31.67 99.08 C51.28 77.79, 70.34 55.6, 117.61 0.21 M42.3 99.05 C59.56 78.42, 78.77 59.15, 128.24 0.18 M42.3 99.05 C69.6 67.25, 95.45 36.75, 128.24 0.18 M52.93 99.01 C76.02 73.79, 99.69 45.03, 138.87 0.15 M52.93 99.01 C73.06 75.93, 93.85 51.85, 138.87 0.15 M63.56 98.98 C88.36 69.64, 114.22 42.78, 149.5 0.11 M63.56 98.98 C85.17 74.93, 105.62 52.08, 149.5 0.11 M74.19 98.94 C101.76 70.77, 127.4 41.82, 160.13 0.08 M74.19 98.94 C106.47 61.91, 137.81 25.33, 160.13 0.08 M84.82 98.91 C107.94 75.36, 128.26 49.34, 170.76 0.04 M84.82 98.91 C116.48 62.66, 148.53 26.97, 170.76 0.04 M95.45 98.87 C115.24 77.84, 130.99 56.01, 181.4 0.01 M95.45 98.87 C118.19 71.74, 141.78 46.43, 181.4 0.01 M106.08 98.84 C139.17 61.11, 172.06 24.96, 192.03 -0.03 M106.08 98.84 C130.1 69.11, 155.58 41.09, 192.03 -0.03 M116.71 98.81 C138.5 73.37, 159.41 50.52, 202 0.69 M116.71 98.81 C141.15 73.1, 163.9 46.05, 202 0.69 M127.34 98.77 C149.38 73.94, 170.73 50.46, 210.66 2.92 M127.34 98.77 C149.99 70.37, 174.97 44.04, 210.66 2.92 M137.97 98.74 C168.78 65.84, 197.62 28.68, 216.7 8.17 M137.97 98.74 C162.67 69.01, 188.96 39.77, 216.7 8.17 M148.6 98.7 C170.89 71.6, 193.56 47.63, 220.11 16.44 M148.6 98.7 C171.23 71.01, 195.05 44.53, 220.11 16.44 M159.23 98.67 C181.39 77.01, 201.39 53.94, 221.56 26.97 M159.23 98.67 C174 80.99, 190 64.43, 221.56 26.97 M169.86 98.63 C187.31 76.59, 207.84 56.42, 221.69 39.01 M169.86 98.63 C182.29 84.26, 195.11 69.58, 221.69 39.01 M180.49 98.6 C193.1 83.07, 210.53 66.13, 221.82 51.05 M180.49 98.6 C189.24 87.29, 198.93 76.65, 221.82 51.05 M191.12 98.56 C201.22 85.5, 212.28 70.94, 221.96 63.09 M191.12 98.56 C203.52 84.49, 216.13 70.69, 221.96 63.09 M203.06 97.02 C206.75 92.82, 211.63 85.92, 221.43 75.89 M203.06 97.02 C209.38 89.84, 216.75 81.53, 221.43 75.89" stroke="#ffffff" stroke-width="1" fill="none"></path><path d="M24.57 0 C84.87 0.32, 142.03 -2.38, 196.63 0 M196.63 0 C214.44 1.55, 221.5 9.02, 221.21 24.57 M221.21 24.57 C223.27 32.85, 222.96 43.01, 221.21 73.72 M221.21 73.72 C221.84 90.1, 213.38 96.54, 196.63 98.3 M196.63 98.3 C139.1 95.97, 79.59 98.26, 24.57 98.3 M24.57 98.3 C8.92 98.69, 0.94 91.51, 0 73.72 M0 73.72 C0.26 58.82, 0.67 40.04, 0 24.57 M0 24.57 C-0.21 9.83, 9.2 1, 24.57 0" stroke="#1e1e1e" stroke-width="2.5" fill="none" stroke-dasharray="1.5 8"></path></g><g transform="translate(1735.0521049630966 202.77610033315955) rotate(0 63.939918518066406 12.5)"><text x="63.939918518066406" y="17.52" font-family="Virgil, Segoe UI Emoji" font-size="20px" fill="#1e1e1e" text-anchor="middle" style="white-space: pre;" direction="ltr" dominant-baseline="alphabetic">repository.ios</text></g><g stroke-linecap="round" transform="translate(1696.382984236318 749.4928918506318) rotate(0 110.60306120474911 49.14760347767515)"><path d="M3.44 9.62 C3.44 9.62, 3.44 9.62, 3.44 9.62 M3.44 9.62 C3.44 9.62, 3.44 9.62, 3.44 9.62 M3.57 21.66 C9.85 15.33, 12.56 11.54, 15.38 8.07 M3.57 21.66 C5.8 17.84, 7.93 16.58, 15.38 8.07 M3.71 33.7 C9.7 23.23, 16.96 16.9, 29.29 4.26 M3.71 33.7 C13.12 23.88, 22.4 12.81, 29.29 4.26 M3.84 45.74 C17.2 28.6, 30.62 14.48, 39.92 4.23 M3.84 45.74 C15.26 32.24, 25.75 19.31, 39.92 4.23 M3.32 58.53 C19.87 42.11, 30.7 27.34, 50.55 4.2 M3.32 58.53 C21.38 37.27, 38.32 17.42, 50.55 4.2 M3.45 70.58 C27.4 42.75, 48.34 20.93, 61.18 4.16 M3.45 70.58 C16.42 56, 30.48 39.87, 61.18 4.16 M3.58 82.62 C26.81 56.1, 49.83 30.46, 71.81 4.13 M3.58 82.62 C27.55 56.66, 50.76 28.02, 71.81 4.13 M6.34 91.64 C33.81 62.89, 59.8 34.22, 82.44 4.09 M6.34 91.64 C27.29 67.48, 47.35 44.55, 82.44 4.09 M12.38 96.89 C40.57 62.75, 70.82 28.27, 93.07 4.06 M12.38 96.89 C29.67 76.73, 49.12 56.18, 93.07 4.06 M19.07 101.38 C43.38 71.7, 67.08 44.18, 103.7 4.02 M19.07 101.38 C51.81 63.87, 84 25.81, 103.7 4.02 M29.05 102.1 C58.28 66.63, 89.97 33.04, 114.33 3.99 M29.05 102.1 C55.2 70.55, 84.58 37.99, 114.33 3.99 M39.68 102.07 C66.79 70.94, 94.39 39.84, 124.96 3.95 M39.68 102.07 C62.3 75.12, 85.34 50, 124.96 3.95 M50.31 102.03 C77.94 69.96, 106.52 35.34, 135.59 3.92 M50.31 102.03 C73.92 74.38, 98.55 47.44, 135.59 3.92 M60.94 102 C82.06 73.72, 104.75 49.34, 146.22 3.88 M60.94 102 C79.81 79.38, 98.8 59.39, 146.22 3.88 M71.57 101.96 C103.47 65.57, 134.7 31.17, 156.85 3.85 M71.57 101.96 C94.33 74.66, 118.79 47.88, 156.85 3.85 M82.2 101.93 C117.65 60.61, 151.72 22.97, 167.48 3.82 M82.2 101.93 C107.32 72.03, 135.28 41.56, 167.48 3.82 M92.83 101.89 C122.35 66.09, 153.92 32.51, 177.46 4.54 M92.83 101.89 C110.96 81.13, 128.63 60.58, 177.46 4.54 M103.46 101.86 C129.84 72.18, 156.9 39.26, 188.09 4.5 M103.46 101.86 C122.49 78.19, 142.41 56.51, 188.09 4.5 M114.09 101.82 C131.67 79.5, 150.31 61.49, 200.03 2.96 M114.09 101.82 C143.56 67.29, 173.85 32.31, 200.03 2.96 M124.72 101.79 C146.99 76.19, 170.33 47.33, 210.01 3.68 M124.72 101.79 C142.91 80.18, 159.54 60.67, 210.01 3.68 M134.69 102.51 C164.65 71.26, 193.77 36.33, 216.7 8.17 M134.69 102.51 C155.32 78.87, 175.64 53.62, 216.7 8.17 M145.32 102.48 C165.27 80.83, 185.4 56.93, 222.74 13.42 M145.32 102.48 C169.56 73.68, 193.62 48.24, 222.74 13.42 M155.95 102.44 C179.66 72.21, 207.74 42.53, 225.49 22.44 M155.95 102.44 C174.88 79.98, 194.19 57.67, 225.49 22.44 M166.58 102.41 C180.9 84.48, 197.42 65.45, 225.63 34.48 M166.58 102.41 C186.26 80.02, 205.18 57.46, 225.63 34.48 M177.21 102.37 C191.64 84.06, 210.02 63.91, 225.76 46.52 M177.21 102.37 C188.91 89.64, 200.08 76.37, 225.76 46.52 M187.84 102.34 C201.27 89.69, 210.62 77.19, 225.24 59.32 M187.84 102.34 C197.97 88.87, 210.59 76.37, 225.24 59.32 M199.78 100.79 C208.46 94.09, 214.07 83.5, 222.09 75.13 M199.78 100.79 C207.37 93.02, 215.52 83.96, 222.09 75.13" stroke="#ffffff" stroke-width="1" fill="none"></path><path d="M24.57 0 C88.21 2.81, 149.3 2.09, 196.63 0 M196.63 0 C211.02 1.48, 219.79 9.9, 221.21 24.57 M221.21 24.57 C222.18 35.47, 221.91 44.62, 221.21 73.72 M221.21 73.72 C222.04 89.85, 211.24 99.54, 196.63 98.3 M196.63 98.3 C152.58 99.97, 108 100.99, 24.57 98.3 M24.57 98.3 C8.66 97.05, 1.4 90.05, 0 73.72 M0 73.72 C-0.3 58.17, 0.92 40.34, 0 24.57 M0 24.57 C-1.66 6.7, 8.41 -0.16, 24.57 0" stroke="#1e1e1e" stroke-width="2.5" fill="none" stroke-dasharray="1.5 8"></path></g><g transform="translate(1743.0461269230004 786.140495328307) rotate(0 63.939918518066406 12.5)"><text x="63.939918518066406" y="17.52" font-family="Virgil, Segoe UI Emoji" font-size="20px" fill="#1e1e1e" text-anchor="middle" style="white-space: pre;" direction="ltr" dominant-baseline="alphabetic">repository.ios</text></g><g stroke-linecap="round"><g transform="translate(1801.983336007877 484.2725121702915) rotate(0 -2.4733295500655004 -101.79881545906994)"><path d="M0.5 -1.2 C-0.56 -34.96, -4.48 -168.85, -5.44 -202.4" stroke="#1e1e1e" stroke-width="2.5" fill="none" stroke-dasharray="1.5 8"></path></g><g transform="translate(1801.983336007877 484.2725121702915) rotate(0 -2.4733295500655004 -101.79881545906994)"><path d="M3.79 -179.17 C-1.73 -186.42, -4.64 -194.97, -5.44 -202.4" stroke="#1e1e1e" stroke-width="2.5" fill="none" stroke-dasharray="1.5 6"></path></g><g transform="translate(1801.983336007877 484.2725121702915) rotate(0 -2.4733295500655004 -101.79881545906994)"><path d="M-13.31 -178.67 C-12.37 -186.18, -8.82 -194.92, -5.44 -202.4" stroke="#1e1e1e" stroke-width="2.5" fill="none" stroke-dasharray="1.5 6"></path></g></g><mask></mask><g stroke-linecap="round"><g transform="translate(1804.3902936420968 590.4035550035271) rotate(0 0.917349040854333 75.35513018908097)"><path d="M0.89 -0.85 C0.96 24.61, 0.96 126.13, 0.93 151.56" stroke="#1e1e1e" stroke-width="2.5" fill="none" stroke-dasharray="1.5 8"></path></g><g transform="translate(1804.3902936420968 590.4035550035271) rotate(0 0.917349040854333 75.35513018908097)"><path d="M-7.61 128.07 C-6.34 137.73, -3.57 145.44, 0.93 151.56" stroke="#1e1e1e" stroke-width="2.5" fill="none" stroke-dasharray="1.5 6"></path></g><g transform="translate(1804.3902936420968 590.4035550035271) rotate(0 0.917349040854333 75.35513018908097)"><path d="M9.49 128.07 C4.92 137.86, 1.85 145.57, 0.93 151.56" stroke="#1e1e1e" stroke-width="2.5" fill="none" stroke-dasharray="1.5 6"></path></g></g><mask></mask><g stroke-linecap="round" transform="translate(816.751869560655 266.0100104445987) rotate(0 84.60309172232701 44.347600425917335)"><path d="M3.44 8.29 C3.44 8.29, 3.44 8.29, 3.44 8.29 M3.44 8.29 C3.44 8.29, 3.44 8.29, 3.44 8.29 M3.57 20.33 C8.2 16.21, 10.68 10.48, 14.07 8.26 M3.57 20.33 C7.98 15.68, 11.41 11.79, 14.07 8.26 M3.71 32.37 C12.63 23.47, 19.67 15.41, 27.98 4.45 M3.71 32.37 C12.11 23.46, 20 13.54, 27.98 4.45 M3.84 44.41 C11.32 33.07, 22.27 23.53, 38.61 4.41 M3.84 44.41 C15.1 31.62, 27.66 18.23, 38.61 4.41 M3.97 56.45 C21.05 39.14, 34.17 19.75, 48.59 5.13 M3.97 56.45 C16.98 42.58, 28.7 28.02, 48.59 5.13 M0.83 72.27 C15.04 56.78, 28.28 42.52, 59.22 5.1 M0.83 72.27 C15.95 57.51, 28.24 40.11, 59.22 5.1 M4.24 80.54 C28.79 52.64, 54.61 26.48, 69.85 5.07 M4.24 80.54 C21.06 61.18, 35.66 43.84, 69.85 5.07 M9.62 86.54 C26.93 65.76, 44.2 47.73, 80.48 5.03 M9.62 86.54 C30.16 63.71, 51.48 38.55, 80.48 5.03 M18.28 88.77 C42.85 60.39, 69.92 29.51, 91.11 5 M18.28 88.77 C37.81 63.04, 60.07 39.48, 91.11 5 M26.29 91.75 C46.34 67.59, 70.94 42.98, 101.74 4.96 M26.29 91.75 C55.31 57.45, 84.73 24.31, 101.74 4.96 M36.92 91.72 C52.64 71.92, 71.64 51.27, 112.37 4.93 M36.92 91.72 C59.81 64.17, 84.96 35.94, 112.37 4.93 M47.55 91.68 C80.32 56.03, 108.35 23.32, 123 4.89 M47.55 91.68 C63.38 75.51, 77.86 56.78, 123 4.89 M57.52 92.4 C79.68 65.26, 103.95 41.36, 133.63 4.86 M57.52 92.4 C85.27 59.93, 115.36 26.25, 133.63 4.86 M68.15 92.37 C91.2 70.94, 110.5 46.21, 147.54 1.05 M68.15 92.37 C91.88 65.87, 115.15 37.29, 147.54 1.05 M78.78 92.34 C101.84 69.47, 122.59 44.7, 156.85 2.52 M78.78 92.34 C104.94 61.96, 132.46 31.79, 156.85 2.52 M89.41 92.3 C114.75 63.9, 144.12 33.49, 164.2 6.26 M89.41 92.3 C107.23 72.14, 124.55 52.42, 164.2 6.26 M100.04 92.27 C114.43 72.03, 130.92 54.04, 169.59 12.27 M100.04 92.27 C126.5 61.29, 154.24 32.43, 169.59 12.27 M110.67 92.23 C128.01 73.02, 145 55.54, 173 20.53 M110.67 92.23 C126.09 75.9, 140.15 58.36, 173 20.53 M121.3 92.2 C136.14 74.98, 150.6 62.12, 173.13 32.58 M121.3 92.2 C140.53 70.78, 160.17 48.79, 173.13 32.58 M131.93 92.16 C148.16 76.34, 162.05 57.3, 173.27 44.62 M131.93 92.16 C145.1 76.08, 158.76 61.07, 173.27 44.62 M142.56 92.13 C150.83 81.82, 160.06 72.97, 173.4 56.66 M142.56 92.13 C150.87 83.35, 160.54 73.46, 173.4 56.66 M152.54 92.85 C156.99 86.1, 162.37 78.25, 172.88 69.45 M152.54 92.85 C156.91 88.41, 160.81 82.84, 172.88 69.45" stroke="#ffffff" stroke-width="1" fill="none"></path><path d="M22.17 0 C63.32 -0.16, 109.95 0.48, 147.03 0 M147.03 0 C162.72 1.17, 168.57 6.16, 169.21 22.17 M169.21 22.17 C170.58 29.76, 167.71 41, 169.21 66.52 M169.21 66.52 C167.44 80.37, 160.27 89.43, 147.03 88.7 M147.03 88.7 C103.69 87.22, 63.3 87.15, 22.17 88.7 M22.17 88.7 C7.6 89.06, -1.38 81.43, 0 66.52 M0 66.52 C2.07 53.73, 0.5 39.55, 0 22.17 M0 22.17 C1.06 8.01, 5.48 0.83, 22.17 0" stroke="#1e1e1e" stroke-width="2.5" fill="none" stroke-dasharray="8 10"></path></g><g transform="translate(853.9550055334703 297.85761087051606) rotate(0 47.39995574951172 12.5)"><text x="47.39995574951172" y="17.52" font-family="Virgil, Segoe UI Emoji" font-size="20px" fill="#1e1e1e" text-anchor="middle" style="white-space: pre;" direction="ltr" dominant-baseline="alphabetic">shared lib</text></g><g stroke-linecap="round"><g transform="translate(679.221660501732 257.82427550267766) rotate(0 59.90556811341071 32.79839696201884)"><path d="M0.23 -0.68 C8.86 9.55, 30.79 51.03, 50.91 61.46 C71.02 71.9, 109.15 62.16, 120.92 61.93 M-1.11 1.57 C7.42 11.45, 29.56 49.95, 49.8 59.69 C70.05 69.42, 108.28 59.84, 120.36 59.99" stroke="#1e1e1e" stroke-width="2" fill="none"></path></g><g transform="translate(679.221660501732 257.82427550267766) rotate(0 59.90556811341071 32.79839696201884)"><path d="M97.86 70.88 C101.81 67.88, 109.16 66.54, 120.36 59.99 M97.86 70.88 C106.91 66.77, 114.79 62.92, 120.36 59.99" stroke="#1e1e1e" stroke-width="2" fill="none"></path></g><g transform="translate(679.221660501732 257.82427550267766) rotate(0 59.90556811341071 32.79839696201884)"><path d="M96.12 53.87 C100.48 54.72, 108.22 57.24, 120.36 59.99 M96.12 53.87 C105.94 55.96, 114.46 58.3, 120.36 59.99" stroke="#1e1e1e" stroke-width="2" fill="none"></path></g></g><mask></mask><g stroke-linecap="round"><g transform="translate(996.5550345251695 308.65097478312236) rotate(0 201.91920272581274 95.97516877186007)"><path d="M0.21 -1.03 C67.58 31.16, 337.41 160.77, 404.98 192.98 M-1.14 1.04 C66 32.89, 336.27 159.11, 403.98 191.18" stroke="#1e1e1e" stroke-width="2" fill="none"></path></g><g transform="translate(996.5550345251695 308.65097478312236) rotate(0 201.91920272581274 95.97516877186007)"><path d="M379.08 188.93 C386.41 189.55, 398.2 191.39, 403.98 191.18 M379.08 188.93 C385.42 190.24, 392.78 189.41, 403.98 191.18" stroke="#1e1e1e" stroke-width="2" fill="none"></path></g><g transform="translate(996.5550345251695 308.65097478312236) rotate(0 201.91920272581274 95.97516877186007)"><path d="M386.35 173.45 C391.02 179.71, 400.17 187.19, 403.98 191.18 M386.35 173.45 C390.48 179.25, 395.74 182.88, 403.98 191.18" stroke="#1e1e1e" stroke-width="2" fill="none"></path></g></g><mask></mask><g transform="translate(542.3655966589581 14.224360951896415) rotate(0 189.79193115234375 22.5)"><text x="0" y="31.536" font-family="Virgil, Segoe UI Emoji" font-size="36px" fill="#1e1e1e" text-anchor="start" style="white-space: pre;" direction="ltr" dominant-baseline="alphabetic">iOS app and UI layer</text></g><g stroke-linecap="round" transform="translate(542.3655965673715 644.2430411911525) rotate(0 240.05900538162632 144.5179656010755)"><path d="M32 0 C172.36 1.39, 311.25 -0.8, 448.12 0 C468.63 2.75, 482 10.17, 480.12 32 C476.88 116.06, 479.22 204.87, 480.12 257.04 C482.45 277.33, 467.45 286.79, 448.12 289.04 C330.06 293.14, 209.92 292.87, 32 289.04 C9.54 290.38, 3.56 279.73, 0 257.04 C-2.07 184.01, -2.86 116.45, 0 32 C-2.83 10.77, 8.11 3.03, 32 0" stroke="none" stroke-width="0" fill="#b2f2bb"></path><path d="M32 0 C168.94 -0.75, 303.52 0.9, 448.12 0 M32 0 C194.1 1.25, 355.59 1.96, 448.12 0 M448.12 0 C471.07 -1.61, 481.37 10.12, 480.12 32 M448.12 0 C467.23 0.57, 478.44 12.56, 480.12 32 M480.12 32 C481.57 79.9, 482.12 129.88, 480.12 257.04 M480.12 32 C479.7 87.1, 480.44 141.47, 480.12 257.04 M480.12 257.04 C481.45 277.68, 468.44 288.54, 448.12 289.04 M480.12 257.04 C482 278.42, 467.41 288.69, 448.12 289.04 M448.12 289.04 C340.26 287.73, 234.12 288.22, 32 289.04 M448.12 289.04 C349.91 288.78, 251.9 288.29, 32 289.04 M32 289.04 C12.46 290.45, -0.6 277.45, 0 257.04 M32 289.04 C12.44 288.36, -0.29 279.26, 0 257.04 M0 257.04 C2.14 177.98, -0.02 96.22, 0 32 M0 257.04 C1.38 186.81, 1.03 115.49, 0 32 M0 32 C0.64 12.09, 9.45 -1.86, 32 0 M0 32 C-0.62 8.51, 9.27 -1.97, 32 0" stroke="#1e1e1e" stroke-width="2" fill="none"></path></g><g stroke-linecap="round" transform="translate(578.6993752743233 770.8118921446326) rotate(0 128.603091722327 65.14758821888609)"><path d="M32 0 C84.85 -4.03, 138.35 1.91, 225.21 0 C248.42 -0.49, 260.12 9.49, 257.21 32 C256.67 53.8, 258.72 71.16, 257.21 98.3 C255.2 117.38, 246.07 131.73, 225.21 130.3 C156.68 135.92, 85.01 134.65, 32 130.3 C14.23 131.66, 0.42 123.23, 0 98.3 C0.17 77.68, -3.37 57.87, 0 32 C-2.56 13.69, 8.11 -0.43, 32 0" stroke="none" stroke-width="0" fill="#ffffff"></path><path d="M32 0 C86.16 2.98, 144.58 1.65, 225.21 0 M32 0 C75.15 2.06, 119.74 0.74, 225.21 0 M225.21 0 C247.79 -0.55, 255.27 11.17, 257.21 32 M225.21 0 C244.86 1.9, 255.33 12.1, 257.21 32 M257.21 32 C258.24 48.22, 256.14 65.7, 257.21 98.3 M257.21 32 C257.1 58.07, 257.49 82.49, 257.21 98.3 M257.21 98.3 C256.2 119.14, 248.17 130.34, 225.21 130.3 M257.21 98.3 C255.17 119.28, 245.57 128.32, 225.21 130.3 M225.21 130.3 C180.18 131.35, 131.1 129.6, 32 130.3 M225.21 130.3 C171.52 131.27, 120.49 132.25, 32 130.3 M32 130.3 C10.07 129.37, 1.54 119.04, 0 98.3 M32 130.3 C10.37 131.19, 1.3 118.95, 0 98.3 M0 98.3 C-1.3 74.72, -0.33 50.77, 0 32 M0 98.3 C-0.26 75.45, 0.01 54, 0 32 M0 32 C-1.21 8.81, 10.12 -1.88, 32 0 M0 32 C-1.39 8.69, 11.5 0.23, 32 0" stroke="#1e1e1e" stroke-width="2" fill="none"></path></g><g transform="translate(642.9925228438183 823.4594803635187) rotate(0 64.30994415283203 12.5)"><text x="64.30994415283203" y="17.52" font-family="Virgil, Segoe UI Emoji" font-size="20px" fill="#1e1e1e" text-anchor="middle" style="white-space: pre;" direction="ltr" dominant-baseline="alphabetic">Compose/XML</text></g><g stroke-linecap="round" transform="translate(835.318352104599 664.7677678072282) rotate(0 84.60309172232701 44.347600425917335)"><path d="M3.44 8.29 C3.44 8.29, 3.44 8.29, 3.44 8.29 M3.44 8.29 C3.44 8.29, 3.44 8.29, 3.44 8.29 M3.57 20.33 C7.87 17.73, 11.76 11.62, 14.07 8.26 M3.57 20.33 C6.85 17.32, 9.89 13.57, 14.07 8.26 M3.71 32.37 C8.86 22.91, 15.98 15.47, 27.98 4.45 M3.71 32.37 C9.86 25.37, 15.85 19.15, 27.98 4.45 M3.84 44.41 C15.44 34.35, 23.37 23.74, 38.61 4.41 M3.84 44.41 C12.59 34.04, 22.88 23.92, 38.61 4.41 M3.97 56.45 C16.09 43.62, 29.64 30.26, 48.59 5.13 M3.97 56.45 C20.75 36.67, 39.3 16.85, 48.59 5.13 M0.83 72.27 C19.26 49.44, 36.95 30.17, 59.22 5.1 M0.83 72.27 C14.58 57.09, 26.55 43.38, 59.22 5.1 M4.24 80.54 C23.3 58.81, 43.3 35.78, 69.85 5.07 M4.24 80.54 C22.84 57.97, 42.88 35.1, 69.85 5.07 M9.62 86.54 C35.34 60.17, 58.79 32.32, 80.48 5.03 M9.62 86.54 C27.83 67.46, 44.05 47.04, 80.48 5.03 M18.28 88.77 C43.1 59.12, 72.82 26.24, 91.11 5 M18.28 88.77 C38.17 64.45, 58.62 40.86, 91.11 5 M26.29 91.75 C47.98 66.68, 69.52 41.3, 101.74 4.96 M26.29 91.75 C42.5 71.83, 59.9 50.98, 101.74 4.96 M36.92 91.72 C57.3 64.62, 81.7 39.83, 112.37 4.93 M36.92 91.72 C65.69 59.54, 93.7 26.96, 112.37 4.93 M47.55 91.68 C74.11 65.52, 97.53 34.22, 123 4.89 M47.55 91.68 C71.83 63.07, 98.28 34.01, 123 4.89 M57.52 92.4 C73.78 70.51, 92.16 49.61, 133.63 4.86 M57.52 92.4 C78.55 69.78, 97.11 46.48, 133.63 4.86 M68.15 92.37 C89.99 70.17, 106.56 45.42, 147.54 1.05 M68.15 92.37 C93.64 62.53, 120.16 33.57, 147.54 1.05 M78.78 92.34 C96.45 72.36, 116.19 49.07, 156.85 2.52 M78.78 92.34 C104.28 63.02, 131.51 32.19, 156.85 2.52 M89.41 92.3 C113.84 65.72, 134.54 39.96, 164.2 6.26 M89.41 92.3 C107.04 71.4, 124.59 51.93, 164.2 6.26 M100.04 92.27 C113.78 71.43, 130.81 54.12, 169.59 12.27 M100.04 92.27 C117.8 70.46, 137.84 48.68, 169.59 12.27 M110.67 92.23 C133.48 66.84, 156.68 37.19, 173 20.53 M110.67 92.23 C130.51 71.48, 149.65 49.5, 173 20.53 M121.3 92.2 C133.84 79.33, 144.23 66.45, 173.13 32.58 M121.3 92.2 C134 78.73, 146.53 63.59, 173.13 32.58 M131.93 92.16 C148.18 75.36, 164.47 53.6, 173.27 44.62 M131.93 92.16 C141.59 81.13, 152.92 68.45, 173.27 44.62 M142.56 92.13 C152.16 83.06, 159.34 71.01, 173.4 56.66 M142.56 92.13 C150.3 83.89, 157.6 75.04, 173.4 56.66 M152.54 92.85 C157.19 85.39, 167.08 78.99, 172.88 69.45 M152.54 92.85 C160.21 84.35, 167.76 75.75, 172.88 69.45" stroke="#ffffff" stroke-width="1" fill="none"></path><path d="M22.17 0 C65.04 0.95, 109.31 -0.49, 147.03 0 M147.03 0 C162.84 1.62, 167.6 8.64, 169.21 22.17 M169.21 22.17 C167.31 35.91, 167.15 47.58, 169.21 66.52 M169.21 66.52 C168.28 81.6, 160.31 89.63, 147.03 88.7 M147.03 88.7 C114.93 87.58, 80.99 89.3, 22.17 88.7 M22.17 88.7 C8.7 90.03, -0.69 80.3, 0 66.52 M0 66.52 C-2.14 54.01, -1.2 40.38, 0 22.17 M0 22.17 C-1.2 6.49, 7.46 1.38, 22.17 0" stroke="#1e1e1e" stroke-width="2.5" fill="none" stroke-dasharray="8 10"></path></g><g transform="translate(872.5214880774142 696.6153682331455) rotate(0 47.39995574951172 12.5)"><text x="47.39995574951172" y="17.52" font-family="Virgil, Segoe UI Emoji" font-size="20px" fill="#1e1e1e" text-anchor="middle" style="white-space: pre;" direction="ltr" dominant-baseline="alphabetic">shared lib</text></g><g stroke-linecap="round"><g transform="translate(700.3124292103212 753.1191029238171) rotate(0 54.10033918522117 -25.818456414121783)"><path d="M-0.38 0.62 C5.7 -7.12, 18.82 -38.77, 36.98 -47.37 C55.14 -55.97, 96.96 -50.49, 108.58 -50.99 M1.62 -0.11 C7.59 -7.64, 18.78 -38.05, 36.54 -46.34 C54.31 -54.63, 96.58 -49.39, 108.21 -49.85" stroke="#1e1e1e" stroke-width="2" fill="none"></path></g><g transform="translate(700.3124292103212 753.1191029238171) rotate(0 54.10033918522117 -25.818456414121783)"><path d="M84.43 -42.12 C93.61 -43.06, 99.06 -46.05, 108.21 -49.85 M84.43 -42.12 C90.25 -43.46, 96.65 -45.77, 108.21 -49.85" stroke="#1e1e1e" stroke-width="2" fill="none"></path></g><g transform="translate(700.3124292103212 753.1191029238171) rotate(0 54.10033918522117 -25.818456414121783)"><path d="M85.03 -59.22 C93.87 -54.34, 99.12 -51.52, 108.21 -49.85 M85.03 -59.22 C90.52 -55.9, 96.75 -53.55, 108.21 -49.85" stroke="#1e1e1e" stroke-width="2" fill="none"></path></g></g><mask></mask><g transform="translate(548.26545322634 572.3157161335362) rotate(0 223.99191284179688 22.5)"><text x="0" y="31.536" font-family="Virgil, Segoe UI Emoji" font-size="36px" fill="#1e1e1e" text-anchor="start" style="white-space: pre;" direction="ltr" dominant-baseline="alphabetic">Android App and UI layer</text></g><g stroke-linecap="round"><g transform="translate(1011.221660501732 709.8543772108194) rotate(0 195.0101850384467 -75.6571571876164)"><path d="M-0.51 0.96 C64.76 -24.45, 325.45 -127, 390.53 -152.27 M1.43 0.42 C66.61 -24.85, 324.25 -125.55, 389.41 -151.03" stroke="#1e1e1e" stroke-width="2" fill="none"></path></g><g transform="translate(1011.221660501732 709.8543772108194) rotate(0 195.0101850384467 -75.6571571876164)"><path d="M370.64 -134.52 C376.13 -138.42, 377.51 -142.82, 389.41 -151.03 M370.64 -134.52 C378.16 -141.12, 385.07 -147.16, 389.41 -151.03" stroke="#1e1e1e" stroke-width="2" fill="none"></path></g><g transform="translate(1011.221660501732 709.8543772108194) rotate(0 195.0101850384467 -75.6571571876164)"><path d="M364.42 -150.44 C371.23 -151, 373.9 -152.08, 389.41 -151.03 M364.42 -150.44 C374.28 -150.84, 383.6 -150.72, 389.41 -151.03" stroke="#1e1e1e" stroke-width="2" fill="none"></path></g></g><mask></mask></svg>