<svg version="1.1" xmlns="http://www.w3.org/2000/svg" viewBox="0 0 2595.593287101302 1144.2484045209812" width="7786.779861303906" height="3432.7452135629437">
  <!-- svg-source:excalidraw -->
  
  <defs>
    <style class="style-fonts">
      @font-face {
        font-family: "Virgil";
        src: url("https://excalidraw.com/Virgil.woff2");
      }
      @font-face {
        font-family: "Cascadia";
        src: url("https://excalidraw.com/Cascadia.woff2");
      }
      @font-face {
        font-family: "Assistant";
        src: url("https://excalidraw.com/Assistant-Regular.woff2");
      }
    </style>
    
  </defs>
  <rect x="0" y="0" width="2595.593287101302" height="1144.2484045209812" fill="#ffffff"></rect><g stroke-linecap="round" transform="translate(1052.3855064354602 535.7808749311496) rotate(0 733.9836901864537 89.19460188936023)"><path d="M32 0 C574.79 -8.25, 1117.26 -8.52, 1435.97 0 C1454.08 1.34, 1468.2 12.78, 1467.97 32 C1467.53 74.65, 1466.45 119.36, 1467.97 146.39 C1466.82 169.03, 1459.82 176.11, 1435.97 178.39 C1084.54 182.48, 731.06 182.9, 32 178.39 C8.15 179.39, -1.78 165.06, 0 146.39 C-2.4 107.97, -2.87 74.93, 0 32 C2.39 10.03, 12.24 2.32, 32 0" stroke="none" stroke-width="0" fill="#ffec99"></path><path d="M32 0 C541.75 -3.81, 1051.45 -3.75, 1435.97 0 M32 0 C543.55 -1.12, 1054.63 -1.38, 1435.97 0 M1435.97 0 C1458.55 -1.04, 1467.34 12.57, 1467.97 32 M1435.97 0 C1456.04 1.1, 1466.36 11, 1467.97 32 M1467.97 32 C1466.09 54.69, 1469.66 80.27, 1467.97 146.39 M1467.97 32 C1469.26 63.76, 1469.64 93.59, 1467.97 146.39 M1467.97 146.39 C1467.65 168.15, 1457.59 176.99, 1435.97 178.39 M1467.97 146.39 C1468.51 166.96, 1458.14 178.32, 1435.97 178.39 M1435.97 178.39 C1073.46 177.89, 710.3 177.43, 32 178.39 M1435.97 178.39 C1102.78 175.43, 769.4 175.25, 32 178.39 M32 178.39 C11.49 178.93, 0.29 166.73, 0 146.39 M32 178.39 C11.03 179.07, 0.81 166.85, 0 146.39 M0 146.39 C-1.12 104.14, 1.15 61.81, 0 32 M0 146.39 C-0.25 115.86, -0.87 85.86, 0 32 M0 32 C1.92 10.51, 10.28 -1.73, 32 0 M0 32 C1.02 8.77, 11.1 0.08, 32 0" stroke="#1e1e1e" stroke-width="2" fill="none"></path></g><g stroke-linecap="round" transform="translate(996.2750810255488 88.01247637058844) rotate(0 794.6591030378765 523.1179640751964)"><path d="M32 0 C451.83 -3.08, 872.48 -2.41, 1557.32 0 M32 0 C591.06 -4.34, 1149.08 -4.22, 1557.32 0 M1557.32 0 C1578.31 1.65, 1588.9 9.95, 1589.32 32 M1557.32 0 C1577.12 0.07, 1587.1 11.68, 1589.32 32 M1589.32 32 C1587.2 306.45, 1586.93 581.92, 1589.32 1014.24 M1589.32 32 C1587.8 288.76, 1587.62 546.35, 1589.32 1014.24 M1589.32 1014.24 C1590.35 1035.61, 1579.19 1046.48, 1557.32 1046.24 M1589.32 1014.24 C1591.43 1035.5, 1579.86 1046.17, 1557.32 1046.24 M1557.32 1046.24 C1124.39 1047.62, 691.14 1047.83, 32 1046.24 M1557.32 1046.24 C1158.93 1051.92, 760.32 1051.98, 32 1046.24 M32 1046.24 C11.43 1046.98, -1.97 1036.45, 0 1014.24 M32 1046.24 C11.02 1047.65, 0.27 1037.86, 0 1014.24 M0 1014.24 C-3.25 790.38, -3.9 567.1, 0 32 M0 1014.24 C0.11 643.43, -0.05 273.35, 0 32 M0 32 C0.36 10.07, 10.52 0.19, 32 0 M0 32 C-0.79 8.53, 10.1 -2.03, 32 0" stroke="#1e1e1e" stroke-width="2" fill="none"></path></g><g stroke-linecap="round" transform="translate(1062.2779024440988 806.3723621230981) rotate(0 737.6657830896579 136.3322710700811)"><path d="M32 0 C373.1 10.94, 715.72 10, 1443.33 0 C1463.68 1.77, 1478.54 10.04, 1475.33 32 C1474.17 103.92, 1473.32 166.42, 1475.33 240.66 C1474.06 261.49, 1463.6 273.16, 1443.33 272.66 C881.98 269.44, 319.06 268.62, 32 272.66 C13.75 270.67, 2.07 265.38, 0 240.66 C-1.18 165.11, -2.98 89.17, 0 32 C-0.75 10.78, 8.34 2.05, 32 0" stroke="none" stroke-width="0" fill="#b2f2bb"></path><path d="M32 0 C347.65 -1.1, 663.95 -0.31, 1443.33 0 M32 0 C343.12 4.02, 655.03 3.95, 1443.33 0 M1443.33 0 C1464.42 0.24, 1473.66 8.95, 1475.33 32 M1443.33 0 C1463.32 1.27, 1476.85 9.52, 1475.33 32 M1475.33 32 C1474.81 100.27, 1474.07 172.13, 1475.33 240.66 M1475.33 32 C1475.48 77.45, 1476.35 123.07, 1475.33 240.66 M1475.33 240.66 C1474.85 262.13, 1463.8 273.83, 1443.33 272.66 M1475.33 240.66 C1474.29 260.16, 1466.52 272.15, 1443.33 272.66 M1443.33 272.66 C1158.49 277.12, 873 276.76, 32 272.66 M1443.33 272.66 C963.24 276.21, 483.4 276.59, 32 272.66 M32 272.66 C11.82 274.59, 1.54 262.97, 0 240.66 M32 272.66 C12.72 273.86, 2.03 260.64, 0 240.66 M0 240.66 C0.79 190.81, -0.03 143.01, 0 32 M0 240.66 C0.18 197.53, 1.18 154.13, 0 32 M0 32 C-0.57 9.82, 10.57 0.45, 32 0 M0 32 C0.85 8.56, 11.64 -0.53, 32 0" stroke="#1e1e1e" stroke-width="2" fill="none"></path></g><g stroke-linecap="round" transform="translate(1053.0184138960199 162.5268275137928) rotate(0 730.8014778646241 128.2595188301826)"><path d="M32 0 C402.55 -11.38, 772.89 -8.66, 1429.6 0 C1448.73 -1.4, 1462.85 10.41, 1461.6 32 C1456.66 112.15, 1463.56 188.07, 1461.6 224.52 C1460.87 242.42, 1447.35 253.95, 1429.6 256.52 C1134.12 264.53, 838.46 264.14, 32 256.52 C9.82 259.67, -2.89 244.32, 0 224.52 C0.43 159.58, 0.57 89.78, 0 32 C-0.01 11.51, 13.49 -0.15, 32 0" stroke="none" stroke-width="0" fill="#a5d8ff"></path><path d="M32 0 C363.23 1.17, 694.35 0.3, 1429.6 0 M32 0 C554.11 -2.51, 1076.19 -2.25, 1429.6 0 M1429.6 0 C1450.03 -1.93, 1460.83 8.72, 1461.6 32 M1429.6 0 C1450.12 -1.2, 1463.31 9.32, 1461.6 32 M1461.6 32 C1460.34 81.71, 1460.11 134.42, 1461.6 224.52 M1461.6 32 C1461.18 85.9, 1461.34 141.85, 1461.6 224.52 M1461.6 224.52 C1461.16 244.81, 1449.19 257.48, 1429.6 256.52 M1461.6 224.52 C1460.87 244.07, 1452 254.81, 1429.6 256.52 M1429.6 256.52 C941.62 260.75, 452.83 261.03, 32 256.52 M1429.6 256.52 C992.94 252.79, 555.43 252.65, 32 256.52 M32 256.52 C9.85 256.12, 1.07 245.07, 0 224.52 M32 256.52 C8.43 258.41, 1.82 244.09, 0 224.52 M0 224.52 C-0.61 150.07, 1.88 75.86, 0 32 M0 224.52 C2.03 165.88, 1.87 106.4, 0 32 M0 32 C-0.22 11.54, 12.31 1.2, 32 0 M0 32 C0.77 10.95, 12.14 -0.56, 32 0" stroke="#1e1e1e" stroke-width="2" fill="none"></path></g><g transform="translate(1017.8745340508376 10) rotate(0 237.05990600585938 22.5)"><text x="0" y="31.536" font-family="Virgil, Segoe UI Emoji" font-size="36px" fill="#1e1e1e" text-anchor="start" style="white-space: pre;" direction="ltr" dominant-baseline="alphabetic">Compose App (KMP Module)</text></g><g stroke-linecap="round" transform="translate(1399.876615858791 582.9713980101128) rotate(0 110.60306120474888 49.14760347767515)"><path d="M24.57 0 C83.96 2.51, 143.36 2.32, 196.63 0 C214.75 -0.24, 223.87 7.28, 221.21 24.57 C223.65 37.83, 224.64 47.79, 221.21 73.72 C218.99 89.2, 209.72 98.56, 196.63 98.3 C148.2 98.69, 105.56 101.73, 24.57 98.3 C10.12 99.65, -1.27 92.5, 0 73.72 C-2.9 62.93, 2.27 48.99, 0 24.57 C-0.96 5.71, 6.76 0.41, 24.57 0" stroke="none" stroke-width="0" fill="#ffffff"></path><path d="M24.57 0 C77.18 2.51, 129.05 2.69, 196.63 0 M24.57 0 C74.86 1.11, 123.54 0.67, 196.63 0 M196.63 0 C213.49 0.13, 219.85 7.03, 221.21 24.57 M196.63 0 C214.45 -1.2, 220.48 10.38, 221.21 24.57 M221.21 24.57 C221.73 34.8, 221.27 48.99, 221.21 73.72 M221.21 24.57 C221.14 34.67, 221.62 45.13, 221.21 73.72 M221.21 73.72 C222.17 91.35, 214.73 96.91, 196.63 98.3 M221.21 73.72 C220.84 90.59, 213.35 96.69, 196.63 98.3 M196.63 98.3 C140.87 98.1, 85.07 98.52, 24.57 98.3 M196.63 98.3 C132.22 98.84, 68.09 98.89, 24.57 98.3 M24.57 98.3 C7.86 99.89, -1.59 90.82, 0 73.72 M24.57 98.3 C9.14 98.91, 0.33 88.96, 0 73.72 M0 73.72 C-0.9 59.74, -0.84 43.96, 0 24.57 M0 73.72 C0.61 62.36, 0.59 52.45, 0 24.57 M0 24.57 C1.34 8.09, 8.3 0.84, 24.57 0 M0 24.57 C2.21 8.01, 7.75 -1.98, 24.57 0" stroke="#1e1e1e" stroke-width="2" fill="none"></path></g><g transform="translate(1502.6096895757469 619.619001487788) rotate(0 7.869987487792969 12.5)"><text x="7.869987487792969" y="17.52" font-family="Virgil, Segoe UI Emoji" font-size="20px" fill="#1e1e1e" text-anchor="middle" style="white-space: pre;" direction="ltr" dominant-baseline="alphabetic">ui</text></g><g stroke-linecap="round" transform="translate(1695.8112551658105 583.4629300827478) rotate(0 110.60306120474888 49.14760347767515)"><path d="M24.57 0 C92.73 -0.71, 152.34 1.54, 196.63 0 C213.24 2.11, 224.11 11.3, 221.21 24.57 C217.37 43.02, 219.52 62.26, 221.21 73.72 C223.73 87.82, 211.25 99.53, 196.63 98.3 C137.71 101.86, 78.81 100.46, 24.57 98.3 C6.41 95.64, 0.51 92.62, 0 73.72 C-1.2 62.29, 2.63 49.4, 0 24.57 C1.57 10.51, 10.43 1.65, 24.57 0" stroke="none" stroke-width="0" fill="#ffffff"></path><path d="M24.57 0 C88.13 0.26, 154.04 -2.14, 196.63 0 M24.57 0 C79.02 -0.69, 135.45 -0.63, 196.63 0 M196.63 0 C212.39 1.9, 220.11 9.15, 221.21 24.57 M196.63 0 C211.41 0.33, 219.11 7.99, 221.21 24.57 M221.21 24.57 C222.56 40.58, 220.21 57.07, 221.21 73.72 M221.21 24.57 C222.3 37.7, 221.28 52.43, 221.21 73.72 M221.21 73.72 C221.49 88.71, 213.49 97.63, 196.63 98.3 M221.21 73.72 C222.05 90.03, 212.06 98.12, 196.63 98.3 M196.63 98.3 C149.83 100.05, 99.04 101.03, 24.57 98.3 M196.63 98.3 C154.26 100.02, 113.9 99.93, 24.57 98.3 M24.57 98.3 C8.48 97.3, 0.32 90.7, 0 73.72 M24.57 98.3 C9 97.42, 1.77 89.31, 0 73.72 M0 73.72 C1.13 57.46, -0.3 39.51, 0 24.57 M0 73.72 C-0.28 55.57, 0.63 36.51, 0 24.57 M0 24.57 C-0.39 6.47, 9.08 -1.65, 24.57 0 M0 24.57 C0.44 8.27, 10.17 0.17, 24.57 0" stroke="#1e1e1e" stroke-width="2" fill="none"></path></g><g transform="translate(1760.4443609262235 620.1105335604229) rotate(0 45.96995544433594 12.5)"><text x="45.96995544433594" y="17.52" font-family="Virgil, Segoe UI Emoji" font-size="20px" fill="#1e1e1e" text-anchor="middle" style="white-space: pre;" direction="ltr" dominant-baseline="alphabetic">viewModel</text></g><g stroke-linecap="round" transform="translate(1984.349671464137 586.0126951800404) rotate(0 110.60306120474888 49.147603477675176)"><path d="M24.57 0 C72.08 0.96, 122.02 1.96, 196.63 0 C215.54 -2.22, 220.31 4.9, 221.21 24.57 C223.45 37.39, 219.16 56.01, 221.21 73.72 C222.47 92.03, 214.37 97.03, 196.63 98.3 C131.76 96.5, 70.96 101.67, 24.57 98.3 C6.06 97.34, -2.48 88.67, 0 73.72 C0.98 60.74, 1.65 44.77, 0 24.57 C-3.11 5.63, 5.15 2.76, 24.57 0" stroke="none" stroke-width="0" fill="#ffffff"></path><path d="M24.57 0 C83.59 1.84, 141.91 0.01, 196.63 0 M24.57 0 C65.86 1.84, 107.22 1.37, 196.63 0 M196.63 0 C211.62 0.29, 219.39 8.02, 221.21 24.57 M196.63 0 C213.39 -2.05, 219.82 10.25, 221.21 24.57 M221.21 24.57 C220.69 41.43, 222.31 58.08, 221.21 73.72 M221.21 24.57 C221.27 35.23, 221.36 46.94, 221.21 73.72 M221.21 73.72 C221.94 90.04, 212.19 98.14, 196.63 98.3 M221.21 73.72 C220.75 91.84, 214.81 99.87, 196.63 98.3 M196.63 98.3 C140.28 99.17, 87.86 97.9, 24.57 98.3 M196.63 98.3 C139.03 98.26, 81.3 99.05, 24.57 98.3 M24.57 98.3 C8.89 97.54, 1.54 89.41, 0 73.72 M24.57 98.3 C9.67 96.55, 0.99 90.98, 0 73.72 M0 73.72 C1.72 56.28, 0.06 36.26, 0 24.57 M0 73.72 C-0.66 56.06, -0.03 39.3, 0 24.57 M0 24.57 C0.38 8.26, 9.91 0.15, 24.57 0 M0 24.57 C1.85 9.3, 8.04 1.7, 24.57 0" stroke="#1e1e1e" stroke-width="2" fill="none"></path></g><g transform="translate(2046.9127927885147 622.6602986577155) rotate(0 48.039939880371094 12.5)"><text x="48.039939880371094" y="17.52" font-family="Virgil, Segoe UI Emoji" font-size="20px" fill="#1e1e1e" text-anchor="middle" style="white-space: pre;" direction="ltr" dominant-baseline="alphabetic">repository</text></g><g stroke-linecap="round" transform="translate(2257.715429260523 582.7305219815404) rotate(0 110.60306120474888 49.147603477675176)"><path d="M24.57 0 C60.81 -1.38, 96.56 -4.92, 196.63 0 C216.02 3.01, 220.75 7.34, 221.21 24.57 C222.66 40.79, 223.4 61.3, 221.21 73.72 C222.06 89.53, 211.25 98.89, 196.63 98.3 C140.07 100.79, 82.12 97.52, 24.57 98.3 C7.5 95.13, -0.77 90.83, 0 73.72 C2.13 58.5, 1.32 42.58, 0 24.57 C-1.5 8.64, 9.05 -3.19, 24.57 0" stroke="none" stroke-width="0" fill="#ffffff"></path><path d="M24.57 0 C61.14 1.09, 94.84 1.46, 196.63 0 M24.57 0 C87.17 0.14, 150.71 0.89, 196.63 0 M196.63 0 C211.66 1.81, 222.47 6.38, 221.21 24.57 M196.63 0 C210.91 0.85, 220.38 6.66, 221.21 24.57 M221.21 24.57 C220.04 37.08, 219.31 46.22, 221.21 73.72 M221.21 24.57 C221.52 35.74, 221.51 45.9, 221.21 73.72 M221.21 73.72 C219.29 88.92, 212.7 97.5, 196.63 98.3 M221.21 73.72 C219.92 90.64, 211.87 98.64, 196.63 98.3 M196.63 98.3 C161.16 98.26, 124.89 96.09, 24.57 98.3 M196.63 98.3 C159.39 98.41, 122.78 99.68, 24.57 98.3 M24.57 98.3 C8.78 98.72, -1.17 91.15, 0 73.72 M24.57 98.3 C7.46 100.38, -1.73 88.23, 0 73.72 M0 73.72 C0.34 58.77, 0.18 45.3, 0 24.57 M0 73.72 C-0.81 56.03, -0.17 39.17, 0 24.57 M0 24.57 C0.56 6.34, 6.51 -1.33, 24.57 0 M0 24.57 C1.87 9.35, 9.74 -2.12, 24.57 0" stroke="#1e1e1e" stroke-width="2" fill="none"></path></g><g transform="translate(2307.1985411244514 619.3781254592155) rotate(0 61.11994934082031 12.5)"><text x="61.11994934082031" y="17.52" font-family="Virgil, Segoe UI Emoji" font-size="20px" fill="#1e1e1e" text-anchor="middle" style="white-space: pre;" direction="ltr" dominant-baseline="alphabetic">data source</text></g><g transform="translate(1100.7334442008691 609.4232182029846) rotate(0 98.31597137451172 22.5)"><text x="0" y="31.536" font-family="Virgil, Segoe UI Emoji" font-size="36px" fill="#1e1e1e" text-anchor="start" style="white-space: pre;" direction="ltr" dominant-baseline="alphabetic">commonMain</text></g><g stroke-linecap="round"><g transform="translate(900.9028039269747 880.062056550426) rotate(0 94.20475901243412 9.271977037953206)"><path d="M0.47 0.66 C16.84 1.12, 65.77 -0.03, 97.03 3.03 C128.29 6.09, 172.84 16.64, 188.04 19.04 M-0.74 -0.05 C15.6 0.57, 64.95 1.55, 96.26 4.39 C127.56 7.22, 171.73 14.7, 187.08 16.95" stroke="#1e1e1e" stroke-width="2" fill="none"></path></g><g transform="translate(900.9028039269747 880.062056550426) rotate(0 94.20475901243412 9.271977037953206)"><path d="M162.56 21.81 C168.64 21.27, 171.96 19.12, 187.08 16.95 M162.56 21.81 C171.1 20.46, 178.61 18.43, 187.08 16.95" stroke="#1e1e1e" stroke-width="2" fill="none"></path></g><g transform="translate(900.9028039269747 880.062056550426) rotate(0 94.20475901243412 9.271977037953206)"><path d="M165.18 4.91 C170.76 7.83, 173.55 9.12, 187.08 16.95 M165.18 4.91 C172.8 9.3, 179.41 13.03, 187.08 16.95" stroke="#1e1e1e" stroke-width="2" fill="none"></path></g></g><mask></mask><g transform="translate(464.7747778182056 856.015980102323) rotate(0 207.08993530273438 22.5)"><text x="0" y="31.536" font-family="Virgil, Segoe UI Emoji" font-size="36px" fill="#1e1e1e" text-anchor="start" style="white-space: pre;" direction="ltr" dominant-baseline="alphabetic">Entry Point for Android</text></g><g transform="translate(10 241.63373055208007) rotate(0 172.69195556640625 22.5)"><text x="0" y="31.536" font-family="Virgil, Segoe UI Emoji" font-size="36px" fill="#1e1e1e" text-anchor="start" style="white-space: pre;" direction="ltr" dominant-baseline="alphabetic">Entry Point for iOS</text></g><g stroke-linecap="round"><g transform="translate(375.4231887570286 264.35291285827367) rotate(0 41.45392312223544 2.0068981246985373)"><path d="M-0.45 -0.63 C13.4 0.34, 69.9 4.27, 83.74 5.12 M1.51 1.65 C15.23 2.38, 69.87 3.46, 83.23 3.58" stroke="#1e1e1e" stroke-width="2" fill="none"></path></g><g transform="translate(375.4231887570286 264.35291285827367) rotate(0 41.45392312223544 2.0068981246985373)"><path d="M59.6 11.76 C66.92 10.35, 78.13 5.52, 83.23 3.58 M59.6 11.76 C67.6 9.06, 76.3 6.74, 83.23 3.58" stroke="#1e1e1e" stroke-width="2" fill="none"></path></g><g transform="translate(375.4231887570286 264.35291285827367) rotate(0 41.45392312223544 2.0068981246985373)"><path d="M59.87 -5.34 C66.98 -0.73, 78.1 0.46, 83.23 3.58 M59.87 -5.34 C67.7 -2.29, 76.31 1.13, 83.23 3.58" stroke="#1e1e1e" stroke-width="2" fill="none"></path></g></g><mask></mask><g stroke-linecap="round"><g transform="translate(967.8642164909652 316.06039806065735) rotate(0 56.28105724540296 -5.329342017060085)"><path d="M0.8 -0.35 C19.39 -1.94, 93.23 -8.64, 111.67 -10.49 M-0.23 -1.57 C18.71 -2.87, 94.92 -7.36, 113.91 -8.87" stroke="#1e1e1e" stroke-width="2" fill="none"></path></g><g transform="translate(967.8642164909652 316.06039806065735) rotate(0 56.28105724540296 -5.329342017060085)"><path d="M91.05 1.25 C97.69 -3.56, 105.68 -7.11, 113.91 -8.87 M91.05 1.25 C96.59 -0.16, 101.22 -2.76, 113.91 -8.87" stroke="#1e1e1e" stroke-width="2" fill="none"></path></g><g transform="translate(967.8642164909652 316.06039806065735) rotate(0 56.28105724540296 -5.329342017060085)"><path d="M89.89 -15.81 C96.77 -15.3, 105.12 -13.52, 113.91 -8.87 M89.89 -15.81 C95.67 -13.28, 100.56 -11.96, 113.91 -8.87" stroke="#1e1e1e" stroke-width="2" fill="none"></path></g></g><mask></mask><g stroke-linecap="round"><g transform="translate(1631.424207601162 637.7983318421034) rotate(0 30.992008402572992 -0.9575895499298213)"><path d="M-0.96 -1.03 C9.49 -1.33, 52.06 -2.29, 62.48 -2.46 M0.74 1.05 C11.09 0.95, 51.82 -0.9, 61.79 -1.21" stroke="#1e1e1e" stroke-width="2" fill="none"></path></g><g transform="translate(1631.424207601162 637.7983318421034) rotate(0 30.992008402572992 -0.9575895499298213)"><path d="M38.65 8.25 C43.53 6.59, 50.86 2.37, 61.79 -1.21 M38.65 8.25 C44.92 5.22, 51.58 2.15, 61.79 -1.21" stroke="#1e1e1e" stroke-width="2" fill="none"></path></g><g transform="translate(1631.424207601162 637.7983318421034) rotate(0 30.992008402572992 -0.9575895499298213)"><path d="M37.99 -8.84 C42.96 -5.67, 50.49 -5.06, 61.79 -1.21 M37.99 -8.84 C44.48 -6.95, 51.34 -5.1, 61.79 -1.21" stroke="#1e1e1e" stroke-width="2" fill="none"></path></g></g><mask></mask><g stroke-linecap="round"><g transform="translate(1929.5178716218902 636.0567290007074) rotate(0 25.34163321788037 -0.8490356378252102)"><path d="M0.26 -0.77 C8.57 -0.93, 41.93 -1.14, 50.51 -1.24 M-1.06 1.44 C7.02 0.93, 40.71 -2.29, 49.47 -3.12" stroke="#1e1e1e" stroke-width="2" fill="none"></path></g><g transform="translate(1929.5178716218902 636.0567290007074) rotate(0 25.34163321788037 -0.8490356378252102)"><path d="M26.88 7.61 C33.6 3.48, 43.63 1.72, 49.47 -3.12 M26.88 7.61 C33.52 5.07, 41.93 -0.31, 49.47 -3.12" stroke="#1e1e1e" stroke-width="2" fill="none"></path></g><g transform="translate(1929.5178716218902 636.0567290007074) rotate(0 25.34163321788037 -0.8490356378252102)"><path d="M25.27 -9.42 C32.52 -7.54, 43.12 -3.29, 49.47 -3.12 M25.27 -9.42 C32.35 -6.36, 41.29 -6.15, 49.47 -3.12" stroke="#1e1e1e" stroke-width="2" fill="none"></path></g></g><mask></mask><g stroke-linecap="round"><g transform="translate(2211.7509968747 632.7199473364274) rotate(0 19.905728019938124 -0.8775854681823603)"><path d="M-0.4 -0.13 C6.14 -0.47, 32.83 -2.06, 39.53 -2.29 M0.39 -0.67 C7.09 -0.95, 34.12 -1.57, 40.62 -1.87" stroke="#1e1e1e" stroke-width="2" fill="none"></path></g><g transform="translate(2211.7509968747 632.7199473364274) rotate(0 19.905728019938124 -0.8775854681823603)"><path d="M22.13 5.55 C28.31 2.55, 33.97 0.43, 40.62 -1.87 M22.13 5.55 C29.01 2.82, 34.66 0.45, 40.62 -1.87" stroke="#1e1e1e" stroke-width="2" fill="none"></path></g><g transform="translate(2211.7509968747 632.7199473364274) rotate(0 19.905728019938124 -0.8775854681823603)"><path d="M21.69 -8.07 C27.99 -6.36, 33.81 -3.77, 40.62 -1.87 M21.69 -8.07 C28.75 -6.05, 34.56 -3.66, 40.62 -1.87" stroke="#1e1e1e" stroke-width="2" fill="none"></path></g></g><mask></mask><g stroke-linecap="round"><g transform="translate(1324.201172932832 834.2657990907321) rotate(0 40.91664836695713 -72.7982477625963)"><path d="M-0.6 -0.64 C13.05 -24.73, 68.1 -120.71, 81.85 -145.01 M1.28 1.64 C14.78 -22.76, 67.6 -122.29, 80.91 -146.83" stroke="#1e1e1e" stroke-width="2" fill="none"></path></g><g transform="translate(1324.201172932832 834.2657990907321) rotate(0 40.91664836695713 -72.7982477625963)"><path d="M77.35 -122.09 C77.44 -129.39, 80.54 -136.67, 80.91 -146.83 M77.35 -122.09 C77.51 -128.39, 79.22 -132.84, 80.91 -146.83" stroke="#1e1e1e" stroke-width="2" fill="none"></path></g><g transform="translate(1324.201172932832 834.2657990907321) rotate(0 40.91664836695713 -72.7982477625963)"><path d="M62.28 -130.17 C66.81 -135, 74.39 -139.87, 80.91 -146.83 M62.28 -130.17 C65.82 -134.51, 70.96 -137.11, 80.91 -146.83" stroke="#1e1e1e" stroke-width="2" fill="none"></path></g></g><mask></mask><g stroke-linecap="round"><g transform="translate(1231.0297611792412 377.47673075134156) rotate(0 81.54428075318401 95.5251718731586)"><path d="M-0.85 -1.02 C26.31 30.64, 135.71 158.82, 162.84 191.02 M0.9 1.06 C27.89 33.44, 134.54 160.98, 161.76 192.55" stroke="#1e1e1e" stroke-width="2" fill="none"></path></g><g transform="translate(1231.0297611792412 377.47673075134156) rotate(0 81.54428075318401 95.5251718731586)"><path d="M140.05 180.15 C144.79 183.51, 152.79 185.6, 161.76 192.55 M140.05 180.15 C148.77 184.72, 157.53 190.88, 161.76 192.55" stroke="#1e1e1e" stroke-width="2" fill="none"></path></g><g transform="translate(1231.0297611792412 377.47673075134156) rotate(0 81.54428075318401 95.5251718731586)"><path d="M153.1 169.1 C154.13 175.59, 158.32 180.91, 161.76 192.55 M153.1 169.1 C156.62 178.11, 160.19 188.66, 161.76 192.55" stroke="#1e1e1e" stroke-width="2" fill="none"></path></g></g><mask></mask><g stroke-linecap="round"><g transform="translate(1791.4960885298697 580.8373752060929) rotate(0 -0.48330936746060615 -101.18950556404147)"><path d="M0.55 0.99 C0.51 -32.74, 0.44 -168.49, 0.12 -202.49 M-0.61 0.47 C-0.76 -33.07, 0.03 -167.27, -0.25 -201.02" stroke="#1e1e1e" stroke-width="2" fill="none"></path></g><g transform="translate(1791.4960885298697 580.8373752060929) rotate(0 -0.48330936746060615 -101.18950556404147)"><path d="M8.31 -177.53 C7.11 -183.53, 2.4 -193.83, -0.25 -201.02 M8.31 -177.53 C7.16 -183.69, 5.02 -189.64, -0.25 -201.02" stroke="#1e1e1e" stroke-width="2" fill="none"></path></g><g transform="translate(1791.4960885298697 580.8373752060929) rotate(0 -0.48330936746060615 -101.18950556404147)"><path d="M-8.79 -177.52 C-4.26 -183.61, -3.25 -193.9, -0.25 -201.02 M-8.79 -177.52 C-5.7 -183.73, -3.6 -189.67, -0.25 -201.02" stroke="#1e1e1e" stroke-width="2" fill="none"></path></g></g><mask></mask><g stroke-linecap="round"><g transform="translate(1797.5363616379427 690.6208104993555) rotate(0 1.2289972077915081 71.20357536466935)"><path d="M0.91 0.33 C1.53 23.81, 3.29 117.66, 3.43 141.22 M-0.07 -0.54 C0.49 23.01, 2.26 118.27, 2.99 142.14" stroke="#1e1e1e" stroke-width="2" fill="none"></path></g><g transform="translate(1797.5363616379427 690.6208104993555) rotate(0 1.2289972077915081 71.20357536466935)"><path d="M-6.12 118.85 C-2.96 126.9, -2.94 130.62, 2.99 142.14 M-6.12 118.85 C-3.52 124.05, -0.87 130.98, 2.99 142.14" stroke="#1e1e1e" stroke-width="2" fill="none"></path></g><g transform="translate(1797.5363616379427 690.6208104993555) rotate(0 1.2289972077915081 71.20357536466935)"><path d="M10.98 118.45 C9.37 126.74, 4.6 130.57, 2.99 142.14 M10.98 118.45 C9.42 123.91, 7.91 130.94, 2.99 142.14" stroke="#1e1e1e" stroke-width="2" fill="none"></path></g></g><mask></mask><g stroke-linecap="round"><g transform="translate(2367.4856644878373 580.2725505467843) rotate(0 -3.4510530635006944 -94.17662796853827)"><path d="M-0.74 -0.04 C-1.84 -31.37, -5.24 -155.83, -6.3 -187.4 M1.07 -1.11 C-0.17 -32.81, -5.43 -157.75, -6.93 -189.02" stroke="#1e1e1e" stroke-width="2" fill="none"></path></g><g transform="translate(2367.4856644878373 580.2725505467843) rotate(0 -3.4510530635006944 -94.17662796853827)"><path d="M2.66 -165.93 C-0.64 -172.5, -2.1 -181.29, -6.93 -189.02 M2.66 -165.93 C-0.46 -171.3, -2.38 -176.28, -6.93 -189.02" stroke="#1e1e1e" stroke-width="2" fill="none"></path></g><g transform="translate(2367.4856644878373 580.2725505467843) rotate(0 -3.4510530635006944 -94.17662796853827)"><path d="M-14.43 -165.17 C-12.17 -171.88, -8.06 -180.92, -6.93 -189.02 M-14.43 -165.17 C-14.03 -170.66, -12.41 -175.8, -6.93 -189.02" stroke="#1e1e1e" stroke-width="2" fill="none"></path></g></g><mask></mask><g stroke-linecap="round"><g transform="translate(2366.2487295411156 687.9510963885516) rotate(0 2.575669014579489 71.24027918750875)"><path d="M1.2 0.37 C2.34 24.03, 5.58 118.49, 6.34 142.2 M0.37 -0.48 C1.5 23.33, 5.19 119.5, 6.01 143.59" stroke="#1e1e1e" stroke-width="2" fill="none"></path></g><g transform="translate(2366.2487295411156 687.9510963885516) rotate(0 2.575669014579489 71.24027918750875)"><path d="M-3.4 120.42 C-0.3 128.29, 1.04 133.3, 6.01 143.59 M-3.4 120.42 C-0.17 127.44, 2.6 134.33, 6.01 143.59" stroke="#1e1e1e" stroke-width="2" fill="none"></path></g><g transform="translate(2366.2487295411156 687.9510963885516) rotate(0 2.575669014579489 71.24027918750875)"><path d="M13.69 119.8 C12.38 127.99, 9.31 133.17, 6.01 143.59 M13.69 119.8 C11.59 127.1, 9.02 134.19, 6.01 143.59" stroke="#1e1e1e" stroke-width="2" fill="none"></path></g></g><mask></mask><g transform="translate(1133.2989295657812 189.64412660834046) rotate(0 64.92596435546875 22.5)"><text x="0" y="31.536" font-family="Virgil, Segoe UI Emoji" font-size="36px" fill="#1e1e1e" text-anchor="start" style="white-space: pre;" direction="ltr" dominant-baseline="alphabetic">iOsMain</text></g><g transform="translate(1115.7323689598015 1003.1851454395885) rotate(0 100.49396514892578 22.5)"><text x="0" y="31.536" font-family="Virgil, Segoe UI Emoji" font-size="36px" fill="#1e1e1e" text-anchor="start" style="white-space: pre;" direction="ltr" dominant-baseline="alphabetic">AndroidMain</text></g><g stroke-linecap="round" transform="translate(1682.6420040722774 854.1135254610524) rotate(0 110.60306120474888 49.14760347767515)"><path d="M24.57 0 C80.82 1.96, 133.29 3.6, 196.63 0 C213.18 -2.62, 221.51 7.87, 221.21 24.57 C218.48 42.29, 220.7 56.98, 221.21 73.72 C217.66 93.39, 211.47 95.92, 196.63 98.3 C155.93 95.93, 116.64 95.19, 24.57 98.3 C9.77 99.8, -0.71 92.79, 0 73.72 C1.21 61.09, 2.36 42.91, 0 24.57 C3.23 10.11, 6.38 0.26, 24.57 0" stroke="none" stroke-width="0" fill="#ffffff"></path><path d="M24.57 0 C78.05 -0.79, 133.48 -1.82, 196.63 0 M24.57 0 C72.65 -0.2, 120.72 0.37, 196.63 0 M196.63 0 C214.23 -1.56, 222.11 6.26, 221.21 24.57 M196.63 0 C211.65 0.36, 223 10.27, 221.21 24.57 M221.21 24.57 C222.92 44.54, 220.45 63.09, 221.21 73.72 M221.21 24.57 C220.51 44.77, 220.75 63.15, 221.21 73.72 M221.21 73.72 C222.12 89.89, 214.84 98.44, 196.63 98.3 M221.21 73.72 C221.4 89.29, 212.1 97.27, 196.63 98.3 M196.63 98.3 C157.14 97.19, 117.66 99.49, 24.57 98.3 M196.63 98.3 C141.06 96.79, 86.3 96.4, 24.57 98.3 M24.57 98.3 C7.15 96.9, 0.39 91.51, 0 73.72 M24.57 98.3 C7.71 98.3, 0.05 88.9, 0 73.72 M0 73.72 C-2.27 62.25, -2.24 51.44, 0 24.57 M0 73.72 C0.09 64.08, 0.99 52.73, 0 24.57 M0 24.57 C1.97 8.78, 9.85 1.74, 24.57 0 M0 24.57 C2.05 6.27, 7.77 1.19, 24.57 0" stroke="#1e1e1e" stroke-width="2" fill="none"></path></g><g transform="translate(1709.785142486499 890.7611289387276) rotate(0 83.45992279052734 12.5)"><text x="83.45992279052734" y="17.52" font-family="Virgil, Segoe UI Emoji" font-size="20px" fill="#1e1e1e" text-anchor="middle" style="white-space: pre;" direction="ltr" dominant-baseline="alphabetic">viewModel.android</text></g><g stroke-linecap="round" transform="translate(1679.2141661724772 263.45673864978096) rotate(0 110.60306120474888 49.14760347767515)"><path d="M24.57 0 C67.5 3.31, 110.43 4.29, 196.63 0 C214.98 0.52, 219.86 7.8, 221.21 24.57 C219.54 37.2, 218.43 48.08, 221.21 73.72 C218.04 92.4, 212.82 96.87, 196.63 98.3 C156.6 98.75, 111.54 101.39, 24.57 98.3 C11.58 96.96, 0.32 87.04, 0 73.72 C3.15 59.78, 2.33 50.44, 0 24.57 C-0.88 4.79, 6.69 -1.29, 24.57 0" stroke="none" stroke-width="0" fill="#ffffff"></path><path d="M24.57 0 C62.89 -0.08, 103.69 1.05, 196.63 0 M24.57 0 C73.59 1.94, 120.48 2.01, 196.63 0 M196.63 0 C214.1 -1.15, 220.32 9.64, 221.21 24.57 M196.63 0 C215.09 0.4, 220.03 8.22, 221.21 24.57 M221.21 24.57 C223.05 35.37, 222.78 45.84, 221.21 73.72 M221.21 24.57 C221.11 38.27, 221.3 50.74, 221.21 73.72 M221.21 73.72 C222.16 90.42, 212.33 100.24, 196.63 98.3 M221.21 73.72 C221.39 91.49, 215.16 97.82, 196.63 98.3 M196.63 98.3 C154.87 96.78, 108.17 96.29, 24.57 98.3 M196.63 98.3 C161.79 97.57, 125.65 98.09, 24.57 98.3 M24.57 98.3 C7.22 96.5, 1.74 88.14, 0 73.72 M24.57 98.3 C8.2 96.09, 0.26 90.59, 0 73.72 M0 73.72 C-0.63 55.73, -1.99 36.29, 0 24.57 M0 73.72 C0.52 56.76, 0.18 41.01, 0 24.57 M0 24.57 C-1.65 8.79, 8.6 1.64, 24.57 0 M0 24.57 C-2.06 8.08, 7.68 -0.37, 24.57 0" stroke="#1e1e1e" stroke-width="2" fill="none"></path></g><g transform="translate(1727.9472932951949 300.1043421274561) rotate(0 61.86993408203125 12.5)"><text x="61.86993408203125" y="17.52" font-family="Virgil, Segoe UI Emoji" font-size="20px" fill="#1e1e1e" text-anchor="middle" style="white-space: pre;" direction="ltr" dominant-baseline="alphabetic">viewModel.ios</text></g><g stroke-linecap="round" transform="translate(2250.5633991161067 272.3334882737231) rotate(0 110.60306120474888 49.14760347767515)"><path d="M24.57 0 C83.03 5.69, 148.68 -0.67, 196.63 0 C211.33 -2.54, 221.3 8.78, 221.21 24.57 C217.18 35.47, 217.58 52.45, 221.21 73.72 C218.25 92.99, 212.48 95.6, 196.63 98.3 C145.3 98.46, 86.19 94.44, 24.57 98.3 C11.16 100.78, 1.96 88.16, 0 73.72 C-3.6 54.71, 1.88 38.52, 0 24.57 C0.04 10.7, 8.92 -1.68, 24.57 0" stroke="none" stroke-width="0" fill="#ffffff"></path><path d="M24.57 0 C94.17 -1.54, 162 2.01, 196.63 0 M24.57 0 C75.36 0.65, 126.63 0.19, 196.63 0 M196.63 0 C213.33 -0.53, 222.33 7.08, 221.21 24.57 M196.63 0 C211.08 1.59, 220.94 10.26, 221.21 24.57 M221.21 24.57 C223.29 36.09, 219.62 48.35, 221.21 73.72 M221.21 24.57 C222.24 42.36, 220.49 62.33, 221.21 73.72 M221.21 73.72 C219.82 90.8, 214.72 98.22, 196.63 98.3 M221.21 73.72 C222.31 91.99, 211.06 96.62, 196.63 98.3 M196.63 98.3 C141.93 98.59, 89.73 97.39, 24.57 98.3 M196.63 98.3 C150.59 97.57, 105.14 96.71, 24.57 98.3 M24.57 98.3 C9.92 96.37, 0.4 90.84, 0 73.72 M24.57 98.3 C7.39 99.44, 2.22 88.79, 0 73.72 M0 73.72 C-1.02 56.74, 1.07 37.92, 0 24.57 M0 73.72 C0.56 58.27, 0.34 41.57, 0 24.57 M0 24.57 C-1.57 8.61, 7.04 -0.05, 24.57 0 M0 24.57 C1.15 10.15, 7.66 0.5, 24.57 0" stroke="#1e1e1e" stroke-width="2" fill="none"></path></g><g transform="translate(2288.496530816461 308.98109175139825) rotate(0 72.66992950439453 12.5)"><text x="72.66992950439453" y="17.52" font-family="Virgil, Segoe UI Emoji" font-size="20px" fill="#1e1e1e" text-anchor="middle" style="white-space: pre;" direction="ltr" dominant-baseline="alphabetic">dataSource.ios</text></g><g stroke-linecap="round" transform="translate(2258.656611927694 852.5708143117326) rotate(0 110.60306120474888 49.14760347767515)"><path d="M24.57 0 C78.51 0.59, 134.7 1.86, 196.63 0 C213 1.68, 218.85 9.58, 221.21 24.57 C221.73 41.14, 221.2 59.11, 221.21 73.72 C224.18 89.99, 215.58 100.99, 196.63 98.3 C135.24 97.98, 69.64 98.4, 24.57 98.3 C8.81 101.19, -0.86 89.56, 0 73.72 C2.06 57.2, -3.19 35.04, 0 24.57 C-2.71 8.9, 9.03 -2.89, 24.57 0" stroke="none" stroke-width="0" fill="#ffffff"></path><path d="M24.57 0 C61.52 -2.65, 99.66 -2.71, 196.63 0 M24.57 0 C73.25 -0.24, 121.46 -0.49, 196.63 0 M196.63 0 C213.66 -1.92, 219.57 6.82, 221.21 24.57 M196.63 0 C210.72 0.6, 222.56 9.85, 221.21 24.57 M221.21 24.57 C220.32 37.49, 222.49 51.32, 221.21 73.72 M221.21 24.57 C220.39 42.36, 220.45 61.07, 221.21 73.72 M221.21 73.72 C220.84 91.8, 212.81 99.58, 196.63 98.3 M221.21 73.72 C221.19 91.04, 214.52 99.92, 196.63 98.3 M196.63 98.3 C147.03 96.86, 99.63 95.85, 24.57 98.3 M196.63 98.3 C143.95 96.87, 92.05 97.12, 24.57 98.3 M24.57 98.3 C6.78 97.11, 1.2 90.31, 0 73.72 M24.57 98.3 C8.23 97.19, 1.41 89.31, 0 73.72 M0 73.72 C1.24 59.76, 1.96 41.85, 0 24.57 M0 73.72 C0.14 61.56, 0.12 51, 0 24.57 M0 24.57 C1.61 6.38, 9.65 -0.96, 24.57 0 M0 24.57 C-1.17 9.97, 9.26 2.28, 24.57 0" stroke="#1e1e1e" stroke-width="2" fill="none"></path></g><g transform="translate(2274.9997549195523 889.2184177894078) rotate(0 94.25991821289062 12.5)"><text x="94.25991821289062" y="17.52" font-family="Virgil, Segoe UI Emoji" font-size="20px" fill="#1e1e1e" text-anchor="middle" style="white-space: pre;" direction="ltr" dominant-baseline="alphabetic">dataSource.android</text></g><g stroke-linecap="round" transform="translate(1979.1639155706944 266.12849685548434) rotate(0 110.60306120474888 49.14760347767515)"><path d="M3.44 9.62 C3.44 9.62, 3.44 9.62, 3.44 9.62 M3.44 9.62 C3.44 9.62, 3.44 9.62, 3.44 9.62 M0.29 25.43 C7.59 19.9, 10.96 12.81, 21.29 1.28 M0.29 25.43 C5.02 21.27, 8.03 14.97, 21.29 1.28 M0.43 37.47 C10.47 28.86, 18.75 15.44, 32.57 0.49 M0.43 37.47 C8.22 26.33, 18.32 17.11, 32.57 0.49 M0.56 49.51 C11.62 38.9, 22.14 26.37, 43.2 0.46 M0.56 49.51 C10.55 37.34, 21.62 23.74, 43.2 0.46 M0.69 61.55 C10.94 47.77, 22.94 38.39, 53.83 0.42 M0.69 61.55 C20.97 37.8, 40.6 14.94, 53.83 0.42 M0.83 73.59 C24.62 46.05, 45.22 20.15, 64.46 0.39 M0.83 73.59 C23.3 45.92, 47.93 18.31, 64.46 0.39 M2.27 84.13 C28.08 53.65, 52.34 25.81, 75.09 0.35 M2.27 84.13 C21.88 61.18, 43.11 37.17, 75.09 0.35 M6.34 91.64 C31.85 59.83, 61.43 30.78, 85.72 0.32 M6.34 91.64 C34.88 59.09, 63.16 26.48, 85.72 0.32 M13.03 96.13 C31.51 73.73, 50.79 51.42, 96.35 0.28 M13.03 96.13 C44.33 60.35, 76.22 23.27, 96.35 0.28 M21.7 98.36 C44.81 73.19, 65.14 48.07, 106.98 0.25 M21.7 98.36 C45.69 70.89, 70.66 43.6, 106.98 0.25 M31.67 99.08 C55.86 70.08, 81.87 43.49, 117.61 0.21 M31.67 99.08 C52.71 74.33, 74.24 51.58, 117.61 0.21 M42.3 99.05 C64.87 74.09, 84.54 51.01, 128.24 0.18 M42.3 99.05 C76.63 59.32, 110.87 20.72, 128.24 0.18 M52.93 99.01 C79.43 68.84, 108.03 37.76, 138.87 0.15 M52.93 99.01 C73.52 74.49, 95.04 51.27, 138.87 0.15 M63.56 98.98 C98.11 61.94, 130.82 20.35, 149.5 0.11 M63.56 98.98 C83.2 77.55, 101.11 55.17, 149.5 0.11 M74.19 98.94 C95.1 77.71, 111.68 57.16, 160.13 0.08 M74.19 98.94 C97.93 71.5, 123.35 42.69, 160.13 0.08 M84.82 98.91 C103.81 78.56, 118.49 56.59, 170.76 0.04 M84.82 98.91 C107.61 70.97, 130.24 45.29, 170.76 0.04 M95.45 98.87 C124.77 66.55, 152.89 33.1, 181.4 0.01 M95.45 98.87 C121.55 70.74, 146.13 40.88, 181.4 0.01 M106.08 98.84 C137.72 62.4, 172.05 24.43, 192.03 -0.03 M106.08 98.84 C132.92 67.48, 160.1 35.17, 192.03 -0.03 M116.71 98.81 C139.66 75.72, 159.6 50.04, 202 0.69 M116.71 98.81 C145.14 66.9, 172.69 33.49, 202 0.69 M127.34 98.77 C145.18 76.29, 163.87 56.31, 210.66 2.92 M127.34 98.77 C153 68.17, 180.15 37.1, 210.66 2.92 M137.97 98.74 C170.18 65.48, 200.39 28.89, 216.7 8.17 M137.97 98.74 C160 74.24, 181.28 49.61, 216.7 8.17 M148.6 98.7 C176.99 64.42, 207.21 33.63, 220.11 16.44 M148.6 98.7 C171.46 73.09, 193.55 47.61, 220.11 16.44 M159.23 98.67 C173.62 82.04, 188.51 61.7, 221.56 26.97 M159.23 98.67 C180.43 74.46, 200.56 50.41, 221.56 26.97 M169.86 98.63 C182.42 84.12, 196.05 68.44, 221.69 39.01 M169.86 98.63 C185.89 81.3, 200.53 63.01, 221.69 39.01 M180.49 98.6 C195.39 84.17, 210.28 64.46, 221.82 51.05 M180.49 98.6 C194.87 83.07, 208.89 65.34, 221.82 51.05 M191.12 98.56 C197.28 91.24, 205.6 83.45, 221.96 63.09 M191.12 98.56 C203.46 84.09, 214.85 71.39, 221.96 63.09 M203.06 97.02 C208.61 90.14, 211.76 85.43, 221.43 75.89 M203.06 97.02 C208.04 92.31, 212 85.3, 221.43 75.89" stroke="#ffffff" stroke-width="1" fill="none"></path><path d="M24.57 0 C64.32 1.61, 104.39 -1.62, 196.63 0 M196.63 0 C212.18 -1.92, 222.51 8.34, 221.21 24.57 M221.21 24.57 C222.03 33.8, 221.11 44.82, 221.21 73.72 M221.21 73.72 C219.9 89.53, 214.77 99.21, 196.63 98.3 M196.63 98.3 C134.22 97.94, 67.34 98.76, 24.57 98.3 M24.57 98.3 C7.66 97.86, 0.85 88.31, 0 73.72 M0 73.72 C-0.56 62.7, -2.34 52.08, 0 24.57 M0 24.57 C0.83 10.14, 8.46 1.35, 24.57 0" stroke="#1e1e1e" stroke-width="2.5" fill="none" stroke-dasharray="1.5 8"></path></g><g transform="translate(2025.8270582573768 302.7761003331595) rotate(0 63.939918518066406 12.5)"><text x="63.939918518066406" y="17.52" font-family="Virgil, Segoe UI Emoji" font-size="20px" fill="#1e1e1e" text-anchor="middle" style="white-space: pre;" direction="ltr" dominant-baseline="alphabetic">repository.ios</text></g><g stroke-linecap="round" transform="translate(1987.1579375305982 849.4928918506318) rotate(0 110.60306120474888 49.14760347767515)"><path d="M3.44 9.62 C3.44 9.62, 3.44 9.62, 3.44 9.62 M3.44 9.62 C3.44 9.62, 3.44 9.62, 3.44 9.62 M0.29 25.43 C4.18 20.46, 9.15 13.12, 21.29 1.28 M0.29 25.43 C6.05 17.45, 14.02 11.55, 21.29 1.28 M0.43 37.47 C9.62 25.01, 23.38 10.92, 32.57 0.49 M0.43 37.47 C12.36 24.82, 23.55 10.29, 32.57 0.49 M0.56 49.51 C12.79 33.91, 27.05 16.49, 43.2 0.46 M0.56 49.51 C12.2 33.75, 25.34 19.97, 43.2 0.46 M0.69 61.55 C15 45.68, 29.25 27.17, 53.83 0.42 M0.69 61.55 C18.82 41.21, 35.4 22.18, 53.83 0.42 M0.83 73.59 C21.29 50.64, 39.9 26.92, 64.46 0.39 M0.83 73.59 C19.2 50.59, 38.77 29.15, 64.46 0.39 M2.27 84.13 C28.44 52.37, 55.64 24.36, 75.09 0.35 M2.27 84.13 C31.55 51.64, 60.24 20.16, 75.09 0.35 M6.34 91.64 C24.25 72.3, 38.79 54.61, 85.72 0.32 M6.34 91.64 C32.18 62, 58.71 31.82, 85.72 0.32 M13.03 96.13 C32.54 77.06, 47.61 56.46, 96.35 0.28 M13.03 96.13 C39.91 65.95, 66.12 33.78, 96.35 0.28 M21.7 98.36 C43.37 70.03, 67.59 41.87, 106.98 0.25 M21.7 98.36 C49.37 67.31, 75.1 36.37, 106.98 0.25 M31.67 99.08 C60.14 66.05, 85.36 36.66, 117.61 0.21 M31.67 99.08 C50.86 77.81, 70.6 55.19, 117.61 0.21 M42.3 99.05 C69.12 68.06, 97.15 35.14, 128.24 0.18 M42.3 99.05 C65.5 74.18, 86.34 48.52, 128.24 0.18 M52.93 99.01 C86.65 62.66, 116.42 24.04, 138.87 0.15 M52.93 99.01 C84.73 63.89, 115.64 29.25, 138.87 0.15 M63.56 98.98 C91.88 70.35, 116.19 40.07, 149.5 0.11 M63.56 98.98 C90.18 69.62, 116.54 38.56, 149.5 0.11 M74.19 98.94 C104.02 62.68, 131.08 28.78, 160.13 0.08 M74.19 98.94 C101.73 67.47, 130.56 35.29, 160.13 0.08 M84.82 98.91 C116.21 60.36, 150.85 21.03, 170.76 0.04 M84.82 98.91 C106.93 74.78, 127.63 49.71, 170.76 0.04 M95.45 98.87 C124.95 63.62, 155.99 28.93, 181.4 0.01 M95.45 98.87 C122.79 69.23, 147.5 40.29, 181.4 0.01 M106.08 98.84 C135.94 68.1, 165.24 33.1, 192.03 -0.03 M106.08 98.84 C127.17 76.06, 148.7 50.75, 192.03 -0.03 M116.71 98.81 C134.64 76.72, 151.39 59.42, 202 0.69 M116.71 98.81 C147.45 62.55, 177.75 26.81, 202 0.69 M127.34 98.77 C144.51 76.43, 163.62 55.54, 210.66 2.92 M127.34 98.77 C148.11 72.53, 170.42 49.4, 210.66 2.92 M137.97 98.74 C159.79 70.52, 183.85 44.42, 216.7 8.17 M137.97 98.74 C169.4 63.55, 199.02 26.67, 216.7 8.17 M148.6 98.7 C172.66 68.95, 201.06 40.33, 220.11 16.44 M148.6 98.7 C166.97 79.18, 185.66 57.87, 220.11 16.44 M159.23 98.67 C177.83 75.94, 198.23 52.19, 221.56 26.97 M159.23 98.67 C181.75 74.35, 203.87 48.89, 221.56 26.97 M169.86 98.63 C189.83 74.55, 210.24 49.97, 221.69 39.01 M169.86 98.63 C189.57 74.24, 211.45 51.4, 221.69 39.01 M180.49 98.6 C189.61 85.98, 201.19 73.02, 221.82 51.05 M180.49 98.6 C190.5 86.48, 200.22 76.26, 221.82 51.05 M191.12 98.56 C202.28 86.57, 217.79 72.28, 221.96 63.09 M191.12 98.56 C199.25 89.19, 205.96 81.87, 221.96 63.09 M203.06 97.02 C207.51 93.04, 211.25 84.46, 221.43 75.89 M203.06 97.02 C208.88 90.19, 214.58 83.85, 221.43 75.89" stroke="#ffffff" stroke-width="1" fill="none"></path><path d="M24.57 0 C68.47 1, 109.92 -0.36, 196.63 0 M196.63 0 C213.68 0.04, 221.24 8.27, 221.21 24.57 M221.21 24.57 C219.14 44.04, 221.8 62, 221.21 73.72 M221.21 73.72 C219.96 90.84, 212.6 98.74, 196.63 98.3 M196.63 98.3 C135.33 96.37, 73.76 98.87, 24.57 98.3 M24.57 98.3 C6.2 97.16, 0.87 91.42, 0 73.72 M0 73.72 C0.93 55.71, 1.6 40.58, 0 24.57 M0 24.57 C0.8 8.21, 10.13 -1.66, 24.57 0" stroke="#1e1e1e" stroke-width="2.5" fill="none" stroke-dasharray="1.5 8"></path></g><g transform="translate(2012.2310915087846 886.140495328307) rotate(0 85.5299072265625 12.5)"><text x="85.5299072265625" y="17.52" font-family="Virgil, Segoe UI Emoji" font-size="20px" fill="#1e1e1e" text-anchor="middle" style="white-space: pre;" direction="ltr" dominant-baseline="alphabetic">repository.android</text></g><g stroke-linecap="round"><g transform="translate(2092.758289302157 584.2725121702915) rotate(0 -3.1659975190091245 -100.77434434114133)"><path d="M0.42 -0.56 C-0.62 -34.29, -5.9 -168.66, -7.21 -202.27" stroke="#1e1e1e" stroke-width="2.5" fill="none" stroke-dasharray="1.5 8"></path></g><g transform="translate(2092.758289302157 584.2725121702915) rotate(0 -3.1659975190091245 -100.77434434114133)"><path d="M2.25 -179.13 C-0.79 -185.68, -3.16 -191.15, -7.21 -202.27" stroke="#1e1e1e" stroke-width="2.5" fill="none" stroke-dasharray="1.5 6"></path></g><g transform="translate(2092.758289302157 584.2725121702915) rotate(0 -3.1659975190091245 -100.77434434114133)"><path d="M-14.84 -178.47 C-14.1 -185.22, -12.69 -190.83, -7.21 -202.27" stroke="#1e1e1e" stroke-width="2.5" fill="none" stroke-dasharray="1.5 6"></path></g></g><mask></mask><g stroke-linecap="round"><g transform="translate(2095.165246936377 690.4035550035271) rotate(0 -0.04501497878391092 76.2500831199635)"><path d="M0.81 -0.56 C1.02 25.13, 0.9 127.54, 0.85 152.99" stroke="#1e1e1e" stroke-width="2.5" fill="none" stroke-dasharray="1.5 8"></path></g><g transform="translate(2095.165246936377 690.4035550035271) rotate(0 -0.04501497878391092 76.2500831199635)"><path d="M-7.67 129.48 C-6.56 137.23, -2.56 142.94, 0.85 152.99" stroke="#1e1e1e" stroke-width="2.5" fill="none" stroke-dasharray="1.5 6"></path></g><g transform="translate(2095.165246936377 690.4035550035271) rotate(0 -0.04501497878391092 76.2500831199635)"><path d="M9.43 129.51 C6 137.36, 5.47 143.07, 0.85 152.99" stroke="#1e1e1e" stroke-width="2.5" fill="none" stroke-dasharray="1.5 6"></path></g></g><mask></mask><g stroke-linecap="round" transform="translate(1399.080393963981 269.6685637333966) rotate(0 110.60306120474888 49.14760347767515)"><path d="M3.44 9.62 C3.44 9.62, 3.44 9.62, 3.44 9.62 M3.44 9.62 C3.44 9.62, 3.44 9.62, 3.44 9.62 M0.29 25.43 C6.81 20.03, 12.85 13.62, 21.29 1.28 M0.29 25.43 C5.81 19.39, 10.98 12.4, 21.29 1.28 M0.43 37.47 C7.97 25.72, 18.84 16.43, 32.57 0.49 M0.43 37.47 C8.83 27.92, 15.77 20.39, 32.57 0.49 M0.56 49.51 C12.75 36.03, 27.14 20.86, 43.2 0.46 M0.56 49.51 C15.34 32.87, 30.11 15.62, 43.2 0.46 M0.69 61.55 C14.26 45.21, 23.76 30.65, 53.83 0.42 M0.69 61.55 C16.43 45.14, 31.47 25.84, 53.83 0.42 M0.83 73.59 C20.2 50.86, 38.27 28.7, 64.46 0.39 M0.83 73.59 C17.51 53.33, 36.56 32.82, 64.46 0.39 M2.27 84.13 C20.94 60.64, 40.94 40.34, 75.09 0.35 M2.27 84.13 C20.51 62.67, 40.17 39.83, 75.09 0.35 M6.34 91.64 C31.6 64.38, 56.83 34.46, 85.72 0.32 M6.34 91.64 C31.5 62.85, 56.42 34.4, 85.72 0.32 M13.03 96.13 C39.03 68.42, 61.33 40.16, 96.35 0.28 M13.03 96.13 C35.47 72.92, 56.03 47.67, 96.35 0.28 M21.7 98.36 C53.67 61.56, 85.75 24.35, 106.98 0.25 M21.7 98.36 C39.72 76.32, 59.44 56.01, 106.98 0.25 M31.67 99.08 C53.64 75.19, 74.13 51.85, 117.61 0.21 M31.67 99.08 C54.35 70.94, 78.15 45.37, 117.61 0.21 M42.3 99.05 C62.32 78.94, 79.19 57.87, 128.24 0.18 M42.3 99.05 C63.48 74.01, 84.5 49.85, 128.24 0.18 M52.93 99.01 C72.12 76.99, 91.07 55.08, 138.87 0.15 M52.93 99.01 C77.71 69.42, 102.81 41.04, 138.87 0.15 M63.56 98.98 C90.1 66.59, 118.53 35.32, 149.5 0.11 M63.56 98.98 C92.76 66.55, 119.99 36.09, 149.5 0.11 M74.19 98.94 C100.14 71, 127.43 42.28, 160.13 0.08 M74.19 98.94 C108.36 60.52, 139.95 21.78, 160.13 0.08 M84.82 98.91 C111.78 70.47, 134.76 41.43, 170.76 0.04 M84.82 98.91 C111.34 69.39, 135.82 39.05, 170.76 0.04 M95.45 98.87 C127.45 61.9, 154.7 31.49, 181.4 0.01 M95.45 98.87 C114.23 77.36, 133.15 54.54, 181.4 0.01 M106.08 98.84 C131.79 69.21, 157.64 36.99, 192.03 -0.03 M106.08 98.84 C130.43 71.23, 154.25 44.31, 192.03 -0.03 M116.71 98.81 C135.52 77.72, 153.44 55.6, 202 0.69 M116.71 98.81 C145.88 65.79, 175.33 30.91, 202 0.69 M127.34 98.77 C148.78 77.51, 166.57 55.58, 210.66 2.92 M127.34 98.77 C151.9 71.03, 174.68 44.1, 210.66 2.92 M137.97 98.74 C168.69 63.98, 198.6 29.59, 216.7 8.17 M137.97 98.74 C160.29 72.19, 184.22 45.79, 216.7 8.17 M148.6 98.7 C169.81 75.54, 191.59 49.32, 220.11 16.44 M148.6 98.7 C176.82 67.84, 203.08 37.27, 220.11 16.44 M159.23 98.67 C172.24 83.62, 186.43 66.49, 221.56 26.97 M159.23 98.67 C176.57 77.36, 195.48 55.8, 221.56 26.97 M169.86 98.63 C184.03 84.22, 196.75 69.04, 221.69 39.01 M169.86 98.63 C188.87 74.51, 210.3 52.92, 221.69 39.01 M180.49 98.6 C195.2 79.78, 213.84 60.56, 221.82 51.05 M180.49 98.6 C194.82 80.85, 211.72 63.12, 221.82 51.05 M191.12 98.56 C197.24 90.46, 202.36 83.04, 221.96 63.09 M191.12 98.56 C201.58 86.66, 213.57 72.82, 221.96 63.09 M203.06 97.02 C207.89 92, 212.8 88.2, 221.43 75.89 M203.06 97.02 C206.83 91.78, 212.3 87.92, 221.43 75.89" stroke="#ffffff" stroke-width="1" fill="none"></path><path d="M24.57 0 C62.22 0.58, 100.24 -0.4, 196.63 0 M196.63 0 C214.95 -1.46, 221.74 8.48, 221.21 24.57 M221.21 24.57 C222.88 36.32, 222.44 49.04, 221.21 73.72 M221.21 73.72 C221.95 90.04, 213.98 97.45, 196.63 98.3 M196.63 98.3 C147.78 97.74, 97.63 97.28, 24.57 98.3 M24.57 98.3 C8.25 100.25, -0.28 89.53, 0 73.72 M0 73.72 C1.72 53.44, -1.39 37.49, 0 24.57 M0 24.57 C0.85 9.28, 8.37 1.19, 24.57 0" stroke="#1e1e1e" stroke-width="2.5" fill="none" stroke-dasharray="1.5 8"></path></g><g transform="translate(1453.443510710722 306.31616721107173) rotate(0 56.23994445800781 12.5)"><text x="56.23994445800781" y="17.52" font-family="Virgil, Segoe UI Emoji" font-size="20px" fill="#1e1e1e" text-anchor="middle" style="white-space: pre;" direction="ltr" dominant-baseline="alphabetic">UiScreen.ios</text></g><g stroke-linecap="round" transform="translate(1400.4138086775229 855.335245658852) rotate(0 110.60306120474888 49.14760347767515)"><path d="M3.44 9.62 C3.44 9.62, 3.44 9.62, 3.44 9.62 M3.44 9.62 C3.44 9.62, 3.44 9.62, 3.44 9.62 M3.57 21.66 C8.04 20, 8.36 14.5, 15.38 8.07 M3.57 21.66 C6.71 18.05, 10.26 13.47, 15.38 8.07 M3.71 33.7 C10.22 23.8, 16.82 16.03, 29.29 4.26 M3.71 33.7 C13.78 22.89, 23.54 11.13, 29.29 4.26 M3.84 45.74 C11.24 37.99, 19.52 30.37, 39.92 4.23 M3.84 45.74 C18.01 30.13, 31.12 15.3, 39.92 4.23 M3.32 58.53 C14.45 46.12, 29.62 29.18, 50.55 4.2 M3.32 58.53 C13.56 46.36, 23.59 36.69, 50.55 4.2 M3.45 70.58 C25.02 47.4, 45.23 23.63, 61.18 4.16 M3.45 70.58 C17.26 54.74, 29.61 39.69, 61.18 4.16 M3.58 82.62 C26.66 55.04, 52.67 27.51, 71.81 4.13 M3.58 82.62 C27.12 55.91, 50.48 28.74, 71.81 4.13 M6.34 91.64 C30.18 62.88, 55.15 32.53, 82.44 4.09 M6.34 91.64 C31.02 62.22, 56.08 34.69, 82.44 4.09 M12.38 96.89 C37.66 67.03, 63.66 37.43, 93.07 4.06 M12.38 96.89 C29.82 77.4, 47.89 58.78, 93.07 4.06 M19.07 101.38 C35.61 79.45, 57.07 59.71, 103.7 4.02 M19.07 101.38 C37.05 81.76, 53.78 61.47, 103.7 4.02 M29.05 102.1 C49.13 76.15, 73.24 53.66, 114.33 3.99 M29.05 102.1 C52.86 75.83, 76.64 50.18, 114.33 3.99 M39.68 102.07 C69.5 69.15, 95.49 39.1, 124.96 3.95 M39.68 102.07 C58.67 80.86, 77.78 58.6, 124.96 3.95 M50.31 102.03 C72.27 75.69, 95.43 47.02, 135.59 3.92 M50.31 102.03 C76.67 72.44, 103.39 41.05, 135.59 3.92 M60.94 102 C81.54 79.37, 98.08 55.26, 146.22 3.88 M60.94 102 C93.82 64.82, 125.32 28.27, 146.22 3.88 M71.57 101.96 C94.06 78.85, 114.6 53.02, 156.85 3.85 M71.57 101.96 C102.31 65.15, 133.07 29.77, 156.85 3.85 M82.2 101.93 C108.14 71, 137.08 38.66, 167.48 3.82 M82.2 101.93 C108.56 72.02, 133.49 43.69, 167.48 3.82 M92.83 101.89 C121.79 70.87, 147.13 40.67, 177.46 4.54 M92.83 101.89 C126.14 62.47, 160.72 25.55, 177.46 4.54 M103.46 101.86 C125.87 77.11, 148.89 49.07, 188.09 4.5 M103.46 101.86 C125.39 76.32, 149.44 49.15, 188.09 4.5 M114.09 101.82 C139.3 70.54, 165.76 43.95, 200.03 2.96 M114.09 101.82 C133.35 82.88, 150.86 60.79, 200.03 2.96 M124.72 101.79 C151.55 70.49, 178.14 42.39, 210.01 3.68 M124.72 101.79 C158.62 63.84, 190.16 25.86, 210.01 3.68 M134.69 102.51 C160.07 75.12, 183.22 46.34, 216.7 8.17 M134.69 102.51 C163.4 69.57, 189.38 38.61, 216.7 8.17 M145.32 102.48 C178.98 68, 208.72 32.89, 222.74 13.42 M145.32 102.48 C161.01 84.18, 178.03 66.52, 222.74 13.42 M155.95 102.44 C177.23 76.03, 200.59 53.4, 225.49 22.44 M155.95 102.44 C179.79 73.04, 206.07 45.8, 225.49 22.44 M166.58 102.41 C183.79 83.49, 199.53 64.48, 225.63 34.48 M166.58 102.41 C182.93 83.23, 198.36 64.22, 225.63 34.48 M177.21 102.37 C190.55 87.43, 201.2 75.27, 225.76 46.52 M177.21 102.37 C195.73 79.85, 214.81 59.81, 225.76 46.52 M187.84 102.34 C199.33 86.83, 211.74 72.7, 225.24 59.32 M187.84 102.34 C196.74 91.86, 207.31 78.8, 225.24 59.32 M199.78 100.79 C204.82 95.83, 211.88 88.69, 222.09 75.13 M199.78 100.79 C206.63 91.7, 215.88 82.41, 222.09 75.13" stroke="#ffffff" stroke-width="1" fill="none"></path><path d="M24.57 0 C85.45 0.03, 148.26 2.99, 196.63 0 M196.63 0 C214.62 -0.99, 221.55 9.75, 221.21 24.57 M221.21 24.57 C222.28 36.65, 222.67 48.05, 221.21 73.72 M221.21 73.72 C222.36 90.05, 214.19 100, 196.63 98.3 M196.63 98.3 C143.21 97.62, 87.83 97.37, 24.57 98.3 M24.57 98.3 C8.17 100.07, -1.63 90.96, 0 73.72 M0 73.72 C-0.92 58.28, -0.69 45.83, 0 24.57 M0 24.57 C-0.08 6.72, 6.84 -1.29, 24.57 0" stroke="#1e1e1e" stroke-width="2.5" fill="none" stroke-dasharray="1.5 8"></path></g><g transform="translate(1433.1869367157678 891.9828491365272) rotate(0 77.8299331665039 12.5)"><text x="77.8299331665039" y="17.52" font-family="Virgil, Segoe UI Emoji" font-size="20px" fill="#1e1e1e" text-anchor="middle" style="white-space: pre;" direction="ltr" dominant-baseline="alphabetic">UiScreen.android</text></g><g stroke-linecap="round"><g transform="translate(1507.4091079995665 577.2325023478205) rotate(0 -3.1659975190091245 -100.77434434114133)"><path d="M1.08 0.02 C0.32 -33.36, -4.33 -167.2, -5.38 -200.91" stroke="#1e1e1e" stroke-width="2.5" fill="none" stroke-dasharray="1.5 8"></path></g><g transform="translate(1507.4091079995665 577.2325023478205) rotate(0 -3.1659975190091245 -100.77434434114133)"><path d="M3.94 -177.71 C1.95 -181.37, 0.84 -186.41, -5.38 -200.91" stroke="#1e1e1e" stroke-width="2.5" fill="none" stroke-dasharray="1.5 6"></path></g><g transform="translate(1507.4091079995665 577.2325023478205) rotate(0 -3.1659975190091245 -100.77434434114133)"><path d="M-13.15 -177.14 C-11.21 -181.09, -8.39 -186.26, -5.38 -200.91" stroke="#1e1e1e" stroke-width="2.5" fill="none" stroke-dasharray="1.5 6"></path></g></g><mask></mask><g stroke-linecap="round"><g transform="translate(1510.1475042973107 689.9336221688652) rotate(0 -0.04501497878391092 76.2500831199635)"><path d="M-1.06 -0.49 C-1.06 24.81, -0.77 127.37, -0.62 152.87" stroke="#1e1e1e" stroke-width="2.5" fill="none" stroke-dasharray="1.5 8"></path></g><g transform="translate(1510.1475042973107 689.9336221688652) rotate(0 -0.04501497878391092 76.2500831199635)"><path d="M-9.27 129.42 C-7.72 134.47, -4.12 141.14, -0.62 152.87" stroke="#1e1e1e" stroke-width="2.5" fill="none" stroke-dasharray="1.5 6"></path></g><g transform="translate(1510.1475042973107 689.9336221688652) rotate(0 -0.04501497878391092 76.2500831199635)"><path d="M7.84 129.34 C5.12 134.26, 4.45 140.96, -0.62 152.87" stroke="#1e1e1e" stroke-width="2.5" fill="none" stroke-dasharray="1.5 6"></path></g></g><mask></mask><g stroke-linecap="round" transform="translate(1108.0803939639804 851.4685566126284) rotate(0 110.60306120474888 49.14760347767515)"><path d="M24.57 0 C59.83 -2.5, 92.8 -0.68, 196.63 0 C213.48 1.9, 221.47 9.08, 221.21 24.57 C222.81 40, 222.48 63.64, 221.21 73.72 C220.09 88.67, 210.15 98.9, 196.63 98.3 C134.05 101.67, 63.5 103.11, 24.57 98.3 C9.92 97.07, 0.15 89.93, 0 73.72 C2.81 61.25, -1.44 51.98, 0 24.57 C-0.11 11.08, 5.53 0.49, 24.57 0" stroke="none" stroke-width="0" fill="#ffffff"></path><path d="M24.57 0 C89.55 -2.07, 158.22 0.2, 196.63 0 M24.57 0 C61.6 -0.96, 97 -1.09, 196.63 0 M196.63 0 C212.65 1.07, 219.95 6.51, 221.21 24.57 M196.63 0 C211.57 1.44, 222.33 8.78, 221.21 24.57 M221.21 24.57 C221.95 40.48, 219.61 52.14, 221.21 73.72 M221.21 24.57 C221.57 41.13, 221.6 57.72, 221.21 73.72 M221.21 73.72 C222.98 88.75, 211.67 97.26, 196.63 98.3 M221.21 73.72 C222.09 91.53, 211.31 99.69, 196.63 98.3 M196.63 98.3 C134.1 98.91, 69.4 97.96, 24.57 98.3 M196.63 98.3 C158.07 96.22, 121.34 97.05, 24.57 98.3 M24.57 98.3 C6.82 96.91, 0.14 89.66, 0 73.72 M24.57 98.3 C9.53 100.04, -0.9 90.41, 0 73.72 M0 73.72 C-0.68 62.84, 0.94 48.08, 0 24.57 M0 73.72 C0.44 56.8, 0.41 40, 0 24.57 M0 24.57 C0.4 8.06, 6.32 1.17, 24.57 0 M0 24.57 C0.31 7.78, 7.65 0.04, 24.57 0" stroke="#1e1e1e" stroke-width="2" fill="none"></path></g><g transform="translate(1117.1035525198035 888.1161600903035) rotate(0 101.57990264892578 12.5)"><text x="101.57990264892578" y="17.52" font-family="Virgil, Segoe UI Emoji" font-size="20px" fill="#1e1e1e" text-anchor="middle" style="white-space: pre;" direction="ltr" dominant-baseline="alphabetic">android specific code</text></g><g stroke-linecap="round" transform="translate(1098.0803939639814 266.2685444055971) rotate(0 110.60306120474888 49.14760347767515)"><path d="M24.57 0 C60.61 -1.4, 93.64 -3.56, 196.63 0 C216.18 0.2, 224.47 6.58, 221.21 24.57 C222.58 43.19, 219.54 60.91, 221.21 73.72 C224.43 88.91, 213 96.21, 196.63 98.3 C135.89 102.67, 70.99 101.57, 24.57 98.3 C7.7 96.94, 1.31 88.57, 0 73.72 C-0.34 59.46, -0.31 49.29, 0 24.57 C-2.79 7.67, 10.54 2.61, 24.57 0" stroke="none" stroke-width="0" fill="#ffffff"></path><path d="M24.57 0 C79.17 2.12, 130.22 0.7, 196.63 0 M24.57 0 C89.14 -0.77, 155.01 -1, 196.63 0 M196.63 0 C213.64 1.58, 221.35 8.39, 221.21 24.57 M196.63 0 C211.04 -2.21, 219.21 6.49, 221.21 24.57 M221.21 24.57 C222.5 38.57, 221.44 55.68, 221.21 73.72 M221.21 24.57 C221.4 43.48, 219.99 64.52, 221.21 73.72 M221.21 73.72 C220.41 88.48, 211.26 99.79, 196.63 98.3 M221.21 73.72 C218.95 90.72, 214.74 97.48, 196.63 98.3 M196.63 98.3 C159.65 98.24, 118.38 97.63, 24.57 98.3 M196.63 98.3 C151.13 97.23, 105.07 98.58, 24.57 98.3 M24.57 98.3 C7.67 98.18, 0.99 89.13, 0 73.72 M24.57 98.3 C8.43 96.77, 2.05 87.83, 0 73.72 M0 73.72 C-0.35 55.38, 0.46 36.3, 0 24.57 M0 73.72 C-0.31 57.31, -1.4 39.56, 0 24.57 M0 24.57 C0.84 8.7, 6.33 1.75, 24.57 0 M0 24.57 C1.82 6.23, 10.09 1.93, 24.57 0" stroke="#1e1e1e" stroke-width="2" fill="none"></path></g><g transform="translate(1144.7735201711716 302.91614788327223) rotate(0 63.909934997558594 12.5)"><text x="63.909934997558594" y="17.52" font-family="Virgil, Segoe UI Emoji" font-size="20px" fill="#1e1e1e" text-anchor="middle" style="white-space: pre;" direction="ltr" dominant-baseline="alphabetic">ios controller</text></g><g stroke-linecap="round" transform="translate(482.124587116205 99.08936809127903) rotate(0 240.05900538162632 144.5179656010755)"><path d="M32 0 C115.82 2.44, 200.19 -0.18, 448.12 0 C468.09 -3.43, 479.6 9.94, 480.12 32 C479.42 105.24, 481.68 181.17, 480.12 257.04 C483.59 281.69, 471.75 288.33, 448.12 289.04 C315.68 290.76, 181.59 292.14, 32 289.04 C11.29 287.92, -2.08 280.65, 0 257.04 C0.77 179.11, 0.14 103.98, 0 32 C-1.83 8.25, 11.87 1.57, 32 0" stroke="none" stroke-width="0" fill="#a5d8ff"></path><path d="M32 0 C158.55 0.87, 283.09 0.87, 448.12 0 M32 0 C181.07 1.26, 330.28 2.02, 448.12 0 M448.12 0 C468.99 -1.22, 479.81 10.01, 480.12 32 M448.12 0 C468.91 0.41, 481.03 8.86, 480.12 32 M480.12 32 C479.14 87.65, 478.42 141.68, 480.12 257.04 M480.12 32 C478.9 81.33, 478.88 130.19, 480.12 257.04 M480.12 257.04 C478.86 278.2, 469.57 288.71, 448.12 289.04 M480.12 257.04 C478.58 280.64, 467.83 288.12, 448.12 289.04 M448.12 289.04 C351.32 288.83, 256.93 288.83, 32 289.04 M448.12 289.04 C312.39 290.13, 176.58 289.94, 32 289.04 M32 289.04 C11.99 288.69, -1.61 278.97, 0 257.04 M32 289.04 C10.67 290.06, -0.22 279.43, 0 257.04 M0 257.04 C0.07 181.92, -0.15 105.63, 0 32 M0 257.04 C-0.75 203.02, -0.27 150.21, 0 32 M0 32 C-0.01 9.35, 10.42 -0.39, 32 0 M0 32 C-0.37 8.73, 10.38 1.37, 32 0" stroke="#1e1e1e" stroke-width="2" fill="none"></path></g><g stroke-linecap="round" transform="translate(510.6615208934695 125.80391100960281) rotate(0 128.603091722327 65.14758821888607)"><path d="M32 0 C81.03 -4.8, 132.51 -5.17, 225.21 0 C246.02 -0.73, 258.46 12.02, 257.21 32 C256.72 49.56, 259.91 74.02, 257.21 98.3 C259.51 118.92, 247.26 128.21, 225.21 130.3 C158.73 132.83, 93.38 129.17, 32 130.3 C8.58 132.58, 1.58 119.63, 0 98.3 C-0.13 82.18, -2.12 59.67, 0 32 C1.2 12.24, 7.74 -2.49, 32 0" stroke="none" stroke-width="0" fill="#ffffff"></path><path d="M32 0 C75.21 -0.03, 123.4 2.72, 225.21 0 M32 0 C73.88 2.32, 116.97 1.28, 225.21 0 M225.21 0 C246.23 -0.66, 256.73 11.03, 257.21 32 M225.21 0 C247.45 -1.81, 255.96 10.08, 257.21 32 M257.21 32 C255.61 55.51, 255.4 80.66, 257.21 98.3 M257.21 32 C255.84 50.72, 256.04 70.38, 257.21 98.3 M257.21 98.3 C257.32 119.3, 245.2 132.27, 225.21 130.3 M257.21 98.3 C255.58 118.71, 244.95 131.87, 225.21 130.3 M225.21 130.3 C165.29 128.03, 102.66 130.57, 32 130.3 M225.21 130.3 C156.71 129.22, 88.85 129.63, 32 130.3 M32 130.3 C9.05 130.9, 0 120.52, 0 98.3 M32 130.3 C10.45 131.35, 0.85 120.56, 0 98.3 M0 98.3 C0.41 73.84, -1.57 49.16, 0 32 M0 98.3 C0.39 79.59, 0.34 59.7, 0 32 M0 32 C-0.25 10.28, 10.34 -1.69, 32 0 M0 32 C-0.29 12.04, 8.44 -1.66, 32 0" stroke="#1e1e1e" stroke-width="2" fill="none"></path></g><g transform="translate(596.804644048902 178.4514992284889) rotate(0 42.45996856689453 12.5)"><text x="42.45996856689453" y="17.52" font-family="Virgil, Segoe UI Emoji" font-size="20px" fill="#1e1e1e" text-anchor="middle" style="white-space: pre;" direction="ltr" dominant-baseline="alphabetic">Swift UI</text></g><g stroke-linecap="round" transform="translate(769.2803146182764 273.7597256370422) rotate(0 84.60309172232701 44.34760042591732)"><path d="M3.44 8.29 C3.44 8.29, 3.44 8.29, 3.44 8.29 M3.44 8.29 C3.44 8.29, 3.44 8.29, 3.44 8.29 M0.95 23.35 C9.13 16.43, 15.3 8.35, 20.63 0.71 M0.95 23.35 C7.12 15.7, 12.85 9.18, 20.63 0.71 M1.08 35.39 C10.88 23.64, 20.86 10.79, 31.92 -0.08 M1.08 35.39 C9.01 25.13, 18.19 15.8, 31.92 -0.08 M0.56 48.19 C9.44 36.13, 21.31 25.18, 42.55 -0.11 M0.56 48.19 C14.1 32.23, 28.46 16.8, 42.55 -0.11 M0.69 60.23 C21.3 35.49, 42.34 13.74, 53.18 -0.15 M0.69 60.23 C16.64 41.45, 31.62 24.29, 53.18 -0.15 M0.83 72.27 C22.76 47.43, 43.78 24.23, 63.15 0.57 M0.83 72.27 C17.28 53.38, 31.69 36.07, 63.15 0.57 M4.24 80.54 C24.88 57.62, 42.52 37.25, 73.78 0.54 M4.24 80.54 C21.12 61.08, 39.55 40.19, 73.78 0.54 M10.28 85.78 C36.87 54.61, 66.3 21.58, 84.41 0.5 M10.28 85.78 C27.41 66.45, 44.24 47.41, 84.41 0.5 M18.94 88.01 C41.21 65.57, 63.32 38.08, 95.04 0.47 M18.94 88.01 C41.28 63.6, 64.58 37.28, 95.04 0.47 M28.91 88.73 C53.48 57.19, 84.04 25.3, 105.67 0.43 M28.91 88.73 C45.28 70.59, 62.28 52.17, 105.67 0.43 M39.54 88.7 C64.6 60.49, 88.14 34.27, 116.3 0.4 M39.54 88.7 C65.83 58.22, 93.16 28.62, 116.3 0.4 M50.17 88.67 C72.43 63.24, 93.65 36.01, 126.93 0.36 M50.17 88.67 C76.59 58.14, 102.76 28.47, 126.93 0.36 M60.8 88.63 C79.71 64.74, 98.3 42.66, 137.56 0.33 M60.8 88.63 C78.55 69.02, 95.69 48.67, 137.56 0.33 M71.43 88.6 C95.47 64.02, 114.23 40.15, 148.19 0.3 M71.43 88.6 C97.51 59.68, 123 30.18, 148.19 0.3 M82.06 88.56 C113.06 54.92, 139.36 19.2, 156.85 2.52 M82.06 88.56 C109.31 56.64, 136.65 26.01, 156.85 2.52 M92.69 88.53 C106.88 71.05, 123.93 54.68, 164.2 6.26 M92.69 88.53 C115.61 61.18, 139.68 35.93, 164.2 6.26 M103.32 88.49 C127.02 61.85, 151.09 31.6, 167.62 14.53 M103.32 88.49 C119.31 70.8, 134.16 54.41, 167.62 14.53 M113.95 88.46 C124.54 72.49, 138.95 61.54, 169.06 25.06 M113.95 88.46 C134.58 63.92, 155.78 40.42, 169.06 25.06 M124.58 88.42 C137.55 75.52, 145.16 62.56, 169.2 37.1 M124.58 88.42 C138.03 72.57, 151.93 54.85, 169.2 37.1 M134.56 89.14 C145.84 79.28, 154.3 64.48, 169.33 49.14 M134.56 89.14 C143.1 78.63, 151.04 70.25, 169.33 49.14 M145.19 89.11 C149.78 81.48, 154.72 77.21, 169.46 61.19 M145.19 89.11 C149.53 83.76, 156.57 76.8, 169.46 61.19 M157.79 86.81 C160.59 84.24, 163.4 82.72, 167.63 75.49 M157.79 86.81 C161.03 83.36, 165.28 78.01, 167.63 75.49" stroke="#ffffff" stroke-width="1" fill="none"></path><path d="M22.17 0 C50.88 -1.98, 80.81 -2.45, 147.03 0 M147.03 0 C162.68 -0.46, 167.98 7.08, 169.21 22.17 M169.21 22.17 C169.9 32.45, 168.02 45.36, 169.21 66.52 M169.21 66.52 C170.63 80.74, 162.21 87.29, 147.03 88.7 M147.03 88.7 C116.18 86.74, 85.75 86.7, 22.17 88.7 M22.17 88.7 C6.36 87.43, -0.17 81.42, 0 66.52 M0 66.52 C-1.11 53.15, -1.09 42.73, 0 22.17 M0 22.17 C0.37 5.97, 6.24 1.63, 22.17 0" stroke="#1e1e1e" stroke-width="2.5" fill="none" stroke-dasharray="8 10"></path></g><g transform="translate(787.7834689016386 293.10732606295954) rotate(0 66.09993743896484 25)"><text x="66.09993743896484" y="17.52" font-family="Virgil, Segoe UI Emoji" font-size="20px" fill="#1e1e1e" text-anchor="middle" style="white-space: pre;" direction="ltr" dominant-baseline="alphabetic">Compose App </text><text x="66.09993743896484" y="42.519999999999996" font-family="Virgil, Segoe UI Emoji" font-size="20px" fill="#1e1e1e" text-anchor="middle" style="white-space: pre;" direction="ltr" dominant-baseline="alphabetic">library</text></g><g stroke-linecap="round"><g transform="translate(629.0834795827909 262.9073138559283) rotate(0 61.5999755859375 31.200012207031193)"><path d="M-0.87 0.52 C7.72 10.73, 30.27 49.82, 50.92 60.07 C71.57 70.31, 111.02 61.58, 123.01 62.01 M0.88 -0.25 C9.33 10.2, 29.62 50.66, 49.83 61.22 C70.04 71.78, 109.95 62.68, 122.15 63.12" stroke="#1e1e1e" stroke-width="2" fill="none"></path></g><g transform="translate(629.0834795827909 262.9073138559283) rotate(0 61.5999755859375 31.200012207031193)"><path d="M99.43 73.54 C106.1 70.62, 109.72 68.16, 122.15 63.12 M99.43 73.54 C105.92 69.93, 111.05 67.68, 122.15 63.12" stroke="#1e1e1e" stroke-width="2" fill="none"></path></g><g transform="translate(629.0834795827909 262.9073138559283) rotate(0 61.5999755859375 31.200012207031193)"><path d="M98.04 56.49 C104.9 57.87, 108.87 59.69, 122.15 63.12 M98.04 56.49 C104.87 57.43, 110.36 59.73, 122.15 63.12" stroke="#1e1e1e" stroke-width="2" fill="none"></path></g></g><mask></mask><g transform="translate(492.2274157400175 19.307399305147044) rotate(0 66.70796966552734 22.5)"><text x="0" y="31.536" font-family="Virgil, Segoe UI Emoji" font-size="36px" fill="#1e1e1e" text-anchor="start" style="white-space: pre;" direction="ltr" dominant-baseline="alphabetic">iOS app</text></g></svg>