<svg version="1.1" xmlns="http://www.w3.org/2000/svg" viewBox="0 0 1427.2662233383971 1622.7897556669723" width="4281.798670015191" height="4868.369267000917">
  <!-- svg-source:excalidraw -->
  
  <defs>
    <style class="style-fonts">
      @font-face {
        font-family: "Virgil";
        src: url("https://excalidraw.com/Virgil.woff2");
      }
      @font-face {
        font-family: "Cascadia";
        src: url("https://excalidraw.com/Cascadia.woff2");
      }
      @font-face {
        font-family: "Assistant";
        src: url("https://excalidraw.com/Assistant-Regular.woff2");
      }
    </style>
    
  </defs>
  <rect x="0" y="0" width="1427.2662233383971" height="1622.7897556669723" fill="#ffffff"></rect><g stroke-linecap="round" transform="translate(10 414.13757149437333) rotate(0 703.6331116691986 404.15005862123326)"><path d="M32 0 C435.24 -7.91, 839.05 -8.82, 1375.27 0 C1396.12 -0.47, 1407.28 11.88, 1407.27 32 C1403.01 296.25, 1404.33 560.13, 1407.27 776.3 C1405.72 799.27, 1394.53 806.04, 1375.27 808.3 C989.64 811, 603.1 813.28, 32 808.3 C7.92 804.85, 1.46 800.23, 0 776.3 C-4.42 583.2, -3.72 389.91, 0 32 C1.95 8.18, 7.92 1.47, 32 0" stroke="none" stroke-width="0" fill="#ffffff"></path><path d="M32 0 C487.05 4.24, 941.78 3.62, 1375.27 0 M32 0 C342.21 0.63, 652.06 1.03, 1375.27 0 M1375.27 0 C1395.26 -1.61, 1406.44 11.75, 1407.27 32 M1375.27 0 C1396.7 1.65, 1405.35 11.06, 1407.27 32 M1407.27 32 C1409.06 324.53, 1409.1 616.44, 1407.27 776.3 M1407.27 32 C1407.93 270.54, 1407.75 508.15, 1407.27 776.3 M1407.27 776.3 C1407.1 796.67, 1396.97 809.12, 1375.27 808.3 M1407.27 776.3 C1407.66 796.11, 1398.14 806.81, 1375.27 808.3 M1375.27 808.3 C1089.13 802.36, 803.06 802.43, 32 808.3 M1375.27 808.3 C938.85 804.27, 502.48 804.21, 32 808.3 M32 808.3 C9.04 809.57, 0.86 796.84, 0 776.3 M32 808.3 C11.85 809.49, 2.19 799.12, 0 776.3 M0 776.3 C-1.32 625.26, -0.55 473.17, 0 32 M0 776.3 C-1.1 525.14, -1.4 274.09, 0 32 M0 32 C0.57 12.64, 10.32 -0.73, 32 0 M0 32 C-2.12 12.29, 12.13 -1.57, 32 0" stroke="#1e1e1e" stroke-width="2" fill="none"></path></g><g stroke-linecap="round" transform="translate(49.19520000000193 763.9702354409546) rotate(0 667.6371340100741 89.19460188936046)"><path d="M32 0 C534.38 -7.77, 1036.15 -8.33, 1303.27 0 C1324.62 1.21, 1337.26 8.48, 1335.27 32 C1334.63 55.18, 1332.3 83.7, 1335.27 146.39 C1333.2 165.46, 1324.14 177.03, 1303.27 178.39 C871.11 172.64, 439.65 170.08, 32 178.39 C12.12 180.98, -1.44 171.09, 0 146.39 C2.4 112.83, 1.09 73.12, 0 32 C-2.75 12.13, 10.83 -3.01, 32 0" stroke="none" stroke-width="0" fill="#ffec99"></path><path d="M32 0 C315.31 -1.01, 596.73 -1.18, 1303.27 0 M32 0 C397.89 0.9, 762.74 0.22, 1303.27 0 M1303.27 0 C1323.78 1.09, 1335.36 12.1, 1335.27 32 M1303.27 0 C1322.69 0.4, 1337.41 12.16, 1335.27 32 M1335.27 32 C1334.82 67.78, 1335.47 105.77, 1335.27 146.39 M1335.27 32 C1335.44 65.01, 1335.52 99.23, 1335.27 146.39 M1335.27 146.39 C1335.65 168.55, 1324.95 177.07, 1303.27 178.39 M1335.27 146.39 C1336.82 166.23, 1322.61 177.62, 1303.27 178.39 M1303.27 178.39 C1047.46 173.65, 790.78 173.46, 32 178.39 M1303.27 178.39 C1025.65 183.28, 747.97 183.23, 32 178.39 M32 178.39 C11.53 177.6, 1.03 168.76, 0 146.39 M32 178.39 C12.86 179.87, -2.22 168.42, 0 146.39 M0 146.39 C1.47 120.18, 1.35 97.22, 0 32 M0 146.39 C-0.77 112.56, 0.15 77.85, 0 32 M0 32 C-0.34 9.93, 8.82 1.41, 32 0 M0 32 C1.46 9.1, 10.67 1.19, 32 0" stroke="#1e1e1e" stroke-width="2" fill="none"></path></g><g stroke-linecap="round" transform="translate(53.041187380564224 997.637556853324) rotate(0 657.4812325206331 92.76798809583579)"><path d="M32 0 C518.32 -2.47, 1005.02 -1.8, 1282.96 0 C1306.29 -2.18, 1312.04 8.16, 1314.96 32 C1313.9 68.55, 1313.38 99.55, 1314.96 153.54 C1314.5 173.51, 1305.71 185.56, 1282.96 185.54 C1001.27 191.55, 722.36 193.96, 32 185.54 C9.23 188.91, 0.34 176.37, 0 153.54 C-0.03 110.69, -4.72 74.28, 0 32 C0.17 7.65, 12.61 -2.78, 32 0" stroke="none" stroke-width="0" fill="#b2f2bb"></path><path d="M32 0 C417.92 2.75, 804.84 4.22, 1282.96 0 M32 0 C393.77 -4.79, 755.91 -4.25, 1282.96 0 M1282.96 0 C1304.39 1.43, 1313.29 11.01, 1314.96 32 M1282.96 0 C1306.43 1.5, 1315.44 10.24, 1314.96 32 M1314.96 32 C1315.21 70.64, 1314.73 109.12, 1314.96 153.54 M1314.96 32 C1314.67 76.92, 1314.94 123.22, 1314.96 153.54 M1314.96 153.54 C1315.3 173.55, 1305.64 184.24, 1282.96 185.54 M1314.96 153.54 C1312.97 174.1, 1302.03 186.22, 1282.96 185.54 M1282.96 185.54 C1009.97 181.06, 735.93 181.66, 32 185.54 M1282.96 185.54 C794.57 189.57, 307 189.15, 32 185.54 M32 185.54 C11.69 186.57, 1.91 176.16, 0 153.54 M32 185.54 C8.44 186.23, -1.88 173.66, 0 153.54 M0 153.54 C0.23 113.58, -0.45 72.32, 0 32 M0 153.54 C1.06 114.09, 0.6 72.3, 0 32 M0 32 C-1.85 12.08, 11.94 -1.36, 32 0 M0 32 C0.01 11.85, 12.85 -0.29, 32 0" stroke="#1e1e1e" stroke-width="2" fill="none"></path></g><g stroke-linecap="round" transform="translate(49.19520000000193 525.5161910753541) rotate(0 673.342398159577 93.85950967490953)"><path d="M32 0 C449.27 1.69, 867.33 0.33, 1314.68 0 C1333.1 -2.51, 1346.22 11.46, 1346.68 32 C1343.66 60.5, 1345.27 92.17, 1346.68 155.72 C1348.1 177.07, 1333.29 185.46, 1314.68 187.72 C825.2 179.91, 333.98 180.22, 32 187.72 C11.01 189.22, 1.16 180.31, 0 155.72 C-3.95 113.76, -1.04 65.85, 0 32 C1.95 7.89, 11.35 -2.99, 32 0" stroke="none" stroke-width="0" fill="#a5d8ff"></path><path d="M32 0 C327.66 5.41, 623.44 5.43, 1314.68 0 M32 0 C531.24 4.34, 1030.83 4.41, 1314.68 0 M1314.68 0 C1334.35 0.34, 1348.54 11.97, 1346.68 32 M1314.68 0 C1336.5 -0.42, 1347.03 10.38, 1346.68 32 M1346.68 32 C1346.85 63.98, 1348.4 94.46, 1346.68 155.72 M1346.68 32 C1346.77 59.1, 1346.75 84.72, 1346.68 155.72 M1346.68 155.72 C1348.03 175.76, 1334.28 187.05, 1314.68 187.72 M1346.68 155.72 C1344.42 177.73, 1334.14 189.25, 1314.68 187.72 M1314.68 187.72 C1023.84 182.53, 735.02 182.45, 32 187.72 M1314.68 187.72 C833.24 190.82, 351.67 191.19, 32 187.72 M32 187.72 C12.57 189.01, -1.93 177.66, 0 155.72 M32 187.72 C8.79 186.51, 0.81 178.05, 0 155.72 M0 155.72 C-0.39 126.5, 0.19 95.53, 0 32 M0 155.72 C-0.53 106.64, -1.28 58.99, 0 32 M0 32 C1.27 9.31, 10.67 1.03, 32 0 M0 32 C2.19 10.38, 12.71 0.33, 32 0" stroke="#1e1e1e" stroke-width="2" fill="none"></path></g><g stroke-linecap="round" transform="translate(591.4499136216709 803.016019101955) rotate(0 110.60306120474888 49.14760347767515)"><path d="M24.57 0 C75.94 -3.22, 120.4 -3.55, 196.63 0 C212.55 0.79, 219.36 6.65, 221.21 24.57 C220.23 40.2, 222.11 58.57, 221.21 73.72 C218.48 87.85, 215.97 95.55, 196.63 98.3 C160.05 103.9, 126.69 102.02, 24.57 98.3 C9.35 101.55, 1.84 92.05, 0 73.72 C0.84 59.36, 2.62 48.25, 0 24.57 C0.69 5.2, 7.23 -3.23, 24.57 0" stroke="none" stroke-width="0" fill="#ffffff"></path><path d="M24.57 0 C60.34 0.32, 98.31 -2.94, 196.63 0 M24.57 0 C62.4 -0.22, 99.31 -0.76, 196.63 0 M196.63 0 C214.87 1.3, 221.62 7.82, 221.21 24.57 M196.63 0 C213.36 -0.29, 220.14 8.65, 221.21 24.57 M221.21 24.57 C222.66 39.88, 219.5 55.71, 221.21 73.72 M221.21 24.57 C221.47 36.3, 221.97 48.69, 221.21 73.72 M221.21 73.72 C219.47 89.44, 211.05 98.89, 196.63 98.3 M221.21 73.72 C219.33 91.64, 211.32 98.87, 196.63 98.3 M196.63 98.3 C163.6 97.22, 128.46 96.26, 24.57 98.3 M196.63 98.3 C134.59 98.13, 72.48 98.26, 24.57 98.3 M24.57 98.3 C6.26 98.9, -1.63 89.05, 0 73.72 M24.57 98.3 C9 99.29, -1.42 90.97, 0 73.72 M0 73.72 C0.63 55.81, 1.86 41.02, 0 24.57 M0 73.72 C-0.84 54.83, 0.72 33.85, 0 24.57 M0 24.57 C0.01 9.22, 10.09 -0.25, 24.57 0 M0 24.57 C2.04 8.53, 8.77 -0.3, 24.57 0" stroke="#1e1e1e" stroke-width="2" fill="none"></path></g><g transform="translate(662.8830148044472 839.6636225796301) rotate(0 39.169960021972656 12.5)"><text x="39.169960021972656" y="17.52" font-family="Virgil, Segoe UI Emoji" font-size="20px" fill="#1e1e1e" text-anchor="middle" style="white-space: pre;" direction="ltr" dominant-baseline="alphabetic">usecase</text></g><g stroke-linecap="round" transform="translate(893.507399453214 803.9657451973999) rotate(0 110.60306120474888 49.14760347767515)"><path d="M24.57 0 C72.73 4.06, 114.89 4.36, 196.63 0 C214.88 3.43, 223.53 4.71, 221.21 24.57 C221.75 42.37, 218.25 58.39, 221.21 73.72 C222.59 90.24, 213.45 99.47, 196.63 98.3 C159.53 98.56, 114 95.86, 24.57 98.3 C10.73 100.58, -2.45 90.12, 0 73.72 C2.36 56.96, 0.07 38.69, 0 24.57 C-0.47 8.2, 9.4 1.99, 24.57 0" stroke="none" stroke-width="0" fill="#ffffff"></path><path d="M24.57 0 C91.12 0.32, 161.98 1.24, 196.63 0 M196.63 0 C214.45 -1.67, 221.55 10.05, 221.21 24.57 M221.21 24.57 C221.61 42.27, 220.38 60.86, 221.21 73.72 M221.21 73.72 C221.58 90.02, 213.6 99.77, 196.63 98.3 M196.63 98.3 C147 98.52, 100.11 98.49, 24.57 98.3 M24.57 98.3 C6.87 99.64, -1.3 88.37, 0 73.72 M0 73.72 C-1.15 61.94, -0.99 48, 0 24.57 M0 24.57 C-1.95 6.56, 7.72 1.8, 24.57 0" stroke="#1e1e1e" stroke-width="2.5" fill="none" stroke-dasharray="8 10"></path></g><g transform="translate(948.9105094860879 828.113348675075) rotate(0 55.199951171875 25)"><text x="55.199951171875" y="17.52" font-family="Virgil, Segoe UI Emoji" font-size="20px" fill="#1e1e1e" text-anchor="middle" style="white-space: pre;" direction="ltr" dominant-baseline="alphabetic">&lt;interface&gt;</text><text x="55.199951171875" y="42.519999999999996" font-family="Virgil, Segoe UI Emoji" font-size="20px" fill="#1e1e1e" text-anchor="middle" style="white-space: pre;" direction="ltr" dominant-baseline="alphabetic">repository</text></g><g transform="translate(82.07224746386782 830.0197217127916) rotate(0 98.31597137451172 22.5)"><text x="0" y="31.536" font-family="Virgil, Segoe UI Emoji" font-size="36px" fill="#1e1e1e" text-anchor="start" style="white-space: pre;" direction="ltr" dominant-baseline="alphabetic">commonMain</text></g><g stroke-linecap="round"><g transform="translate(818.8512390322339 852.0875619457893) rotate(0 34.251592037516275 -0.8893180430350185)"><path d="M-1 0.21 C10.59 -0.1, 57.99 -0.63, 69.62 -1 M0.67 -0.73 C12.2 -1.45, 58.01 -2.7, 69.25 -2.71" stroke="#1e1e1e" stroke-width="2" fill="none"></path></g><g transform="translate(818.8512390322339 852.0875619457893) rotate(0 34.251592037516275 -0.8893180430350185)"><path d="M45.91 6.23 C53.3 5.56, 61.36 1.4, 69.25 -2.71 M45.91 6.23 C52.01 3.94, 59.23 1.18, 69.25 -2.71" stroke="#1e1e1e" stroke-width="2" fill="none"></path></g><g transform="translate(818.8512390322339 852.0875619457893) rotate(0 34.251592037516275 -0.8893180430350185)"><path d="M45.62 -10.86 C53.22 -6.33, 61.37 -5.28, 69.25 -2.71 M45.62 -10.86 C51.83 -8.34, 59.13 -6.28, 69.25 -2.71" stroke="#1e1e1e" stroke-width="2" fill="none"></path></g></g><mask></mask><g stroke-linecap="round"><g transform="translate(460.7720806792495 680.4661095716929) rotate(0 61.75292916746048 56.57679761654799)"><path d="M1.11 0.78 C21.91 19.57, 103.33 94.23, 123.76 112.93 M0.24 0.15 C20.98 19.1, 102.48 95.34, 122.94 114.36" stroke="#1e1e1e" stroke-width="2" fill="none"></path></g><g transform="translate(460.7720806792495 680.4661095716929) rotate(0 61.75292916746048 56.57679761654799)"><path d="M99.93 104.59 C106.23 106.91, 109.54 108.9, 122.94 114.36 M99.93 104.59 C106.68 107.31, 113.41 110.89, 122.94 114.36" stroke="#1e1e1e" stroke-width="2" fill="none"></path></g><g transform="translate(460.7720806792495 680.4661095716929) rotate(0 61.75292916746048 56.57679761654799)"><path d="M111.59 92.08 C115.39 97.22, 116.18 101.92, 122.94 114.36 M111.59 92.08 C114.93 98.42, 118.3 105.6, 122.94 114.36" stroke="#1e1e1e" stroke-width="2" fill="none"></path></g></g><mask></mask><g stroke-linecap="round"><g transform="translate(1002.1508650770647 801.5077737626434) rotate(0 -2.8951732186437766 -64.03291808621361)"><path d="M0.25 -0.22 C-0.87 -21.72, -4.51 -106.95, -5.61 -128.22" stroke="#1e1e1e" stroke-width="2.5" fill="none" stroke-dasharray="1.5 8"></path></g><g transform="translate(1002.1508650770647 801.5077737626434) rotate(0 -2.8951732186437766 -64.03291808621361)"><path d="M4.02 -105.15 C-0.28 -113.89, -3.95 -124.18, -5.61 -128.22" stroke="#1e1e1e" stroke-width="2.5" fill="none" stroke-dasharray="1.5 6"></path></g><g transform="translate(1002.1508650770647 801.5077737626434) rotate(0 -2.8951732186437766 -64.03291808621361)"><path d="M-13.06 -104.35 C-10.65 -113.44, -7.61 -124.04, -5.61 -128.22" stroke="#1e1e1e" stroke-width="2.5" fill="none" stroke-dasharray="1.5 6"></path></g></g><mask></mask><g stroke-linecap="round"><g transform="translate(1002.2040800765863 909.1863196044123) rotate(0 2.364617581803941 52.572445446297934)"><path d="M0.18 -0.15 C0.83 17.45, 3.38 87.85, 4.18 105.39" stroke="#1e1e1e" stroke-width="2.5" fill="none" stroke-dasharray="1.5 8"></path></g><g transform="translate(1002.2040800765863 909.1863196044123) rotate(0 2.364617581803941 52.572445446297934)"><path d="M-5.31 82.25 C-2.56 88.74, 1.14 97.45, 4.18 105.39" stroke="#1e1e1e" stroke-width="2.5" fill="none" stroke-dasharray="1.5 6"></path></g><g transform="translate(1002.2040800765863 909.1863196044123) rotate(0 2.364617581803941 52.572445446297934)"><path d="M11.78 81.57 C9.05 88.3, 7.26 97.23, 4.18 105.39" stroke="#1e1e1e" stroke-width="2.5" fill="none" stroke-dasharray="1.5 6"></path></g></g><mask></mask><g transform="translate(82.07224748307635 593.4931411699017) rotate(0 64.92596435546875 22.5)"><text x="0" y="31.536" font-family="Virgil, Segoe UI Emoji" font-size="36px" fill="#1e1e1e" text-anchor="start" style="white-space: pre;" direction="ltr" dominant-baseline="alphabetic">iOsMain</text></g><g transform="translate(93.22726727097324 1079.250695610799) rotate(0 100.49396514892578 22.5)"><text x="0" y="31.536" font-family="Virgil, Segoe UI Emoji" font-size="36px" fill="#1e1e1e" text-anchor="start" style="white-space: pre;" direction="ltr" dominant-baseline="alphabetic">AndroidMain</text></g><g stroke-linecap="round" transform="translate(885.9409778265581 572.5228182659503) rotate(0 110.60306120474888 49.14760347767515)"><path d="M3.44 9.62 C3.44 9.62, 3.44 9.62, 3.44 9.62 M3.44 9.62 C3.44 9.62, 3.44 9.62, 3.44 9.62 M0.29 25.43 C9.22 17.26, 15.33 8.21, 21.29 1.28 M0.29 25.43 C6.87 17.82, 11.53 10.8, 21.29 1.28 M0.43 37.47 C8.72 27.93, 17.66 15.14, 32.57 0.49 M0.43 37.47 C9.8 25.97, 18.4 16.93, 32.57 0.49 M0.56 49.51 C12.01 37.57, 21.98 27.58, 43.2 0.46 M0.56 49.51 C15.48 32.91, 28.84 14.85, 43.2 0.46 M0.69 61.55 C19.85 39.62, 37.26 18.68, 53.83 0.42 M0.69 61.55 C15.06 44.6, 31.13 26.86, 53.83 0.42 M0.83 73.59 C21.58 48.57, 43.56 27.73, 64.46 0.39 M0.83 73.59 C15 56.72, 30.59 39.21, 64.46 0.39 M2.27 84.13 C29.08 52.5, 60.61 18.52, 75.09 0.35 M2.27 84.13 C21.72 62.43, 40.95 41.56, 75.09 0.35 M6.34 91.64 C34.9 59.56, 65.63 26.05, 85.72 0.32 M6.34 91.64 C26.46 68.78, 44.57 47.27, 85.72 0.32 M13.03 96.13 C34.85 72.14, 51.86 48.65, 96.35 0.28 M13.03 96.13 C35.67 68.26, 59.09 40.72, 96.35 0.28 M21.7 98.36 C49.01 66.83, 75.03 37.07, 106.98 0.25 M21.7 98.36 C44.55 71.03, 68.11 45.4, 106.98 0.25 M31.67 99.08 C61.46 62.32, 95.24 26.2, 117.61 0.21 M31.67 99.08 C52.36 76.57, 73 52.73, 117.61 0.21 M42.3 99.05 C63.9 74.31, 85.06 45.58, 128.24 0.18 M42.3 99.05 C67.9 72.45, 90.43 43.09, 128.24 0.18 M52.93 99.01 C77.01 69.85, 100.45 40.91, 138.87 0.15 M52.93 99.01 C69.75 79.39, 88.57 58.61, 138.87 0.15 M63.56 98.98 C86.82 68.62, 115.28 39.11, 149.5 0.11 M63.56 98.98 C84.26 74.68, 104.51 51.38, 149.5 0.11 M74.19 98.94 C91.44 80.06, 109.85 57.95, 160.13 0.08 M74.19 98.94 C106.35 63.42, 136.48 27.46, 160.13 0.08 M84.82 98.91 C105.16 77.41, 123.38 52.68, 170.76 0.04 M84.82 98.91 C114.25 64.74, 143.28 30.83, 170.76 0.04 M95.45 98.87 C115.69 77.81, 134.92 55.67, 181.4 0.01 M95.45 98.87 C117.78 72.68, 140.97 46.7, 181.4 0.01 M106.08 98.84 C131.39 69.68, 156.19 40.59, 192.03 -0.03 M106.08 98.84 C126.08 73.94, 148.18 50.71, 192.03 -0.03 M116.71 98.81 C137.6 73.29, 160.56 46.97, 202 0.69 M116.71 98.81 C142.86 71.52, 166.7 42.21, 202 0.69 M127.34 98.77 C146.1 76.99, 162.41 52.9, 210.66 2.92 M127.34 98.77 C160.37 60.12, 193.42 21.83, 210.66 2.92 M137.97 98.74 C163.41 69.28, 190.3 36.48, 216.7 8.17 M137.97 98.74 C162.09 70.8, 187.61 42.25, 216.7 8.17 M148.6 98.7 C165.16 79.53, 181.4 59.05, 220.11 16.44 M148.6 98.7 C170.2 71.34, 194.12 47.41, 220.11 16.44 M159.23 98.67 C179.58 74.09, 197.66 54.13, 221.56 26.97 M159.23 98.67 C182.51 71.49, 207.11 45.52, 221.56 26.97 M169.86 98.63 C189.35 75.05, 207.39 54.12, 221.69 39.01 M169.86 98.63 C186.99 79.82, 202.16 61.5, 221.69 39.01 M180.49 98.6 C194.22 83.14, 208.86 62.43, 221.82 51.05 M180.49 98.6 C195.42 80.92, 212.1 63.11, 221.82 51.05 M191.12 98.56 C201.98 83.89, 212.89 74.5, 221.96 63.09 M191.12 98.56 C202.67 84.66, 214.05 71.7, 221.96 63.09 M203.06 97.02 C206.49 91.27, 214.46 84.84, 221.43 75.89 M203.06 97.02 C207.23 91.9, 211.54 87.3, 221.43 75.89" stroke="#ffffff" stroke-width="1" fill="none"></path><path d="M24.57 0 C80.84 -0.84, 132.48 -0.67, 196.63 0 M196.63 0 C212.05 0.37, 222.03 8.53, 221.21 24.57 M221.21 24.57 C219.8 35.4, 219.57 48.16, 221.21 73.72 M221.21 73.72 C219.57 91.44, 211.54 98.79, 196.63 98.3 M196.63 98.3 C163.6 97.22, 128.46 96.26, 24.57 98.3 M24.57 98.3 C9.46 99.16, -0.79 91.13, 0 73.72 M0 73.72 C-2.4 57.04, -2.1 38.09, 0 24.57 M0 24.57 C0.7 9.06, 6.95 0.75, 24.57 0" stroke="#1e1e1e" stroke-width="2.5" fill="none" stroke-dasharray="1.5 8"></path></g><g transform="translate(932.6041205132406 609.1704217436254) rotate(0 63.939918518066406 12.5)"><text x="63.939918518066406" y="17.52" font-family="Virgil, Segoe UI Emoji" font-size="20px" fill="#1e1e1e" text-anchor="middle" style="white-space: pre;" direction="ltr" dominant-baseline="alphabetic">repository.ios</text></g><g stroke-linecap="round" transform="translate(894.8006600500739 1036.4703700451664) rotate(0 110.60306120474888 49.14760347767515)"><path d="M3.44 9.62 C3.44 9.62, 3.44 9.62, 3.44 9.62 M3.44 9.62 C3.44 9.62, 3.44 9.62, 3.44 9.62 M0.29 25.43 C6.57 17.87, 14.11 11.37, 21.29 1.28 M0.29 25.43 C5.39 20.02, 10.03 13.59, 21.29 1.28 M0.43 37.47 C11.49 24.14, 23.64 12.13, 32.57 0.49 M0.43 37.47 C7.11 27.96, 15.48 21.34, 32.57 0.49 M0.56 49.51 C12.02 37.36, 24.09 24.98, 43.2 0.46 M0.56 49.51 C16.41 32.51, 30.27 15.63, 43.2 0.46 M0.69 61.55 C11.88 46.58, 25.35 33.36, 53.83 0.42 M0.69 61.55 C16.55 42.51, 32.45 24.67, 53.83 0.42 M0.83 73.59 C13.62 57.5, 30.78 39.38, 64.46 0.39 M0.83 73.59 C23.64 48.39, 44.09 21.47, 64.46 0.39 M2.27 84.13 C25.38 54, 52.34 27.65, 75.09 0.35 M2.27 84.13 C27 54.58, 50.01 26.63, 75.09 0.35 M6.34 91.64 C29.47 61.7, 56.55 35.51, 85.72 0.32 M6.34 91.64 C24.27 71.69, 42.59 51, 85.72 0.32 M13.03 96.13 C35.77 72.59, 59.71 44.93, 96.35 0.28 M13.03 96.13 C37.55 69.95, 60.33 41.66, 96.35 0.28 M21.7 98.36 C45.88 70.39, 69.63 41.62, 106.98 0.25 M21.7 98.36 C41.28 76.45, 59.24 53.88, 106.98 0.25 M31.67 99.08 C52.51 71.77, 76.62 47.24, 117.61 0.21 M31.67 99.08 C61.1 65.41, 91.61 29.39, 117.61 0.21 M42.3 99.05 C74.34 62.18, 105.19 28.71, 128.24 0.18 M42.3 99.05 C76.34 62.05, 109.18 23.12, 128.24 0.18 M52.93 99.01 C72.51 77.39, 93.41 50.76, 138.87 0.15 M52.93 99.01 C84.05 63.4, 115 25.87, 138.87 0.15 M63.56 98.98 C84.91 71.99, 109.36 46.26, 149.5 0.11 M63.56 98.98 C81.86 78.18, 100.78 55.35, 149.5 0.11 M74.19 98.94 C109.43 58.68, 142.62 22.3, 160.13 0.08 M74.19 98.94 C106.02 61.99, 139.37 25.6, 160.13 0.08 M84.82 98.91 C116.11 65.24, 144.88 29.64, 170.76 0.04 M84.82 98.91 C105.78 74.55, 127.63 50.34, 170.76 0.04 M95.45 98.87 C125.41 61.07, 158.94 26.22, 181.4 0.01 M95.45 98.87 C118.04 72.13, 141.72 45.43, 181.4 0.01 M106.08 98.84 C128.41 72.44, 153.43 43.83, 192.03 -0.03 M106.08 98.84 C124.57 76.33, 143.62 53.46, 192.03 -0.03 M116.71 98.81 C141 70.95, 163.55 45.7, 202 0.69 M116.71 98.81 C149.81 61.02, 184.54 22.16, 202 0.69 M127.34 98.77 C157.2 67.18, 184.19 35.75, 210.66 2.92 M127.34 98.77 C156.77 65.12, 184.91 32.95, 210.66 2.92 M137.97 98.74 C165.28 68.88, 190.36 37.27, 216.7 8.17 M137.97 98.74 C158.25 73.54, 180.52 49.37, 216.7 8.17 M148.6 98.7 C169.81 75.46, 191.91 50.13, 220.11 16.44 M148.6 98.7 C162.94 80.25, 177.36 64.27, 220.11 16.44 M159.23 98.67 C173.8 82.25, 186.05 68.25, 221.56 26.97 M159.23 98.67 C178.6 75.28, 197.24 54.17, 221.56 26.97 M169.86 98.63 C181.3 86.4, 190.51 75.21, 221.69 39.01 M169.86 98.63 C185.22 81.6, 198.95 64.66, 221.69 39.01 M180.49 98.6 C198.76 79.83, 212.08 59.89, 221.82 51.05 M180.49 98.6 C193.66 84.44, 205.43 69.34, 221.82 51.05 M191.12 98.56 C198.94 92.29, 203.91 84.38, 221.96 63.09 M191.12 98.56 C198.23 91.17, 204.74 81.17, 221.96 63.09 M203.06 97.02 C207.83 90.33, 214.13 82.72, 221.43 75.89 M203.06 97.02 C208.33 90.8, 215.13 83.46, 221.43 75.89" stroke="#ffffff" stroke-width="1" fill="none"></path><path d="M24.57 0 C72.29 0.52, 122.74 0.49, 196.63 0 M196.63 0 C211.69 1.34, 219.91 6.46, 221.21 24.57 M221.21 24.57 C219.09 39.01, 219.25 51.29, 221.21 73.72 M221.21 73.72 C219.26 88.47, 212.54 100.1, 196.63 98.3 M196.63 98.3 C152.04 97.76, 104.11 97.92, 24.57 98.3 M24.57 98.3 C9.23 100.2, 1.29 88.17, 0 73.72 M0 73.72 C1.1 58.36, -0.84 42.01, 0 24.57 M0 24.57 C0.77 8.27, 8.43 0.65, 24.57 0" stroke="#1e1e1e" stroke-width="2.5" fill="none" stroke-dasharray="1.5 8"></path></g><g transform="translate(919.8738140282603 1073.1179735228416) rotate(0 85.5299072265625 12.5)"><text x="85.5299072265625" y="17.52" font-family="Virgil, Segoe UI Emoji" font-size="20px" fill="#1e1e1e" text-anchor="middle" style="white-space: pre;" direction="ltr" dominant-baseline="alphabetic">repository.android</text></g><g stroke-linecap="round" transform="translate(583.2369217100968 572.5228188477104) rotate(0 110.60306120474888 49.14760347767515)"><path d="M3.44 9.62 C3.44 9.62, 3.44 9.62, 3.44 9.62 M3.44 9.62 C3.44 9.62, 3.44 9.62, 3.44 9.62 M0.29 25.43 C5.3 16.44, 11.43 10.55, 21.29 1.28 M0.29 25.43 C7.64 17.17, 13.31 9.83, 21.29 1.28 M0.43 37.47 C7.19 26.52, 18.78 16.56, 32.57 0.49 M0.43 37.47 C6.44 30.62, 13.5 22.55, 32.57 0.49 M0.56 49.51 C15.36 31.62, 26.91 17.53, 43.2 0.46 M0.56 49.51 C13.19 34.53, 26.12 19.13, 43.2 0.46 M0.69 61.55 C11.61 50.77, 20.71 36.67, 53.83 0.42 M0.69 61.55 C10.65 49.9, 22.69 36.47, 53.83 0.42 M0.83 73.59 C23.7 49.31, 44.94 24.25, 64.46 0.39 M0.83 73.59 C23.95 49.33, 45.55 22.87, 64.46 0.39 M2.27 84.13 C16.91 68.37, 32.73 51.9, 75.09 0.35 M2.27 84.13 C20.41 65.17, 37.44 44.08, 75.09 0.35 M6.34 91.64 C23.03 69.35, 42.13 47.5, 85.72 0.32 M6.34 91.64 C35.54 56.52, 64.77 23.69, 85.72 0.32 M13.03 96.13 C44.88 57.93, 76.91 21.4, 96.35 0.28 M13.03 96.13 C46.85 57.2, 81.06 19.49, 96.35 0.28 M21.7 98.36 C48.27 66.48, 78.57 36.08, 106.98 0.25 M21.7 98.36 C48.41 68.49, 75.32 36.49, 106.98 0.25 M31.67 99.08 C51.46 78.71, 68.53 55.18, 117.61 0.21 M31.67 99.08 C66.67 58.97, 99.56 20.47, 117.61 0.21 M42.3 99.05 C65.24 72.67, 83 50.46, 128.24 0.18 M42.3 99.05 C74.21 61.62, 105.94 24.57, 128.24 0.18 M52.93 99.01 C87.32 62.32, 120 25.13, 138.87 0.15 M52.93 99.01 C85.64 62.3, 118.7 23.45, 138.87 0.15 M63.56 98.98 C84.54 72.69, 107.44 45.18, 149.5 0.11 M63.56 98.98 C95.44 64.2, 125.18 30.8, 149.5 0.11 M74.19 98.94 C95.19 74.32, 114.92 50.96, 160.13 0.08 M74.19 98.94 C102.74 65.67, 130 33.02, 160.13 0.08 M84.82 98.91 C113.93 63.94, 143.89 29, 170.76 0.04 M84.82 98.91 C110.79 69.9, 136.09 40.42, 170.76 0.04 M95.45 98.87 C113.52 78.7, 131.42 54.35, 181.4 0.01 M95.45 98.87 C117.11 73.62, 138.79 47.89, 181.4 0.01 M106.08 98.84 C130.65 70.25, 158.38 38.28, 192.03 -0.03 M106.08 98.84 C130.08 71.97, 153.29 45.41, 192.03 -0.03 M116.71 98.81 C141.27 71.83, 162.31 46.06, 202 0.69 M116.71 98.81 C149.61 59.26, 181.73 22.82, 202 0.69 M127.34 98.77 C146.76 74.92, 166.22 55, 210.66 2.92 M127.34 98.77 C144.14 79.85, 159.43 61.16, 210.66 2.92 M137.97 98.74 C162.1 72.6, 185.5 42.36, 216.7 8.17 M137.97 98.74 C154.42 79.46, 170.25 60.87, 216.7 8.17 M148.6 98.7 C166.82 76.6, 191.37 51.72, 220.11 16.44 M148.6 98.7 C162.64 80.7, 178.94 65.06, 220.11 16.44 M159.23 98.67 C171.92 85.23, 186.7 70.48, 221.56 26.97 M159.23 98.67 C171.88 82.57, 185.92 67.37, 221.56 26.97 M169.86 98.63 C185.41 79.14, 202.23 63.65, 221.69 39.01 M169.86 98.63 C184.71 82.05, 196.94 67.77, 221.69 39.01 M180.49 98.6 C192.5 86.02, 204.48 73.55, 221.82 51.05 M180.49 98.6 C194.08 81.84, 210.23 66.17, 221.82 51.05 M191.12 98.56 C200.89 86, 212.53 72.8, 221.96 63.09 M191.12 98.56 C203.23 85.8, 214.8 71.5, 221.96 63.09 M203.06 97.02 C208.96 89.18, 215.91 82.98, 221.43 75.89 M203.06 97.02 C209.27 90.17, 216.64 81.28, 221.43 75.89" stroke="#ffffff" stroke-width="1" fill="none"></path><path d="M24.57 0 C78.06 1.05, 132.89 -2.03, 196.63 0 M196.63 0 C212.35 -1.97, 221.8 6.56, 221.21 24.57 M221.21 24.57 C218.89 40.96, 220.37 62.41, 221.21 73.72 M221.21 73.72 C220.54 91.61, 211.39 99.57, 196.63 98.3 M196.63 98.3 C138.65 101.08, 79.89 97.24, 24.57 98.3 M24.57 98.3 C8.8 96.66, -1.05 90.81, 0 73.72 M0 73.72 C1.07 56.93, 0.54 40.63, 0 24.57 M0 24.57 C-1.27 10.07, 8.76 1.97, 24.57 0" stroke="#1e1e1e" stroke-width="2.5" fill="none" stroke-dasharray="1.5 8"></path></g><g transform="translate(638.7700442551777 609.1704223253855) rotate(0 55.06993865966797 12.5)"><text x="55.06993865966797" y="17.52" font-family="Virgil, Segoe UI Emoji" font-size="20px" fill="#1e1e1e" text-anchor="middle" style="white-space: pre;" direction="ltr" dominant-baseline="alphabetic">usecase.ios</text></g><g stroke-linecap="round" transform="translate(599.9193586529727 1041.2579415840682) rotate(0 110.60306120474888 49.14760347767515)"><path d="M3.44 9.62 C3.44 9.62, 3.44 9.62, 3.44 9.62 M3.44 9.62 C3.44 9.62, 3.44 9.62, 3.44 9.62 M3.57 21.66 C6.65 17.78, 8.07 16.55, 15.38 8.07 M3.57 21.66 C6.18 18.73, 9.39 14.4, 15.38 8.07 M3.71 33.7 C7.62 27.72, 17.05 19.12, 29.29 4.26 M3.71 33.7 C14.07 22.91, 24.33 10.96, 29.29 4.26 M3.84 45.74 C12.58 34.33, 21.9 24.88, 39.92 4.23 M3.84 45.74 C14.8 33.14, 26.51 19.39, 39.92 4.23 M3.32 58.53 C20.04 37.46, 39.72 15.18, 50.55 4.2 M3.32 58.53 C19.94 40.56, 35.69 21.48, 50.55 4.2 M3.45 70.58 C25.38 44.03, 43.89 22.51, 61.18 4.16 M3.45 70.58 C23.54 47.43, 45.49 22.83, 61.18 4.16 M3.58 82.62 C25.28 53.12, 49.51 27.88, 71.81 4.13 M3.58 82.62 C27.67 55.1, 53.6 25.53, 71.81 4.13 M6.34 91.64 C28.9 67.22, 50.28 43.42, 82.44 4.09 M6.34 91.64 C23.83 73.63, 39.16 54.01, 82.44 4.09 M12.38 96.89 C36.49 69.87, 56.74 46.37, 93.07 4.06 M12.38 96.89 C30.83 74.76, 49.34 52.47, 93.07 4.06 M19.07 101.38 C43.44 72.19, 66.14 43.64, 103.7 4.02 M19.07 101.38 C47.36 68.94, 76.86 36.29, 103.7 4.02 M29.05 102.1 C62.01 66.69, 90.51 33.12, 114.33 3.99 M29.05 102.1 C46.56 81.6, 65.45 62.79, 114.33 3.99 M39.68 102.07 C59.34 80.85, 75.59 60.46, 124.96 3.95 M39.68 102.07 C61.63 78.58, 80.62 56.57, 124.96 3.95 M50.31 102.03 C76.78 72.34, 98.86 42.52, 135.59 3.92 M50.31 102.03 C78.73 69.77, 107.68 35.96, 135.59 3.92 M60.94 102 C87.2 72.55, 109.9 47.87, 146.22 3.88 M60.94 102 C80.42 78.16, 102.15 54.57, 146.22 3.88 M71.57 101.96 C91.98 80.45, 113.09 57.01, 156.85 3.85 M71.57 101.96 C100.25 69.47, 127.56 37.81, 156.85 3.85 M82.2 101.93 C105.31 75.67, 128.99 51.03, 167.48 3.82 M82.2 101.93 C107.42 72.38, 134.56 40.54, 167.48 3.82 M92.83 101.89 C126.07 63.77, 160.13 25.1, 177.46 4.54 M92.83 101.89 C118.28 73.95, 142.36 44.33, 177.46 4.54 M103.46 101.86 C132.49 66.82, 160.85 33.81, 188.09 4.5 M103.46 101.86 C124.26 77.34, 146.1 55.13, 188.09 4.5 M114.09 101.82 C136.78 79.31, 157.02 53.96, 200.03 2.96 M114.09 101.82 C132.43 81.17, 150.32 59.81, 200.03 2.96 M124.72 101.79 C139.49 82.47, 156.99 63.04, 210.01 3.68 M124.72 101.79 C148.05 75.32, 169.93 50.1, 210.01 3.68 M134.69 102.51 C163 69.2, 193.73 34.88, 216.7 8.17 M134.69 102.51 C156.8 78.72, 177.34 52.35, 216.7 8.17 M145.32 102.48 C170.66 69.96, 200.46 36, 222.74 13.42 M145.32 102.48 C161.08 82.99, 178.25 62.89, 222.74 13.42 M155.95 102.44 C178.15 74.06, 204.48 43.66, 225.49 22.44 M155.95 102.44 C174.9 80.35, 194.09 59.48, 225.49 22.44 M166.58 102.41 C179.91 85.7, 193.28 71.18, 225.63 34.48 M166.58 102.41 C179.04 87.3, 190.55 74.07, 225.63 34.48 M177.21 102.37 C193.56 83.72, 207.96 64.46, 225.76 46.52 M177.21 102.37 C191.03 86.38, 204.34 69.96, 225.76 46.52 M187.84 102.34 C201.37 87.25, 209.78 75.56, 225.24 59.32 M187.84 102.34 C200.48 87.72, 212.67 73.55, 225.24 59.32 M199.78 100.79 C205.77 95.76, 209.43 88.74, 222.09 75.13 M199.78 100.79 C207.74 89.97, 217.99 81.8, 222.09 75.13" stroke="#ffffff" stroke-width="1" fill="none"></path><path d="M24.57 0 C87.08 -0.47, 151.51 -0.14, 196.63 0 M196.63 0 C214.35 -1.48, 221.7 6.24, 221.21 24.57 M221.21 24.57 C220.42 36.81, 219.47 47.3, 221.21 73.72 M221.21 73.72 C222.07 89.31, 214.04 99.33, 196.63 98.3 M196.63 98.3 C129.23 95, 59.55 97.33, 24.57 98.3 M24.57 98.3 C9.06 97.06, 0.75 90.87, 0 73.72 M0 73.72 C-1.33 60.66, 0.51 45.82, 0 24.57 M0 24.57 C-0.34 7.46, 6.34 1.41, 24.57 0" stroke="#1e1e1e" stroke-width="2.5" fill="none" stroke-dasharray="1.5 8"></path></g><g transform="translate(633.8624924895576 1077.9055450617434) rotate(0 76.65992736816406 12.5)"><text x="76.65992736816406" y="17.52" font-family="Virgil, Segoe UI Emoji" font-size="20px" fill="#1e1e1e" text-anchor="middle" style="white-space: pre;" direction="ltr" dominant-baseline="alphabetic">usecase.android</text></g><g stroke-linecap="round"><g transform="translate(698.1827929917545 801.2758360922035) rotate(0 -3.0781994565290915 -56.07884530598494)"><path d="M-0.98 0.8 C-1.96 -17.9, -5.98 -92.87, -7.04 -111.86" stroke="#1e1e1e" stroke-width="2.5" fill="none" stroke-dasharray="1.5 8"></path></g><g transform="translate(698.1827929917545 801.2758360922035) rotate(0 -3.0781994565290915 -56.07884530598494)"><path d="M2.78 -88.87 C2.06 -95.06, -0.75 -100.17, -7.04 -111.86" stroke="#1e1e1e" stroke-width="2.5" fill="none" stroke-dasharray="1.5 6"></path></g><g transform="translate(698.1827929917545 801.2758360922035) rotate(0 -3.0781994565290915 -56.07884530598494)"><path d="M-14.3 -87.94 C-11.58 -94.18, -10.95 -99.48, -7.04 -111.86" stroke="#1e1e1e" stroke-width="2.5" fill="none" stroke-dasharray="1.5 6"></path></g></g><mask></mask><g stroke-linecap="round"><g transform="translate(705.9542874291255 907.4068789254397) rotate(0 0.6391056292659414 63.63094602572619)"><path d="M-0.89 0.3 C-0.7 21.21, -0.21 104.94, 0.11 126.28" stroke="#1e1e1e" stroke-width="2.5" fill="none" stroke-dasharray="1.5 8"></path></g><g transform="translate(705.9542874291255 907.4068789254397) rotate(0 0.6391056292659414 63.63094602572619)"><path d="M-8.67 102.87 C-6.1 106.1, -6.32 112.69, 0.11 126.28" stroke="#1e1e1e" stroke-width="2.5" fill="none" stroke-dasharray="1.5 6"></path></g><g transform="translate(705.9542874291255 907.4068789254397) rotate(0 0.6391056292659414 63.63094602572619)"><path d="M8.43 102.71 C7.27 105.84, 3.32 112.47, 0.11 126.28" stroke="#1e1e1e" stroke-width="2.5" fill="none" stroke-dasharray="1.5 6"></path></g></g><mask></mask><g stroke-linecap="round" transform="translate(315.8128737094048 572.4579354329817) rotate(0 110.60306120474888 49.14760347767515)"><path d="M24.57 0 C69.07 -1.55, 121.64 -5.28, 196.63 0 C213.82 -3.58, 221.09 7.32, 221.21 24.57 C219.18 37.61, 223.96 46.24, 221.21 73.72 C223.04 92.38, 212.89 101.69, 196.63 98.3 C138.28 98.24, 76.94 94.37, 24.57 98.3 C4.59 101.14, -0.26 91.42, 0 73.72 C-3.14 53.44, -2.24 40.04, 0 24.57 C2.23 7.89, 5.98 -2.4, 24.57 0" stroke="none" stroke-width="0" fill="#ffffff"></path><path d="M24.57 0 C61.87 1.21, 104.23 1.01, 196.63 0 M24.57 0 C89.61 -1.49, 154.29 -0.58, 196.63 0 M196.63 0 C214.92 1.29, 219.27 8.8, 221.21 24.57 M196.63 0 C211.14 -1.21, 222.01 9.19, 221.21 24.57 M221.21 24.57 C221.47 36.51, 222.04 46.7, 221.21 73.72 M221.21 24.57 C221.17 43.56, 220.42 63.98, 221.21 73.72 M221.21 73.72 C222.48 88.74, 213.02 99.33, 196.63 98.3 M221.21 73.72 C223.39 89.82, 215.06 98.63, 196.63 98.3 M196.63 98.3 C140.67 98.74, 85.79 96.86, 24.57 98.3 M196.63 98.3 C159.21 97.56, 120.91 98.53, 24.57 98.3 M24.57 98.3 C7.04 97.04, -0.26 89.35, 0 73.72 M24.57 98.3 C9.09 98.31, -1.74 88.66, 0 73.72 M0 73.72 C1.18 56.39, -0.42 38.04, 0 24.57 M0 73.72 C0.7 59.02, 0.34 42.62, 0 24.57 M0 24.57 C-1.53 9.01, 8.28 -1.67, 24.57 0 M0 24.57 C1.24 6.42, 8.63 -1.91, 24.57 0" stroke="#1e1e1e" stroke-width="2" fill="none"></path></g><g transform="translate(389.7259706197201 609.1055389106568) rotate(0 36.689964294433594 12.5)"><text x="36.689964294433594" y="17.52" font-family="Virgil, Segoe UI Emoji" font-size="20px" fill="#1e1e1e" text-anchor="middle" style="white-space: pre;" direction="ltr" dominant-baseline="alphabetic">wrapper</text></g><g stroke-linecap="round" transform="translate(1155.8848883385072 576.5844303669091) rotate(0 110.60306120474888 49.14760347767515)"><path d="M24.57 0 C77.68 -0.49, 129.06 2.21, 196.63 0 C210.42 1.75, 223.57 5.74, 221.21 24.57 C223.61 44.09, 221.65 62.46, 221.21 73.72 C222.89 86.73, 210.27 99.61, 196.63 98.3 C130.39 99.79, 71.07 98.27, 24.57 98.3 C9.91 101.85, 2.23 87.84, 0 73.72 C2.56 63.03, -1.88 50.54, 0 24.57 C1.68 10.26, 5.65 -0.94, 24.57 0" stroke="none" stroke-width="0" fill="#ffffff"></path><path d="M24.57 0 C73.64 -1.05, 120.95 1.43, 196.63 0 M24.57 0 C70.35 -0.25, 113.25 -0.59, 196.63 0 M196.63 0 C211.38 -1.05, 221.91 9.06, 221.21 24.57 M196.63 0 C211.59 0.87, 222.09 8.28, 221.21 24.57 M221.21 24.57 C223.24 40.48, 223.34 54.9, 221.21 73.72 M221.21 24.57 C221.39 36.84, 220.76 50.98, 221.21 73.72 M221.21 73.72 C223.11 89.85, 214.79 98.59, 196.63 98.3 M221.21 73.72 C221.79 89.8, 212.72 98.3, 196.63 98.3 M196.63 98.3 C137.61 95.86, 81.58 97.69, 24.57 98.3 M196.63 98.3 C153.27 98.45, 110.93 98.7, 24.57 98.3 M24.57 98.3 C8.98 98.31, -1.51 88.85, 0 73.72 M24.57 98.3 C10.08 96.54, -2.2 91.03, 0 73.72 M0 73.72 C0.38 56.27, 0.84 38.96, 0 24.57 M0 73.72 C-1.03 56.88, -0.22 38.38, 0 24.57 M0 24.57 C1.08 6.65, 8.57 -1.66, 24.57 0 M0 24.57 C-0.62 6.13, 9.45 -1.6, 24.57 0" stroke="#1e1e1e" stroke-width="2" fill="none"></path></g><g transform="translate(1229.7979852488224 613.2320338445843) rotate(0 36.689964294433594 12.5)"><text x="36.689964294433594" y="17.52" font-family="Virgil, Segoe UI Emoji" font-size="20px" fill="#1e1e1e" text-anchor="middle" style="white-space: pre;" direction="ltr" dominant-baseline="alphabetic">wrapper</text></g><g stroke-linecap="round"><g transform="translate(1275.997158066788 682.3101051888243) rotate(0 -73.21864215574442 57.05347373258246)"><path d="M0.52 -0.47 C-23.63 18.52, -121.52 95.5, -145.82 114.73 M-0.67 -1.77 C-24.83 16.81, -122.31 93.81, -146.45 112.93" stroke="#1e1e1e" stroke-width="2" fill="none"></path></g><g transform="translate(1275.997158066788 682.3101051888243) rotate(0 -73.21864215574442 57.05347373258246)"><path d="M-133.32 91.65 C-136.85 97.39, -137.89 102.93, -146.45 112.93 M-133.32 91.65 C-139.13 98.92, -142.74 107.64, -146.45 112.93" stroke="#1e1e1e" stroke-width="2" fill="none"></path></g><g transform="translate(1275.997158066788 682.3101051888243) rotate(0 -73.21864215574442 57.05347373258246)"><path d="M-122.71 105.07 C-128.65 107.92, -132.01 110.52, -146.45 112.93 M-122.71 105.07 C-132.26 107.48, -139.74 111.31, -146.45 112.93" stroke="#1e1e1e" stroke-width="2" fill="none"></path></g></g><mask></mask><g transform="translate(74.09114818244325 448.05535027133374) rotate(0 180.64794921875 22.5)"><text x="0" y="31.536" font-family="Virgil, Segoe UI Emoji" font-size="36px" fill="#1e1e1e" text-anchor="start" style="white-space: pre;" direction="ltr" dominant-baseline="alphabetic">domain (KMP module)</text></g><g stroke-linecap="round" transform="translate(510.1287804629883 1252.142363502573) rotate(0 325.5683586650716 180.3236960821996)"><path d="M32 0 C266.04 0.15, 497 0.93, 619.14 0 C641.46 -1.58, 649.73 13.54, 651.14 32 C646.61 119.32, 648.38 212.42, 651.14 328.65 C653.26 347.92, 638.2 360.68, 619.14 360.65 C428.92 363.88, 235.19 363.6, 32 360.65 C14 363.2, -1.44 352.68, 0 328.65 C3.25 214.74, 3.12 99.86, 0 32 C2.02 9.77, 11.33 -2.41, 32 0" stroke="none" stroke-width="0" fill="#b2f2bb"></path><path d="M32 0 C166.4 -1.33, 299.38 -0.57, 619.14 0 M32 0 C252.41 -1.5, 471.93 -1.56, 619.14 0 M619.14 0 C641.55 -0.07, 652.58 9.63, 651.14 32 M619.14 0 C640.88 -1.53, 650.55 8.45, 651.14 32 M651.14 32 C650.35 118.32, 649.12 203.91, 651.14 328.65 M651.14 32 C652.34 142.1, 651.59 252.91, 651.14 328.65 M651.14 328.65 C650.87 349.36, 642.3 359.33, 619.14 360.65 M651.14 328.65 C650.47 348.58, 642.3 361.98, 619.14 360.65 M619.14 360.65 C472.98 358.15, 327.16 359.54, 32 360.65 M619.14 360.65 C434.14 359.22, 249.16 359.32, 32 360.65 M32 360.65 C12.21 362.39, -0.4 351.94, 0 328.65 M32 360.65 C10.16 358.62, -1.5 352.01, 0 328.65 M0 328.65 C-0.45 269.05, -2.71 206.77, 0 32 M0 328.65 C-2.24 264.26, -1.57 198.8, 0 32 M0 32 C-0.1 10.12, 12.28 -1.41, 32 0 M0 32 C1.59 10.63, 12.29 -0.33, 32 0" stroke="#1e1e1e" stroke-width="2" fill="none"></path></g><g stroke-linecap="round"><g transform="translate(472.2860620326792 1492.7434243217485) rotate(0 76.9628893949648 4.748476591648796)"><path d="M-0.54 -0.89 C9.35 -0.91, 34.23 -1.38, 59.8 0.53 C85.37 2.45, 137.07 9.07, 152.89 10.62 M1.38 1.25 C11.12 0.86, 33.53 -2.35, 59.18 -1.12 C84.82 0.12, 139.21 6.67, 155.24 8.67" stroke="#1e1e1e" stroke-width="2" fill="none"></path></g><g transform="translate(472.2860620326792 1492.7434243217485) rotate(0 76.9628893949648 4.748476591648796)"><path d="M130.9 14.36 C137.7 13.55, 149 8.86, 155.24 8.67 M130.9 14.36 C138.77 12.11, 149.08 10.21, 155.24 8.67" stroke="#1e1e1e" stroke-width="2" fill="none"></path></g><g transform="translate(472.2860620326792 1492.7434243217485) rotate(0 76.9628893949648 4.748476591648796)"><path d="M132.94 -2.62 C139.13 2.37, 149.74 3.47, 155.24 8.67 M132.94 -2.62 C140.18 1.3, 149.75 5.55, 155.24 8.67" stroke="#1e1e1e" stroke-width="2" fill="none"></path></g></g><mask></mask><g transform="translate(43.109284154379566 1478.2554998284431) rotate(0 207.08993530273438 22.5)"><text x="0" y="31.536" font-family="Virgil, Segoe UI Emoji" font-size="36px" fill="#1e1e1e" text-anchor="start" style="white-space: pre;" direction="ltr" dominant-baseline="alphabetic">Entry Point for Android</text></g><g stroke-linecap="round" transform="translate(645.3718550113808 1292.800274355057) rotate(0 110.60306120474888 49.14760347767515)"><path d="M24.57 0 C84.99 4.23, 148.29 -0.75, 196.63 0 C210.28 -3, 218.26 7.6, 221.21 24.57 C219.45 42, 222.66 56.14, 221.21 73.72 C224.33 93.15, 211.91 95.63, 196.63 98.3 C152.14 103.19, 113.48 98.5, 24.57 98.3 C10.16 99.73, -0.79 91.37, 0 73.72 C0.17 60.53, -1.77 49.85, 0 24.57 C0.07 6.14, 9.59 -0.27, 24.57 0" stroke="none" stroke-width="0" fill="#ffffff"></path><path d="M24.57 0 C86.31 2.8, 145.43 -0.36, 196.63 0 M24.57 0 C73.61 -0.46, 121.38 -0.61, 196.63 0 M196.63 0 C212.5 -1.93, 220.99 6.75, 221.21 24.57 M196.63 0 C213.3 1.23, 221.94 7.52, 221.21 24.57 M221.21 24.57 C220.01 40.88, 219.72 54.33, 221.21 73.72 M221.21 24.57 C222.06 34.28, 220.85 44.7, 221.21 73.72 M221.21 73.72 C222.8 91.26, 212 97.67, 196.63 98.3 M221.21 73.72 C219.49 90.49, 210.87 100.07, 196.63 98.3 M196.63 98.3 C130.22 99.87, 64.22 100.51, 24.57 98.3 M196.63 98.3 C153.32 100.78, 110.19 98.92, 24.57 98.3 M24.57 98.3 C6.89 100.06, -1.92 91.66, 0 73.72 M24.57 98.3 C9.69 100.25, 1.45 88.53, 0 73.72 M0 73.72 C2.2 61.23, 2.24 51.05, 0 24.57 M0 73.72 C0.83 56.38, 0.72 40.44, 0 24.57 M0 24.57 C1.41 7.91, 10.12 1.53, 24.57 0 M0 24.57 C-0.04 10.46, 8.31 -0.4, 24.57 0" stroke="#1e1e1e" stroke-width="2" fill="none"></path></g><g transform="translate(710.0049607717938 1329.447877832732) rotate(0 45.96995544433594 12.5)"><text x="45.96995544433594" y="17.52" font-family="Virgil, Segoe UI Emoji" font-size="20px" fill="#1e1e1e" text-anchor="middle" style="white-space: pre;" direction="ltr" dominant-baseline="alphabetic">viewModel</text></g><g stroke-linecap="round" transform="translate(911.1434724733344 1292.8002740287775) rotate(0 110.60306120474888 49.14760347767515)"><path d="M24.57 0 C87.17 -1.18, 152.29 1.22, 196.63 0 C214.95 2.12, 219.15 5.92, 221.21 24.57 C224.56 42.41, 220.33 51.49, 221.21 73.72 C219.41 93.44, 215.57 96.86, 196.63 98.3 C134.1 98.02, 66.85 97.84, 24.57 98.3 C5.29 100.31, -0.9 90.77, 0 73.72 C0.38 60.21, 1.72 50.54, 0 24.57 C-2.73 10.53, 7.58 -1.97, 24.57 0" stroke="none" stroke-width="0" fill="#ffffff"></path><path d="M24.57 0 C87.12 2.67, 150.36 3.04, 196.63 0 M24.57 0 C67.06 0.18, 109.94 0.42, 196.63 0 M196.63 0 C213.26 1.07, 221.85 7.61, 221.21 24.57 M196.63 0 C213.35 1.69, 222.14 6.4, 221.21 24.57 M221.21 24.57 C218.97 41.13, 220.13 60.04, 221.21 73.72 M221.21 24.57 C221.86 36.66, 220.55 47.27, 221.21 73.72 M221.21 73.72 C219.72 90.44, 211.15 99.84, 196.63 98.3 M221.21 73.72 C223.06 90.46, 214.41 97.19, 196.63 98.3 M196.63 98.3 C139.46 100.85, 86.02 98.9, 24.57 98.3 M196.63 98.3 C127.52 97.66, 58.76 97.56, 24.57 98.3 M24.57 98.3 C9.5 99.99, 1.26 88.74, 0 73.72 M24.57 98.3 C6.91 96.44, 2.16 92.18, 0 73.72 M0 73.72 C0.32 60.08, -1 48.25, 0 24.57 M0 73.72 C0.36 62.3, 0.62 51.94, 0 24.57 M0 24.57 C-0.03 10.16, 8.29 -0.35, 24.57 0 M0 24.57 C1.37 8.83, 7.18 -0.9, 24.57 0" stroke="#1e1e1e" stroke-width="2" fill="none"></path></g><g transform="translate(973.7065937977122 1329.4478775064526) rotate(0 48.039939880371094 12.5)"><text x="48.039939880371094" y="17.52" font-family="Virgil, Segoe UI Emoji" font-size="20px" fill="#1e1e1e" text-anchor="middle" style="white-space: pre;" direction="ltr" dominant-baseline="alphabetic">repository</text></g><g stroke-linecap="round" transform="translate(646.9824949655022 1460.2483633500524) rotate(0 110.60306120474888 49.14760347767515)"><path d="M24.57 0 C63.8 2.63, 97.09 -1.76, 196.63 0 C213.05 0.94, 218 11.32, 221.21 24.57 C219.14 46.81, 223.49 60.94, 221.21 73.72 C223.9 93.06, 211.02 100.26, 196.63 98.3 C135.24 101.4, 78.74 100.04, 24.57 98.3 C5.78 97.02, -2.31 90.17, 0 73.72 C-3.07 64.13, -0.96 47.87, 0 24.57 C-1.61 11.23, 5.75 2.28, 24.57 0" stroke="none" stroke-width="0" fill="#ffffff"></path><path d="M24.57 0 C84.49 -0.88, 145.13 -1.75, 196.63 0 M24.57 0 C59.75 1.78, 95.01 0.95, 196.63 0 M196.63 0 C213.31 1.47, 222.02 6.64, 221.21 24.57 M196.63 0 C213.99 -2.13, 219.86 6.14, 221.21 24.57 M221.21 24.57 C219.73 38.08, 219.83 54.35, 221.21 73.72 M221.21 24.57 C220.21 42.33, 220.02 60.52, 221.21 73.72 M221.21 73.72 C222.81 90.41, 214.23 97.34, 196.63 98.3 M221.21 73.72 C221.82 88.38, 214.36 97.16, 196.63 98.3 M196.63 98.3 C133.66 97.51, 65.01 96.65, 24.57 98.3 M196.63 98.3 C130.47 100.48, 63.64 98.95, 24.57 98.3 M24.57 98.3 C7.07 96.68, 1.88 91.91, 0 73.72 M24.57 98.3 C7.63 100.41, 1.52 90.99, 0 73.72 M0 73.72 C-1.28 60.61, 0.1 46.13, 0 24.57 M0 73.72 C-0.49 60.66, -0.42 45.46, 0 24.57 M0 24.57 C1.19 8.74, 7.31 -0.78, 24.57 0 M0 24.57 C1.83 8.23, 6.84 -1.75, 24.57 0" stroke="#1e1e1e" stroke-width="2" fill="none"></path></g><g transform="translate(665.6856156795284 1496.8959668277275) rotate(0 91.89994049072266 12.5)"><text x="91.89994049072266" y="17.52" font-family="Virgil, Segoe UI Emoji" font-size="20px" fill="#1e1e1e" text-anchor="middle" style="white-space: pre;" direction="ltr" dominant-baseline="alphabetic">Compose UI / XML</text></g><g stroke-linecap="round"><g transform="translate(767.1430647012539 1447.3380591709283) rotate(0 -0.9074613869602217 -17.812628327354105)"><path d="M-0.14 -0.53 C-0.47 -6.47, -1.61 -30.22, -1.87 -36.02 M0.79 0.39 C0.37 -5.46, -1.86 -29.42, -2.33 -35.53" stroke="#1e1e1e" stroke-width="2" fill="none"></path></g><g transform="translate(767.1430647012539 1447.3380591709283) rotate(0 -0.9074613869602217 -17.812628327354105)"><path d="M5.18 -19.35 C1.99 -24.6, -0.19 -29.54, -2.33 -35.53 M5.18 -19.35 C2.56 -24.76, 0.02 -31.15, -2.33 -35.53" stroke="#1e1e1e" stroke-width="2" fill="none"></path></g><g transform="translate(767.1430647012539 1447.3380591709283) rotate(0 -0.9074613869602217 -17.812628327354105)"><path d="M-6.97 -18.3 C-6.3 -23.87, -4.61 -29.14, -2.33 -35.53 M-6.97 -18.3 C-5.29 -24.06, -3.54 -30.82, -2.33 -35.53" stroke="#1e1e1e" stroke-width="2" fill="none"></path></g></g><mask></mask><g stroke-linecap="round"><g transform="translate(1016.9588613887527 1401.5126145184913) rotate(0 0.7112143216540971 19.442400713728603)"><path d="M-0.06 -0.4 C0.21 6.22, 1.21 32.66, 1.49 39.18 M-0.75 0.59 C-0.53 7.09, 0.74 31.92, 1.09 38.37" stroke="#1e1e1e" stroke-width="2" fill="none"></path></g><g transform="translate(1016.9588613887527 1401.5126145184913) rotate(0 0.7112143216540971 19.442400713728603)"><path d="M-6.51 20.46 C-5.21 25.5, -1.9 30.6, 1.09 38.37 M-6.51 20.46 C-4.24 24.9, -2.17 29.68, 1.09 38.37" stroke="#1e1e1e" stroke-width="2" fill="none"></path></g><g transform="translate(1016.9588613887527 1401.5126145184913) rotate(0 0.7112143216540971 19.442400713728603)"><path d="M6.78 19.76 C4.43 24.98, 4.09 30.28, 1.09 38.37 M6.78 19.76 C5.45 24.44, 3.92 29.41, 1.09 38.37" stroke="#1e1e1e" stroke-width="2" fill="none"></path></g></g><mask></mask><g stroke-linecap="round" transform="translate(911.143472488081 1460.248363256822) rotate(0 110.60306120474888 49.14760347767515)"><path d="M24.57 0 C83.72 -3.8, 134.1 -4.48, 196.63 0 C216.35 2.56, 219.77 10.89, 221.21 24.57 C222.16 42.56, 221.98 59.22, 221.21 73.72 C223.22 89.2, 213.68 95.88, 196.63 98.3 C149.03 99.76, 105.27 95.63, 24.57 98.3 C10.53 97.68, -1.97 88.49, 0 73.72 C4.05 56.79, 2.53 38.99, 0 24.57 C-0.78 11.72, 6.2 0.6, 24.57 0" stroke="none" stroke-width="0" fill="#ffffff"></path><path d="M24.57 0 C75.44 0.43, 123.57 0.08, 196.63 0 M24.57 0 C89.25 0.41, 152.5 0.45, 196.63 0 M196.63 0 C212.75 -0.62, 223.04 6.87, 221.21 24.57 M196.63 0 C212.35 -1.4, 223.04 9.52, 221.21 24.57 M221.21 24.57 C221.39 34.96, 222.59 50.67, 221.21 73.72 M221.21 24.57 C221.77 39.32, 222.09 55.07, 221.21 73.72 M221.21 73.72 C222.75 91.85, 212.61 100.25, 196.63 98.3 M221.21 73.72 C220.7 88.08, 211.52 100.33, 196.63 98.3 M196.63 98.3 C163.22 100.68, 125.05 98.3, 24.57 98.3 M196.63 98.3 C158.65 100.77, 121.82 100.23, 24.57 98.3 M24.57 98.3 C8.09 97.74, 1.62 88.69, 0 73.72 M24.57 98.3 C9.78 98.26, 1.62 89.78, 0 73.72 M0 73.72 C1.59 54.35, -0.72 35.96, 0 24.57 M0 73.72 C1.01 57.64, -0.37 40.76, 0 24.57 M0 24.57 C-1.67 6.55, 7.86 1.08, 24.57 0 M0 24.57 C1.35 6.88, 6.74 0.02, 24.57 0" stroke="#1e1e1e" stroke-width="2" fill="none"></path></g><g transform="translate(960.6265843520096 1496.895966734497) rotate(0 61.11994934082031 12.5)"><text x="61.11994934082031" y="17.52" font-family="Virgil, Segoe UI Emoji" font-size="20px" fill="#1e1e1e" text-anchor="middle" style="white-space: pre;" direction="ltr" dominant-baseline="alphabetic">data source</text></g><g transform="translate(1175.7765799067256 1392.4351027026532) rotate(0 100.90796661376953 22.5)"><text x="0" y="31.536" font-family="Virgil, Segoe UI Emoji" font-size="36px" fill="#1e1e1e" text-anchor="start" style="white-space: pre;" direction="ltr" dominant-baseline="alphabetic">Android App</text></g><g stroke-linecap="round"><g transform="translate(640.2230280375979 1339.2787034363082) rotate(0 -116.9596519843949 -243.42833112409517)"><path d="M0.1 -1.04 C-39.09 -46.65, -226.15 -191.87, -234.7 -272.89 C-243.25 -353.9, -81.69 -451.41, -51.2 -487.15 M-1.31 1.03 C-40.15 -44.98, -223.97 -193.33, -232.4 -274.5 C-240.83 -355.67, -82 -450.65, -51.88 -485.99" stroke="#1e1e1e" stroke-width="2" fill="none"></path></g><g transform="translate(640.2230280375979 1339.2787034363082) rotate(0 -116.9596519843949 -243.42833112409517)"><path d="M-64.21 -464.24 C-61.95 -472.87, -54.45 -478.62, -51.88 -485.99 M-64.21 -464.24 C-60.92 -470.11, -56.83 -476.38, -51.88 -485.99" stroke="#1e1e1e" stroke-width="2" fill="none"></path></g><g transform="translate(640.2230280375979 1339.2787034363082) rotate(0 -116.9596519843949 -243.42833112409517)"><path d="M-75.31 -477.25 C-69.23 -481.52, -58 -482.9, -51.88 -485.99 M-75.31 -477.25 C-69.01 -479.49, -61.85 -482.18, -51.88 -485.99" stroke="#1e1e1e" stroke-width="2" fill="none"></path></g></g><mask></mask><g stroke-linecap="round"><g transform="translate(1134.686926519491 1341.1804580842672) rotate(0 80.82580584215702 -246.28099936967828)"><path d="M0.15 -0.58 C29.15 -42.97, 176.47 -171.83, 174.4 -253.66 C172.32 -335.5, 18.95 -451.62, -12.29 -491.58 M-1.23 1.74 C27.53 -41.02, 175.03 -172.64, 173.15 -255.17 C171.27 -337.69, 18.46 -453.81, -12.52 -493.4" stroke="#1e1e1e" stroke-width="2" fill="none"></path></g><g transform="translate(1134.686926519491 1341.1804580842672) rotate(0 80.82580584215702 -246.28099936967828)"><path d="M10.15 -482.86 C1.56 -487.29, -3.08 -488.16, -12.52 -493.4 M10.15 -482.86 C1.58 -486.57, -7.05 -491.58, -12.52 -493.4" stroke="#1e1e1e" stroke-width="2" fill="none"></path></g><g transform="translate(1134.686926519491 1341.1804580842672) rotate(0 80.82580584215702 -246.28099936967828)"><path d="M-1.93 -470.75 C-6.55 -479.25, -7.17 -484.15, -12.52 -493.4 M-1.93 -470.75 C-5.91 -479.01, -9.93 -488.64, -12.52 -493.4" stroke="#1e1e1e" stroke-width="2" fill="none"></path></g></g><mask></mask><g stroke-linecap="round" transform="translate(511.9170300826718 10) rotate(0 325.5683586650716 180.3236960821996)"><path d="M32 0 C201.42 -1.07, 370.4 -1.03, 619.14 0 C639.4 2.45, 648.54 10.15, 651.14 32 C649.45 132, 652.91 227.18, 651.14 328.65 C653.86 351.39, 640.21 363.74, 619.14 360.65 C492.99 358.72, 366.11 358.33, 32 360.65 C11.61 362.86, -0.61 351.25, 0 328.65 C3.79 231.8, 3.48 135.25, 0 32 C2.82 12.44, 11.28 -2.62, 32 0" stroke="none" stroke-width="0" fill="#a5d8ff"></path><path d="M32 0 C151.89 -0.87, 269.82 -1.72, 619.14 0 M32 0 C155.59 2.56, 279.39 2.68, 619.14 0 M619.14 0 C639.44 1.92, 652.3 11.5, 651.14 32 M619.14 0 C639.43 0.69, 651.15 9.55, 651.14 32 M651.14 32 C651.48 118, 650.38 200.76, 651.14 328.65 M651.14 32 C650.11 123.85, 650.32 216.69, 651.14 328.65 M651.14 328.65 C652.28 351.54, 640.05 362.51, 619.14 360.65 M651.14 328.65 C652.16 351.2, 642.2 362.58, 619.14 360.65 M619.14 360.65 C424.49 360.24, 229.01 359.9, 32 360.65 M619.14 360.65 C492.27 359.19, 365.43 359.37, 32 360.65 M32 360.65 C10.24 362.39, 0.88 351.01, 0 328.65 M32 360.65 C11.72 362.01, -2.25 350.73, 0 328.65 M0 328.65 C1.36 244.4, 1.61 159.75, 0 32 M0 328.65 C-1.02 242.07, -0.8 154.69, 0 32 M0 32 C-1.22 9.52, 9.47 0.39, 32 0 M0 32 C-1.84 11.1, 9.07 0.57, 32 0" stroke="#1e1e1e" stroke-width="2" fill="none"></path></g><g stroke-linecap="round"><g transform="translate(467.4773403862491 104.03003108424491) rotate(0 83.45880782672384 -2.0176658958389453)"><path d="M0.95 -0.81 C13.31 -1.84, 47.23 -4.9, 74.96 -5.11 C102.69 -5.31, 152.08 -2.88, 167.31 -2.05 M-0.01 1.39 C12.1 0.98, 46.05 -3.67, 73.84 -4.13 C101.63 -4.59, 151.35 -1.66, 166.75 -1.35" stroke="#1e1e1e" stroke-width="2" fill="none"></path></g><g transform="translate(467.4773403862491 104.03003108424491) rotate(0 83.45880782672384 -2.0176658958389453)"><path d="M142.95 6.3 C150.19 2.78, 158.41 1.2, 166.75 -1.35 M142.95 6.3 C147.31 5.54, 152.07 4.02, 166.75 -1.35" stroke="#1e1e1e" stroke-width="2" fill="none"></path></g><g transform="translate(467.4773403862491 104.03003108424491) rotate(0 83.45880782672384 -2.0176658958389453)"><path d="M143.6 -10.79 C150.76 -8.09, 158.74 -3.45, 166.75 -1.35 M143.6 -10.79 C147.75 -8.1, 152.37 -6.17, 166.75 -1.35" stroke="#1e1e1e" stroke-width="2" fill="none"></path></g></g><mask></mask><g transform="translate(111.46010720924096 89.67585201437942) rotate(0 172.69195556640625 22.5)"><text x="0" y="31.536" font-family="Virgil, Segoe UI Emoji" font-size="36px" fill="#1e1e1e" text-anchor="start" style="white-space: pre;" direction="ltr" dominant-baseline="alphabetic">Entry Point for iOS</text></g><g stroke-linecap="round" transform="translate(645.3718549269806 225.71312726524957) rotate(0 110.60306120474888 49.14760347767515)"><path d="M24.57 0 C66.44 -2.62, 114.59 -2.05, 196.63 0 C216.27 -2.38, 223.94 10.49, 221.21 24.57 C221.61 40.99, 218.83 48.36, 221.21 73.72 C219.71 90.81, 212.6 97.9, 196.63 98.3 C150.98 101.47, 107.56 97.78, 24.57 98.3 C4.91 99.83, 0.56 91.22, 0 73.72 C-0.08 54.28, 1.78 42.17, 0 24.57 C-0.64 7.36, 7.15 1.37, 24.57 0" stroke="none" stroke-width="0" fill="#ffffff"></path><path d="M24.57 0 C69.51 -1.57, 119.64 -1.51, 196.63 0 M24.57 0 C92.78 -1.23, 159.38 -1.35, 196.63 0 M196.63 0 C213.03 -0.97, 220.92 7.23, 221.21 24.57 M196.63 0 C214.46 2.17, 223.24 8.65, 221.21 24.57 M221.21 24.57 C222.43 37.85, 219.53 51.09, 221.21 73.72 M221.21 24.57 C221.28 38.36, 221.93 50.81, 221.21 73.72 M221.21 73.72 C222.71 91.79, 213.65 99.38, 196.63 98.3 M221.21 73.72 C220.11 90.92, 215.06 97.53, 196.63 98.3 M196.63 98.3 C136.03 97.29, 76.97 97.8, 24.57 98.3 M196.63 98.3 C143.97 100.31, 90.89 100.38, 24.57 98.3 M24.57 98.3 C6.23 98.95, -0.34 88.61, 0 73.72 M24.57 98.3 C9.29 97.85, -0.4 90.06, 0 73.72 M0 73.72 C1.23 63.25, 0.74 52.12, 0 24.57 M0 73.72 C-0.3 61.12, -0.5 48.33, 0 24.57 M0 24.57 C-1.39 8.69, 7.95 0.73, 24.57 0 M0 24.57 C0.23 8.96, 7.17 0.83, 24.57 0" stroke="#1e1e1e" stroke-width="2" fill="none"></path></g><g transform="translate(710.0049606873936 262.3607307429247) rotate(0 45.96995544433594 12.5)"><text x="45.96995544433594" y="17.52" font-family="Virgil, Segoe UI Emoji" font-size="20px" fill="#1e1e1e" text-anchor="middle" style="white-space: pre;" direction="ltr" dominant-baseline="alphabetic">viewModel</text></g><g stroke-linecap="round" transform="translate(908.3451598251295 225.71312705372839) rotate(0 110.60306120474888 49.14760347767515)"><path d="M24.57 0 C77 -2.44, 125.64 2.24, 196.63 0 C211.97 2.72, 222.62 7.93, 221.21 24.57 C218.96 44.25, 220.04 62.11, 221.21 73.72 C219.83 91.05, 215.23 97.68, 196.63 98.3 C135.66 97.74, 81.81 97.32, 24.57 98.3 C9.71 101.12, 1.78 90.71, 0 73.72 C-1.24 61.73, -1.65 52.76, 0 24.57 C1.8 10.83, 7.25 2.03, 24.57 0" stroke="none" stroke-width="0" fill="#ffffff"></path><path d="M24.57 0 C69.34 -0.22, 112.31 1.98, 196.63 0 M24.57 0 C83.38 -1, 142.03 -0.99, 196.63 0 M196.63 0 C214.27 1.89, 222.98 8.59, 221.21 24.57 M196.63 0 C212.04 0.27, 219.89 9.53, 221.21 24.57 M221.21 24.57 C220.01 41.95, 222.34 56.64, 221.21 73.72 M221.21 24.57 C222.18 44.73, 221.75 63.74, 221.21 73.72 M221.21 73.72 C220.25 90.81, 214.79 97.63, 196.63 98.3 M221.21 73.72 C222.26 88.18, 211.09 97.01, 196.63 98.3 M196.63 98.3 C141.43 98.68, 87.63 99.98, 24.57 98.3 M196.63 98.3 C135.17 99.64, 75.49 98.56, 24.57 98.3 M24.57 98.3 C9.15 97.91, -0.35 90.06, 0 73.72 M24.57 98.3 C6.77 98.13, 1.55 91.47, 0 73.72 M0 73.72 C-0.97 54.7, -1.32 36.93, 0 24.57 M0 73.72 C-0.3 58.27, 0.27 42.7, 0 24.57 M0 24.57 C0.2 8.86, 7.3 0.72, 24.57 0 M0 24.57 C-0.96 7.51, 9.76 -1.66, 24.57 0" stroke="#1e1e1e" stroke-width="2" fill="none"></path></g><g transform="translate(970.9082811495073 262.36073053140353) rotate(0 48.039939880371094 12.5)"><text x="48.039939880371094" y="17.52" font-family="Virgil, Segoe UI Emoji" font-size="20px" fill="#1e1e1e" text-anchor="middle" style="white-space: pre;" direction="ltr" dominant-baseline="alphabetic">repository</text></g><g stroke-linecap="round" transform="translate(645.371854937227 50.65791059719231) rotate(0 110.60306120474888 49.14760347767515)"><path d="M24.57 0 C63.77 0.75, 106.45 -2.24, 196.63 0 C216.11 -3.05, 218.35 6.69, 221.21 24.57 C219.73 41.23, 223.32 55.39, 221.21 73.72 C222.48 91.11, 210.59 95.01, 196.63 98.3 C139.21 102.07, 80.53 99.87, 24.57 98.3 C5.57 100.77, 2.08 89.47, 0 73.72 C2.05 62.74, -0.69 48.53, 0 24.57 C-0.93 6.98, 11.68 1.72, 24.57 0" stroke="none" stroke-width="0" fill="#ffffff"></path><path d="M24.57 0 C68.13 -1.9, 110.6 -0.98, 196.63 0 M24.57 0 C68.46 1.77, 111.97 1.02, 196.63 0 M196.63 0 C212.17 0.24, 220.06 9.35, 221.21 24.57 M196.63 0 C213.72 -1.99, 222.57 7.31, 221.21 24.57 M221.21 24.57 C223.45 43.01, 222.65 61.17, 221.21 73.72 M221.21 24.57 C220.89 43.8, 222.25 61.99, 221.21 73.72 M221.21 73.72 C222.12 88.43, 211.34 97.18, 196.63 98.3 M221.21 73.72 C221.71 89.29, 214.09 98.49, 196.63 98.3 M196.63 98.3 C149.7 99.96, 101.89 97.09, 24.57 98.3 M196.63 98.3 C139.87 96.81, 81.98 96.99, 24.57 98.3 M24.57 98.3 C6.96 98.15, 1.35 91.3, 0 73.72 M24.57 98.3 C9.62 99.1, 2.1 89.19, 0 73.72 M0 73.72 C0.67 60.38, 0.66 48.84, 0 24.57 M0 73.72 C0.16 58.09, -0.39 42.16, 0 24.57 M0 24.57 C-0.83 7.6, 9.55 -1.44, 24.57 0 M0 24.57 C-0.33 8.89, 8.23 2.08, 24.57 0" stroke="#1e1e1e" stroke-width="2" fill="none"></path></g><g transform="translate(713.5149475750814 87.30551407486746) rotate(0 42.45996856689453 12.5)"><text x="42.45996856689453" y="17.52" font-family="Virgil, Segoe UI Emoji" font-size="20px" fill="#1e1e1e" text-anchor="middle" style="white-space: pre;" direction="ltr" dominant-baseline="alphabetic">Swift UI</text></g><g stroke-linecap="round"><g transform="translate(746.1924127244201 161.86342173166668) rotate(0 0.7694246044084139 21.61619216388317)"><path d="M0 -0.27 C0.29 6.87, 1.15 35.63, 1.46 42.97 M-0.66 0.78 C-0.43 7.98, 0.59 36.51, 0.99 43.53" stroke="#1e1e1e" stroke-width="2" fill="none"></path></g><g transform="translate(746.1924127244201 161.86342173166668) rotate(0 0.7694246044084139 21.61619216388317)"><path d="M-7.3 23.56 C-5.65 28.5, -3.53 34.36, 0.99 43.53 M-7.3 23.56 C-4.16 31.48, -0.96 39.6, 0.99 43.53" stroke="#1e1e1e" stroke-width="2" fill="none"></path></g><g transform="translate(746.1924127244201 161.86342173166668) rotate(0 0.7694246044084139 21.61619216388317)"><path d="M7.48 22.9 C5.37 28.01, 3.72 34.04, 0.99 43.53 M7.48 22.9 C4.8 31.1, 2.16 39.47, 0.99 43.53" stroke="#1e1e1e" stroke-width="2" fill="none"></path></g></g><mask></mask><g stroke-linecap="round"><g transform="translate(1024.8091956891176 215.29599351936486) rotate(0 -0.4484095378361417 -23.24596424944866)"><path d="M-0.08 -0.26 C-0.17 -7.88, -0.5 -38.29, -0.55 -45.97 M-0.78 0.79 C-0.92 -6.94, -0.85 -38.92, -0.81 -46.67" stroke="#1e1e1e" stroke-width="2" fill="none"></path></g><g transform="translate(1024.8091956891176 215.29599351936486) rotate(0 -0.4484095378361417 -23.24596424944866)"><path d="M7.07 -24.8 C4.28 -30.75, 3.33 -37.08, -0.81 -46.67 M7.07 -24.8 C4.31 -31.5, 2.23 -39.21, -0.81 -46.67" stroke="#1e1e1e" stroke-width="2" fill="none"></path></g><g transform="translate(1024.8091956891176 215.29599351936486) rotate(0 -0.4484095378361417 -23.24596424944866)"><path d="M-8.83 -24.85 C-6.84 -30.78, -3.01 -37.09, -0.81 -46.67 M-8.83 -24.85 C-6.5 -31.54, -3.5 -39.24, -0.81 -46.67" stroke="#1e1e1e" stroke-width="2" fill="none"></path></g></g><mask></mask><g stroke-linecap="round" transform="translate(911.143472107763 50.657910754247496) rotate(0 110.60306120474888 49.14760347767515)"><path d="M24.57 0 C62.34 0.87, 98.28 -0.09, 196.63 0 C213.96 2.21, 220.59 9.46, 221.21 24.57 C222.14 41.25, 221.73 58.32, 221.21 73.72 C224.03 91.88, 213.63 95.67, 196.63 98.3 C132.36 96.7, 71.12 99.55, 24.57 98.3 C10.83 97.35, 2.03 89.17, 0 73.72 C-3.01 63.36, -1.17 48.12, 0 24.57 C-1.26 11.4, 6.02 1.18, 24.57 0" stroke="none" stroke-width="0" fill="#ffffff"></path><path d="M24.57 0 C75.58 0.69, 123.21 -1.93, 196.63 0 M24.57 0 C78.52 -1.87, 132.45 -1.39, 196.63 0 M196.63 0 C214.15 1.56, 220.79 10.05, 221.21 24.57 M196.63 0 C214.04 1.22, 222.94 10.12, 221.21 24.57 M221.21 24.57 C222.18 42.67, 220.81 58.12, 221.21 73.72 M221.21 24.57 C221.01 34.85, 221.26 45.91, 221.21 73.72 M221.21 73.72 C220.78 91.84, 213.89 99.33, 196.63 98.3 M221.21 73.72 C222.26 91.46, 210.76 99.05, 196.63 98.3 M196.63 98.3 C147.53 98.77, 99.16 97.89, 24.57 98.3 M196.63 98.3 C146.89 99.67, 96.82 98.92, 24.57 98.3 M24.57 98.3 C6.97 97.15, -1.2 90.49, 0 73.72 M24.57 98.3 C6.35 98.73, -1.6 90.67, 0 73.72 M0 73.72 C0.49 58.69, 0.54 44.61, 0 24.57 M0 73.72 C-0.48 60.74, -0.32 48.05, 0 24.57 M0 24.57 C-1.32 9.71, 9.47 -0.58, 24.57 0 M0 24.57 C1.74 9.09, 8.02 1.98, 24.57 0" stroke="#1e1e1e" stroke-width="2" fill="none"></path></g><g transform="translate(960.6265839716916 87.30551423192264) rotate(0 61.11994934082031 12.5)"><text x="61.11994934082031" y="17.52" font-family="Virgil, Segoe UI Emoji" font-size="20px" fill="#1e1e1e" text-anchor="middle" style="white-space: pre;" direction="ltr" dominant-baseline="alphabetic">data source</text></g><g transform="translate(1198.4842757485312 150.29273920007836) rotate(0 66.50997161865234 22.5)"><text x="0" y="31.536" font-family="Virgil, Segoe UI Emoji" font-size="36px" fill="#1e1e1e" text-anchor="start" style="white-space: pre;" direction="ltr" dominant-baseline="alphabetic">iOS App</text></g><g stroke-linecap="round"><g transform="translate(754.3300480500548 330.8578125100139) rotate(0 -157.84802984110775 117.91060185566403)"><path d="M0.98 -0.1 C-51.61 39.05, -262.76 196.8, -315.47 235.97 M0.03 -1.2 C-52.69 38.69, -263.65 198.09, -316.3 237.59" stroke="#1e1e1e" stroke-width="2" fill="none"></path></g><g transform="translate(754.3300480500548 330.8578125100139) rotate(0 -157.84802984110775 117.91060185566403)"><path d="M-302.68 216.63 C-306.79 223.46, -310.49 230.07, -316.3 237.59 M-302.68 216.63 C-306.22 221.75, -309.83 226.83, -316.3 237.59" stroke="#1e1e1e" stroke-width="2" fill="none"></path></g><g transform="translate(754.3300480500548 330.8578125100139) rotate(0 -157.84802984110775 117.91060185566403)"><path d="M-292.39 230.29 C-299.74 233.07, -306.56 235.54, -316.3 237.59 M-292.39 230.29 C-298.22 232.42, -304.17 234.39, -316.3 237.59" stroke="#1e1e1e" stroke-width="2" fill="none"></path></g></g><mask></mask><g stroke-linecap="round"><g transform="translate(1024.3834158029504 330.8578487836585) rotate(0 113.1560701411886 122.66504288602664)"><path d="M-0.02 0.51 C37.76 41.09, 188.08 203.38, 225.72 244.15 M-1.48 -0.27 C36.77 40.35, 190.41 203.96, 228.12 245.07" stroke="#1e1e1e" stroke-width="2" fill="none"></path></g><g transform="translate(1024.3834158029504 330.8578487836585) rotate(0 113.1560701411886 122.66504288602664)"><path d="M205.86 233.69 C211.75 235.25, 213.92 237.97, 228.12 245.07 M205.86 233.69 C212.17 235.87, 217.65 239.17, 228.12 245.07" stroke="#1e1e1e" stroke-width="2" fill="none"></path></g><g transform="translate(1024.3834158029504 330.8578487836585) rotate(0 113.1560701411886 122.66504288602664)"><path d="M218.39 222.04 C221.55 226.21, 220.91 231.53, 228.12 245.07 M218.39 222.04 C221.22 227.6, 223.13 234.22, 228.12 245.07" stroke="#1e1e1e" stroke-width="2" fill="none"></path></g></g><mask></mask></svg>