<svg version="1.1" xmlns="http://www.w3.org/2000/svg" viewBox="0 0 1826.0244056353008 950.6667078556309" width="5478.073216905903" height="2852.0001235668924">
  <!-- svg-source:excalidraw -->
  
  <defs>
    <style class="style-fonts">
      @font-face {
        font-family: "Virgil";
        src: url("https://excalidraw.com/Virgil.woff2");
      }
      @font-face {
        font-family: "Cascadia";
        src: url("https://excalidraw.com/Cascadia.woff2");
      }
      @font-face {
        font-family: "Assistant";
        src: url("https://excalidraw.com/Assistant-Regular.woff2");
      }
    </style>
    
  </defs>
  <rect x="0" y="0" width="1826.0244056353008" height="950.6667078556309" fill="#ffffff"></rect><g stroke-linecap="round" transform="translate(1181.3578610389468 12.183862177246738) rotate(0 317.333272298177 464.24142283919207)"><path d="M7.86 8.16 C7.86 8.16, 7.86 8.16, 7.86 8.16 M7.86 8.16 C7.86 8.16, 7.86 8.16, 7.86 8.16 M1.43 27.75 C7.37 19.36, 15.2 13.17, 24.4 1.33 M1.43 27.75 C9.95 16.11, 19.26 5.88, 24.4 1.33 M0.26 41.3 C10.38 28.59, 23.77 17.39, 36.34 -0.21 M0.26 41.3 C12.58 28.3, 23.31 16.14, 36.34 -0.21 M0.39 53.34 C13.27 39.83, 20.94 29.22, 46.97 -0.25 M0.39 53.34 C10.4 42.29, 19.31 30.45, 46.97 -0.25 M0.52 65.38 C18.73 47.37, 33.97 27.45, 57.6 -0.28 M0.52 65.38 C13.5 50.08, 28.14 33.57, 57.6 -0.28 M0 78.17 C14.95 59.91, 34.65 40.51, 67.57 0.44 M0 78.17 C27.87 46.68, 53.38 15.81, 67.57 0.44 M0.13 90.22 C19.84 67.51, 36.59 46.43, 78.2 0.41 M0.13 90.22 C27.29 57.88, 55.45 25.3, 78.2 0.41 M0.26 102.26 C20.35 76.79, 45.96 48.59, 88.83 0.37 M0.26 102.26 C21.42 76.79, 43.58 51.13, 88.83 0.37 M0.4 114.3 C24.53 86.95, 50.64 57.07, 99.46 0.34 M0.4 114.3 C31.49 77.2, 65.57 38.12, 99.46 0.34 M0.53 126.34 C21.05 99.24, 44.38 74.79, 110.09 0.3 M0.53 126.34 C30.45 89.96, 61.59 55.53, 110.09 0.3 M0.01 139.13 C43.82 88.52, 85.77 40.07, 120.72 0.27 M0.01 139.13 C37.16 98.09, 73.34 56.39, 120.72 0.27 M0.14 151.17 C27.87 118.51, 56.42 86.76, 131.35 0.23 M0.14 151.17 C34.49 110.53, 68.45 71.65, 131.35 0.23 M0.27 163.22 C38.92 115.77, 79.43 69.44, 141.98 0.2 M0.27 163.22 C46.17 110.39, 92.24 56.41, 141.98 0.2 M0.41 175.26 C29.97 138.17, 61.32 104.67, 152.61 0.16 M0.41 175.26 C52.58 112.76, 107.32 51.2, 152.61 0.16 M0.54 187.3 C55.38 124.77, 110.04 60.41, 163.24 0.13 M0.54 187.3 C49.28 128.47, 100.63 71.14, 163.24 0.13 M0.02 200.09 C42.53 147.35, 89.12 98.62, 173.87 0.09 M0.02 200.09 C39.5 154.59, 78.87 107.96, 173.87 0.09 M0.15 212.13 C61.32 140.46, 121.37 71.17, 184.5 0.06 M0.15 212.13 C54.02 150.56, 108.38 88.21, 184.5 0.06 M0.28 224.17 C51.35 164.15, 103.68 103.16, 195.13 0.03 M0.28 224.17 C67.8 149.61, 134.18 73.46, 195.13 0.03 M0.42 236.22 C52.61 175.74, 104.14 115.75, 205.76 -0.01 M0.42 236.22 C72.76 151.38, 145.11 67.08, 205.76 -0.01 M-0.11 249.01 C63.68 175.94, 127.46 102.95, 216.39 -0.04 M-0.11 249.01 C46.9 194.98, 93.9 140.93, 216.39 -0.04 M0.03 261.05 C86.66 160.21, 174.17 63.42, 227.02 -0.08 M0.03 261.05 C72.15 177.51, 144.71 93.1, 227.02 -0.08 M0.16 273.09 C49.12 217.75, 99.07 160.5, 237.65 -0.11 M0.16 273.09 C90.02 167.77, 181.17 63.27, 237.65 -0.11 M0.29 285.13 C89.19 181.86, 180.08 77.96, 248.28 -0.15 M0.29 285.13 C60.87 213.93, 120.91 144.25, 248.28 -0.15 M0.43 297.17 C59.61 230.25, 119.12 164.06, 258.91 -0.18 M0.43 297.17 C67.16 220.81, 134.14 143.25, 258.91 -0.18 M-0.1 309.97 C97.51 198.31, 192.63 88.21, 269.54 -0.22 M-0.1 309.97 C88.93 208.88, 176.56 107.66, 269.54 -0.22 M0.04 322.01 C112.64 194.61, 223.58 65.07, 280.17 -0.25 M0.04 322.01 C72.06 241.37, 143.25 160.11, 280.17 -0.25 M0.17 334.05 C83.19 238.86, 164.91 145.34, 290.8 -0.28 M0.17 334.05 C59.52 265.63, 119.36 198.07, 290.8 -0.28 M0.3 346.09 C94.17 237.27, 190.76 126.77, 300.78 0.44 M0.3 346.09 C79.05 257.45, 155.27 168.49, 300.78 0.44 M0.44 358.13 C117.24 224.49, 234.19 90.98, 311.41 0.4 M0.44 358.13 C78.66 267.87, 157.38 177.97, 311.41 0.4 M-0.09 370.93 C65.1 295.21, 130.43 221.05, 322.04 0.37 M-0.09 370.93 C112.26 240.94, 225.23 110.67, 322.04 0.37 M0.05 382.97 C74.97 298.49, 149.11 214.3, 332.67 0.33 M0.05 382.97 C95.94 272.77, 191.2 163.74, 332.67 0.33 M0.18 395.01 C73.39 311.24, 146.37 228.26, 343.3 0.3 M0.18 395.01 C107.49 271.49, 214.29 147.73, 343.3 0.3 M0.31 407.05 C113.91 276.55, 228.05 145.68, 353.93 0.26 M0.31 407.05 C93.38 299.34, 186.32 193.14, 353.93 0.26 M0.45 419.09 C124.31 272.97, 249.66 128.37, 364.56 0.23 M0.45 419.09 C109.6 295.2, 218.89 169.59, 364.56 0.23 M-0.08 431.89 C129.18 281.71, 258.51 132.23, 375.19 0.19 M-0.08 431.89 C139.68 270, 278.53 109.88, 375.19 0.19 M0.06 443.93 C125.47 297.14, 252.95 149.74, 385.82 0.16 M0.06 443.93 C140.79 282.53, 279.86 122.14, 385.82 0.16 M0.19 455.97 C104.47 339.13, 207.59 221.03, 396.45 0.12 M0.19 455.97 C138.45 299.12, 275.75 140.82, 396.45 0.12 M0.32 468.01 C137.36 311.02, 273.62 153.1, 407.08 0.09 M0.32 468.01 C139.59 309.26, 278.78 149.31, 407.08 0.09 M0.46 480.05 C88.95 378.87, 176.13 278.18, 417.71 0.06 M0.46 480.05 C151.08 306.74, 301.09 133.57, 417.71 0.06 M-0.07 492.85 C115.37 360.64, 228.75 229.45, 428.34 0.02 M-0.07 492.85 C156.4 311.09, 313.09 130.26, 428.34 0.02 M0.07 504.89 C100.25 391.3, 200.16 275.32, 438.97 -0.01 M0.07 504.89 C139.87 340.55, 282.08 177.39, 438.97 -0.01 M0.2 516.93 C115.78 383.99, 229.73 252.2, 449.6 -0.05 M0.2 516.93 C158.43 332.53, 316.46 150.31, 449.6 -0.05 M0.33 528.97 C153.36 351.14, 308.67 173.53, 460.23 -0.08 M0.33 528.97 C177.12 325.48, 354.11 122.34, 460.23 -0.08 M0.47 541.01 C180.84 334.11, 362.1 125.86, 470.86 -0.12 M0.47 541.01 C146.32 372.98, 291.81 206.09, 470.86 -0.12 M-0.06 553.81 C116.07 423.35, 229.39 290.94, 481.49 -0.15 M-0.06 553.81 C112.55 424.67, 224.38 296.87, 481.49 -0.15 M0.08 565.85 C177.45 363.87, 355.06 160.11, 492.12 -0.19 M0.08 565.85 C113.52 435.33, 226.2 305.5, 492.12 -0.19 M0.21 577.89 C112.05 447, 225.44 315.87, 502.75 -0.22 M0.21 577.89 C197.77 351.89, 395.76 123.75, 502.75 -0.22 M0.34 589.93 C116.96 452.73, 235.36 316.05, 513.38 -0.25 M0.34 589.93 C206.77 353.61, 410.78 118.65, 513.38 -0.25 M0.48 601.97 C146.27 434.27, 291.86 267.3, 523.35 0.47 M0.48 601.97 C178.21 399.54, 354.59 196.3, 523.35 0.47 M-0.05 614.76 C150.46 440.95, 299.81 270.36, 533.98 0.43 M-0.05 614.76 C154.98 434.12, 310.48 255.31, 533.98 0.43 M0.09 626.81 C192.81 405.72, 386.54 183.42, 544.61 0.4 M0.09 626.81 C199.36 395.33, 400.25 164.16, 544.61 0.4 M0.22 638.85 C182.48 431.02, 362.63 223.58, 555.24 0.36 M0.22 638.85 C148.09 466.09, 298.16 292.97, 555.24 0.36 M0.35 650.89 C172.83 449.4, 346.94 249.32, 565.87 0.33 M0.35 650.89 C190.27 432.79, 378.73 216.77, 565.87 0.33 M0.49 662.93 C127.49 515.46, 254.64 368.41, 576.5 0.29 M0.49 662.93 C164.53 474.12, 329.93 283.17, 576.5 0.29 M-0.04 675.72 C219.87 425.35, 438.81 173.92, 587.14 0.26 M-0.04 675.72 C185.33 464.2, 369.07 253.01, 587.14 0.26 M0.1 687.76 C212.16 442.14, 426.45 194.18, 597.77 0.22 M0.1 687.76 C230.29 420.95, 460.63 156.93, 597.77 0.22 M0.23 699.81 C162 515.13, 325.08 327.54, 607.74 0.94 M0.23 699.81 C202.35 469.51, 404.51 237.28, 607.74 0.94 M0.36 711.85 C225.6 453.71, 451.49 195.72, 617.06 2.42 M0.36 711.85 C238.37 437.07, 479.1 159.81, 617.06 2.42 M0.49 723.89 C187.73 509.82, 376.87 293.66, 624.41 6.16 M0.49 723.89 C160.64 542.25, 318.45 360.58, 624.41 6.16 M-0.03 736.68 C128.35 589.89, 255.83 444.75, 629.79 12.16 M-0.03 736.68 C140.06 572.3, 281.59 409.69, 629.79 12.16 M0.11 748.72 C170.49 554.36, 340.47 359.2, 633.86 19.67 M0.11 748.72 C172.74 546.81, 348.22 345.23, 633.86 19.67 M0.24 760.76 C169.61 564.42, 340.04 368.38, 635.3 30.21 M0.24 760.76 C248.95 469.13, 500.74 179.27, 635.3 30.21 M0.37 772.81 C218.86 521.16, 436.24 270.29, 634.78 43 M0.37 772.81 C154.3 595.6, 308.87 418.1, 634.78 43 M0.5 784.85 C189.69 569.73, 377.36 353.32, 634.91 55.04 M0.5 784.85 C191.38 562.71, 382.88 342, 634.91 55.04 M-0.02 797.64 C248.78 511.07, 498.56 222.5, 635.05 67.08 M-0.02 797.64 C212.57 556.9, 423.93 313.38, 635.05 67.08 M0.11 809.68 C163.07 618.16, 329.34 426.5, 635.18 79.12 M0.11 809.68 C207.77 570.1, 415.87 330.81, 635.18 79.12 M0.25 821.72 C176.89 620.7, 349.68 421.86, 634.66 91.92 M0.25 821.72 C228.53 556, 458.29 291.09, 634.66 91.92 M0.38 833.76 C165.38 640.97, 332.61 448.87, 634.79 103.96 M0.38 833.76 C219.52 577.87, 440.87 322.56, 634.79 103.96 M0.51 845.81 C200.28 618.03, 398.37 388.33, 634.92 116 M0.51 845.81 C182.91 633.96, 367.74 421.66, 634.92 116 M-0.01 858.6 C160.36 677.49, 318.38 495.18, 635.06 128.04 M-0.01 858.6 C146.92 690.49, 293.67 521.07, 635.06 128.04 M0.12 870.64 C154.62 694.56, 305.91 519.76, 635.19 140.08 M0.12 870.64 C198.69 640.58, 398.32 411.91, 635.19 140.08 M0.26 882.68 C186.34 667.26, 373.77 452.76, 634.67 152.88 M0.26 882.68 C205.13 644.57, 412.38 406.05, 634.67 152.88 M0.39 894.72 C165.64 705.26, 331.19 515.67, 634.8 164.92 M0.39 894.72 C231.13 629.22, 463.19 361.6, 634.8 164.92 M1.18 906.01 C197.27 675.59, 396.35 445.73, 634.93 176.96 M1.18 906.01 C243.19 630.09, 484.04 352.84, 634.93 176.96 M3.94 915.03 C237.45 648.41, 470.18 380.59, 635.07 189 M3.94 915.03 C145.81 751.82, 286.87 589.71, 635.07 189 M9.32 921.03 C235.69 663.36, 460.09 406.3, 635.2 201.04 M9.32 921.03 C145.92 763.54, 283.51 605.39, 635.2 201.04 M16.01 925.53 C168.14 749.4, 319.94 573.8, 634.68 213.84 M16.01 925.53 C139.88 780.68, 263.35 638.39, 634.68 213.84 M24.67 927.76 C213.22 710.08, 403.87 490.12, 634.81 225.88 M24.67 927.76 C190.87 738.77, 355.1 549.76, 634.81 225.88 M33.99 929.23 C248.63 679.86, 464.93 431.78, 634.94 237.92 M33.99 929.23 C184.25 758.59, 333.31 587.35, 634.94 237.92 M44.62 929.2 C279.61 659.49, 515.94 388.94, 635.08 249.96 M44.62 929.2 C182.2 770.81, 321.96 610.35, 635.08 249.96 M55.25 929.16 C204.7 753.8, 354.91 581.47, 635.21 262 M55.25 929.16 C207.4 757.43, 358.12 584.48, 635.21 262 M65.88 929.13 C221.27 747.08, 376.76 567.32, 634.69 274.8 M65.88 929.13 C191.89 781.43, 318.03 636.53, 634.69 274.8 M76.51 929.1 C235.28 746.49, 394.36 562.73, 634.82 286.84 M76.51 929.1 C279.75 695.87, 482.87 461.98, 634.82 286.84 M87.14 929.06 C272.3 720.09, 455.85 508, 634.95 298.88 M87.14 929.06 C204.66 797, 321.47 662.78, 634.95 298.88 M97.77 929.03 C240.43 765.37, 381.72 602.29, 635.09 310.92 M97.77 929.03 C224.03 785.23, 348.78 641.45, 635.09 310.92 M108.4 928.99 C219.46 801.58, 328.53 675.71, 635.22 322.96 M108.4 928.99 C311.66 694.24, 514.45 460.46, 635.22 322.96 M119.03 928.96 C326.57 689.96, 531.5 453.95, 634.7 335.76 M119.03 928.96 C312.45 707.37, 506.13 485.46, 634.7 335.76 M129.66 928.92 C262.31 777.9, 393.98 626.7, 634.83 347.8 M129.66 928.92 C234.37 809.48, 339.26 688.74, 634.83 347.8 M140.29 928.89 C332.44 706.01, 526.84 482.25, 634.96 359.84 M140.29 928.89 C259.92 794.21, 377.62 658.96, 634.96 359.84 M150.92 928.85 C292.37 767.68, 432.85 605.71, 635.1 371.88 M150.92 928.85 C312.72 745.09, 473.67 560.66, 635.1 371.88 M161.55 928.82 C313.2 750.49, 466.48 574.11, 634.57 384.67 M161.55 928.82 C308.02 760.6, 454.81 592.41, 634.57 384.67 M172.18 928.78 C283.81 799.79, 395.19 670.62, 634.71 396.71 M172.18 928.78 C311.66 766.04, 452.44 604.14, 634.71 396.71 M182.16 929.5 C346.49 739.25, 510.71 549.73, 634.84 408.76 M182.16 929.5 C281.79 816.33, 378.41 703.69, 634.84 408.76 M192.79 929.47 C319.54 786.07, 443.35 642.19, 634.97 420.8 M192.79 929.47 C307.03 796.81, 421.22 665.51, 634.97 420.8 M203.42 929.44 C315.32 799.57, 427.46 670.86, 635.1 432.84 M203.42 929.44 C298.48 821.66, 394.01 712.09, 635.1 432.84 M214.05 929.4 C348.06 774.87, 484.29 617.67, 634.58 445.63 M214.05 929.4 C302.44 826.49, 392.76 722.86, 634.58 445.63 M224.68 929.37 C328.73 808.06, 434.42 686.82, 634.71 457.67 M224.68 929.37 C359.21 772.79, 494.4 617.64, 634.71 457.67 M235.31 929.33 C357.87 785.11, 481.46 641.76, 634.85 469.71 M235.31 929.33 C391.02 752.31, 545.26 575.27, 634.85 469.71 M245.94 929.3 C396.06 758.13, 544.19 586.24, 634.98 481.76 M245.94 929.3 C395.85 756.31, 545.5 583.48, 634.98 481.76 M256.57 929.26 C380.94 786.73, 503.11 645.32, 635.11 493.8 M256.57 929.26 C358.71 809.73, 461.55 691.46, 635.11 493.8 M267.2 929.23 C392.33 785.12, 517.89 639.48, 634.59 506.59 M267.2 929.23 C403.78 772.3, 540.52 614.39, 634.59 506.59 M277.83 929.19 C377.45 813.1, 479.8 696.77, 634.72 518.63 M277.83 929.19 C406.84 780.69, 535.6 632.2, 634.72 518.63 M288.46 929.16 C371.21 832.29, 453.89 737.47, 634.86 530.67 M288.46 929.16 C394.9 806.48, 502.21 683.07, 634.86 530.67 M299.09 929.13 C378.84 836.97, 459.85 744.6, 634.99 542.71 M299.09 929.13 C378.21 836.8, 457.76 745.17, 634.99 542.71 M309.72 929.09 C393.08 833.69, 475.88 738.93, 635.12 554.75 M309.72 929.09 C428.45 794.77, 545.05 660.73, 635.12 554.75 M320.35 929.06 C409.2 825.71, 497.81 723.85, 634.6 567.55 M320.35 929.06 C400.63 834.79, 482.84 741.23, 634.6 567.55 M330.98 929.02 C439.72 803.37, 547.86 677.05, 634.73 579.59 M330.98 929.02 C427.42 816.1, 525.02 704.1, 634.73 579.59 M341.61 928.99 C411 851.47, 480.47 771.53, 634.87 591.63 M341.61 928.99 C428.11 828.87, 514.04 731.11, 634.87 591.63 M352.24 928.95 C409.02 864.04, 465.48 798.36, 635 603.67 M352.24 928.95 C447.2 820.41, 540.87 711.37, 635 603.67 M362.87 928.92 C460.98 815.94, 561.7 701.79, 635.13 615.71 M362.87 928.92 C467.23 812.35, 569.56 694.93, 635.13 615.71 M373.5 928.88 C435.92 859.05, 497.37 788.24, 634.61 628.51 M373.5 928.88 C472.22 816.68, 568.36 705.21, 634.61 628.51 M384.13 928.85 C447.41 853.56, 513 779.51, 634.74 640.55 M384.13 928.85 C446.24 857.89, 507.53 786.44, 634.74 640.55 M394.76 928.81 C486.02 824.48, 577.86 719.19, 634.88 652.59 M394.76 928.81 C481.75 829.45, 567.01 730.74, 634.88 652.59 M405.39 928.78 C488.03 833.15, 567.47 741.58, 635.01 664.63 M405.39 928.78 C458.57 866.49, 512.66 805.33, 635.01 664.63 M415.36 929.5 C490.95 841.45, 567.39 752.4, 635.14 676.67 M415.36 929.5 C468.81 869.14, 521.91 807.84, 635.14 676.67 M425.99 929.47 C474.08 876.95, 519.8 823.23, 634.62 689.47 M425.99 929.47 C497.63 846.87, 568.34 765.59, 634.62 689.47 M436.62 929.43 C502.59 851.63, 570.98 772.72, 634.75 701.51 M436.62 929.43 C499.32 855.15, 562.76 781.92, 634.75 701.51 M447.25 929.4 C499.73 872.25, 547.16 813.55, 634.89 713.55 M447.25 929.4 C518.48 849.5, 589.75 769.05, 634.89 713.55 M457.88 929.36 C519.51 858.55, 581.15 785.87, 635.02 725.59 M457.88 929.36 C515.97 862.61, 574.65 795.35, 635.02 725.59 M468.51 929.33 C506.77 886.65, 545.85 841.34, 635.15 737.63 M468.51 929.33 C506.89 887.37, 545.02 843.27, 635.15 737.63 M479.14 929.29 C513.15 885.53, 550.7 844.66, 634.63 750.43 M479.14 929.29 C531.47 869.1, 584.64 806.74, 634.63 750.43 M489.77 929.26 C527.65 881.54, 568.91 835.17, 634.76 762.47 M489.77 929.26 C544.74 866.52, 599.2 804.48, 634.76 762.47 M500.4 929.22 C537.17 889.53, 570.98 850.34, 634.9 774.51 M500.4 929.22 C536.82 886.02, 572.97 844.16, 634.9 774.51 M511.03 929.19 C553.43 882.25, 595.34 832.32, 635.03 786.55 M511.03 929.19 C558.52 873.02, 608.03 818.36, 635.03 786.55 M521.66 929.16 C563.47 881.03, 602.75 834.81, 635.16 798.59 M521.66 929.16 C564.1 882.66, 604.93 834.44, 635.16 798.59 M532.29 929.12 C568.1 889.8, 603.73 849.25, 634.64 811.39 M532.29 929.12 C555.13 901.44, 580.15 871.95, 634.64 811.39 M542.92 929.09 C569.15 898.53, 593.45 869.01, 634.77 823.43 M542.92 929.09 C573.09 896.36, 601.08 862.98, 634.77 823.43 M553.55 929.05 C586.05 892.98, 618.64 856.96, 634.91 835.47 M553.55 929.05 C580.48 895.81, 609.61 863.14, 634.91 835.47 M564.18 929.02 C578.89 912.37, 594.66 893.92, 635.04 847.51 M564.18 929.02 C589.15 900.26, 615.08 871.88, 635.04 847.51 M574.81 928.98 C596.8 901, 620.91 872.18, 635.17 859.55 M574.81 928.98 C597.85 902.72, 619.11 878.16, 635.17 859.55 M585.45 928.95 C603.34 908.14, 623.28 885.48, 634.65 872.35 M585.45 928.95 C601.3 908.45, 618.52 889.63, 634.65 872.35 M596.08 928.91 C603.11 919, 611.9 911.69, 634.78 884.39 M596.08 928.91 C605.81 919.58, 613.11 909.23, 634.78 884.39 M607.36 928.13 C615.69 919.72, 621.1 910.97, 634.92 896.43 M607.36 928.13 C614.91 918.75, 623.7 909.75, 634.92 896.43 M621.27 924.32 C624.76 917.92, 630.8 913.65, 633.08 910.73 M621.27 924.32 C623.96 920.88, 626.2 918.67, 633.08 910.73" stroke="#a5d8ff" stroke-width="1" fill="none"></path><path d="M32 0 C173.43 0.58, 316.84 0.46, 602.67 0 M32 0 C216.16 1.38, 399.64 1.29, 602.67 0 M602.67 0 C625.13 -1.9, 633.75 11.34, 634.67 32 M602.67 0 C623.69 -0.33, 633.19 11.87, 634.67 32 M634.67 32 C634.3 338.11, 634.35 644.91, 634.67 896.48 M634.67 32 C634.35 298.98, 634.29 565.39, 634.67 896.48 M634.67 896.48 C632.96 918.98, 624.98 929.16, 602.67 928.48 M634.67 896.48 C633.3 915.6, 623.02 930.56, 602.67 928.48 M602.67 928.48 C444.32 928.44, 284.61 928.11, 32 928.48 M602.67 928.48 C434.47 929.21, 267.12 928.92, 32 928.48 M32 928.48 C9.28 927.26, 1.83 919.67, 0 896.48 M32 928.48 C11 930.05, 0.01 918.32, 0 896.48 M0 896.48 C2.44 634.53, 2.93 373.87, 0 32 M0 896.48 C3.54 621.98, 3.6 348.11, 0 32 M0 32 C1.59 10.63, 11.57 -0.96, 32 0 M0 32 C1.77 11.7, 11.94 1.63, 32 0" stroke="#1e1e1e" stroke-width="2" fill="none"></path></g><g stroke-linecap="round" transform="translate(508.6911333371245 10) rotate(0 317.333272298177 465.33335367838424)"><path d="M7.86 8.16 C7.86 8.16, 7.86 8.16, 7.86 8.16 M7.86 8.16 C7.86 8.16, 7.86 8.16, 7.86 8.16 M6.68 21.71 C12.71 16.14, 17.54 13.22, 21.12 5.11 M6.68 21.71 C11.5 15.4, 16.81 9.65, 21.12 5.11 M4.85 36.01 C13.93 28.48, 19.89 17.26, 34.37 2.05 M4.85 36.01 C14.98 25.13, 24.29 11.85, 34.37 2.05 M4.98 48.06 C11.79 38.73, 19.09 29.39, 45 2.02 M4.98 48.06 C13.71 36.48, 23.82 25.71, 45 2.02 M4.46 60.85 C18.54 43.99, 29.79 31.03, 55.63 1.98 M4.46 60.85 C24.13 38.87, 42.04 16.44, 55.63 1.98 M4.59 72.89 C30.53 45.91, 55.38 15.41, 66.26 1.95 M4.59 72.89 C25.18 47.69, 46.61 24.17, 66.26 1.95 M4.72 84.93 C25.48 59.54, 51.35 32.1, 76.89 1.91 M4.72 84.93 C34.09 50.92, 62.25 19.02, 76.89 1.91 M4.86 96.97 C35.88 61.85, 61.97 32.17, 87.52 1.88 M4.86 96.97 C22.7 76.16, 41.22 55.51, 87.52 1.88 M4.99 109.01 C27.14 83.65, 51.74 57.88, 98.15 1.85 M4.99 109.01 C37.03 72.41, 66.26 38.06, 98.15 1.85 M4.47 121.81 C28.9 94.56, 53.94 66.97, 108.78 1.81 M4.47 121.81 C39.34 83.22, 74.17 43.45, 108.78 1.81 M4.6 133.85 C38.42 94.57, 75.54 51.25, 119.41 1.78 M4.6 133.85 C32.85 101.28, 60.53 67.48, 119.41 1.78 M4.73 145.89 C30.8 115.89, 56.98 86.8, 130.04 1.74 M4.73 145.89 C54.62 88.79, 103.58 33.52, 130.04 1.74 M4.87 157.93 C49.32 106.69, 92.88 58.64, 140.67 1.71 M4.87 157.93 C49.11 105.63, 92.64 55.12, 140.67 1.71 M5 169.97 C48.7 121.84, 93.89 71.83, 150.65 2.43 M5 169.97 C47.01 123.89, 87.87 77.37, 150.65 2.43 M4.48 182.77 C55.24 123.12, 107.12 64.92, 161.28 2.39 M4.48 182.77 C58.75 122.98, 110.64 62.51, 161.28 2.39 M4.61 194.81 C63.18 132.12, 117.22 68, 171.91 2.36 M4.61 194.81 C49.26 141.29, 96.17 88.68, 171.91 2.36 M4.74 206.85 C56.24 147.27, 109.87 84.67, 182.54 2.32 M4.74 206.85 C63.85 139.35, 121.7 72.7, 182.54 2.32 M4.88 218.89 C46.94 169.74, 90.76 121.57, 193.17 2.29 M4.88 218.89 C45.82 171.41, 85.84 124.59, 193.17 2.29 M5.01 230.93 C54.08 173.67, 105.86 116.8, 203.8 2.26 M5.01 230.93 C71.05 153.62, 138.7 76.42, 203.8 2.26 M4.49 243.73 C58.97 181.59, 112.2 118.6, 214.43 2.22 M4.49 243.73 C86.05 150.18, 166.32 58.27, 214.43 2.22 M4.62 255.77 C80.87 172.25, 154.79 85.31, 225.06 2.19 M4.62 255.77 C72.55 177.1, 140.08 100.13, 225.06 2.19 M4.75 267.81 C56.03 208.87, 106.53 151.39, 235.69 2.15 M4.75 267.81 C94.54 165.8, 183.22 64.5, 235.69 2.15 M4.89 279.85 C88.95 184.08, 171.49 88.06, 246.32 2.12 M4.89 279.85 C88.43 183.6, 173.06 86.14, 246.32 2.12 M5.02 291.89 C75.59 213.47, 143.28 134.33, 256.95 2.08 M5.02 291.89 C72.55 212.3, 141.01 133.24, 256.95 2.08 M4.5 304.69 C105.35 187.52, 207.18 70.47, 267.58 2.05 M4.5 304.69 C76.57 220.01, 150.86 134.77, 267.58 2.05 M4.63 316.73 C78.38 229.45, 153.34 142.75, 278.21 2.01 M4.63 316.73 C70.9 241.27, 136.44 165.36, 278.21 2.01 M4.76 328.77 C68.1 256.2, 132.53 180.24, 288.84 1.98 M4.76 328.77 C89.72 233.64, 173.25 137.22, 288.84 1.98 M4.9 340.81 C82.36 252.72, 156.66 165.77, 299.47 1.94 M4.9 340.81 C97.78 231.28, 193.07 122.3, 299.47 1.94 M5.03 352.85 C117.08 225.32, 226.54 97.99, 310.1 1.91 M5.03 352.85 C92.23 254.88, 177.79 155.68, 310.1 1.91 M4.51 365.65 C115.7 239.72, 226.59 113.51, 320.73 1.88 M4.51 365.65 C93.31 262.74, 182.55 159.41, 320.73 1.88 M4.64 377.69 C108.54 259.11, 210.95 139.57, 331.36 1.84 M4.64 377.69 C108.45 259.21, 212.2 139.2, 331.36 1.84 M4.77 389.73 C91.11 290.93, 177.34 190.55, 341.99 1.81 M4.77 389.73 C116.36 259.14, 229.18 129.55, 341.99 1.81 M4.91 401.77 C130.69 258.1, 254.15 115.42, 352.62 1.77 M4.91 401.77 C134.88 254.18, 263.9 106.03, 352.62 1.77 M5.04 413.81 C141.84 256.88, 279.25 99.9, 363.25 1.74 M5.04 413.81 C86.01 320.47, 166.13 228.31, 363.25 1.74 M4.52 426.6 C146.77 262.34, 290.24 98.54, 373.88 1.7 M4.52 426.6 C148.82 260.03, 294.62 93.18, 373.88 1.7 M4.65 438.65 C119.53 306.59, 234.96 175.57, 383.85 2.42 M4.65 438.65 C131.46 290.87, 260.42 141.96, 383.85 2.42 M4.78 450.69 C98.6 342.95, 192.08 234.66, 394.48 2.39 M4.78 450.69 C94.21 345.97, 184.65 241.89, 394.48 2.39 M4.92 462.73 C118.8 330.76, 234 199.89, 405.11 2.35 M4.92 462.73 C87.4 368.47, 169.52 273.49, 405.11 2.35 M5.05 474.77 C165.4 287.92, 326.6 101.88, 415.74 2.32 M5.05 474.77 C134.29 324.17, 264.99 173.51, 415.74 2.32 M4.53 487.56 C167.43 299.29, 331.21 112.33, 426.37 2.29 M4.53 487.56 C169.44 296.89, 334.15 107.57, 426.37 2.29 M4.66 499.6 C114.18 371.07, 224.46 244.97, 437 2.25 M4.66 499.6 C168.12 313.01, 329.71 126.74, 437 2.25 M4.79 511.65 C156.24 335.31, 310.54 158.21, 447.63 2.22 M4.79 511.65 C178.68 311.44, 354.27 110.34, 447.63 2.22 M4.93 523.69 C129.19 383.56, 252.3 242.71, 458.26 2.18 M4.93 523.69 C147.84 361.36, 289.54 198.69, 458.26 2.18 M5.06 535.73 C140.52 379.69, 274.57 224.43, 468.89 2.15 M5.06 535.73 C176.37 340.89, 345.32 146.1, 468.89 2.15 M4.54 548.52 C106.59 427.38, 211.68 306.47, 479.52 2.11 M4.54 548.52 C163.26 368.23, 321.22 186.26, 479.52 2.11 M4.67 560.56 C116.16 432.52, 226.05 304.17, 490.15 2.08 M4.67 560.56 C191.26 345.41, 376.23 132.77, 490.15 2.08 M4.8 572.6 C164.31 387.16, 325.68 202.53, 500.78 2.04 M4.8 572.6 C114.76 443.4, 225.44 315.95, 500.78 2.04 M4.93 584.65 C186.8 374.22, 369.75 164.04, 511.41 2.01 M4.93 584.65 C188.79 370.99, 374.39 157.23, 511.41 2.01 M5.07 596.69 C175.98 399.96, 346.71 202.75, 522.04 1.98 M5.07 596.69 C141.64 438.1, 279.31 279.56, 522.04 1.98 M4.54 609.48 C198.24 388.4, 392.07 164.6, 532.67 1.94 M4.54 609.48 C206.24 378.48, 407.75 147.15, 532.67 1.94 M4.68 621.52 C130.67 477.58, 256.45 333.63, 543.3 1.91 M4.68 621.52 C181.58 418.28, 357.66 215.59, 543.3 1.91 M4.81 633.56 C181.4 430.61, 357.82 228.49, 553.93 1.87 M4.81 633.56 C181.83 426.85, 359.58 222.59, 553.93 1.87 M4.94 645.6 C203.42 417.84, 402.17 188.77, 564.56 1.84 M4.94 645.6 C208.54 415.49, 409.85 183.4, 564.56 1.84 M4.42 658.4 C220.12 409.39, 435.44 162.67, 575.19 1.8 M4.42 658.4 C138.1 502.65, 272.58 348.47, 575.19 1.8 M4.55 670.44 C153.1 500.23, 300.68 329.79, 585.82 1.77 M4.55 670.44 C187.09 459.96, 370 249.81, 585.82 1.77 M4.69 682.48 C167.73 493.64, 331.32 307.41, 596.45 1.73 M4.69 682.48 C238.14 419.11, 468.58 153.79, 596.45 1.73 M4.82 694.52 C145.45 531.75, 284.93 370.96, 605.77 3.21 M4.82 694.52 C140.27 539.83, 274.8 385.1, 605.77 3.21 M4.95 706.56 C155.36 538.27, 304.11 368.11, 617.06 2.42 M4.95 706.56 C132.28 560.41, 259.47 414.61, 617.06 2.42 M4.43 719.36 C143.33 561.58, 279.01 403.18, 624.41 6.16 M4.43 719.36 C198.17 495.18, 391.42 272.16, 624.41 6.16 M4.56 731.4 C188.16 522.92, 370.66 311.81, 629.79 12.16 M4.56 731.4 C219.26 486.36, 433.86 239.21, 629.79 12.16 M4.7 743.44 C187.69 535.27, 368 328.72, 633.86 19.67 M4.7 743.44 C189.44 533.98, 373.09 322.87, 633.86 19.67 M4.83 755.48 C211.78 517.41, 418.85 280.84, 635.96 29.45 M4.83 755.48 C253.04 469.52, 500.28 185.44, 635.96 29.45 M4.96 767.52 C216.36 521.82, 429.32 276.73, 640.03 36.96 M4.96 767.52 C172.13 575.54, 340.42 381.69, 640.03 36.96 M4.44 780.32 C147.04 613.39, 292.76 445.49, 640.16 49 M4.44 780.32 C251.8 495.47, 497.98 213.44, 640.16 49 M4.57 792.36 C134.93 639.83, 268.81 486.52, 640.3 61.05 M4.57 792.36 C147.48 626.27, 289.55 463.09, 640.3 61.05 M4.71 804.4 C240.64 531.9, 474.86 262.91, 640.43 73.09 M4.71 804.4 C195.07 584.98, 386.22 364.39, 640.43 73.09 M4.84 816.44 C245.94 536.64, 489.2 257.03, 639.91 85.88 M4.84 816.44 C223.76 562.55, 443.91 309.74, 639.91 85.88 M4.97 828.48 C200.01 606.35, 394.74 383.99, 640.04 97.92 M4.97 828.48 C225.66 572.21, 447.03 317.95, 640.04 97.92 M4.45 841.28 C172.64 643.29, 343.54 447.85, 640.17 109.96 M4.45 841.28 C200.05 617.2, 392.81 394.58, 640.17 109.96 M4.58 853.32 C183.75 647.59, 361.75 443.02, 640.3 122 M4.58 853.32 C181.19 647.63, 357.94 444, 640.3 122 M4.72 865.36 C203.47 635.9, 404.84 405.24, 640.44 134.05 M4.72 865.36 C231.91 606.57, 456.01 348.03, 640.44 134.05 M4.85 877.4 C211.58 642.21, 416.45 407, 639.92 146.84 M4.85 877.4 C182.79 670.84, 361.78 464.45, 639.92 146.84 M4.98 889.44 C202.29 663.24, 398.23 438.02, 640.05 158.88 M4.98 889.44 C156.57 710.85, 310.25 534.56, 640.05 158.88 M4.46 902.24 C225.83 647.88, 447.55 394.34, 640.18 170.92 M4.46 902.24 C189.46 688.85, 372.79 478.15, 640.18 170.92 M4.59 914.28 C175.35 718.54, 344.56 523.51, 640.31 182.96 M4.59 914.28 C197.93 692.63, 393.23 468, 640.31 182.96 M8.66 921.79 C168.6 739.09, 328.51 553.81, 640.45 195 M8.66 921.79 C176.43 729.51, 344.1 536.36, 640.45 195 M14.04 927.79 C231.28 676.7, 448.43 426.99, 639.92 207.8 M14.04 927.79 C245.09 661.94, 478.64 393.95, 639.92 207.8 M21.39 931.53 C166.31 765.14, 310.58 599.22, 640.06 219.84 M21.39 931.53 C221.81 700.64, 421.37 471.47, 640.06 219.84 M32.68 930.74 C241.8 691.99, 448.94 452.59, 640.19 231.88 M32.68 930.74 C188.02 754.07, 343.18 576.13, 640.19 231.88 M43.31 930.71 C196.23 757.12, 346.44 583.34, 640.32 243.92 M43.31 930.71 C166.66 790.81, 288.38 650.78, 640.32 243.92 M53.94 930.67 C275.45 676.25, 497.61 419.25, 640.46 255.96 M53.94 930.67 C205.96 757.72, 355.53 585.57, 640.46 255.96 M63.91 931.39 C277.8 684.37, 493.38 436.53, 639.93 268.76 M63.91 931.39 C293.83 671.04, 522.23 409, 639.93 268.76 M74.54 931.36 C198.63 787.57, 325.12 643.36, 640.07 280.8 M74.54 931.36 C226.98 757.16, 379.17 582.47, 640.07 280.8 M85.17 931.32 C218.65 775.1, 351.3 621.27, 640.2 292.84 M85.17 931.32 C211.27 787.63, 335.06 644.86, 640.2 292.84 M95.8 931.29 C298.83 696.92, 500.94 463.88, 640.33 304.88 M95.8 931.29 C244.25 760.68, 393.88 588.22, 640.33 304.88 M106.43 931.26 C311.32 695.13, 517.33 459.28, 640.47 316.92 M106.43 931.26 C292.37 716.49, 479.86 501.54, 640.47 316.92 M117.07 931.22 C305.29 714.28, 496.89 494.77, 639.94 329.72 M117.07 931.22 C247.2 785.05, 375.47 636.68, 639.94 329.72 M127.7 931.19 C292.04 742.58, 454.09 554.96, 640.08 341.76 M127.7 931.19 C272.3 765.2, 415.28 601.62, 640.08 341.76 M138.33 931.15 C274.07 775, 409.11 618.58, 640.21 353.8 M138.33 931.15 C259.51 794.03, 380.36 655.21, 640.21 353.8 M148.96 931.12 C270.96 790.55, 394.11 649.12, 640.34 365.84 M148.96 931.12 C273.54 789.69, 396.66 648, 640.34 365.84 M159.59 931.08 C350.63 711.24, 542.13 490.88, 640.48 377.88 M159.59 931.08 C309.74 759.67, 457.63 588.58, 640.48 377.88 M170.22 931.05 C341.09 734.06, 511.7 539.69, 639.95 390.68 M170.22 931.05 C332.84 743.38, 496 555.66, 639.95 390.68 M180.85 931.01 C360.86 723.64, 539.67 517.17, 640.09 402.72 M180.85 931.01 C356.55 724.62, 534.6 520.17, 640.09 402.72 M191.48 930.98 C338.95 758.43, 488.01 586.91, 640.22 414.76 M191.48 930.98 C365.66 730.36, 539.42 530.15, 640.22 414.76 M202.11 930.95 C346.93 765.62, 491.37 599.06, 640.35 426.8 M202.11 930.95 C292.2 828.31, 381.18 726.28, 640.35 426.8 M212.74 930.91 C307.09 821.61, 400.26 714.41, 640.49 438.84 M212.74 930.91 C313.82 817.55, 413.38 703.59, 640.49 438.84 M223.37 930.88 C319.02 822.64, 415.24 713.45, 639.96 451.64 M223.37 930.88 C378.11 751.69, 533.6 572.44, 639.96 451.64 M234 930.84 C383.6 757.76, 535.16 584.88, 640.1 463.68 M234 930.84 C347.09 801.24, 460.35 670.6, 640.1 463.68 M244.63 930.81 C378.95 774.65, 514.98 620.52, 640.23 475.72 M244.63 930.81 C362.81 793.02, 483.19 654.85, 640.23 475.72 M255.26 930.77 C375.47 791.59, 497.58 652.21, 640.36 487.76 M255.26 930.77 C394.88 770.5, 534.95 610.05, 640.36 487.76 M265.89 930.74 C358.88 821.49, 453.71 713.54, 640.5 499.8 M265.89 930.74 C372.15 806.13, 479.16 683.22, 640.5 499.8 M276.52 930.7 C378.37 815.71, 478.83 700.28, 639.97 512.59 M276.52 930.7 C370.38 821.71, 465.91 711.85, 639.97 512.59 M287.15 930.67 C423.06 774.55, 559.64 617.86, 640.11 524.64 M287.15 930.67 C358.68 848.54, 430.78 765.51, 640.11 524.64 M297.12 931.39 C384.28 832.39, 470.4 732.37, 640.24 536.68 M297.12 931.39 C432.33 775.74, 566.65 621.03, 640.24 536.68 M307.75 931.35 C408.64 815.64, 509.97 698.39, 640.37 548.72 M307.75 931.35 C383.6 844.14, 461.08 754.98, 640.37 548.72 M318.38 931.32 C425.9 807.72, 533.59 684.19, 640.51 560.76 M318.38 931.32 C418.29 818.38, 517.14 704.42, 640.51 560.76 M329.01 931.29 C452.49 786.8, 576.92 645.44, 639.98 573.55 M329.01 931.29 C431.6 813.97, 533.94 696.04, 639.98 573.55 M339.64 931.25 C399.97 860.95, 460.03 789.72, 640.12 585.59 M339.64 931.25 C459.9 794.66, 578.83 656.96, 640.12 585.59 M350.27 931.22 C407.88 863.97, 468.07 794.87, 640.25 597.64 M350.27 931.22 C450.8 813.68, 552.44 697.98, 640.25 597.64 M360.9 931.18 C422.65 862.58, 481.84 794.19, 640.38 609.68 M360.9 931.18 C416.31 867.36, 471.81 802.31, 640.38 609.68 M371.53 931.15 C447.98 843.15, 525.53 754.15, 639.86 622.47 M371.53 931.15 C456.97 830.95, 544.7 730.54, 639.86 622.47 M382.16 931.11 C464.39 838.09, 544.37 744.87, 639.99 634.51 M382.16 931.11 C454.33 846.1, 528.86 761.05, 639.99 634.51 M392.79 931.08 C478.76 832.39, 564.13 732.97, 640.13 646.55 M392.79 931.08 C489.19 818.59, 586.67 706.88, 640.13 646.55 M403.42 931.04 C482.38 839.76, 564.04 744.41, 640.26 658.59 M403.42 931.04 C490.77 832.79, 576.33 734.79, 640.26 658.59 M414.05 931.01 C486.89 846.07, 559.41 762.18, 640.39 670.64 M414.05 931.01 C473.91 861.7, 533.16 792.53, 640.39 670.64 M424.68 930.98 C492.15 852.09, 561.69 772.02, 639.87 683.43 M424.68 930.98 C505.54 837.02, 587.33 743.09, 639.87 683.43 M435.31 930.94 C496.15 860.82, 556.83 792.61, 640 695.47 M435.31 930.94 C506.94 848.97, 578.87 766.27, 640 695.47 M445.94 930.91 C509.69 853.36, 578.43 775.89, 640.14 707.51 M445.94 930.91 C491.88 880.14, 536.17 828.22, 640.14 707.51 M456.57 930.87 C524.91 850.62, 593.88 774.47, 640.27 719.55 M456.57 930.87 C500.7 879.81, 544.56 827.59, 640.27 719.55 M467.2 930.84 C522.08 867.45, 572.95 806.73, 640.4 731.59 M467.2 930.84 C508.54 882.59, 548.71 835.67, 640.4 731.59 M477.83 930.8 C543.75 856.96, 608.83 784.33, 639.88 744.39 M477.83 930.8 C514.85 886.95, 552.63 844.7, 639.88 744.39 M488.46 930.77 C549.06 861.86, 610.43 792.7, 640.01 756.43 M488.46 930.77 C529.44 884.72, 570.51 836.66, 640.01 756.43 M499.09 930.73 C535.58 888.61, 570.43 848.1, 640.14 768.47 M499.09 930.73 C552.37 868.81, 606.78 805.94, 640.14 768.47 M509.72 930.7 C557.7 874.43, 605.82 821.74, 640.28 780.51 M509.72 930.7 C541.29 897.37, 572.42 860.73, 640.28 780.51 M520.35 930.67 C563.78 879.45, 611.37 826.43, 640.41 792.55 M520.35 930.67 C551.73 893.14, 585.11 854.69, 640.41 792.55 M530.33 931.39 C559.39 898.54, 586.78 865.69, 639.89 805.35 M530.33 931.39 C572.38 882.45, 612.9 836.34, 639.89 805.35 M540.96 931.35 C579.94 885.08, 618.76 841.26, 640.02 817.39 M540.96 931.35 C562.88 904.83, 587.21 877.92, 640.02 817.39 M551.59 931.32 C581.79 898.76, 610.61 865.67, 640.15 829.43 M551.59 931.32 C585.4 893.28, 617.62 854.71, 640.15 829.43 M562.22 931.28 C587.38 902.08, 612.49 873.54, 640.29 841.47 M562.22 931.28 C588.29 902.71, 613.88 873.49, 640.29 841.47 M572.85 931.25 C591.1 907.5, 613.39 886.36, 640.42 853.51 M572.85 931.25 C589.06 912.34, 608.16 890.99, 640.42 853.51 M583.48 931.21 C604.64 906.9, 624.96 884.72, 639.9 866.31 M583.48 931.21 C604.09 907.76, 624.33 885.11, 639.9 866.31 M594.11 931.18 C604.52 920.71, 614.44 905.58, 640.03 878.35 M594.11 931.18 C605.96 916.38, 619.53 899.78, 640.03 878.35 M604.08 931.9 C614.01 918.61, 624.5 907.97, 640.16 890.39 M604.08 931.9 C614.52 920.55, 624.81 908.32, 640.16 890.39 M617.34 928.85 C627.25 918.08, 632.7 910.33, 639.64 903.19 M617.34 928.85 C622.52 922.98, 629.09 914.98, 639.64 903.19" stroke="#b2f2bb" stroke-width="1" fill="none"></path><path d="M32 0 C202.93 -1.13, 372.82 -1.01, 602.67 0 M32 0 C176.71 -1.64, 321.94 -2.26, 602.67 0 M602.67 0 C623.08 0.67, 634.4 10.38, 634.67 32 M602.67 0 C622.52 1.2, 635.91 10.81, 634.67 32 M634.67 32 C631.64 282.11, 632.23 530.88, 634.67 898.67 M634.67 32 C633.59 226.64, 633.41 421.4, 634.67 898.67 M634.67 898.67 C635.65 920.68, 622.81 928.74, 602.67 930.67 M634.67 898.67 C633.69 922.08, 623.51 928.52, 602.67 930.67 M602.67 930.67 C421.28 928.6, 239.92 929.7, 32 930.67 M602.67 930.67 C412.89 930.22, 222.33 930.3, 32 930.67 M32 930.67 C12.5 932.52, 0.29 921.36, 0 898.67 M32 930.67 C10.67 931.17, 0.06 917.93, 0 898.67 M0 898.67 C2.75 683.43, 3.07 466.03, 0 32 M0 898.67 C-1.64 578.78, -1.6 259.13, 0 32 M0 32 C0.9 9.71, 12.2 0.9, 32 0 M0 32 C1.27 12.3, 9.61 0.76, 32 0" stroke="#1e1e1e" stroke-width="2" fill="none"></path></g><g stroke-linecap="round" transform="translate(519.6767343150877 602.1388137394015) rotate(0 635.6015266927491 85.05950662315138)"><path d="M32 0 C281.75 -7.2, 528.73 -5.77, 1239.2 0 C1257.27 2.14, 1269.76 13.7, 1271.2 32 C1270.86 57.62, 1274 87.18, 1271.2 138.12 C1274.77 162.34, 1262.28 168.54, 1239.2 170.12 C995.74 163.37, 751.53 163.58, 32 170.12 C9.88 172.99, 1.48 159.87, 0 138.12 C-0.5 117.34, 2.28 92.78, 0 32 C-2.42 7.22, 14.21 -3.26, 32 0" stroke="none" stroke-width="0" fill="#b2f2bb"></path><path d="M32 0 C476.26 -2.02, 919.8 -2.03, 1239.2 0 M32 0 C493.91 -3.26, 955.18 -2.74, 1239.2 0 M1239.2 0 C1260.27 -0.29, 1269.92 11.71, 1271.2 32 M1239.2 0 C1261.78 0.14, 1270.92 9, 1271.2 32 M1271.2 32 C1270.68 63.45, 1269 94.62, 1271.2 138.12 M1271.2 32 C1269.92 72.76, 1271.26 112.69, 1271.2 138.12 M1271.2 138.12 C1270.02 157.52, 1259.68 171.92, 1239.2 170.12 M1271.2 138.12 C1270.71 157.3, 1260.95 172.02, 1239.2 170.12 M1239.2 170.12 C944.97 165.74, 651.09 164.81, 32 170.12 M1239.2 170.12 C883.42 166.03, 528.56 166.64, 32 170.12 M32 170.12 C10.95 171.48, 0.01 159.89, 0 138.12 M32 170.12 C10.73 168.05, -1.17 157.51, 0 138.12 M0 138.12 C0.58 108.23, 1.62 83.28, 0 32 M0 138.12 C0.06 116.22, -0.28 93.87, 0 32 M0 32 C1.54 11.56, 11.77 1.42, 32 0 M0 32 C-1.06 11.42, 12.1 1.61, 32 0" stroke="#1e1e1e" stroke-width="2" fill="none"></path></g><g stroke-linecap="round" transform="translate(520.1788470778138 255.74245784502273) rotate(0 635.6015266927491 85.05950662315138)"><path d="M32 0 C476.99 7.48, 921.73 8.1, 1239.2 0 C1259.1 3.03, 1269.94 10.54, 1271.2 32 C1273.92 63.55, 1274.62 100.05, 1271.2 138.12 C1272.94 157.87, 1257 169.08, 1239.2 170.12 C957.39 163.92, 676.77 165.77, 32 170.12 C12.14 170.54, -3.56 161.09, 0 138.12 C2.95 96.59, -2.61 56.9, 0 32 C3.55 7.4, 9.02 -0.51, 32 0" stroke="none" stroke-width="0" fill="#a5d8ff"></path><path d="M32 0 C457.73 -2.74, 884.87 -3.57, 1239.2 0 M32 0 C465.96 4.73, 900.23 4.54, 1239.2 0 M1239.2 0 C1259.25 1.04, 1272.29 10.79, 1271.2 32 M1239.2 0 C1260.26 -1.66, 1271.15 9.16, 1271.2 32 M1271.2 32 C1269.78 71.88, 1272.86 112, 1271.2 138.12 M1271.2 32 C1270.79 65.84, 1269.7 98.05, 1271.2 138.12 M1271.2 138.12 C1270.35 161.26, 1260.11 168.25, 1239.2 170.12 M1271.2 138.12 C1271.61 161.35, 1259.24 170, 1239.2 170.12 M1239.2 170.12 C994.81 171.45, 749.85 172.56, 32 170.12 M1239.2 170.12 C973.61 167.53, 707.34 167.43, 32 170.12 M32 170.12 C10.67 170.56, 0.05 157.65, 0 138.12 M32 170.12 C9.5 168.18, -0.84 158.93, 0 138.12 M0 138.12 C1.2 98.06, -2.06 57.19, 0 32 M0 138.12 C-0.39 108.96, -0.07 81.21, 0 32 M0 32 C1.1 12.09, 9.75 0.66, 32 0 M0 32 C1.44 12.28, 8.5 1.98, 32 0" stroke="#1e1e1e" stroke-width="2" fill="none"></path></g><g stroke-linecap="round"><g transform="translate(435.6632126947061 690.3444339112775) rotate(0 56.57361069770582 -0.1095090424424825)"><path d="M0.78 0.99 C10.29 0.96, 39.07 -0.8, 57.84 -0.71 C76.62 -0.61, 104.35 0.91, 113.41 1.54 M-0.26 0.46 C8.97 0.14, 37.78 -2.75, 56.66 -2.45 C75.53 -2.15, 103.75 1.11, 113 2.26" stroke="#1e1e1e" stroke-width="2" fill="none"></path></g><g transform="translate(435.6632126947061 690.3444339112775) rotate(0 56.57361069770582 -0.1095090424424825)"><path d="M88.68 8.05 C99.3 5, 107.78 4.76, 113 2.26 M88.68 8.05 C93.56 6.64, 98.03 6.12, 113 2.26" stroke="#1e1e1e" stroke-width="2" fill="none"></path></g><g transform="translate(435.6632126947061 690.3444339112775) rotate(0 56.57361069770582 -0.1095090424424825)"><path d="M90.64 -8.93 C100.46 -5.73, 108.22 0.28, 113 2.26 M90.64 -8.93 C95.04 -6.86, 99.11 -3.9, 113 2.26" stroke="#1e1e1e" stroke-width="2" fill="none"></path></g></g><mask></mask><g transform="translate(10 664.6983208420806) rotate(0 207.08993530273438 22.5)"><text x="0" y="31.536" font-family="Virgil, Segoe UI Emoji" font-size="36px" fill="#1e1e1e" text-anchor="start" style="white-space: pre;" direction="ltr" dominant-baseline="alphabetic">Entry Point for Android</text></g><g transform="translate(53.1604179230053 336.44929832227353) rotate(0 172.69195556640625 22.5)"><text x="0" y="31.536" font-family="Virgil, Segoe UI Emoji" font-size="36px" fill="#1e1e1e" text-anchor="start" style="white-space: pre;" direction="ltr" dominant-baseline="alphabetic">Entry Point for iOS</text></g><g stroke-linecap="round"><g transform="translate(425.02464967275955 354.0760467024338) rotate(0 62.32400401134737 0.37553537401220183)"><path d="M-0.55 0.4 C20.2 0.55, 104.34 -0.3, 125.2 -0.28 M1.36 -0.43 C21.88 0, 103.21 1.34, 124.17 1.17" stroke="#1e1e1e" stroke-width="2" fill="none"></path></g><g transform="translate(425.02464967275955 354.0760467024338) rotate(0 62.32400401134737 0.37553537401220183)"><path d="M100.63 9.58 C109.77 6.42, 117.2 2.4, 124.17 1.17 M100.63 9.58 C108.75 5.88, 117.14 2.98, 124.17 1.17" stroke="#1e1e1e" stroke-width="2" fill="none"></path></g><g transform="translate(425.02464967275955 354.0760467024338) rotate(0 62.32400401134737 0.37553537401220183)"><path d="M100.72 -7.52 C109.67 -4.59, 117.07 -2.51, 124.17 1.17 M100.72 -7.52 C108.91 -5.2, 117.26 -2.07, 124.17 1.17" stroke="#1e1e1e" stroke-width="2" fill="none"></path></g></g><mask></mask><g stroke-linecap="round" transform="translate(885.3183591120851 297.08418042827543) rotate(0 110.60306120474888 49.14760347767515)"><path d="M24.57 0 C73.12 3.09, 125.61 3.8, 196.63 0 C215.91 1.74, 219.63 4.65, 221.21 24.57 C218.33 36.03, 218.86 50.45, 221.21 73.72 C224.08 91.58, 213.43 94.74, 196.63 98.3 C137.76 101.76, 75.11 96.2, 24.57 98.3 C4.75 101.84, -3.26 88.46, 0 73.72 C-1.42 60.2, 0.58 42.95, 0 24.57 C-2.22 7.5, 6.73 -1.28, 24.57 0" stroke="none" stroke-width="0" fill="#ffffff"></path><path d="M24.57 0 C67.99 -1.06, 113.02 1.31, 196.63 0 M24.57 0 C77.21 0.59, 130.71 1.33, 196.63 0 M196.63 0 C212.89 -1.51, 220.68 9.76, 221.21 24.57 M196.63 0 C212.08 0.36, 219.24 9.53, 221.21 24.57 M221.21 24.57 C219.44 40.87, 223.18 58.45, 221.21 73.72 M221.21 24.57 C220.73 34.67, 220.32 44.81, 221.21 73.72 M221.21 73.72 C222.01 90.76, 211.48 98.18, 196.63 98.3 M221.21 73.72 C222.63 88.27, 211.42 96.89, 196.63 98.3 M196.63 98.3 C130.63 98.55, 62.35 98.6, 24.57 98.3 M196.63 98.3 C160.15 96.61, 125.27 97.01, 24.57 98.3 M24.57 98.3 C6.27 99.67, 1.11 88.23, 0 73.72 M24.57 98.3 C9.79 97.61, 1.82 90.07, 0 73.72 M0 73.72 C1.13 57.86, 1.66 38.87, 0 24.57 M0 73.72 C-1.25 58.22, 0.38 41.77, 0 24.57 M0 24.57 C-1.67 7.46, 8.52 -1.81, 24.57 0 M0 24.57 C1.37 7.27, 10.13 -0.81, 24.57 0" stroke="#1e1e1e" stroke-width="2" fill="none"></path></g><g transform="translate(949.951464872498 333.7317839059506) rotate(0 45.96995544433594 12.5)"><text x="45.96995544433594" y="17.52" font-family="Virgil, Segoe UI Emoji" font-size="20px" fill="#1e1e1e" text-anchor="middle" style="white-space: pre;" direction="ltr" dominant-baseline="alphabetic">viewModel</text></g><g stroke-linecap="round" transform="translate(1207.1763967524876 297.0841799445261) rotate(0 110.60306120474911 49.14760347767515)"><path d="M24.57 0 C92.75 -1.33, 153.56 -6.61, 196.63 0 C211.98 -2.42, 221.21 5.91, 221.21 24.57 C223.65 38.24, 221.2 45.39, 221.21 73.72 C222.84 92.5, 213.38 98.86, 196.63 98.3 C126.52 99.76, 60.04 94.57, 24.57 98.3 C7.68 95.07, -0.4 87.89, 0 73.72 C-2.17 57.58, -1.41 41.53, 0 24.57 C3.44 8.61, 10.19 -2.23, 24.57 0" stroke="none" stroke-width="0" fill="#ffffff"></path><path d="M24.57 0 C65.23 -1.17, 104.21 -0.98, 196.63 0 M24.57 0 C64.86 -0.9, 105.01 0.64, 196.63 0 M196.63 0 C212.2 0.31, 219.5 9.36, 221.21 24.57 M196.63 0 C214.14 0.78, 219.84 5.97, 221.21 24.57 M221.21 24.57 C219.78 37.58, 223.3 48.75, 221.21 73.72 M221.21 24.57 C221.13 39.4, 219.96 53.52, 221.21 73.72 M221.21 73.72 C222.45 88.51, 211.63 97.07, 196.63 98.3 M221.21 73.72 C223.31 92.24, 213.34 99.86, 196.63 98.3 M196.63 98.3 C143.16 97.32, 91.61 97.61, 24.57 98.3 M196.63 98.3 C147.98 99.28, 101.8 97.65, 24.57 98.3 M24.57 98.3 C9.58 97.7, 1.59 90.07, 0 73.72 M24.57 98.3 C9.23 97.19, 1.77 91.13, 0 73.72 M0 73.72 C0.31 57.51, 1.05 36.93, 0 24.57 M0 73.72 C-1.17 54.38, -0.18 34.86, 0 24.57 M0 24.57 C1.19 7.39, 9.88 -0.7, 24.57 0 M0 24.57 C-0.08 8.35, 8.02 -1.59, 24.57 0" stroke="#1e1e1e" stroke-width="2" fill="none"></path></g><g transform="translate(1269.7395180768658 333.73178342220126) rotate(0 48.039939880371094 12.5)"><text x="48.039939880371094" y="17.52" font-family="Virgil, Segoe UI Emoji" font-size="20px" fill="#1e1e1e" text-anchor="middle" style="white-space: pre;" direction="ltr" dominant-baseline="alphabetic">repository</text></g><g stroke-linecap="round" transform="translate(570.0407539035878 297.084180840342) rotate(0 110.60306120474888 49.14760347767515)"><path d="M24.57 0 C83.47 0.63, 144.45 0.77, 196.63 0 C211.14 -1.75, 220.42 11.06, 221.21 24.57 C222.95 43.72, 221.68 58.65, 221.21 73.72 C224.35 87.46, 210.6 94.85, 196.63 98.3 C127.55 93.66, 59.1 94.67, 24.57 98.3 C8.71 98.08, -2.69 87.88, 0 73.72 C3.8 60.33, 2.36 43.88, 0 24.57 C-2.11 10.66, 10.73 -1.29, 24.57 0" stroke="none" stroke-width="0" fill="#ffffff"></path><path d="M24.57 0 C72.79 1.66, 123.79 -0.08, 196.63 0 M24.57 0 C62.8 -1.19, 100.98 -0.77, 196.63 0 M196.63 0 C213.99 0.68, 220.02 6.26, 221.21 24.57 M196.63 0 C212.03 2.08, 220.71 6.04, 221.21 24.57 M221.21 24.57 C221.51 38.25, 221.5 56.62, 221.21 73.72 M221.21 24.57 C221.45 40.14, 220.14 56.69, 221.21 73.72 M221.21 73.72 C223.04 91.96, 213.3 99.66, 196.63 98.3 M221.21 73.72 C221.21 90.61, 213.08 96.22, 196.63 98.3 M196.63 98.3 C153.31 99.43, 111.24 95.75, 24.57 98.3 M196.63 98.3 C133.84 96.38, 70.46 96.67, 24.57 98.3 M24.57 98.3 C9.1 97.33, 1.54 91, 0 73.72 M24.57 98.3 C9.46 99.93, -1.06 90.86, 0 73.72 M0 73.72 C1.38 57.29, 1.21 36.43, 0 24.57 M0 73.72 C0.51 60.38, 0.76 47.48, 0 24.57 M0 24.57 C-0.07 8.33, 8.04 -1.38, 24.57 0 M0 24.57 C1.83 7.53, 10.47 1.85, 24.57 0" stroke="#1e1e1e" stroke-width="2" fill="none"></path></g><g transform="translate(638.1838465414421 333.73178431801716) rotate(0 42.45996856689453 12.5)"><text x="42.45996856689453" y="17.52" font-family="Virgil, Segoe UI Emoji" font-size="20px" fill="#1e1e1e" text-anchor="middle" style="white-space: pre;" direction="ltr" dominant-baseline="alphabetic">Swift UI</text></g><g stroke-linecap="round"><g transform="translate(804.1571804922114 351.0450999864752) rotate(0 29.32750220019898 -0.07728229311226187)"><path d="M-0.07 -0.91 C9.8 -0.88, 50.21 0.17, 60.23 0.24 M-1.57 1.23 C8.03 0.92, 49.01 -1.33, 59.11 -1.39" stroke="#1e1e1e" stroke-width="2" fill="none"></path></g><g transform="translate(804.1571804922114 351.0450999864752) rotate(0 29.32750220019898 -0.07728229311226187)"><path d="M35.92 7.95 C43.23 3.88, 55.15 0.04, 59.11 -1.39 M35.92 7.95 C43.81 5.21, 50.05 0.95, 59.11 -1.39" stroke="#1e1e1e" stroke-width="2" fill="none"></path></g><g transform="translate(804.1571804922114 351.0450999864752) rotate(0 29.32750220019898 -0.07728229311226187)"><path d="M35.34 -9.14 C42.89 -6.7, 55.02 -4.04, 59.11 -1.39 M35.34 -9.14 C43.27 -6.49, 49.69 -5.35, 59.11 -1.39" stroke="#1e1e1e" stroke-width="2" fill="none"></path></g></g><mask></mask><g stroke-linecap="round"><g transform="translate(1120.701037906274 347.90680266014897) rotate(0 34.55102050205846 2.0673323877427947)"><path d="M-0.32 0.94 C11.27 1.44, 57.89 1.83, 69.42 2.11 M1.72 0.39 C13.11 1.19, 56.63 3.7, 68.21 3.74" stroke="#1e1e1e" stroke-width="2" fill="none"></path></g><g transform="translate(1120.701037906274 347.90680266014897) rotate(0 34.55102050205846 2.0673323877427947)"><path d="M44.44 11.49 C53.06 8.46, 58.79 5.29, 68.21 3.74 M44.44 11.49 C52.33 7.67, 61.01 6.76, 68.21 3.74" stroke="#1e1e1e" stroke-width="2" fill="none"></path></g><g transform="translate(1120.701037906274 347.90680266014897) rotate(0 34.55102050205846 2.0673323877427947)"><path d="M45.03 -5.6 C53.34 -3.61, 58.9 -1.76, 68.21 3.74 M45.03 -5.6 C52.79 -3.3, 61.26 1.92, 68.21 3.74" stroke="#1e1e1e" stroke-width="2" fill="none"></path></g></g><mask></mask><g stroke-linecap="round"><g transform="translate(1443.4092529062732 352.19863945593715) rotate(0 33.21584029326732 -1.999632871892345)"><path d="M-0.49 0.19 C10.36 -0.37, 53.61 -1.95, 64.75 -2.43 M1.46 -0.76 C12.69 -1.75, 56.18 -3.51, 66.92 -4.19" stroke="#1e1e1e" stroke-width="2" fill="none"></path></g><g transform="translate(1443.4092529062732 352.19863945593715) rotate(0 33.21584029326732 -1.999632871892345)"><path d="M43.89 5.55 C50.43 1.27, 57.58 1.29, 66.92 -4.19 M43.89 5.55 C51.21 3.42, 59.11 -1.66, 66.92 -4.19" stroke="#1e1e1e" stroke-width="2" fill="none"></path></g><g transform="translate(1443.4092529062732 352.19863945593715) rotate(0 33.21584029326732 -1.999632871892345)"><path d="M43.02 -11.53 C49.93 -11.13, 57.32 -6.44, 66.92 -4.19 M43.02 -11.53 C50.53 -7.95, 58.72 -7.33, 66.92 -4.19" stroke="#1e1e1e" stroke-width="2" fill="none"></path></g></g><mask></mask><g stroke-linecap="round" transform="translate(1529.0344344593382 297.084180043732) rotate(0 110.60306120474888 49.14760347767515)"><path d="M24.57 0 C86.36 1.28, 157.65 0.01, 196.63 0 C213.58 3.15, 218.56 5.78, 221.21 24.57 C220.44 34.1, 218.85 44.26, 221.21 73.72 C218.99 90.62, 212.8 95.61, 196.63 98.3 C154.35 100.48, 115.04 99.04, 24.57 98.3 C5.96 96.19, 2.47 92.64, 0 73.72 C0.27 58.8, -1.98 51.04, 0 24.57 C-3.46 10.85, 10.24 2.19, 24.57 0" stroke="none" stroke-width="0" fill="#ffffff"></path><path d="M24.57 0 C70.34 2.45, 114.46 0.29, 196.63 0 M24.57 0 C59.38 -2.49, 94.8 -0.73, 196.63 0 M196.63 0 C211.89 -0.1, 219.26 8.08, 221.21 24.57 M196.63 0 C213.94 0.76, 219.45 8.06, 221.21 24.57 M221.21 24.57 C219.59 44.2, 222.67 60.45, 221.21 73.72 M221.21 24.57 C221.23 41.77, 220.7 59.92, 221.21 73.72 M221.21 73.72 C220.48 89.65, 214.77 98.64, 196.63 98.3 M221.21 73.72 C219 91.69, 214.29 96.14, 196.63 98.3 M196.63 98.3 C133.03 100.56, 68.54 101.2, 24.57 98.3 M196.63 98.3 C136.85 99.85, 78.6 100.22, 24.57 98.3 M24.57 98.3 C6.31 100.02, 1.38 91.66, 0 73.72 M24.57 98.3 C6.27 97.45, 0.37 88.02, 0 73.72 M0 73.72 C-0.51 55.99, 0.34 38.24, 0 24.57 M0 73.72 C0.6 63.17, 0.09 50.57, 0 24.57 M0 24.57 C-1.97 7.62, 6.85 0, 24.57 0 M0 24.57 C-1.46 6.99, 7.07 -0.5, 24.57 0" stroke="#1e1e1e" stroke-width="2" fill="none"></path></g><g transform="translate(1578.5175463232667 333.7317835214071) rotate(0 61.11994934082031 12.5)"><text x="61.11994934082031" y="17.52" font-family="Virgil, Segoe UI Emoji" font-size="20px" fill="#1e1e1e" text-anchor="middle" style="white-space: pre;" direction="ltr" dominant-baseline="alphabetic">data source</text></g><g stroke-linecap="round" transform="translate(884.8162463493572 643.480536322656) rotate(0 110.60306120474888 49.14760347767515)"><path d="M24.57 0 C84.58 2.83, 140.81 -2.73, 196.63 0 C209.57 3.55, 217.94 6.55, 221.21 24.57 C218.2 39.14, 220.2 49.97, 221.21 73.72 C218.98 89.42, 211.56 97.01, 196.63 98.3 C126.33 97.91, 62.96 102.55, 24.57 98.3 C6.9 101.75, 1.81 91.22, 0 73.72 C-3.18 64.29, 2.33 51.72, 0 24.57 C3.38 5.43, 9.94 2.37, 24.57 0" stroke="none" stroke-width="0" fill="#ffffff"></path><path d="M24.57 0 C82.69 0.17, 146.47 0.59, 196.63 0 M24.57 0 C59.54 -1.47, 94.65 -1.48, 196.63 0 M196.63 0 C213.82 0.66, 219.68 8.08, 221.21 24.57 M196.63 0 C214.44 -1.83, 219.62 6.78, 221.21 24.57 M221.21 24.57 C223.02 43.82, 222.1 63.11, 221.21 73.72 M221.21 24.57 C220.59 34.66, 221.83 45.38, 221.21 73.72 M221.21 73.72 C219.28 91.48, 214.12 96.42, 196.63 98.3 M221.21 73.72 C222.8 89.42, 214.84 98.26, 196.63 98.3 M196.63 98.3 C138.13 100.72, 79.25 98.7, 24.57 98.3 M196.63 98.3 C138.4 100.36, 82.74 100.28, 24.57 98.3 M24.57 98.3 C6.52 97.56, 0.32 88.29, 0 73.72 M24.57 98.3 C9.56 97.38, 1.94 89.3, 0 73.72 M0 73.72 C-1.41 60.73, -0.61 46.55, 0 24.57 M0 73.72 C-1.22 54.74, -0.91 36.34, 0 24.57 M0 24.57 C-1.27 7.15, 7.22 -0.44, 24.57 0 M0 24.57 C1.83 9.13, 8.46 -2.27, 24.57 0" stroke="#1e1e1e" stroke-width="2" fill="none"></path></g><g transform="translate(949.4493521097702 680.1281398003312) rotate(0 45.96995544433594 12.5)"><text x="45.96995544433594" y="17.52" font-family="Virgil, Segoe UI Emoji" font-size="20px" fill="#1e1e1e" text-anchor="middle" style="white-space: pre;" direction="ltr" dominant-baseline="alphabetic">viewModel</text></g><g stroke-linecap="round" transform="translate(1206.6742839897615 643.4805358389067) rotate(0 110.60306120474911 49.14760347767515)"><path d="M24.57 0 C87.79 5.63, 154.64 0.44, 196.63 0 C212.5 -3.22, 220.81 5.98, 221.21 24.57 C218.93 39.34, 219.7 54.2, 221.21 73.72 C224.65 90.52, 215.02 96.07, 196.63 98.3 C153.79 103.93, 115.34 101.59, 24.57 98.3 C6.25 97.16, 3.28 86.64, 0 73.72 C2.88 52.58, 1.25 39.33, 0 24.57 C-1.96 6.58, 5.32 -1.88, 24.57 0" stroke="none" stroke-width="0" fill="#ffffff"></path><path d="M24.57 0 C66.99 0.72, 114.79 -0.76, 196.63 0 M24.57 0 C75.73 0.43, 125.32 0.04, 196.63 0 M196.63 0 C214.26 -1.59, 219.82 6.97, 221.21 24.57 M196.63 0 C215.12 2.13, 221.54 9.76, 221.21 24.57 M221.21 24.57 C219.51 38.32, 219.62 53.36, 221.21 73.72 M221.21 24.57 C220.68 38.89, 222.19 50.88, 221.21 73.72 M221.21 73.72 C222.6 89.51, 214.6 98.26, 196.63 98.3 M221.21 73.72 C222.25 89, 214.78 99.33, 196.63 98.3 M196.63 98.3 C136.18 98.75, 75.8 95.62, 24.57 98.3 M196.63 98.3 C129.37 99.27, 63.93 98.73, 24.57 98.3 M24.57 98.3 C9.38 97.5, 1.69 89.4, 0 73.72 M24.57 98.3 C8.11 98.46, -0.17 88.52, 0 73.72 M0 73.72 C1.75 56.04, -0.74 34.46, 0 24.57 M0 73.72 C-0.3 59.87, -0.16 46.85, 0 24.57 M0 24.57 C1.6 9.01, 8.42 -1.98, 24.57 0 M0 24.57 C1.05 9.72, 8.43 0.36, 24.57 0" stroke="#1e1e1e" stroke-width="2" fill="none"></path></g><g transform="translate(1269.2374053141398 680.1281393165818) rotate(0 48.039939880371094 12.5)"><text x="48.039939880371094" y="17.52" font-family="Virgil, Segoe UI Emoji" font-size="20px" fill="#1e1e1e" text-anchor="middle" style="white-space: pre;" direction="ltr" dominant-baseline="alphabetic">repository</text></g><g stroke-linecap="round" transform="translate(569.5386411408617 643.4805367347217) rotate(0 110.60306120474888 49.14760347767515)"><path d="M24.57 0 C92.63 -1.81, 161.31 -0.8, 196.63 0 C213.53 -0.21, 218.52 5.97, 221.21 24.57 C224.29 38.79, 222.85 49.96, 221.21 73.72 C219.1 92.57, 215.55 97, 196.63 98.3 C126.55 98.12, 63.62 95.79, 24.57 98.3 C10.85 100.34, 2.19 93.48, 0 73.72 C-2.39 61.14, -3.31 49.91, 0 24.57 C1.52 8.83, 9.51 -0.53, 24.57 0" stroke="none" stroke-width="0" fill="#ffffff"></path><path d="M24.57 0 C79.15 -0.98, 133.81 1.78, 196.63 0 M24.57 0 C82.49 -0.7, 138.47 -0.52, 196.63 0 M196.63 0 C214.84 1.85, 221.49 9.55, 221.21 24.57 M196.63 0 C213.02 0.5, 221.27 6.12, 221.21 24.57 M221.21 24.57 C220.33 38.58, 221.13 47.14, 221.21 73.72 M221.21 24.57 C222.17 42.41, 222.27 60.82, 221.21 73.72 M221.21 73.72 C222.11 89.14, 214.55 99.19, 196.63 98.3 M221.21 73.72 C222.48 91.74, 211.96 99.05, 196.63 98.3 M196.63 98.3 C136 98.06, 73.47 95.01, 24.57 98.3 M196.63 98.3 C151.91 96.34, 106.84 96.38, 24.57 98.3 M24.57 98.3 C8.12 98.43, -0.15 88.72, 0 73.72 M24.57 98.3 C10.02 97.64, 2.28 91.95, 0 73.72 M0 73.72 C-0.36 55.26, 0.22 38.22, 0 24.57 M0 73.72 C1.04 61.94, 0.36 48.36, 0 24.57 M0 24.57 C0.91 9.52, 8.4 0.31, 24.57 0 M0 24.57 C2.01 6.5, 6.65 -2.2, 24.57 0" stroke="#1e1e1e" stroke-width="2" fill="none"></path></g><g transform="translate(588.241761854888 680.1281402123968) rotate(0 91.89994049072266 12.5)"><text x="91.89994049072266" y="17.52" font-family="Virgil, Segoe UI Emoji" font-size="20px" fill="#1e1e1e" text-anchor="middle" style="white-space: pre;" direction="ltr" dominant-baseline="alphabetic">Compose UI / XML</text></g><g stroke-linecap="round"><g transform="translate(803.6550677294836 697.4414558808548) rotate(0 30.567265397203755 -0.016712769794366977)"><path d="M0.48 0.4 C10.62 0.28, 49.49 -0.43, 59.63 -0.77 M-0.72 -0.44 C9.88 -0.35, 51.58 0.8, 61.86 0.73" stroke="#1e1e1e" stroke-width="2" fill="none"></path></g><g transform="translate(803.6550677294836 697.4414558808548) rotate(0 30.567265397203755 -0.016712769794366977)"><path d="M38.25 8.98 C43.7 5.68, 47.72 6.78, 61.86 0.73 M38.25 8.98 C44.43 8.23, 48.85 6.17, 61.86 0.73" stroke="#1e1e1e" stroke-width="2" fill="none"></path></g><g transform="translate(803.6550677294836 697.4414558808548) rotate(0 30.567265397203755 -0.016712769794366977)"><path d="M38.48 -8.12 C43.87 -7.95, 47.84 -3.38, 61.86 0.73 M38.48 -8.12 C44.48 -5.1, 48.86 -3.39, 61.86 0.73" stroke="#1e1e1e" stroke-width="2" fill="none"></path></g></g><mask></mask><g stroke-linecap="round"><g transform="translate(1120.198925143548 694.3031585545277) rotate(0 34.8674117674509 0.4245593093608022)"><path d="M-0.92 -0.07 C10.78 0.03, 58.99 0.75, 70.65 0.96 M0.8 -1.15 C12.36 -0.97, 58.31 1.45, 70.1 2" stroke="#1e1e1e" stroke-width="2" fill="none"></path></g><g transform="translate(1120.198925143548 694.3031585545277) rotate(0 34.8674117674509 0.4245593093608022)"><path d="M46.21 9.38 C54.21 8.29, 60.85 3.15, 70.1 2 M46.21 9.38 C51.99 8.08, 57.55 5.85, 70.1 2" stroke="#1e1e1e" stroke-width="2" fill="none"></path></g><g transform="translate(1120.198925143548 694.3031585545277) rotate(0 34.8674117674509 0.4245593093608022)"><path d="M47.05 -7.7 C54.82 -2.98, 61.17 -2.31, 70.1 2 M47.05 -7.7 C52.78 -4.92, 58.15 -3.06, 70.1 2" stroke="#1e1e1e" stroke-width="2" fill="none"></path></g></g><mask></mask><g stroke-linecap="round"><g transform="translate(1442.9071401435472 698.5949953503168) rotate(0 33.44863264868491 -1.3555210840664813)"><path d="M0.74 -0.96 C11.72 -1.59, 53.92 -3.69, 64.94 -3.87 M-0.32 1.16 C11.11 0.67, 56.05 -1.89, 67.22 -2.72" stroke="#1e1e1e" stroke-width="2" fill="none"></path></g><g transform="translate(1442.9071401435472 698.5949953503168) rotate(0 33.44863264868491 -1.3555210840664813)"><path d="M44.32 7.31 C47.85 3.55, 53.34 4.52, 67.22 -2.72 M44.32 7.31 C53.3 3.44, 62.32 -1.62, 67.22 -2.72" stroke="#1e1e1e" stroke-width="2" fill="none"></path></g><g transform="translate(1442.9071401435472 698.5949953503168) rotate(0 33.44863264868491 -1.3555210840664813)"><path d="M43.23 -9.75 C47 -9.71, 52.73 -4.93, 67.22 -2.72 M43.23 -9.75 C52.67 -6.93, 62.11 -5.29, 67.22 -2.72" stroke="#1e1e1e" stroke-width="2" fill="none"></path></g></g><mask></mask><g stroke-linecap="round" transform="translate(1528.5323216966103 643.4805359381126) rotate(0 110.60306120474888 49.14760347767515)"><path d="M24.57 0 C64.3 4.7, 106.99 3.25, 196.63 0 C210.79 -2.11, 223.67 10.73, 221.21 24.57 C223.17 35.61, 220.92 53.81, 221.21 73.72 C217.74 92.77, 215.06 100.49, 196.63 98.3 C131.24 97.84, 59.49 96.93, 24.57 98.3 C6.32 99.81, 0.64 91.42, 0 73.72 C2.73 59.4, 4.4 44.03, 0 24.57 C0.43 8.79, 5.37 -1.74, 24.57 0" stroke="none" stroke-width="0" fill="#ffffff"></path><path d="M24.57 0 C85.64 3.02, 151.02 1.48, 196.63 0 M24.57 0 C87.94 -1.28, 150.75 -1.22, 196.63 0 M196.63 0 C212.29 -0.46, 222.96 8.53, 221.21 24.57 M196.63 0 C210.8 1.59, 222.48 6.03, 221.21 24.57 M221.21 24.57 C221.03 43.64, 220.1 62.43, 221.21 73.72 M221.21 24.57 C221.02 41.85, 222.1 59.17, 221.21 73.72 M221.21 73.72 C219.33 91.83, 214.4 99.85, 196.63 98.3 M221.21 73.72 C219.29 89.26, 213.39 96.21, 196.63 98.3 M196.63 98.3 C134.08 99.68, 73.07 99.59, 24.57 98.3 M196.63 98.3 C157.87 98.61, 117.61 97.36, 24.57 98.3 M24.57 98.3 C6.22 97.72, -1.34 90.11, 0 73.72 M24.57 98.3 C6.74 97.1, -1.12 89.6, 0 73.72 M0 73.72 C-2.18 55.97, 1.13 36.6, 0 24.57 M0 73.72 C-1.1 57.25, 0.56 41.79, 0 24.57 M0 24.57 C-0.91 7.91, 6.4 -0.22, 24.57 0 M0 24.57 C-1.41 8.52, 8.06 -1.72, 24.57 0" stroke="#1e1e1e" stroke-width="2" fill="none"></path></g><g transform="translate(1578.015433560539 680.1281394157877) rotate(0 61.11994934082031 12.5)"><text x="61.11994934082031" y="17.52" font-family="Virgil, Segoe UI Emoji" font-size="20px" fill="#1e1e1e" text-anchor="middle" style="white-space: pre;" direction="ltr" dominant-baseline="alphabetic">data source</text></g><g transform="translate(724.2130162199373 43.01729752083247) rotate(0 80.47797393798828 22.5)"><text x="0" y="31.536" font-family="Virgil, Segoe UI Emoji" font-size="36px" fill="#1e1e1e" text-anchor="start" style="white-space: pre;" direction="ltr" dominant-baseline="alphabetic">UI Layer</text></g><g transform="translate(1369.6088652819494 43.01729812890517) rotate(0 106.0379638671875 22.5)"><text x="0" y="31.536" font-family="Virgil, Segoe UI Emoji" font-size="36px" fill="#1e1e1e" text-anchor="start" style="white-space: pre;" direction="ltr" dominant-baseline="alphabetic">Data Layer</text></g><g transform="translate(554.770862180445 521.5000406901027) rotate(0 100.90796661376953 22.5)"><text x="0" y="31.536" font-family="Virgil, Segoe UI Emoji" font-size="36px" fill="#1e1e1e" text-anchor="start" style="white-space: pre;" direction="ltr" dominant-baseline="alphabetic">Android App</text></g><g transform="translate(569.5386412038806 174.48633270182108) rotate(0 66.50997161865234 22.5)"><text x="0" y="31.536" font-family="Virgil, Segoe UI Emoji" font-size="36px" fill="#1e1e1e" text-anchor="start" style="white-space: pre;" direction="ltr" dominant-baseline="alphabetic">iOS App</text></g></svg>