<svg version="1.1" xmlns="http://www.w3.org/2000/svg" viewBox="0 0 1801.3819004633124 485.8486617839112" width="5404.145701389937" height="1457.5459853517336">
  <!-- svg-source:excalidraw -->
  
  <defs>
    <style class="style-fonts">
      @font-face {
        font-family: "Virgil";
        src: url("https://excalidraw.com/Virgil.woff2");
      }
      @font-face {
        font-family: "Cascadia";
        src: url("https://excalidraw.com/Cascadia.woff2");
      }
      @font-face {
        font-family: "Assistant";
        src: url("https://excalidraw.com/Assistant-Regular.woff2");
      }
    </style>
    
  </defs>
  <rect x="0" y="0" width="1801.3819004633124" height="485.8486617839112" fill="#ffffff"></rect><g stroke-linecap="round" transform="translate(519.6767343150873 305.72964853760845) rotate(0 635.6015266927491 85.05950662315138)"><path d="M32 0 C464.43 -7.83, 896.31 -6.44, 1239.2 0 C1258.7 -0.29, 1271.28 13.98, 1271.2 32 C1273.04 67.16, 1272.69 98.13, 1271.2 138.12 C1269.06 162.47, 1259.9 168.34, 1239.2 170.12 C864.96 175.11, 488.35 173.79, 32 170.12 C12.21 171.99, 2.14 160.72, 0 138.12 C-3.86 99.21, 1.32 66.91, 0 32 C-3.6 10.06, 9.27 -2.55, 32 0" stroke="none" stroke-width="0" fill="#b2f2bb"></path><path d="M32 0 C331.91 -3.16, 630.83 -3.15, 1239.2 0 M32 0 C511.65 0.57, 991.6 0.88, 1239.2 0 M1239.2 0 C1261.73 -0.58, 1269.54 9.81, 1271.2 32 M1239.2 0 C1260.52 -0.17, 1272.06 12.72, 1271.2 32 M1271.2 32 C1269.73 64.53, 1272.09 99.48, 1271.2 138.12 M1271.2 32 C1270.3 73.03, 1270.55 112.79, 1271.2 138.12 M1271.2 138.12 C1272.05 158.98, 1261.83 169.05, 1239.2 170.12 M1271.2 138.12 C1268.91 159.21, 1262.15 170.94, 1239.2 170.12 M1239.2 170.12 C802.55 167.97, 365.05 168.67, 32 170.12 M1239.2 170.12 C976.71 174.62, 714.96 175.21, 32 170.12 M32 170.12 C12.29 168.63, 1.03 157.66, 0 138.12 M32 170.12 C11.42 170.56, 0.89 160.52, 0 138.12 M0 138.12 C-0.57 101.27, -2.11 61.21, 0 32 M0 138.12 C1.44 115.25, 1.42 92, 0 32 M0 32 C-1.69 11.95, 12.49 -0.66, 32 0 M0 32 C-1.87 10.35, 8.56 0.67, 32 0" stroke="#1e1e1e" stroke-width="2" fill="none"></path></g><g stroke-linecap="round" transform="translate(520.1788470778142 10) rotate(0 635.6015266927491 85.05950662315138)"><path d="M32 0 C320.35 -3.36, 606.17 -3.23, 1239.2 0 C1263.99 -2.88, 1268.37 14.02, 1271.2 32 C1273.86 56.67, 1270 86.89, 1271.2 138.12 C1271.32 157.72, 1259.44 172.9, 1239.2 170.12 C928.39 174.34, 620.21 174.55, 32 170.12 C10.62 167.73, 1.69 157.19, 0 138.12 C-3.04 98.68, -2.26 54.1, 0 32 C1.12 10.47, 13.3 2.41, 32 0" stroke="none" stroke-width="0" fill="#a5d8ff"></path><path d="M32 0 C484.11 3.23, 937.71 4.28, 1239.2 0 M32 0 C370.19 -0.4, 708.38 -0.5, 1239.2 0 M1239.2 0 C1260.38 -0.27, 1270.95 9.47, 1271.2 32 M1239.2 0 C1260.87 -1.05, 1272.31 10.77, 1271.2 32 M1271.2 32 C1274.03 61.37, 1273.02 92.27, 1271.2 138.12 M1271.2 32 C1271.49 64.85, 1272.26 98.49, 1271.2 138.12 M1271.2 138.12 C1272.78 160.77, 1260.53 169.89, 1239.2 170.12 M1271.2 138.12 C1272.1 159.57, 1258.39 171.73, 1239.2 170.12 M1239.2 170.12 C787.86 170.33, 334.81 170.69, 32 170.12 M1239.2 170.12 C983.78 166.53, 727.88 166.71, 32 170.12 M32 170.12 C10.11 168.66, -0.75 160.9, 0 138.12 M32 170.12 C10.45 168.94, 1.12 161.66, 0 138.12 M0 138.12 C-1.31 100.87, 1.3 69.28, 0 32 M0 138.12 C-0.33 96.02, 0.07 53.91, 0 32 M0 32 C1.95 10.61, 11.49 -0.89, 32 0 M0 32 C2.07 11.22, 9.9 0.67, 32 0" stroke="#1e1e1e" stroke-width="2" fill="none"></path></g><g stroke-linecap="round"><g transform="translate(435.66321269470654 393.9352687094847) rotate(0 56.201421524901434 0.6443415288589449)"><path d="M-0.53 1.09 C9.16 0.74, 39.04 -1.22, 57.95 -0.94 C76.86 -0.66, 103.62 2.17, 112.94 2.79 M1.39 0.61 C10.91 0.41, 38.33 -3.4, 56.81 -2.81 C75.3 -2.22, 103.24 3.05, 112.28 4.16" stroke="#1e1e1e" stroke-width="2" fill="none"></path></g><g transform="translate(435.66321269470654 393.9352687094847) rotate(0 56.201421524901434 0.6443415288589449)"><path d="M87.77 9.1 C96.46 7.23, 102.37 6.76, 112.28 4.16 M87.77 9.1 C94.59 7.63, 102.93 6.95, 112.28 4.16" stroke="#1e1e1e" stroke-width="2" fill="none"></path></g><g transform="translate(435.66321269470654 393.9352687094847) rotate(0 56.201421524901434 0.6443415288589449)"><path d="M90.33 -7.8 C98.45 -4.92, 103.64 -0.61, 112.28 4.16 M90.33 -7.8 C96.52 -4.05, 104.06 0.5, 112.28 4.16" stroke="#1e1e1e" stroke-width="2" fill="none"></path></g></g><mask></mask><g transform="translate(10 368.28915564028785) rotate(0 207.08993530273438 22.5)"><text x="0" y="31.536" font-family="Virgil, Segoe UI Emoji" font-size="36px" fill="#1e1e1e" text-anchor="start" style="white-space: pre;" direction="ltr" dominant-baseline="alphabetic">Entry Point for Android</text></g><g transform="translate(53.16041792300484 90.70684047725217) rotate(0 172.69195556640625 22.5)"><text x="0" y="31.536" font-family="Virgil, Segoe UI Emoji" font-size="36px" fill="#1e1e1e" text-anchor="start" style="white-space: pre;" direction="ltr" dominant-baseline="alphabetic">Entry Point for iOS</text></g><g stroke-linecap="round"><g transform="translate(425.0246496727591 108.33358885741154) rotate(0 62.29428170223491 0.019881034527998054)"><path d="M-0.84 0.08 C19.87 0.23, 104.24 0.89, 125.43 0.99 M0.91 -0.93 C21.38 -1.09, 103.67 -0.5, 124.52 -0.55" stroke="#1e1e1e" stroke-width="2" fill="none"></path></g><g transform="translate(425.0246496727591 108.33358885741154) rotate(0 62.29428170223491 0.019881034527998054)"><path d="M101.01 7.94 C110.39 4.88, 121.36 2.99, 124.52 -0.55 M101.01 7.94 C110 4.91, 117.27 2.46, 124.52 -0.55" stroke="#1e1e1e" stroke-width="2" fill="none"></path></g><g transform="translate(425.0246496727591 108.33358885741154) rotate(0 62.29428170223491 0.019881034527998054)"><path d="M101.05 -9.17 C110.43 -5.49, 121.38 -0.64, 124.52 -0.55 M101.05 -9.17 C110.02 -5.94, 117.28 -2.14, 124.52 -0.55" stroke="#1e1e1e" stroke-width="2" fill="none"></path></g></g><mask></mask><g stroke-linecap="round" transform="translate(885.3183591120846 51.34172258325361) rotate(0 110.60306120474888 49.14760347767515)"><path d="M24.57 0 C70.4 -1.81, 115.53 -2.14, 196.63 0 C209.55 3.29, 222.16 6.25, 221.21 24.57 C223.79 39.96, 223.49 54.86, 221.21 73.72 C221.1 88.19, 212.52 99.78, 196.63 98.3 C151.69 102.36, 110.45 101.35, 24.57 98.3 C5.73 98.33, 1.94 87.31, 0 73.72 C2.1 60.46, -0.28 47.92, 0 24.57 C2.19 9.88, 11.12 -2.99, 24.57 0" stroke="none" stroke-width="0" fill="#ffffff"></path><path d="M24.57 0 C72.83 0.45, 117.17 1.62, 196.63 0 M24.57 0 C93.34 -0.69, 159.89 0.61, 196.63 0 M196.63 0 C214.9 1.98, 220.26 8.2, 221.21 24.57 M196.63 0 C211.11 0.62, 220.22 9.39, 221.21 24.57 M221.21 24.57 C220.3 45.91, 221.67 62.98, 221.21 73.72 M221.21 24.57 C221.24 41.54, 220.64 56.76, 221.21 73.72 M221.21 73.72 C220.88 92.02, 211.42 96.72, 196.63 98.3 M221.21 73.72 C223.35 89.12, 212.71 96.72, 196.63 98.3 M196.63 98.3 C131.27 97.9, 64.65 97.23, 24.57 98.3 M196.63 98.3 C132.25 96.83, 66.56 97.74, 24.57 98.3 M24.57 98.3 C7.99 98.27, -1.33 91.04, 0 73.72 M24.57 98.3 C6.74 100.34, 1.03 90.29, 0 73.72 M0 73.72 C-1.06 62.58, -0.36 51.65, 0 24.57 M0 73.72 C0.43 56.49, -0.04 38.07, 0 24.57 M0 24.57 C-1.09 8.92, 6.58 0.86, 24.57 0 M0 24.57 C1.93 7.22, 7.99 0.51, 24.57 0" stroke="#1e1e1e" stroke-width="2" fill="none"></path></g><g transform="translate(949.9514648724976 87.98932606092876) rotate(0 45.96995544433594 12.5)"><text x="45.96995544433594" y="17.52" font-family="Virgil, Segoe UI Emoji" font-size="20px" fill="#1e1e1e" text-anchor="middle" style="white-space: pre;" direction="ltr" dominant-baseline="alphabetic">viewModel</text></g><g stroke-linecap="round" transform="translate(1207.176396752488 51.341722099504295) rotate(0 110.60306120474888 49.14760347767515)"><path d="M24.57 0 C78.99 0.05, 132.92 -2.25, 196.63 0 C211.1 -0.5, 222.69 6.55, 221.21 24.57 C223.77 36.45, 222.76 43.21, 221.21 73.72 C221.24 92.04, 210.23 95.81, 196.63 98.3 C145.62 99.58, 95.33 102.18, 24.57 98.3 C9.88 101.22, -2.99 90.77, 0 73.72 C-1.33 54.84, 2.83 35.53, 0 24.57 C3.3 5.36, 9.3 -2.19, 24.57 0" stroke="none" stroke-width="0" fill="#ffffff"></path><path d="M24.57 0 C61.98 -2.57, 95.43 -3.28, 196.63 0 M24.57 0 C81.78 -0.93, 137.46 -1.35, 196.63 0 M196.63 0 C214.81 0.48, 220.54 8.78, 221.21 24.57 M196.63 0 C211.59 -0.99, 222 10.01, 221.21 24.57 M221.21 24.57 C223.04 36.45, 219.54 53.38, 221.21 73.72 M221.21 24.57 C221.95 36.49, 220.88 49.95, 221.21 73.72 M221.21 73.72 C221.27 89.14, 212.41 99.84, 196.63 98.3 M221.21 73.72 C220.2 89.39, 214.23 96.16, 196.63 98.3 M196.63 98.3 C149.26 96.8, 102.87 96.86, 24.57 98.3 M196.63 98.3 C129.09 98.94, 62.37 98.03, 24.57 98.3 M24.57 98.3 C8.81 98.19, 1.46 91.44, 0 73.72 M24.57 98.3 C6.7 97.48, 0.27 91.95, 0 73.72 M0 73.72 C0.52 59.12, 0.66 49.41, 0 24.57 M0 73.72 C-0.23 60.58, 0.63 48.07, 0 24.57 M0 24.57 C0.01 6.5, 8.02 -1.93, 24.57 0 M0 24.57 C2.1 8.8, 6.95 -0.18, 24.57 0" stroke="#1e1e1e" stroke-width="2" fill="none"></path></g><g transform="translate(1269.7395180768658 87.98932557717944) rotate(0 48.039939880371094 12.5)"><text x="48.039939880371094" y="17.52" font-family="Virgil, Segoe UI Emoji" font-size="20px" fill="#1e1e1e" text-anchor="middle" style="white-space: pre;" direction="ltr" dominant-baseline="alphabetic">repository</text></g><g stroke-linecap="round" transform="translate(570.0407539035882 51.34172299531974) rotate(0 110.60306120474888 49.14760347767515)"><path d="M24.57 0 C83.69 -1.85, 151.86 -5.32, 196.63 0 C210.72 -2.02, 221.27 10.34, 221.21 24.57 C223.13 36.72, 224.06 55.25, 221.21 73.72 C223.44 89.06, 215.62 98.4, 196.63 98.3 C152 97.54, 101.74 94.94, 24.57 98.3 C10.12 98.88, 1.11 91.59, 0 73.72 C2.36 58.86, 2.49 47.03, 0 24.57 C0.33 10.06, 8.55 0.4, 24.57 0" stroke="none" stroke-width="0" fill="#ffffff"></path><path d="M24.57 0 C90.85 1.84, 158.39 -0.3, 196.63 0 M24.57 0 C77.13 1.6, 129.85 0.52, 196.63 0 M196.63 0 C214.07 -1.85, 220.71 8.16, 221.21 24.57 M196.63 0 C212.78 -0.03, 219.68 9.27, 221.21 24.57 M221.21 24.57 C221.8 35.01, 222.67 47.1, 221.21 73.72 M221.21 24.57 C222.09 38, 220.71 49.74, 221.21 73.72 M221.21 73.72 C221.44 91.71, 212.3 99.13, 196.63 98.3 M221.21 73.72 C219.96 90.94, 211.17 99.29, 196.63 98.3 M196.63 98.3 C131.05 97.61, 63.63 99.33, 24.57 98.3 M196.63 98.3 C150.55 95.88, 105.54 97.1, 24.57 98.3 M24.57 98.3 C7.11 98.13, 0.2 91.14, 0 73.72 M24.57 98.3 C9.79 98.96, 1.4 91.12, 0 73.72 M0 73.72 C1.08 58.2, -1.44 45.87, 0 24.57 M0 73.72 C0 59.92, -0.26 48.02, 0 24.57 M0 24.57 C-1.55 6.81, 7.9 0.84, 24.57 0 M0 24.57 C1.26 6.97, 7.93 -1.99, 24.57 0" stroke="#1e1e1e" stroke-width="2" fill="none"></path></g><g transform="translate(638.1838465414426 87.98932647299489) rotate(0 42.45996856689453 12.5)"><text x="42.45996856689453" y="17.52" font-family="Virgil, Segoe UI Emoji" font-size="20px" fill="#1e1e1e" text-anchor="middle" style="white-space: pre;" direction="ltr" dominant-baseline="alphabetic">Swift UI</text></g><g stroke-linecap="round"><g transform="translate(804.157180492211 105.3026421414529) rotate(0 30.257296229792473 -1.0761497951319825)"><path d="M-1.03 -0.28 C9.15 -0.75, 51.42 -1.9, 61.55 -1.88 M0.63 -1.47 C10.7 -1.92, 50.87 -0.84, 61.13 -0.95" stroke="#1e1e1e" stroke-width="2" fill="none"></path></g><g transform="translate(804.157180492211 105.3026421414529) rotate(0 30.257296229792473 -1.0761497951319825)"><path d="M37.56 7.38 C44.97 6.45, 51.42 0.6, 61.13 -0.95 M37.56 7.38 C44.88 4.52, 54.83 1.11, 61.13 -0.95" stroke="#1e1e1e" stroke-width="2" fill="none"></path></g><g transform="translate(804.157180492211 105.3026421414529) rotate(0 30.257296229792473 -1.0761497951319825)"><path d="M37.71 -9.72 C45.21 -4.89, 51.61 -4.98, 61.13 -0.95 M37.71 -9.72 C44.95 -6.63, 54.84 -4.1, 61.13 -0.95" stroke="#1e1e1e" stroke-width="2" fill="none"></path></g></g><mask></mask><g stroke-linecap="round"><g transform="translate(1120.701037906274 102.16434481512624) rotate(0 34.57722353836675 1.256982444355799)"><path d="M-0.71 0.91 C10.82 1.31, 58.27 2, 69.87 2.23 M1.11 0.34 C12.42 0.38, 57.21 0.31, 68.9 0.28" stroke="#1e1e1e" stroke-width="2" fill="none"></path></g><g transform="translate(1120.701037906274 102.16434481512624) rotate(0 34.57722353836675 1.256982444355799)"><path d="M45.42 8.88 C55.32 5.88, 62.7 1.17, 68.9 0.28 M45.42 8.88 C53.51 6.66, 61.05 2.35, 68.9 0.28" stroke="#1e1e1e" stroke-width="2" fill="none"></path></g><g transform="translate(1120.701037906274 102.16434481512624) rotate(0 34.57722353836675 1.256982444355799)"><path d="M45.39 -8.23 C55.27 -5.12, 62.67 -3.73, 68.9 0.28 M45.39 -8.23 C53.46 -4.78, 61.02 -3.42, 68.9 0.28" stroke="#1e1e1e" stroke-width="2" fill="none"></path></g></g><mask></mask><g stroke-linecap="round"><g transform="translate(1443.4092529062732 106.45618161091488) rotate(0 32.742044378030414 -1.3096548667606385)"><path d="M-1.17 -1.17 C9.7 -1.86, 53.5 -3.2, 64.57 -3.44 M0.41 0.83 C11.69 0.26, 56.01 -1.15, 66.66 -2.07" stroke="#1e1e1e" stroke-width="2" fill="none"></path></g><g transform="translate(1443.4092529062732 106.45618161091488) rotate(0 32.742044378030414 -1.3096548667606385)"><path d="M43.67 7.75 C47.32 3.56, 54.41 2.34, 66.66 -2.07 M43.67 7.75 C52.18 4.36, 59.02 1.53, 66.66 -2.07" stroke="#1e1e1e" stroke-width="2" fill="none"></path></g><g transform="translate(1443.4092529062732 106.45618161091488) rotate(0 32.742044378030414 -1.3096548667606385)"><path d="M42.73 -9.32 C46.7 -9.31, 54.03 -6.32, 66.66 -2.07 M42.73 -9.32 C51.67 -6.86, 58.83 -3.84, 66.66 -2.07" stroke="#1e1e1e" stroke-width="2" fill="none"></path></g></g><mask></mask><g stroke-linecap="round" transform="translate(1529.0344344593373 51.34172219871016) rotate(0 110.60306120474911 49.14760347767515)"><path d="M24.57 0 C66.83 -0.62, 113.16 0.97, 196.63 0 C209.6 -1.85, 223.72 11.43, 221.21 24.57 C221.93 38.27, 219.42 51.31, 221.21 73.72 C223.91 90.81, 210.85 96.32, 196.63 98.3 C131.9 98.2, 68.65 101.22, 24.57 98.3 C8.39 96.31, -2.86 89.29, 0 73.72 C0.82 55.37, 3.21 40.83, 0 24.57 C-0.77 8.7, 8.05 -2.19, 24.57 0" stroke="none" stroke-width="0" fill="#ffffff"></path><path d="M24.57 0 C57.56 0.95, 94.24 2.6, 196.63 0 M24.57 0 C70.38 -1.29, 114.33 -1.16, 196.63 0 M196.63 0 C213.57 1.06, 221.07 9.75, 221.21 24.57 M196.63 0 C212.15 0.82, 219.15 8.97, 221.21 24.57 M221.21 24.57 C220.93 41.28, 222.49 59, 221.21 73.72 M221.21 24.57 C222.5 37.92, 222.05 52.79, 221.21 73.72 M221.21 73.72 C219.52 91.47, 214.37 98.25, 196.63 98.3 M221.21 73.72 C219.25 88.54, 213.09 100.03, 196.63 98.3 M196.63 98.3 C138.44 100.99, 76.94 98.12, 24.57 98.3 M196.63 98.3 C154.15 97.04, 110.81 96.48, 24.57 98.3 M24.57 98.3 C8.94 98.92, -0.64 90.46, 0 73.72 M24.57 98.3 C8.08 99.66, 1.93 89.19, 0 73.72 M0 73.72 C-0.84 60.41, -0.8 41.9, 0 24.57 M0 73.72 C-0.18 60.45, -0.58 46.85, 0 24.57 M0 24.57 C-1.23 8.8, 6.95 -0.86, 24.57 0 M0 24.57 C-0.86 8.22, 6.87 -0.68, 24.57 0" stroke="#1e1e1e" stroke-width="2" fill="none"></path></g><g transform="translate(1578.5175463232663 87.9893256763853) rotate(0 61.11994934082031 12.5)"><text x="61.11994934082031" y="17.52" font-family="Virgil, Segoe UI Emoji" font-size="20px" fill="#1e1e1e" text-anchor="middle" style="white-space: pre;" direction="ltr" dominant-baseline="alphabetic">data source</text></g><g stroke-linecap="round" transform="translate(884.8162463493577 347.071371120863) rotate(0 110.60306120474888 49.14760347767515)"><path d="M24.57 0 C92.71 3.09, 152.58 2.1, 196.63 0 C213.09 3.32, 221.32 5.59, 221.21 24.57 C224.86 42.36, 219.86 59.61, 221.21 73.72 C220.57 88.32, 213.42 99.77, 196.63 98.3 C136.23 95.14, 75.32 100.24, 24.57 98.3 C10.34 99.56, 1.27 91.28, 0 73.72 C2.74 59.63, -2.8 45, 0 24.57 C-1.4 5.64, 6.59 -0.93, 24.57 0" stroke="none" stroke-width="0" fill="#ffffff"></path><path d="M24.57 0 C84.31 -0.1, 149.99 -0.72, 196.63 0 M24.57 0 C73.23 0.89, 123.9 -0.03, 196.63 0 M196.63 0 C211.35 -0.85, 221.19 8.04, 221.21 24.57 M196.63 0 C213.87 2.05, 221.65 6.47, 221.21 24.57 M221.21 24.57 C222.72 35.11, 222.72 45.93, 221.21 73.72 M221.21 24.57 C220.39 34.81, 221.28 46.16, 221.21 73.72 M221.21 73.72 C222.5 89.03, 211.02 98.08, 196.63 98.3 M221.21 73.72 C222.82 90.92, 214.44 96.48, 196.63 98.3 M196.63 98.3 C150.18 99.04, 105.53 99.13, 24.57 98.3 M196.63 98.3 C128.78 98.32, 60.6 96.63, 24.57 98.3 M24.57 98.3 C9.22 96.5, 0.66 90.49, 0 73.72 M24.57 98.3 C9.08 99.37, 1.39 90.87, 0 73.72 M0 73.72 C-1.7 58.85, -1.66 42.87, 0 24.57 M0 73.72 C0.19 56.41, -1.05 40.99, 0 24.57 M0 24.57 C1.82 7.53, 6.57 -0.27, 24.57 0 M0 24.57 C-2.1 8.86, 9.51 2.01, 24.57 0" stroke="#1e1e1e" stroke-width="2" fill="none"></path></g><g transform="translate(949.4493521097706 383.7189745985381) rotate(0 45.96995544433594 12.5)"><text x="45.96995544433594" y="17.52" font-family="Virgil, Segoe UI Emoji" font-size="20px" fill="#1e1e1e" text-anchor="middle" style="white-space: pre;" direction="ltr" dominant-baseline="alphabetic">viewModel</text></g><g stroke-linecap="round" transform="translate(1206.674283989761 347.07137063711366) rotate(0 110.60306120474888 49.14760347767515)"><path d="M24.57 0 C79.59 3.57, 134.58 -2.35, 196.63 0 C213.94 3.22, 224.19 11.06, 221.21 24.57 C220.05 39.96, 221.08 60.39, 221.21 73.72 C223.26 93.57, 213.1 99.33, 196.63 98.3 C162.58 101.17, 125.52 101.08, 24.57 98.3 C7.69 95.06, -3.32 92.05, 0 73.72 C-0.51 56.47, -0.72 43.39, 0 24.57 C1.26 6.22, 5.06 2.94, 24.57 0" stroke="none" stroke-width="0" fill="#ffffff"></path><path d="M24.57 0 C69.14 -0.26, 113.91 -0.21, 196.63 0 M24.57 0 C86.16 0.08, 149.41 0.43, 196.63 0 M196.63 0 C213.76 1.78, 221.59 6.7, 221.21 24.57 M196.63 0 C211.2 -0.79, 219.63 10.12, 221.21 24.57 M221.21 24.57 C220.06 37.1, 222.2 51.55, 221.21 73.72 M221.21 24.57 C222.06 35.45, 220.42 47.3, 221.21 73.72 M221.21 73.72 C222.61 90.82, 214.25 96.72, 196.63 98.3 M221.21 73.72 C220.28 90.32, 212.39 96.31, 196.63 98.3 M196.63 98.3 C136.49 98.12, 71.38 100.55, 24.57 98.3 M196.63 98.3 C129.43 96.12, 61.52 97.2, 24.57 98.3 M24.57 98.3 C8.97 99.23, 1.21 90.77, 0 73.72 M24.57 98.3 C8.06 98.04, 1.61 88.09, 0 73.72 M0 73.72 C1.21 60.82, 0.18 47.03, 0 24.57 M0 73.72 C1.33 61.74, -0.4 50.28, 0 24.57 M0 24.57 C-1.83 8.77, 9.34 1.75, 24.57 0 M0 24.57 C1.78 9.65, 6.41 2.05, 24.57 0" stroke="#1e1e1e" stroke-width="2" fill="none"></path></g><g transform="translate(1269.2374053141389 383.7189741147888) rotate(0 48.039939880371094 12.5)"><text x="48.039939880371094" y="17.52" font-family="Virgil, Segoe UI Emoji" font-size="20px" fill="#1e1e1e" text-anchor="middle" style="white-space: pre;" direction="ltr" dominant-baseline="alphabetic">repository</text></g><g stroke-linecap="round" transform="translate(569.5386411408613 347.07137153292865) rotate(0 110.60306120474888 49.14760347767515)"><path d="M24.57 0 C92.98 5.46, 162.51 5.1, 196.63 0 C214.79 -2.14, 224.22 7.56, 221.21 24.57 C223.36 40.36, 221.39 50.23, 221.21 73.72 C217.98 91.65, 214.88 100.44, 196.63 98.3 C138.46 96.08, 77.98 101.26, 24.57 98.3 C8.16 94.7, -0.61 88.71, 0 73.72 C1.66 60.49, -2.74 54.15, 0 24.57 C3.34 10.21, 8.02 3.48, 24.57 0" stroke="none" stroke-width="0" fill="#ffffff"></path><path d="M24.57 0 C64.8 2.42, 101.94 -0.44, 196.63 0 M24.57 0 C69.23 1.02, 113.34 -0.62, 196.63 0 M196.63 0 C211.43 -0.68, 219.84 9.87, 221.21 24.57 M196.63 0 C212.64 1.93, 220.79 6.4, 221.21 24.57 M221.21 24.57 C219.99 36.65, 220.88 48.32, 221.21 73.72 M221.21 24.57 C221.42 37.04, 221.33 48.01, 221.21 73.72 M221.21 73.72 C220.4 90.29, 212.47 96.57, 196.63 98.3 M221.21 73.72 C222.61 88.2, 214.51 100.54, 196.63 98.3 M196.63 98.3 C158.04 100.9, 114.21 100.3, 24.57 98.3 M196.63 98.3 C160.81 99.09, 124.81 98.96, 24.57 98.3 M24.57 98.3 C8.08 98.08, 1.4 88.35, 0 73.72 M24.57 98.3 C7.72 96.33, -2.21 91.01, 0 73.72 M0 73.72 C-1.2 55.21, 1.34 41.92, 0 24.57 M0 73.72 C-0.52 60.9, 0.97 48.37, 0 24.57 M0 24.57 C1.55 9.46, 6.65 1.78, 24.57 0 M0 24.57 C0.44 7.02, 8 0.05, 24.57 0" stroke="#1e1e1e" stroke-width="2" fill="none"></path></g><g transform="translate(588.2417618548875 383.7189750106038) rotate(0 91.89994049072266 12.5)"><text x="91.89994049072266" y="17.52" font-family="Virgil, Segoe UI Emoji" font-size="20px" fill="#1e1e1e" text-anchor="middle" style="white-space: pre;" direction="ltr" dominant-baseline="alphabetic">Compose UI / XML</text></g><g stroke-linecap="round"><g transform="translate(803.655067729484 401.0322906790618) rotate(0 29.766525863749848 -0.5642289633949531)"><path d="M-1 -0.51 C8.97 -0.59, 50.2 -0.94, 60.53 -0.79 M0.68 -1.83 C10.42 -1.67, 49.62 0.63, 59.58 0.7" stroke="#1e1e1e" stroke-width="2" fill="none"></path></g><g transform="translate(803.655067729484 401.0322906790618) rotate(0 29.766525863749848 -0.5642289633949531)"><path d="M35.8 8.4 C43.52 5.81, 52.78 3.8, 59.58 0.7 M35.8 8.4 C44.25 5.24, 53.61 3.42, 59.58 0.7" stroke="#1e1e1e" stroke-width="2" fill="none"></path></g><g transform="translate(803.655067729484 401.0322906790618) rotate(0 29.766525863749848 -0.5642289633949531)"><path d="M36.41 -8.69 C43.86 -5.14, 52.9 -1, 59.58 0.7 M36.41 -8.69 C44.65 -5.2, 53.78 -0.37, 59.58 0.7" stroke="#1e1e1e" stroke-width="2" fill="none"></path></g></g><mask></mask><g stroke-linecap="round"><g transform="translate(1120.1989251435475 397.8939933527347) rotate(0 34.43986323899753 0.9020193787098378)"><path d="M-0.01 -0.09 C11.88 0.49, 58.66 2.8, 70.35 2.99 M-1.48 -1.18 C10.39 -0.87, 57.81 0.92, 69.64 1.43" stroke="#1e1e1e" stroke-width="2" fill="none"></path></g><g transform="translate(1120.1989251435475 397.8939933527347) rotate(0 34.43986323899753 0.9020193787098378)"><path d="M45.83 9.04 C50.87 8.14, 57.96 6.13, 69.64 1.43 M45.83 9.04 C50.57 8.24, 56.46 6.53, 69.64 1.43" stroke="#1e1e1e" stroke-width="2" fill="none"></path></g><g transform="translate(1120.1989251435475 397.8939933527347) rotate(0 34.43986323899753 0.9020193787098378)"><path d="M46.51 -8.05 C51.33 -5.25, 58.27 -3.55, 69.64 1.43 M46.51 -8.05 C50.96 -5, 56.7 -2.86, 69.64 1.43" stroke="#1e1e1e" stroke-width="2" fill="none"></path></g></g><mask></mask><g stroke-linecap="round"><g transform="translate(1442.9071401435463 402.1858301485238) rotate(0 32.614813779104 -1.4786268854105629)"><path d="M0.45 1.07 C11.45 0.41, 55.28 -3.26, 66.01 -4.03 M-0.78 0.59 C10.09 0.06, 53.85 -2.46, 65.18 -2.96" stroke="#1e1e1e" stroke-width="2" fill="none"></path></g><g transform="translate(1442.9071401435463 402.1858301485238) rotate(0 32.614813779104 -1.4786268854105629)"><path d="M42.16 6.79 C50.84 4.18, 54.45 -0.71, 65.18 -2.96 M42.16 6.79 C48.19 4.85, 54.29 0.64, 65.18 -2.96" stroke="#1e1e1e" stroke-width="2" fill="none"></path></g><g transform="translate(1442.9071401435463 402.1858301485238) rotate(0 32.614813779104 -1.4786268854105629)"><path d="M41.28 -10.29 C50.21 -7.79, 54.08 -7.57, 65.18 -2.96 M41.28 -10.29 C47.42 -7.7, 53.75 -7.37, 65.18 -2.96" stroke="#1e1e1e" stroke-width="2" fill="none"></path></g></g><mask></mask><g stroke-linecap="round" transform="translate(1528.5323216966103 347.0713707363195) rotate(0 110.60306120474911 49.14760347767515)"><path d="M24.57 0 C74.64 1.71, 125.23 -0.26, 196.63 0 C214.05 -3.23, 222.75 10.06, 221.21 24.57 C222.7 41.74, 218.28 56.59, 221.21 73.72 C223.15 90.07, 209.42 97.69, 196.63 98.3 C150.76 98.18, 104.78 93.79, 24.57 98.3 C11.13 101.63, 2.02 89.93, 0 73.72 C-3.12 57.76, -3.22 34.39, 0 24.57 C-1.71 6.57, 11 -2.67, 24.57 0" stroke="none" stroke-width="0" fill="#ffffff"></path><path d="M24.57 0 C81.1 -1.92, 139.93 -1.7, 196.63 0 M24.57 0 C90.46 -2.22, 155.98 -1.15, 196.63 0 M196.63 0 C212.08 -1.36, 222.06 7.72, 221.21 24.57 M196.63 0 C214.5 -1.23, 218.91 7.95, 221.21 24.57 M221.21 24.57 C219.8 41.96, 221.57 60.4, 221.21 73.72 M221.21 24.57 C222.16 36.04, 220.86 45.03, 221.21 73.72 M221.21 73.72 C222.34 91.98, 214.64 96.8, 196.63 98.3 M221.21 73.72 C222.39 88.04, 213.77 98.74, 196.63 98.3 M196.63 98.3 C139.02 99.22, 79.85 100.74, 24.57 98.3 M196.63 98.3 C159.13 97.22, 123.97 96.7, 24.57 98.3 M24.57 98.3 C8.98 97.04, -1.69 91.38, 0 73.72 M24.57 98.3 C10.29 97.53, -1.87 89.79, 0 73.72 M0 73.72 C1.61 65.02, 1.13 51.68, 0 24.57 M0 73.72 C-0.18 54.61, 0.83 35.49, 0 24.57 M0 24.57 C-1.44 8.71, 9.98 1.66, 24.57 0 M0 24.57 C1.83 9.33, 6.83 1.93, 24.57 0" stroke="#1e1e1e" stroke-width="2" fill="none"></path></g><g transform="translate(1578.0154335605384 383.71897421399467) rotate(0 61.11994934082031 12.5)"><text x="61.11994934082031" y="17.52" font-family="Virgil, Segoe UI Emoji" font-size="20px" fill="#1e1e1e" text-anchor="middle" style="white-space: pre;" direction="ltr" dominant-baseline="alphabetic">data source</text></g></svg>