<svg version="1.1" xmlns="http://www.w3.org/2000/svg" viewBox="0 0 1495.1143087694186 986.761166935029" width="4485.342926308256" height="2960.283500805087">
  <!-- svg-source:excalidraw -->
  
  <defs>
    <style class="style-fonts">
      @font-face {
        font-family: "Virgil";
        src: url("https://excalidraw.com/Virgil.woff2");
      }
      @font-face {
        font-family: "Cascadia";
        src: url("https://excalidraw.com/Cascadia.woff2");
      }
      @font-face {
        font-family: "Assistant";
        src: url("https://excalidraw.com/Assistant-Regular.woff2");
      }
    </style>
    
  </defs>
  <rect x="0" y="0" width="1495.1143087694186" height="986.761166935029" fill="#ffffff"></rect><g stroke-linecap="round" transform="translate(859.2878743522683 10.000000129733053) rotate(0 149.02551934600842 482.4297245727912)"><path d="M7.86 8.16 C7.86 8.16, 7.86 8.16, 7.86 8.16 M7.86 8.16 C7.86 8.16, 7.86 8.16, 7.86 8.16 M1.43 27.75 C7.6 19.48, 17.56 10.32, 24.4 1.33 M1.43 27.75 C7.29 20.73, 12.99 13.72, 24.4 1.33 M0.26 41.3 C9.16 29.4, 17.6 20.05, 36.34 -0.21 M0.26 41.3 C9.74 30.7, 20.65 19.46, 36.34 -0.21 M0.39 53.34 C16.52 33.85, 27.89 17.83, 46.97 -0.25 M0.39 53.34 C13.33 38.91, 24.98 24.22, 46.97 -0.25 M0.52 65.38 C19.7 41.66, 39.31 21.89, 56.94 0.47 M0.52 65.38 C14.76 51.08, 26.82 35.92, 56.94 0.47 M0 78.17 C23.63 53.51, 42.52 28.49, 67.57 0.44 M0 78.17 C25.7 48.65, 52.96 19.13, 67.57 0.44 M0.13 90.22 C29.96 57.62, 55.23 26.58, 78.2 0.41 M0.13 90.22 C24.15 62.45, 48.43 33.93, 78.2 0.41 M0.26 102.26 C36.75 60.46, 68.56 23.23, 88.83 0.37 M0.26 102.26 C31.48 66.46, 63.14 30.79, 88.83 0.37 M0.4 114.3 C33.51 77.92, 66.99 38.35, 99.46 0.34 M0.4 114.3 C30.87 79.52, 61.7 43.43, 99.46 0.34 M0.53 126.34 C22.61 98.74, 44.3 74.16, 110.09 0.3 M0.53 126.34 C33.74 87.41, 67.43 48.81, 110.09 0.3 M0.01 139.13 C36.14 95.66, 73.92 54.94, 120.72 0.27 M0.01 139.13 C28.95 105.07, 59.1 69.54, 120.72 0.27 M0.14 151.17 C42.11 104.38, 85.37 53.22, 131.35 0.23 M0.14 151.17 C33.34 111.9, 66.99 73.89, 131.35 0.23 M0.27 163.22 C36.01 125.59, 70.28 87.06, 141.98 0.2 M0.27 163.22 C54.35 99.31, 109.14 35.66, 141.98 0.2 M0.41 175.26 C57.37 109.86, 110.27 48.78, 152.61 0.16 M0.41 175.26 C34.87 137.77, 68.15 98.64, 152.61 0.16 M0.54 187.3 C55.62 124.8, 110.07 59.6, 163.24 0.13 M0.54 187.3 C36.09 148.42, 68.75 109.27, 163.24 0.13 M0.02 200.09 C37.96 157.68, 77.65 113.08, 173.87 0.09 M0.02 200.09 C42.81 150.64, 85.18 101.32, 173.87 0.09 M0.15 212.13 C50.32 154.04, 99.74 95.1, 184.5 0.06 M0.15 212.13 C41.66 162.42, 84.53 113.61, 184.5 0.06 M0.28 224.17 C46.75 166.97, 97.01 112.27, 194.48 0.78 M0.28 224.17 C41.85 175.18, 84.99 124.29, 194.48 0.78 M0.42 236.22 C80.02 143.68, 159.39 53.29, 205.11 0.75 M0.42 236.22 C43.36 186.85, 85.42 138.95, 205.11 0.75 M-0.11 249.01 C63.92 175.44, 126.09 103.68, 215.74 0.71 M-0.11 249.01 C56.56 185.81, 112.46 120.23, 215.74 0.71 M0.03 261.05 C70.5 181.63, 140.18 98.78, 226.37 0.68 M0.03 261.05 C71.7 178.35, 143.81 94.97, 226.37 0.68 M0.16 273.09 C54.68 208, 113.08 140.95, 237 0.64 M0.16 273.09 C74.12 188.14, 148.18 102.86, 237 0.64 M0.29 285.13 C78.72 196.45, 155.66 108.04, 247.63 0.61 M0.29 285.13 C93.33 179.06, 185.43 73.46, 247.63 0.61 M0.43 297.17 C67.88 219.21, 135.17 141.11, 258.26 0.57 M0.43 297.17 C93.43 192.57, 184.37 87.69, 258.26 0.57 M-0.1 309.97 C94.06 201.16, 187.95 95.96, 268.89 0.54 M-0.1 309.97 C57.71 242.17, 117.35 173.32, 268.89 0.54 M0.04 322.01 C109.89 194.96, 219.67 70.77, 278.21 2.01 M0.04 322.01 C107.78 195.25, 217.86 69.8, 278.21 2.01 M0.17 334.05 C67.23 256.67, 132.31 180.07, 285.56 5.75 M0.17 334.05 C94.14 226.6, 188.01 118.57, 285.56 5.75 M0.3 346.09 C98.96 231.55, 197.86 118.69, 291.59 11 M0.3 346.09 C80.71 256.81, 159.07 166.37, 291.59 11 M0.44 358.13 C78.93 266.65, 158.08 175.6, 296.32 17.76 M0.44 358.13 C62.15 287.54, 124.02 215.82, 296.32 17.76 M-0.09 370.93 C84.33 274.29, 165.85 178.48, 297.76 28.29 M-0.09 370.93 C76.84 284.39, 152.73 196.32, 297.76 28.29 M0.05 382.97 C61.72 314.24, 120.7 244.46, 298.55 39.58 M0.05 382.97 C119.59 247.77, 237.88 112, 298.55 39.58 M0.18 395.01 C72.84 310.69, 147.02 226.11, 298.03 52.37 M0.18 395.01 C77.8 307, 153.57 219.64, 298.03 52.37 M0.31 407.05 C79.76 317.72, 158.79 227.43, 298.16 64.41 M0.31 407.05 C77 318.64, 154.29 229.62, 298.16 64.41 M0.45 419.09 C106.34 297.65, 213.93 174.31, 298.3 76.45 M0.45 419.09 C61.13 351.24, 120.98 282.1, 298.3 76.45 M-0.08 431.89 C104.93 312.34, 210.56 191.73, 298.43 88.49 M-0.08 431.89 C118.71 294.92, 236.93 157.3, 298.43 88.49 M0.06 443.93 C116.82 307.52, 234.35 172.81, 298.56 100.54 M0.06 443.93 C76.43 354.68, 153.71 264.95, 298.56 100.54 M0.19 455.97 C66.65 378.16, 134.52 302.33, 298.04 113.33 M0.19 455.97 C71.83 371.42, 144.46 287.95, 298.04 113.33 M0.32 468.01 C120.32 332.43, 239.1 194.5, 298.17 125.37 M0.32 468.01 C66.3 391.76, 133.92 314.38, 298.17 125.37 M0.46 480.05 C96.14 370.1, 191.65 258.71, 298.31 137.41 M0.46 480.05 C75.86 391.35, 152.16 302.74, 298.31 137.41 M-0.07 492.85 C88.07 393.08, 174.93 291.47, 298.44 149.45 M-0.07 492.85 C98.24 380.99, 196.47 268.62, 298.44 149.45 M0.07 504.89 C102.61 388.4, 206.27 270.31, 298.57 161.49 M0.07 504.89 C100.57 390.62, 199.2 276.04, 298.57 161.49 M0.2 516.93 C79.84 426.34, 159.18 336.2, 298.05 174.29 M0.2 516.93 C66.8 439.92, 135.17 361.6, 298.05 174.29 M0.33 528.97 C78.34 439.43, 155.6 349.97, 298.18 186.33 M0.33 528.97 C117.23 394.47, 234.88 258.76, 298.18 186.33 M0.47 541.01 C108.99 417.19, 217.51 290.75, 298.32 198.37 M0.47 541.01 C62.68 467.22, 126.59 395.12, 298.32 198.37 M-0.06 553.81 C93.81 447.84, 184.27 342.57, 298.45 210.41 M-0.06 553.81 C60.74 484.18, 120.5 414.94, 298.45 210.41 M0.08 565.85 C94.66 456.81, 189.72 347.05, 298.58 222.45 M0.08 565.85 C60.96 495.1, 121.16 425.09, 298.58 222.45 M0.21 577.89 C118.28 441.87, 237.26 306.31, 298.06 235.25 M0.21 577.89 C101.39 463.03, 201.79 347.39, 298.06 235.25 M0.34 589.93 C96.12 481.57, 190.93 370.89, 298.19 247.29 M0.34 589.93 C106.89 467.7, 212.77 346.15, 298.19 247.29 M0.48 601.97 C91.51 498.81, 180.92 393.7, 298.33 259.33 M0.48 601.97 C67.06 527.04, 133.05 451.96, 298.33 259.33 M-0.05 614.76 C66.07 536.67, 136.22 458.34, 298.46 271.37 M-0.05 614.76 C74.41 528.5, 148.89 441.32, 298.46 271.37 M0.09 626.81 C83.07 531.01, 165.68 436.17, 298.59 283.41 M0.09 626.81 C90.76 523.72, 181.48 420.11, 298.59 283.41 M0.22 638.85 C111.34 509.77, 223.49 379.44, 298.07 296.21 M0.22 638.85 C90.69 533.27, 182.37 428.15, 298.07 296.21 M0.35 650.89 C68.9 571.78, 137.69 492.66, 298.2 308.25 M0.35 650.89 C77.93 561.21, 156.16 471, 298.2 308.25 M0.49 662.93 C106.35 538.8, 212.93 415.16, 298.34 320.29 M0.49 662.93 C112.43 535.22, 222.5 407.62, 298.34 320.29 M-0.04 675.72 C101.55 557.87, 203.01 441.42, 298.47 332.33 M-0.04 675.72 C64.09 601.11, 127.91 526.96, 298.47 332.33 M0.1 687.76 C74.25 605.03, 146.92 520.24, 298.6 344.37 M0.1 687.76 C94.05 578.03, 188.97 468.58, 298.6 344.37 M0.23 699.81 C80.78 605.6, 160.73 514.68, 298.08 357.17 M0.23 699.81 C88.95 596.31, 178.72 492.5, 298.08 357.17 M0.36 711.85 C111.05 586.19, 222.2 458.13, 298.21 369.21 M0.36 711.85 C77.55 623.39, 154.45 535.64, 298.21 369.21 M0.49 723.89 C98.85 612.8, 195.57 499.08, 298.35 381.25 M0.49 723.89 C89.09 622.12, 177.75 519.67, 298.35 381.25 M-0.03 736.68 C100.41 618.46, 204.61 499.94, 298.48 393.29 M-0.03 736.68 C99.27 624.31, 197.6 510.42, 298.48 393.29 M0.11 748.72 C94.92 641.74, 187.82 536.12, 298.61 405.33 M0.11 748.72 C61.68 676.66, 124.14 604.62, 298.61 405.33 M0.24 760.76 C71.08 681.59, 141.26 599.6, 298.09 418.13 M0.24 760.76 C92.76 655.88, 184.71 550.65, 298.09 418.13 M0.37 772.81 C82.8 677.81, 166.17 583.83, 298.22 430.17 M0.37 772.81 C81.02 679.61, 162.61 586.25, 298.22 430.17 M0.5 784.85 C116.25 651.07, 232.87 518.67, 298.36 442.21 M0.5 784.85 C117.41 648.57, 234.99 513.24, 298.36 442.21 M-0.02 797.64 C103.84 677.18, 208.78 557.18, 298.49 454.25 M-0.02 797.64 C105.95 673.73, 213.66 550.75, 298.49 454.25 M0.11 809.68 C62.44 738.17, 125.82 664.93, 298.62 466.29 M0.11 809.68 C67.25 733.88, 134.1 656.66, 298.62 466.29 M0.25 821.72 C97.58 710.11, 195.42 596.91, 298.1 479.09 M0.25 821.72 C109.17 697.09, 217.57 571.56, 298.1 479.09 M0.38 833.76 C114.94 698.26, 232.4 565.44, 298.23 491.13 M0.38 833.76 C78.21 745.98, 154.88 657.59, 298.23 491.13 M0.51 845.81 C82.21 752.01, 162.3 658.85, 298.36 503.17 M0.51 845.81 C67.68 770.56, 134.52 693.4, 298.36 503.17 M-0.01 858.6 C79.91 767.12, 158.79 675.02, 298.5 515.21 M-0.01 858.6 C119.13 721.95, 237.69 584.46, 298.5 515.21 M0.12 870.64 C95.74 759.04, 192.89 649.19, 298.63 527.25 M0.12 870.64 C88.21 767.84, 176.43 665.95, 298.63 527.25 M0.26 882.68 C78.63 792.56, 158.6 701.49, 298.11 540.04 M0.26 882.68 C109.76 755.24, 220.01 628.4, 298.11 540.04 M0.39 894.72 C81.65 800.86, 161.57 709.46, 298.24 552.09 M0.39 894.72 C111.06 765.98, 222.65 636.81, 298.24 552.09 M0.52 906.76 C78.86 813.46, 159.67 722.51, 298.37 564.13 M0.52 906.76 C98.18 792.48, 197.8 678.34, 298.37 564.13 M0 919.56 C117.38 785.58, 234.98 649.64, 298.51 576.17 M0 919.56 C85.14 821.13, 170.83 722.28, 298.51 576.17 M0.13 931.6 C67.54 852.15, 136.53 772.43, 298.64 588.21 M0.13 931.6 C81.94 836.93, 163.46 742.38, 298.64 588.21 M1.58 942.13 C71.17 862.87, 141.06 781.96, 298.12 601 M1.58 942.13 C86.69 843.77, 171.56 745.54, 298.12 601 M4.34 951.15 C116 825.41, 226.26 697.77, 298.25 613.04 M4.34 951.15 C69.74 877.51, 135.19 802.31, 298.25 613.04 M9.72 957.16 C124.28 827.55, 236.51 698.38, 298.38 625.09 M9.72 957.16 C86.07 871.5, 162.07 784.66, 298.38 625.09 M16.41 961.65 C128.01 833.25, 240.76 704.02, 298.52 637.13 M16.41 961.65 C80.76 887.35, 144.43 815.07, 298.52 637.13 M24.42 964.64 C119.9 854.02, 213.71 744.84, 297.99 649.92 M24.42 964.64 C114.34 862.67, 204.8 757.88, 297.99 649.92 M35.05 964.6 C101.42 887.83, 170.85 808.87, 298.13 661.96 M35.05 964.6 C131.54 853.72, 227.4 743.35, 298.13 661.96 M45.02 965.32 C108.08 892.71, 170.17 820.91, 298.26 674 M45.02 965.32 C105.79 895.16, 167.07 824.68, 298.26 674 M55.65 965.29 C147.1 858.12, 240.41 752.4, 298.39 686.04 M55.65 965.29 C144.88 864.61, 232.36 763.43, 298.39 686.04 M66.28 965.25 C137.94 883.97, 210.7 802.84, 298.53 698.08 M66.28 965.25 C155.66 863.64, 243.81 762.14, 298.53 698.08 M76.91 965.22 C139.98 896.23, 200.06 824.32, 298 710.88 M76.91 965.22 C155.69 873.52, 235.28 782.01, 298 710.88 M87.54 965.18 C132.54 914.76, 176.51 865.13, 298.14 722.92 M87.54 965.18 C162.92 879.28, 236.95 794.41, 298.14 722.92 M98.17 965.15 C159.72 897.7, 220.23 825.62, 298.27 734.96 M98.17 965.15 C163.86 886.48, 231.94 809.03, 298.27 734.96 M108.8 965.11 C165.31 899.6, 223.49 835.47, 298.4 747 M108.8 965.11 C147.11 920.19, 186.81 876.45, 298.4 747 M119.43 965.08 C171.24 901.98, 226.97 840.68, 298.54 759.04 M119.43 965.08 C173.74 903.86, 228.92 841.03, 298.54 759.04 M130.06 965.05 C164.62 924.27, 197.7 883.71, 298.01 771.84 M130.06 965.05 C164.47 925.11, 200.5 883.9, 298.01 771.84 M140.69 965.01 C199.26 896.03, 255.32 830.23, 298.15 783.88 M140.69 965.01 C185.76 911.13, 233 856.31, 298.15 783.88 M151.32 964.98 C180.48 929.6, 213.55 893, 298.28 795.92 M151.32 964.98 C192.4 916.58, 233.75 869.37, 298.28 795.92 M161.95 964.94 C201.98 919.6, 243.07 874.79, 298.41 807.96 M161.95 964.94 C213.82 904.26, 269.24 842.25, 298.41 807.96 M172.58 964.91 C209.44 923.63, 246.03 880.89, 298.55 820 M172.58 964.91 C215.63 913.54, 259.91 864.13, 298.55 820 M183.21 964.87 C217.82 925.81, 250.51 885.18, 298.02 832.8 M183.21 964.87 C216.98 925.4, 249.82 887.59, 298.02 832.8 M193.84 964.84 C219.84 935.75, 244.51 904.89, 298.16 844.84 M193.84 964.84 C233.95 919.04, 273.8 875.06, 298.16 844.84 M204.47 964.8 C235.34 930.45, 265.62 897.76, 298.29 856.88 M204.47 964.8 C235.4 928.45, 266.02 894.28, 298.29 856.88 M215.1 964.77 C248.43 926.48, 278.2 887.44, 298.42 868.92 M215.1 964.77 C247.23 928.85, 278.3 891.1, 298.42 868.92 M225.73 964.73 C246.64 937.15, 269.1 911.15, 298.56 880.96 M225.73 964.73 C244.16 942.91, 264.53 920.78, 298.56 880.96 M236.36 964.7 C254.98 944.54, 271.96 925.03, 298.03 893.76 M236.36 964.7 C259.16 938.3, 281.09 911.55, 298.03 893.76 M246.99 964.67 C262.16 943.02, 280.99 923.31, 298.17 905.8 M246.99 964.67 C263.25 946.44, 278.91 929.32, 298.17 905.8 M257.62 964.63 C270.22 946.7, 286.82 930.03, 298.3 917.84 M257.62 964.63 C267.32 954.84, 277.24 943.61, 298.3 917.84 M268.25 964.6 C276.07 953.36, 285.62 941.02, 298.43 929.88 M268.25 964.6 C276.01 955.82, 284.72 946.57, 298.43 929.88 M280.2 963.05 C285.48 957.23, 291.96 950.6, 297.25 943.43 M280.2 963.05 C284.53 958.9, 287.75 953.97, 297.25 943.43" stroke="#ffec99" stroke-width="1" fill="none"></path><path d="M32 0 C102.88 0.48, 174.45 0.13, 266.05 0 M32 0 C119.18 1.4, 207.86 1.33, 266.05 0 M266.05 0 C285.91 -0.75, 297.31 10.7, 298.05 32 M266.05 0 C287.53 1.41, 300.03 11.59, 298.05 32 M298.05 32 C299.83 219.87, 298.92 406.97, 298.05 932.86 M298.05 32 C296.34 295.05, 296.15 558.27, 298.05 932.86 M298.05 932.86 C296.13 953.12, 285.69 964.68, 266.05 964.86 M298.05 932.86 C297.58 956.37, 285.89 965.81, 266.05 964.86 M266.05 964.86 C192.31 964.03, 120.07 963.31, 32 964.86 M266.05 964.86 C181.84 964.01, 99.11 963.84, 32 964.86 M32 964.86 C9.35 964.53, 1.62 953.39, 0 932.86 M32 964.86 C10.97 964.37, 0.34 955.83, 0 932.86 M0 932.86 C-2.04 596.98, -1.99 261.01, 0 32 M0 932.86 C-2.92 672.47, -3.08 412.22, 0 32 M0 32 C-1.62 11.52, 10.15 0.16, 32 0 M0 32 C1.05 9.1, 8.4 1.28, 32 0" stroke="#1e1e1e" stroke-width="2" fill="none"></path></g><g stroke-linecap="round" transform="translate(1187.0632700774017 10.000000129733053) rotate(0 149.02551934600842 483.38058340264797)"><path d="M7.86 8.16 C7.86 8.16, 7.86 8.16, 7.86 8.16 M7.86 8.16 C7.86 8.16, 7.86 8.16, 7.86 8.16 M1.43 27.75 C6.76 19.98, 13.65 12.33, 24.4 1.33 M1.43 27.75 C5.94 22.87, 10.49 16.35, 24.4 1.33 M0.26 41.3 C11.81 26.35, 24.26 16.05, 36.34 -0.21 M0.26 41.3 C10.59 29.42, 21.96 17.05, 36.34 -0.21 M0.39 53.34 C13.46 37.55, 26.4 25.39, 46.97 -0.25 M0.39 53.34 C11.97 37.04, 25.89 23.48, 46.97 -0.25 M0.52 65.38 C17.51 46.87, 32.29 27.57, 56.94 0.47 M0.52 65.38 C21.18 41.5, 42.83 16.83, 56.94 0.47 M0 78.17 C25.17 46.99, 53.59 17.62, 67.57 0.44 M0 78.17 C24.97 50.62, 49.92 20.39, 67.57 0.44 M0.13 90.22 C24.62 63.06, 48.2 35.23, 78.2 0.41 M0.13 90.22 C29.57 54.8, 59.44 22.1, 78.2 0.41 M0.26 102.26 C29.08 72.95, 54.85 39.52, 88.83 0.37 M0.26 102.26 C34.34 61.95, 69.34 21.48, 88.83 0.37 M0.4 114.3 C21.47 88.62, 45.9 64.34, 99.46 0.34 M0.4 114.3 C29.61 82.86, 56.31 51.4, 99.46 0.34 M0.53 126.34 C34.41 87.45, 69.23 45.3, 110.09 0.3 M0.53 126.34 C32.77 90.37, 64 52.98, 110.09 0.3 M0.01 139.13 C36.07 96.44, 72.59 55.52, 120.72 0.27 M0.01 139.13 C34.68 100.55, 68.8 59.2, 120.72 0.27 M0.14 151.17 C51.49 92.11, 102.94 35.22, 131.35 0.23 M0.14 151.17 C31.81 115.32, 64.43 77.53, 131.35 0.23 M0.27 163.22 C40.5 114, 83.6 63.83, 141.98 0.2 M0.27 163.22 C37.19 122.64, 72.4 80.22, 141.98 0.2 M0.41 175.26 C54.31 113.35, 106.86 50.23, 152.61 0.16 M0.41 175.26 C42.42 128.05, 81.72 82.06, 152.61 0.16 M0.54 187.3 C39.7 142.94, 78.51 95.81, 163.24 0.13 M0.54 187.3 C40.31 139.95, 81.7 92.24, 163.24 0.13 M0.02 200.09 C53.48 136.57, 108.89 73.43, 173.87 0.09 M0.02 200.09 C66.98 122.9, 134.41 45.35, 173.87 0.09 M0.15 212.13 C38.11 168.5, 74.77 124.09, 184.5 0.06 M0.15 212.13 C71.81 130.65, 143.03 48.77, 184.5 0.06 M0.28 224.17 C51.03 166.92, 97.47 110.38, 194.48 0.78 M0.28 224.17 C55.57 159.32, 110.71 96.12, 194.48 0.78 M0.42 236.22 C72.57 151.79, 146.03 69.58, 205.11 0.75 M0.42 236.22 C82.3 143.48, 161.54 51.56, 205.11 0.75 M-0.11 249.01 C41.73 198.33, 86.34 146.38, 215.74 0.71 M-0.11 249.01 C56.03 184.91, 111.65 120.03, 215.74 0.71 M0.03 261.05 C71.76 177.36, 143.42 93.13, 226.37 0.68 M0.03 261.05 C52.87 198.45, 107.2 137.01, 226.37 0.68 M0.16 273.09 C69.37 194.67, 138.63 117.62, 237 0.64 M0.16 273.09 C56.55 206.68, 115.08 140.5, 237 0.64 M0.29 285.13 C99.16 171.87, 196.69 59.33, 247.63 0.61 M0.29 285.13 C79.45 192.14, 158.95 99.17, 247.63 0.61 M0.43 297.17 C72.37 214.29, 143.45 133.52, 258.26 0.57 M0.43 297.17 C54.1 233.72, 107.17 172.41, 258.26 0.57 M-0.1 309.97 C92.79 204.67, 183.03 100.61, 268.89 0.54 M-0.1 309.97 C75.23 221.19, 151.91 133.17, 268.89 0.54 M0.04 322.01 C61.03 251.74, 122.53 182.96, 278.21 2.01 M0.04 322.01 C96.61 211.17, 193.46 100.54, 278.21 2.01 M0.17 334.05 C113.53 205.91, 225.24 78.34, 285.56 5.75 M0.17 334.05 C107.01 209.48, 214.2 84.91, 285.56 5.75 M0.3 346.09 C67.02 267.82, 135.23 187.53, 291.59 11 M0.3 346.09 C84.7 249.19, 169.38 151.49, 291.59 11 M0.44 358.13 C75.35 273.34, 150.83 186.86, 296.32 17.76 M0.44 358.13 C87.32 254.99, 175.81 153.4, 296.32 17.76 M-0.09 370.93 C94.7 263.77, 187.69 156.5, 297.76 28.29 M-0.09 370.93 C86.22 271.17, 173.3 171.84, 297.76 28.29 M0.05 382.97 C85.22 283.25, 172.29 184.34, 298.55 39.58 M0.05 382.97 C111.73 255.83, 223.25 127.13, 298.55 39.58 M0.18 395.01 C90.45 292.06, 181.79 186.82, 298.03 52.37 M0.18 395.01 C74.23 311.95, 146.53 228.29, 298.03 52.37 M0.31 407.05 C104.16 290.23, 207.65 170.82, 298.16 64.41 M0.31 407.05 C106.53 283.87, 212.54 161.97, 298.16 64.41 M0.45 419.09 C99.25 305.99, 198.16 191.88, 298.3 76.45 M0.45 419.09 C80.2 327.23, 161.21 234.19, 298.3 76.45 M-0.08 431.89 C99.02 320.25, 197.76 207.39, 298.43 88.49 M-0.08 431.89 C71.2 350.48, 141.03 269.17, 298.43 88.49 M0.06 443.93 C117.85 309.79, 236.41 174.74, 298.56 100.54 M0.06 443.93 C96.89 331.25, 194.06 220.23, 298.56 100.54 M0.19 455.97 C66.41 382.44, 129.66 307.74, 298.04 113.33 M0.19 455.97 C67.62 378.47, 135.16 301.35, 298.04 113.33 M0.32 468.01 C103.79 350.28, 207.32 231.07, 298.17 125.37 M0.32 468.01 C115.53 335.42, 230.66 202.61, 298.17 125.37 M0.46 480.05 C73.28 394.97, 148.03 310.26, 298.31 137.41 M0.46 480.05 C115.19 349.12, 228.84 217.5, 298.31 137.41 M-0.07 492.85 C96.32 381.94, 192.77 271.95, 298.44 149.45 M-0.07 492.85 C83.4 397.71, 164.79 303.12, 298.44 149.45 M0.07 504.89 C103.96 386.19, 207.95 268.26, 298.57 161.49 M0.07 504.89 C112.94 374.86, 227.3 243.13, 298.57 161.49 M0.2 516.93 C92.87 407.73, 188.06 300.3, 298.05 174.29 M0.2 516.93 C68.64 435.33, 138.87 354.91, 298.05 174.29 M0.33 528.97 C88.42 431.37, 174.23 333.47, 298.18 186.33 M0.33 528.97 C102.67 413.14, 203.31 296.25, 298.18 186.33 M0.47 541.01 C59.54 473, 119.58 402.72, 298.32 198.37 M0.47 541.01 C101.62 420.99, 204.85 302.97, 298.32 198.37 M-0.06 553.81 C99.06 442.27, 197.14 327.83, 298.45 210.41 M-0.06 553.81 C118.88 416.13, 238.16 278.74, 298.45 210.41 M0.08 565.85 C90.87 459.04, 184.96 353.3, 298.58 222.45 M0.08 565.85 C93.19 457.8, 186.62 349.62, 298.58 222.45 M0.21 577.89 C115.98 444.72, 230.48 312.45, 298.06 235.25 M0.21 577.89 C97.73 466.08, 197.2 352.23, 298.06 235.25 M0.34 589.93 C71.79 504.34, 146.23 419.37, 298.19 247.29 M0.34 589.93 C85.43 494.54, 169.1 397.75, 298.19 247.29 M0.48 601.97 C73.82 514.51, 150.67 426.35, 298.33 259.33 M0.48 601.97 C101.91 483.2, 204.5 364.55, 298.33 259.33 M-0.05 614.76 C86.41 514.62, 170.81 416.11, 298.46 271.37 M-0.05 614.76 C66.8 538.03, 131.8 462.61, 298.46 271.37 M0.09 626.81 C116.46 492.88, 230.56 360.84, 298.59 283.41 M0.09 626.81 C83.99 531.75, 167.11 436.84, 298.59 283.41 M0.22 638.85 C111.98 511.3, 224.84 382.14, 298.07 296.21 M0.22 638.85 C98.73 526.44, 197.56 412.22, 298.07 296.21 M0.35 650.89 C92.06 545.21, 184.3 437.99, 298.2 308.25 M0.35 650.89 C117.8 513.92, 235.61 378.08, 298.2 308.25 M0.49 662.93 C97.29 552.69, 191.05 443.97, 298.34 320.29 M0.49 662.93 C75.77 575.58, 151.11 489.69, 298.34 320.29 M-0.04 675.72 C65.54 598.97, 132.31 520.46, 298.47 332.33 M-0.04 675.72 C60.43 607.03, 120.85 537.21, 298.47 332.33 M0.1 687.76 C119.94 552.81, 239.17 414.29, 298.6 344.37 M0.1 687.76 C73.69 603.13, 146.06 518.49, 298.6 344.37 M0.23 699.81 C117.97 566.09, 233.75 433.62, 298.08 357.17 M0.23 699.81 C65.94 623.7, 132.76 546.59, 298.08 357.17 M0.36 711.85 C108.37 587.17, 217.34 461.69, 298.21 369.21 M0.36 711.85 C62.8 641.65, 123.98 571.49, 298.21 369.21 M0.49 723.89 C101.76 605.89, 202.51 488.11, 298.35 381.25 M0.49 723.89 C67.03 646.49, 134.74 568.9, 298.35 381.25 M-0.03 736.68 C70.22 655.99, 138.5 574.03, 298.48 393.29 M-0.03 736.68 C80.92 645.91, 160.23 554.67, 298.48 393.29 M0.11 748.72 C83.69 651.51, 169.43 554.89, 298.61 405.33 M0.11 748.72 C60.28 678.91, 120.67 608.97, 298.61 405.33 M0.24 760.76 C87.96 661.24, 174.47 562.11, 298.09 418.13 M0.24 760.76 C115.19 628.6, 228.76 497.95, 298.09 418.13 M0.37 772.81 C83.88 678.21, 167.58 581.32, 298.22 430.17 M0.37 772.81 C112.86 644.04, 224.44 515.3, 298.22 430.17 M0.5 784.85 C88.07 684.69, 176.47 583.9, 298.36 442.21 M0.5 784.85 C102.81 668.38, 205.51 549.84, 298.36 442.21 M-0.02 797.64 C84 702.72, 165.2 607.27, 298.49 454.25 M-0.02 797.64 C61.43 729.08, 121.4 659.99, 298.49 454.25 M0.11 809.68 C79.71 719.01, 159.88 628.09, 298.62 466.29 M0.11 809.68 C110.91 681.23, 223.42 552.75, 298.62 466.29 M0.25 821.72 C80.62 727.89, 162.53 633.11, 298.1 479.09 M0.25 821.72 C110.58 696.34, 220.47 569.59, 298.1 479.09 M0.38 833.76 C89.9 730.41, 179.78 628.33, 298.23 491.13 M0.38 833.76 C96.73 722.06, 194.86 609.57, 298.23 491.13 M0.51 845.81 C108.63 722.13, 216.1 599.72, 298.36 503.17 M0.51 845.81 C116.82 708.52, 235.34 573.28, 298.36 503.17 M-0.01 858.6 C104.22 737.92, 210.08 616.42, 298.5 515.21 M-0.01 858.6 C85.05 759.77, 170.3 660.8, 298.5 515.21 M0.12 870.64 C81.5 776.2, 163.66 682.56, 298.63 527.25 M0.12 870.64 C69.55 791.12, 138.73 710.95, 298.63 527.25 M0.26 882.68 C77.26 795.55, 153.03 707.93, 298.11 540.04 M0.26 882.68 C108.7 757.86, 216.79 632.82, 298.11 540.04 M0.39 894.72 C68.46 817.29, 135.98 739.22, 298.24 552.09 M0.39 894.72 C76.53 805.66, 153.52 717.02, 298.24 552.09 M0.52 906.76 C92.83 797.78, 186.94 690.75, 298.37 564.13 M0.52 906.76 C92.95 800.87, 185.35 694.99, 298.37 564.13 M0 919.56 C92.93 815.03, 183.93 709.46, 298.51 576.17 M0 919.56 C86.88 821.35, 172.78 722.45, 298.51 576.17 M0.13 931.6 C85.9 833.97, 170.92 736.26, 298.64 588.21 M0.13 931.6 C88.82 827.87, 178.73 724.02, 298.64 588.21 M0.92 942.89 C77.8 853.21, 157.54 762.62, 298.12 601 M0.92 942.89 C108.75 819.31, 216.83 695.56, 298.12 601 M3.68 951.91 C64.94 877.45, 129.72 805.32, 298.25 613.04 M3.68 951.91 C105.33 835.12, 207.62 717.49, 298.25 613.04 M8.41 958.67 C101.82 853.36, 194.25 745.61, 298.38 625.09 M8.41 958.67 C110.33 838.83, 213.3 720.39, 298.38 625.09 M15.1 963.16 C70.79 897.19, 128.65 831.55, 298.52 637.13 M15.1 963.16 C94.91 871.62, 175.49 778.83, 298.52 637.13 M23.11 966.14 C122.64 851.71, 221.04 735.63, 297.99 649.92 M23.11 966.14 C127.47 847.44, 231.61 728.56, 297.99 649.92 M32.42 967.62 C90.3 901.97, 148.85 833.86, 298.13 661.96 M32.42 967.62 C134.87 848.24, 239.53 728.78, 298.13 661.96 M43.05 967.59 C132.01 865.51, 222.34 763.05, 298.26 674 M43.05 967.59 C133.47 861.43, 225.9 756.22, 298.26 674 M53.68 967.55 C132.06 880.37, 209.33 790.82, 298.39 686.04 M53.68 967.55 C144.14 866.79, 233.68 763.27, 298.39 686.04 M64.31 967.52 C138.37 884.1, 210.47 799.82, 298.53 698.08 M64.31 967.52 C130.38 893.79, 195.41 818.64, 298.53 698.08 M74.94 967.48 C163.31 866.4, 252.2 762.29, 298 710.88 M74.94 967.48 C152.73 879.46, 228.65 791.62, 298 710.88 M85.57 967.45 C158.45 884.6, 229.21 801.25, 298.14 722.92 M85.57 967.45 C154.05 886.91, 222.08 807.74, 298.14 722.92 M96.2 967.41 C147.91 911.75, 196.92 852.74, 298.27 734.96 M96.2 967.41 C153.53 900.75, 210.22 832.93, 298.27 734.96 M106.83 967.38 C145.17 923.44, 182.85 879.57, 298.4 747 M106.83 967.38 C170.01 893.38, 234.13 820.16, 298.4 747 M117.46 967.34 C175.47 902.36, 230.3 838.99, 298.54 759.04 M117.46 967.34 C190.59 884.19, 262.36 801.31, 298.54 759.04 M128.09 967.31 C183.81 902.06, 237.97 838.7, 298.01 771.84 M128.09 967.31 C191.44 893.4, 254.89 821.63, 298.01 771.84 M138.72 967.27 C187.22 911.19, 236.46 853.16, 298.15 783.88 M138.72 967.27 C186.68 910.75, 234.35 856.44, 298.15 783.88 M149.35 967.24 C182.42 930.98, 215.18 892.43, 298.28 795.92 M149.35 967.24 C198.71 912.08, 248 856.79, 298.28 795.92 M159.98 967.21 C189.09 930.65, 219.46 898.05, 298.41 807.96 M159.98 967.21 C195.42 926.78, 230.3 886.88, 298.41 807.96 M170.61 967.17 C201.24 927.74, 233.54 893.2, 298.55 820 M170.61 967.17 C213.14 921.29, 254.16 873.48, 298.55 820 M181.24 967.14 C219.46 927.43, 253.73 883.92, 298.02 832.8 M181.24 967.14 C221.95 920.49, 263.53 873.8, 298.02 832.8 M191.88 967.1 C219.1 935.57, 249.82 901.44, 298.16 844.84 M191.88 967.1 C226.48 928.83, 259.56 890.32, 298.16 844.84 M202.51 967.07 C231.03 933.58, 261.18 900.9, 298.29 856.88 M202.51 967.07 C233.01 932.87, 263.01 897.81, 298.29 856.88 M213.14 967.03 C243.64 932.72, 274.78 897.49, 298.42 868.92 M213.14 967.03 C238.01 936.95, 263.41 908.43, 298.42 868.92 M223.77 967 C251.28 932.58, 280.14 901.86, 298.56 880.96 M223.77 967 C245.19 943.05, 266.51 918.37, 298.56 880.96 M234.4 966.96 C255.71 942.52, 273.37 922.59, 298.03 893.76 M234.4 966.96 C252.57 946.51, 270.63 924.9, 298.03 893.76 M244.37 967.68 C256.13 955.94, 264.8 942.63, 298.17 905.8 M244.37 967.68 C258.46 950.54, 273.52 934.28, 298.17 905.8 M255 967.65 C272.98 947.38, 287.38 931.05, 298.3 917.84 M255 967.65 C268.81 951.29, 282.69 934.77, 298.3 917.84 M266.29 966.86 C277.93 956.86, 286.52 943.44, 298.43 929.88 M266.29 966.86 C275.06 956.98, 281.97 947.94, 298.43 929.88 M278.23 965.32 C283.92 957.9, 286.97 952.94, 297.91 942.68 M278.23 965.32 C285.09 957.61, 290.9 951.06, 297.91 942.68" stroke="#a5d8ff" stroke-width="1" fill="none"></path><path d="M32 0 C95.27 -1.34, 155.36 0.99, 266.05 0 M32 0 C122.32 -0.97, 210.5 -0.98, 266.05 0 M266.05 0 C287.6 -1.78, 298.07 12.57, 298.05 32 M266.05 0 C289.65 0.23, 298 8.72, 298.05 32 M298.05 32 C295.97 320.87, 295.11 607.92, 298.05 934.76 M298.05 32 C297.38 356.12, 297.07 679.94, 298.05 934.76 M298.05 934.76 C296.2 956.57, 288.55 965.39, 266.05 966.76 M298.05 934.76 C296.15 954.46, 288.25 964.72, 266.05 966.76 M266.05 966.76 C216.36 965.03, 167.61 964.06, 32 966.76 M266.05 966.76 C183.27 964.87, 98.59 965.84, 32 966.76 M32 966.76 C11.84 967.89, -0.35 955.84, 0 934.76 M32 966.76 C11.85 965.88, -1.97 957.75, 0 934.76 M0 934.76 C-0.81 597.64, -1.8 261.05, 0 32 M0 934.76 C-0.08 617.46, 0.27 301.22, 0 32 M0 32 C-0.34 11.38, 9.75 -0.59, 32 0 M0 32 C-1.02 12.63, 10.01 0.74, 32 0" stroke="#1e1e1e" stroke-width="2" fill="none"></path></g><g stroke-linecap="round" transform="translate(502.9858693932497 10) rotate(0 163.28882430027556 482.4297241308327)"><path d="M7.86 8.16 C7.86 8.16, 7.86 8.16, 7.86 8.16 M7.86 8.16 C7.86 8.16, 7.86 8.16, 7.86 8.16 M1.43 27.75 C8.62 18.63, 16.25 10.07, 24.4 1.33 M1.43 27.75 C10.09 17.05, 18.94 7.97, 24.4 1.33 M0.26 41.3 C15.14 27.19, 27.68 11.41, 36.34 -0.21 M0.26 41.3 C12.53 28.18, 22.87 13.95, 36.34 -0.21 M0.39 53.34 C15.71 37.52, 28.43 22.74, 46.97 -0.25 M0.39 53.34 C18.23 34.24, 35.42 14.08, 46.97 -0.25 M0.52 65.38 C17.34 44.53, 35.59 25.21, 57.6 -0.28 M0.52 65.38 C15.88 47.73, 32.66 29.42, 57.6 -0.28 M0 78.17 C17.72 59.16, 35.24 39.55, 67.57 0.44 M0 78.17 C15.56 58.91, 32.24 41.41, 67.57 0.44 M0.13 90.22 C15.97 71.67, 34.03 53.35, 78.2 0.41 M0.13 90.22 C29.27 58.18, 57.39 24.04, 78.2 0.41 M0.26 102.26 C20.96 75.91, 45.98 51.82, 88.83 0.37 M0.26 102.26 C34.7 62.53, 68.64 22.75, 88.83 0.37 M0.4 114.3 C28.85 84.73, 54.07 51.43, 99.46 0.34 M0.4 114.3 C20.06 90.79, 40.7 67.99, 99.46 0.34 M0.53 126.34 C28.13 92.6, 56.98 62.17, 110.09 0.3 M0.53 126.34 C31.07 89.47, 63.2 52.03, 110.09 0.3 M0.01 139.13 C36.22 98.02, 74.65 55.77, 120.72 0.27 M0.01 139.13 C24.22 108.69, 50.39 79.88, 120.72 0.27 M0.14 151.17 C36.68 111.16, 71.51 69.64, 131.35 0.23 M0.14 151.17 C29.74 116.65, 59.15 83.2, 131.35 0.23 M0.27 163.22 C29.63 128.25, 60.15 95.54, 141.98 0.2 M0.27 163.22 C31.06 125.38, 64.21 88.71, 141.98 0.2 M0.41 175.26 C57.63 106.99, 116.36 38.73, 152.61 0.16 M0.41 175.26 C46.91 121.14, 94.9 66.62, 152.61 0.16 M0.54 187.3 C55.47 121.87, 110.21 60.04, 163.24 0.13 M0.54 187.3 C57.1 122.26, 113.22 58.1, 163.24 0.13 M0.02 200.09 C57.04 135.11, 115.78 70.34, 173.87 0.09 M0.02 200.09 C52.95 138.74, 104.49 78.38, 173.87 0.09 M0.15 212.13 C59.39 141.73, 121.91 71.19, 184.5 0.06 M0.15 212.13 C51.55 153.94, 101.95 96.32, 184.5 0.06 M0.28 224.17 C59.04 153.26, 121.81 82.49, 195.13 0.03 M0.28 224.17 C74.24 139.47, 148.12 55.53, 195.13 0.03 M0.42 236.22 C57.01 173.36, 113.9 106.16, 205.76 -0.01 M0.42 236.22 C74.18 149.69, 148.64 64.03, 205.76 -0.01 M-0.11 249.01 C52.07 188.71, 104.56 129.69, 216.39 -0.04 M-0.11 249.01 C75.51 159.92, 151.24 73.32, 216.39 -0.04 M0.03 261.05 C77 170.63, 155.36 80.84, 227.02 -0.08 M0.03 261.05 C91.67 157.22, 181.26 52.71, 227.02 -0.08 M0.16 273.09 C59.99 207.14, 116.76 140.65, 237.65 -0.11 M0.16 273.09 C63.09 202.51, 125.25 130.72, 237.65 -0.11 M0.29 285.13 C92.81 178.08, 185.28 72.58, 248.28 -0.15 M0.29 285.13 C92.04 177.07, 185.18 70.09, 248.28 -0.15 M0.43 297.17 C93.26 191.76, 184.87 85.55, 258.91 -0.18 M0.43 297.17 C98.97 183.14, 199.69 67.47, 258.91 -0.18 M-0.1 309.97 C70.81 227.73, 143.67 143.75, 269.54 -0.22 M-0.1 309.97 C93.06 204.59, 184.66 98.98, 269.54 -0.22 M0.04 322.01 C74.75 238.97, 148.88 154.59, 280.17 -0.25 M0.04 322.01 C64.08 248.95, 129.02 173.78, 280.17 -0.25 M0.17 334.05 C58.96 267.24, 118.8 199.37, 290.8 -0.28 M0.17 334.05 C105.15 209.9, 211.73 87.63, 290.8 -0.28 M0.3 346.09 C95.75 234.39, 192 124.64, 300.12 1.19 M0.3 346.09 C100.99 229.29, 200.47 114.23, 300.12 1.19 M0.44 358.13 C69.78 279.29, 137.64 202.56, 308.78 3.42 M0.44 358.13 C110.47 232.87, 220.63 106.13, 308.78 3.42 M-0.09 370.93 C111.79 241.3, 223.62 112.06, 316.79 6.4 M-0.09 370.93 C83.44 276.88, 166.2 181.65, 316.79 6.4 M0.05 382.97 C74.79 299.21, 149.73 214.12, 321.52 13.16 M0.05 382.97 C77.59 292.49, 155.32 202.9, 321.52 13.16 M0.18 395.01 C87.28 295.02, 172.51 196.55, 325.59 20.67 M0.18 395.01 C68.55 315.27, 138.99 234.7, 325.59 20.67 M0.31 407.05 C69.26 326.49, 138.43 246.35, 327.03 31.21 M0.31 407.05 C127.78 260.48, 255.36 113.95, 327.03 31.21 M0.45 419.09 C69.24 339.7, 138.51 260.89, 327.16 43.25 M0.45 419.09 C73.12 334.13, 146.46 249.07, 327.16 43.25 M-0.08 431.89 C70.73 350.74, 140.4 268.45, 327.3 55.29 M-0.08 431.89 C128.74 281.27, 258.57 132.32, 327.3 55.29 M0.06 443.93 C77.17 356.85, 152.98 269.1, 327.43 67.33 M0.06 443.93 C116.93 312, 232.46 178.47, 327.43 67.33 M0.19 455.97 C116.02 319.85, 232.45 185.17, 326.91 80.12 M0.19 455.97 C95.1 347.98, 189.71 238.97, 326.91 80.12 M0.32 468.01 C74.36 383.12, 148.73 299.19, 327.04 92.16 M0.32 468.01 C95.34 357.27, 191.13 247.05, 327.04 92.16 M0.46 480.05 C74.92 395.87, 148.89 310.71, 327.17 104.21 M0.46 480.05 C107.1 355.74, 214.22 232.8, 327.17 104.21 M-0.07 492.85 C119.16 356.47, 237.4 218.89, 327.31 116.25 M-0.07 492.85 C119.81 352.03, 241.95 211.38, 327.31 116.25 M0.07 504.89 C91.15 402.25, 181.41 299.42, 327.44 128.29 M0.07 504.89 C65.78 428.78, 131.61 353.4, 327.44 128.29 M0.2 516.93 C93.96 411.77, 186 305.58, 326.92 141.08 M0.2 516.93 C112.3 389.36, 223.92 260.63, 326.92 141.08 M0.33 528.97 C73.94 444.3, 147.7 358.15, 327.05 153.12 M0.33 528.97 C74.71 441.47, 150.67 354.37, 327.05 153.12 M0.47 541.01 C97.64 427.96, 194.82 317.88, 327.18 165.16 M0.47 541.01 C129.21 394.83, 257.11 247.61, 327.18 165.16 M-0.06 553.81 C89.93 448.09, 180.49 344.97, 327.32 177.21 M-0.06 553.81 C123.13 411.79, 245.64 271.11, 327.32 177.21 M0.08 565.85 C125.94 423.74, 248.96 281.08, 327.45 189.25 M0.08 565.85 C110.97 436.84, 222.77 308.99, 327.45 189.25 M0.21 577.89 C91.02 472.58, 183.29 367.32, 326.93 202.04 M0.21 577.89 C70.85 497.36, 139.32 418.22, 326.93 202.04 M0.34 589.93 C123.5 449.39, 245.12 308.72, 327.06 214.08 M0.34 589.93 C77.98 500.31, 155.44 411.84, 327.06 214.08 M0.48 601.97 C125.07 459.21, 247.85 319.1, 327.19 226.12 M0.48 601.97 C117.31 466.75, 234.32 332.57, 327.19 226.12 M-0.05 614.76 C127.86 465.57, 257.69 315.21, 327.33 238.16 M-0.05 614.76 C117.5 478.94, 236.84 342.43, 327.33 238.16 M0.09 626.81 C115.69 493.16, 232.94 358.18, 327.46 250.21 M0.09 626.81 C86.22 530.04, 171.6 431.97, 327.46 250.21 M0.22 638.85 C77.81 550.96, 153.64 464.69, 326.94 263 M0.22 638.85 C74.73 551.51, 149.62 465.62, 326.94 263 M0.35 650.89 C95.23 540.46, 191.55 431.18, 327.07 275.04 M0.35 650.89 C129.67 501.61, 259.43 352.23, 327.07 275.04 M0.49 662.93 C107.25 539.19, 215.36 414.74, 327.2 287.08 M0.49 662.93 C126.09 519.84, 250.24 376.58, 327.2 287.08 M-0.04 675.72 C103.38 555.27, 206.44 437.15, 327.34 299.12 M-0.04 675.72 C89.56 571.01, 179.75 467.07, 327.34 299.12 M0.1 687.76 C70.74 605.47, 140.74 525.27, 327.47 311.16 M0.1 687.76 C127.8 538.22, 256.95 390.24, 327.47 311.16 M0.23 699.81 C76.87 612.87, 153.85 524.35, 326.95 323.96 M0.23 699.81 C78.81 610.02, 157.37 520.79, 326.95 323.96 M0.36 711.85 C88.33 610.01, 175.08 508.51, 327.08 336 M0.36 711.85 C87.27 610.96, 175.3 509.62, 327.08 336 M0.49 723.89 C104.86 601.89, 210.67 481.37, 327.21 348.04 M0.49 723.89 C84.15 627.95, 167.58 531.61, 327.21 348.04 M-0.03 736.68 C115.05 600.35, 232.61 465.74, 327.35 360.08 M-0.03 736.68 C80.36 643.5, 161.34 549.97, 327.35 360.08 M0.11 748.72 C108.17 626.96, 212.87 505.09, 327.48 372.12 M0.11 748.72 C108.52 622.66, 217.3 497.51, 327.48 372.12 M0.24 760.76 C65.92 685.47, 133.52 607.47, 326.96 384.92 M0.24 760.76 C130.99 610.81, 261.59 460.61, 326.96 384.92 M0.37 772.81 C81.19 679.09, 161.95 586.62, 327.09 396.96 M0.37 772.81 C98.82 659.74, 197.5 546.84, 327.09 396.96 M0.5 784.85 C67.42 708.8, 134.31 631.98, 327.22 409 M0.5 784.85 C72.13 700.76, 143.78 617.73, 327.22 409 M-0.02 797.64 C120.12 656.72, 240.92 516.85, 327.35 421.04 M-0.02 797.64 C73.37 712.85, 147.61 627.41, 327.35 421.04 M0.11 809.68 C73.02 726.72, 145.73 643.04, 327.49 433.08 M0.11 809.68 C80.49 718.99, 159.89 627.45, 327.49 433.08 M0.25 821.72 C81.21 728.59, 163.37 635.55, 326.97 445.88 M0.25 821.72 C67.73 744.14, 135.46 666.27, 326.97 445.88 M0.38 833.76 C129.84 686.54, 258.03 539.57, 327.1 457.92 M0.38 833.76 C75.7 747.73, 150.73 661.17, 327.1 457.92 M0.51 845.81 C96.58 736.94, 192.96 627.54, 327.23 469.96 M0.51 845.81 C121.63 708.93, 241.93 570.64, 327.23 469.96 M-0.01 858.6 C103.81 739.28, 206.17 621.02, 327.36 482 M-0.01 858.6 C122.75 716.18, 245.37 575.36, 327.36 482 M0.12 870.64 C129.69 722.53, 256.89 575.02, 327.5 494.04 M0.12 870.64 C88.38 768.83, 176.9 667.42, 327.5 494.04 M0.26 882.68 C84.62 784.5, 170.77 685.62, 326.97 506.84 M0.26 882.68 C97.41 769.47, 195.46 656.5, 326.97 506.84 M0.39 894.72 C99.04 780.61, 196.94 668.19, 327.11 518.88 M0.39 894.72 C99 781.43, 198.11 667.78, 327.11 518.88 M0.52 906.76 C123.07 767.57, 244.04 628.43, 327.24 530.92 M0.52 906.76 C87.29 807.75, 173.9 707.71, 327.24 530.92 M0 919.56 C79.8 826.74, 159.97 734.51, 327.37 542.96 M0 919.56 C94.12 809.88, 188.4 700.7, 327.37 542.96 M0.13 931.6 C83.03 836.75, 166.67 741.33, 327.51 555 M0.13 931.6 C117.24 796.94, 233.41 663.79, 327.51 555 M1.58 942.13 C105.88 823.29, 208.21 704.89, 326.98 567.8 M1.58 942.13 C94.27 837.43, 185.01 732.92, 326.98 567.8 M4.34 951.15 C130.07 809.76, 253.26 667.86, 327.12 579.84 M4.34 951.15 C98.87 843.45, 191.93 736.73, 327.12 579.84 M9.72 957.16 C95.78 856.1, 182.26 757.82, 327.25 591.88 M9.72 957.16 C124.81 825.55, 239.69 693.43, 327.25 591.88 M16.41 961.65 C112.74 852.2, 207.36 743.81, 327.38 603.92 M16.41 961.65 C82.74 884.65, 149.83 807.6, 327.38 603.92 M24.42 964.64 C128.67 841.92, 235.44 721.31, 327.52 615.96 M24.42 964.64 C100.55 878.81, 175.1 792.65, 327.52 615.96 M35.05 964.6 C104.01 883.86, 173.78 804.3, 326.99 628.76 M35.05 964.6 C129.41 858.02, 221.59 751.94, 326.99 628.76 M45.02 965.32 C113.02 888.63, 180.1 812.38, 327.13 640.8 M45.02 965.32 C126.14 873.64, 206.79 779.95, 327.13 640.8 M55.65 965.29 C126.47 882.98, 198.06 800.19, 327.26 652.84 M55.65 965.29 C112.1 900.1, 167.57 836.61, 327.26 652.84 M66.28 965.25 C146.77 871.08, 228.21 776.42, 327.39 664.88 M66.28 965.25 C133.01 888.19, 199.96 812, 327.39 664.88 M76.91 965.22 C158.85 869.23, 241.16 775.33, 326.87 677.67 M76.91 965.22 C156.35 872.51, 236.86 780.24, 326.87 677.67 M87.54 965.18 C135.12 908.55, 185.32 853.98, 327 689.71 M87.54 965.18 C171.7 866.56, 257.97 766.62, 327 689.71 M98.17 965.15 C155.99 895.98, 214.58 830.45, 327.14 701.75 M98.17 965.15 C175.07 872.53, 254 782, 327.14 701.75 M108.8 965.11 C157.14 909.22, 207.96 854.08, 327.27 713.8 M108.8 965.11 C161.71 905.22, 215.26 843.34, 327.27 713.8 M119.43 965.08 C188.48 885.12, 260.3 802.11, 327.4 725.84 M119.43 965.08 C197.78 873.81, 276.69 783.5, 327.4 725.84 M130.06 965.05 C195.69 888.38, 264.11 809.96, 326.88 738.63 M130.06 965.05 C205.83 880.05, 280.96 793.58, 326.88 738.63 M140.69 965.01 C203.01 892.09, 264.52 821.99, 327.01 750.67 M140.69 965.01 C207.54 889.18, 274.18 812.19, 327.01 750.67 M151.32 964.98 C186.19 924.13, 221.82 882.34, 327.15 762.71 M151.32 964.98 C199.48 911.07, 245.57 856.51, 327.15 762.71 M161.95 964.94 C205.29 916.93, 249.42 865.69, 327.28 774.75 M161.95 964.94 C204.01 916.88, 246.52 868, 327.28 774.75 M172.58 964.91 C220.39 911.64, 269.99 854.51, 327.41 786.8 M172.58 964.91 C209.83 920.81, 247.57 876.77, 327.41 786.8 M183.21 964.87 C214.66 925.76, 248.92 887.6, 326.89 799.59 M183.21 964.87 C223.03 920.48, 261.99 874.17, 326.89 799.59 M193.84 964.84 C229.64 924.37, 262.89 887.36, 327.02 811.63 M193.84 964.84 C228.93 923.43, 265.07 881.27, 327.02 811.63 M204.47 964.8 C254.35 909.66, 300.97 853.49, 327.16 823.67 M204.47 964.8 C232.78 931.55, 261.32 899.59, 327.16 823.67 M215.1 964.77 C246.69 929.2, 277.47 893.08, 327.29 835.71 M215.1 964.77 C254.29 920.66, 295.27 874.83, 327.29 835.71 M225.73 964.73 C265.71 920.33, 304.64 875.19, 327.42 847.75 M225.73 964.73 C245.94 941.35, 267.08 917.42, 327.42 847.75 M236.36 964.7 C261.75 935.92, 289.57 904.27, 326.9 860.55 M236.36 964.7 C263.67 932.5, 290.24 900.65, 326.9 860.55 M246.99 964.67 C270.25 935.64, 296.49 907.88, 327.03 872.59 M246.99 964.67 C269.68 939.52, 291.63 915.34, 327.03 872.59 M257.62 964.63 C278 941.88, 300.02 915.85, 327.17 884.63 M257.62 964.63 C284.65 933.01, 313.21 901.59, 327.17 884.63 M268.25 964.6 C288.28 940.61, 307.81 918.38, 327.3 896.67 M268.25 964.6 C289.12 939.75, 311.83 913.44, 327.3 896.67 M278.23 965.32 C293.66 945.49, 312.93 926.81, 327.43 908.71 M278.23 965.32 C293.83 947.59, 308.54 929.35, 327.43 908.71 M288.86 965.28 C299.26 950.78, 313.36 935.87, 326.91 921.51 M288.86 965.28 C298.85 954.35, 309.52 942.92, 326.91 921.51 M300.14 964.49 C307.91 953.01, 320.12 942.58, 327.04 933.55 M300.14 964.49 C310.7 953.33, 320.07 940.32, 327.04 933.55 M314.71 959.93 C316.64 957.18, 320.69 952.18, 323.24 950.12 M314.71 959.93 C317.93 956.92, 320.05 953.48, 323.24 950.12" stroke="#b2f2bb" stroke-width="1" fill="none"></path><path d="M32 0 C119.35 2.39, 208.73 1.9, 294.58 0 M32 0 C122.1 0.09, 213.49 -0.54, 294.58 0 M294.58 0 C315.93 1.9, 328.55 10.86, 326.58 32 M294.58 0 C315.86 -1.94, 327.02 8.97, 326.58 32 M326.58 32 C328.94 344.78, 329.68 658.78, 326.58 932.86 M326.58 32 C325.96 218.08, 325.93 404.33, 326.58 932.86 M326.58 932.86 C327.75 952.82, 314.26 963.44, 294.58 964.86 M326.58 932.86 C327.44 952.15, 313.86 962.89, 294.58 964.86 M294.58 964.86 C240.67 964.21, 187.2 964.34, 32 964.86 M294.58 964.86 C232.66 963.75, 172.08 963.85, 32 964.86 M32 964.86 C10.31 964.6, 1.03 953.43, 0 932.86 M32 964.86 C8.7 966.52, 1.68 955.1, 0 932.86 M0 932.86 C-3.17 646.64, -2.38 360.45, 0 32 M0 932.86 C0.43 631.86, 0.02 330.34, 0 32 M0 32 C-0.92 10.07, 9.78 1.7, 32 0 M0 32 C-0.65 11.41, 9.49 -0.47, 32 0" stroke="#1e1e1e" stroke-width="2" fill="none"></path></g><g stroke-linecap="round" transform="translate(519.6767343150877 581.2192586963438) rotate(0 470.4257776646457 180.3236960821996)"><path d="M32 0 C317.22 -3.89, 602.19 -4.18, 908.85 0 C933.07 1.47, 940.44 9.6, 940.85 32 C941.53 120.71, 941.6 209.39, 940.85 328.65 C937.3 352.62, 932.98 360.92, 908.85 360.65 C591.75 357.41, 275.29 357.1, 32 360.65 C8.09 362.7, 2.68 349.78, 0 328.65 C0.37 218.48, -0.03 103.14, 0 32 C-2.63 10.91, 11.48 -3.04, 32 0" stroke="none" stroke-width="0" fill="#b2f2bb"></path><path d="M32 0 C260.98 -2.91, 489 -2.74, 908.85 0 M32 0 C287.9 0.01, 543.72 0.74, 908.85 0 M908.85 0 C932.16 0.2, 940.81 8.98, 940.85 32 M908.85 0 C930.63 -1.7, 941.95 12.35, 940.85 32 M940.85 32 C940.99 141.74, 938.74 251.9, 940.85 328.65 M940.85 32 C938.29 130.95, 939.4 229.05, 940.85 328.65 M940.85 328.65 C939.2 348.56, 930.94 358.87, 908.85 360.65 M940.85 328.65 C938.8 348.01, 928.03 360.18, 908.85 360.65 M908.85 360.65 C639.89 358.54, 369.5 359.55, 32 360.65 M908.85 360.65 C707.29 362.44, 505.19 362.16, 32 360.65 M32 360.65 C11.69 359.88, -1.71 351.42, 0 328.65 M32 360.65 C12.35 361.56, 0.41 351.76, 0 328.65 M0 328.65 C1.78 249.84, 1.53 170.94, 0 32 M0 328.65 C-2.02 266.96, -2.23 204.52, 0 32 M0 32 C-0.88 12.37, 10.1 0.64, 32 0 M0 32 C-1.18 10.2, 9.22 1.75, 32 0" stroke="#1e1e1e" stroke-width="2" fill="none"></path></g><g stroke-linecap="round"><g transform="translate(435.6632126947061 669.4248788682207) rotate(0 56.365457961652965 0.628687606657877)"><path d="M1.07 -0.1 C10.5 -0.45, 38.76 -1.83, 57.39 -1.55 C76.03 -1.26, 103.64 0.72, 112.86 1.61 M0.18 -1.2 C9.91 -1.4, 40.97 -0.67, 59.63 -0.07 C78.3 0.52, 103.27 2.05, 112.16 2.37" stroke="#1e1e1e" stroke-width="2" fill="none"></path></g><g transform="translate(435.6632126947061 669.4248788682207) rotate(0 56.365457961652965 0.628687606657877)"><path d="M88.29 9.8 C96.87 5.34, 105.6 4.34, 112.16 2.37 M88.29 9.8 C94.32 8.1, 98.35 5.59, 112.16 2.37" stroke="#1e1e1e" stroke-width="2" fill="none"></path></g><g transform="translate(435.6632126947061 669.4248788682207) rotate(0 56.365457961652965 0.628687606657877)"><path d="M89.1 -7.29 C97.46 -5.45, 105.89 -0.18, 112.16 2.37 M89.1 -7.29 C94.96 -5.37, 98.82 -4.27, 112.16 2.37" stroke="#1e1e1e" stroke-width="2" fill="none"></path></g></g><mask></mask><g transform="translate(10 643.7787657990239) rotate(0 207.08993530273438 22.5)"><text x="0" y="31.536" font-family="Virgil, Segoe UI Emoji" font-size="36px" fill="#1e1e1e" text-anchor="start" style="white-space: pre;" direction="ltr" dominant-baseline="alphabetic">Entry Point for Android</text></g><g stroke-linecap="round" transform="translate(569.8300460238574 806.9430887102799) rotate(0 110.60306120474888 49.14760347767515)"><path d="M24.57 0 C82.24 -0.33, 132.92 -3.92, 196.63 0 C213.26 0.81, 218.17 10.27, 221.21 24.57 C223.64 36.52, 217.47 55.08, 221.21 73.72 C222.71 89.4, 213.86 98.21, 196.63 98.3 C131.21 101.47, 68.71 97.56, 24.57 98.3 C4.67 99.69, -2.12 90.73, 0 73.72 C-2.36 52.29, 1.41 34.79, 0 24.57 C2.59 6.61, 5.84 -1.84, 24.57 0" stroke="none" stroke-width="0" fill="#ffffff"></path><path d="M24.57 0 C84.82 2.17, 146.13 -0.36, 196.63 0 M24.57 0 C61.52 0.5, 97.82 0.92, 196.63 0 M196.63 0 C212.17 -1.32, 222.89 6.79, 221.21 24.57 M196.63 0 C211.75 1.03, 222.55 9.49, 221.21 24.57 M221.21 24.57 C220.38 36.74, 222.58 53.79, 221.21 73.72 M221.21 24.57 C220.95 40.8, 221.29 58.46, 221.21 73.72 M221.21 73.72 C221.25 90.79, 212.97 96.47, 196.63 98.3 M221.21 73.72 C223.19 92.03, 212.62 99.12, 196.63 98.3 M196.63 98.3 C154.65 96.97, 109.9 96.51, 24.57 98.3 M196.63 98.3 C148.76 98.71, 101.18 99.37, 24.57 98.3 M24.57 98.3 C9.81 97.04, 1.21 91.71, 0 73.72 M24.57 98.3 C9.13 98.03, -0.68 90.06, 0 73.72 M0 73.72 C-0.06 54.6, 0.16 36.1, 0 24.57 M0 73.72 C0.24 55.38, -0.96 37.22, 0 24.57 M0 24.57 C0.62 9.83, 8.38 -1.43, 24.57 0 M0 24.57 C1.31 9.9, 8.06 1.8, 24.57 0" stroke="#1e1e1e" stroke-width="2" fill="none"></path></g><g transform="translate(634.4631517842704 843.590692187955) rotate(0 45.96995544433594 12.5)"><text x="45.96995544433594" y="17.52" font-family="Virgil, Segoe UI Emoji" font-size="20px" fill="#1e1e1e" text-anchor="middle" style="white-space: pre;" direction="ltr" dominant-baseline="alphabetic">viewModel</text></g><g stroke-linecap="round" transform="translate(1225.4857283847973 622.6468840585212) rotate(0 110.60306120474888 49.14760347767515)"><path d="M24.57 0 C81.03 3.07, 133.96 4.34, 196.63 0 C213.41 -0.74, 224.59 10.81, 221.21 24.57 C221.83 34.06, 221.18 44.87, 221.21 73.72 C223.57 89.54, 213.49 95.77, 196.63 98.3 C128.29 98.7, 64.88 97.93, 24.57 98.3 C11.42 96.37, -1.96 87.27, 0 73.72 C2.36 60.51, -2.58 48.62, 0 24.57 C3.32 5.67, 6.79 0.41, 24.57 0" stroke="none" stroke-width="0" fill="#ffffff"></path><path d="M24.57 0 C80.95 -0.34, 140.35 1.68, 196.63 0 M24.57 0 C78.33 -1.63, 133.76 -1.68, 196.63 0 M196.63 0 C211.92 0.89, 222.38 9.32, 221.21 24.57 M196.63 0 C212.61 -0.29, 222.39 7.31, 221.21 24.57 M221.21 24.57 C222.35 35.47, 223.11 44.97, 221.21 73.72 M221.21 24.57 C221.22 37.37, 221.18 48.56, 221.21 73.72 M221.21 73.72 C222.93 91.78, 212.67 99.01, 196.63 98.3 M221.21 73.72 C220.15 89.42, 212 100.25, 196.63 98.3 M196.63 98.3 C149.5 96.16, 104.7 97.93, 24.57 98.3 M196.63 98.3 C161.24 97.27, 124.83 98.71, 24.57 98.3 M24.57 98.3 C9.01 98.06, -0.59 90.06, 0 73.72 M24.57 98.3 C9.63 99.72, -1.55 90.38, 0 73.72 M0 73.72 C1.35 63.72, 0.04 51.86, 0 24.57 M0 73.72 C0.6 59.77, 0.38 43.46, 0 24.57 M0 24.57 C1.14 9.68, 8.08 1.57, 24.57 0 M0 24.57 C0.43 8.26, 9.15 1.8, 24.57 0" stroke="#1e1e1e" stroke-width="2" fill="none"></path></g><g transform="translate(1288.048849709175 659.2944875361964) rotate(0 48.039939880371094 12.5)"><text x="48.039939880371094" y="17.52" font-family="Virgil, Segoe UI Emoji" font-size="20px" fill="#1e1e1e" text-anchor="middle" style="white-space: pre;" direction="ltr" dominant-baseline="alphabetic">repository</text></g><g stroke-linecap="round" transform="translate(569.5386411408617 622.5609816916631) rotate(0 110.60306120474888 49.14760347767515)"><path d="M24.57 0 C80.47 -2.54, 138.96 0.83, 196.63 0 C209.68 -3.56, 221.14 9.69, 221.21 24.57 C223.77 37.79, 221.89 49.63, 221.21 73.72 C223.97 87.97, 211.87 94.77, 196.63 98.3 C141.57 96.91, 78.09 96, 24.57 98.3 C5.91 99.24, -0.64 92.7, 0 73.72 C3.89 58.61, -0.82 48.94, 0 24.57 C1.29 4.9, 9.09 0.16, 24.57 0" stroke="none" stroke-width="0" fill="#ffffff"></path><path d="M24.57 0 C60.35 -1.13, 96.66 -0.97, 196.63 0 M24.57 0 C64.31 1.65, 105.73 1.77, 196.63 0 M196.63 0 C212.66 -0.26, 222.23 7.42, 221.21 24.57 M196.63 0 C211.05 1.66, 222.89 9.1, 221.21 24.57 M221.21 24.57 C220.65 40.17, 222.61 55.84, 221.21 73.72 M221.21 24.57 C222.06 41.85, 221.02 57.81, 221.21 73.72 M221.21 73.72 C220.28 89.51, 212.13 100, 196.63 98.3 M221.21 73.72 C220.55 90.84, 211.84 97.83, 196.63 98.3 M196.63 98.3 C154.02 100.34, 114.54 100.36, 24.57 98.3 M196.63 98.3 C156.24 99.56, 114.74 99.66, 24.57 98.3 M24.57 98.3 C9.44 99.53, -1.35 90.35, 0 73.72 M24.57 98.3 C6.7 98.83, -2.27 91.79, 0 73.72 M0 73.72 C-0.03 53.99, 0.33 37.23, 0 24.57 M0 73.72 C0.52 55.69, -0.1 36.95, 0 24.57 M0 24.57 C0.38 8.26, 9.02 1.57, 24.57 0 M0 24.57 C0.61 7.33, 6.51 0.15, 24.57 0" stroke="#1e1e1e" stroke-width="2" fill="none"></path></g><g transform="translate(588.241761854888 659.2085851693382) rotate(0 91.89994049072266 12.5)"><text x="91.89994049072266" y="17.52" font-family="Virgil, Segoe UI Emoji" font-size="20px" fill="#1e1e1e" text-anchor="middle" style="white-space: pre;" direction="ltr" dominant-baseline="alphabetic">Compose UI / XML</text></g><g stroke-linecap="round"><g transform="translate(669.0477453309795 733.7664928261393) rotate(0 1.2029368310154496 26.279637339164765)"><path d="M-0.51 -0.79 C0.17 7.72, 3.04 42.74, 3.42 51.72 M1.43 1.41 C2.08 9.99, 3.13 44.55, 3 52.82" stroke="#1e1e1e" stroke-width="2" fill="none"></path></g><g transform="translate(669.0477453309795 733.7664928261393) rotate(0 1.2029368310154496 26.279637339164765)"><path d="M-5.83 29.43 C-4.81 36.99, -2.69 40.04, 3 52.82 M-5.83 29.43 C-2.83 37.31, 0.9 45.11, 3 52.82" stroke="#1e1e1e" stroke-width="2" fill="none"></path></g><g transform="translate(669.0477453309795 733.7664928261393) rotate(0 1.2029368310154496 26.279637339164765)"><path d="M11.27 29.23 C8.02 36.76, 5.88 39.86, 3 52.82 M11.27 29.23 C8.38 37.27, 6.22 45.15, 3 52.82" stroke="#1e1e1e" stroke-width="2" fill="none"></path></g></g><mask></mask><g stroke-linecap="round"><g transform="translate(1329.6992302974509 731.3592245482332) rotate(0 0.222015305756031 27.866458968145707)"><path d="M-0.66 0.53 C-0.64 10.08, 1 47.24, 1.15 56.41 M1.2 -0.23 C1.03 9.04, 0.87 45.14, 0.57 54.65" stroke="#1e1e1e" stroke-width="2" fill="none"></path></g><g transform="translate(1329.6992302974509 731.3592245482332) rotate(0 0.222015305756031 27.866458968145707)"><path d="M-7.59 31.01 C-3.73 41.31, -0.35 48.87, 0.57 54.65 M-7.59 31.01 C-5.98 38.55, -2.05 45.02, 0.57 54.65" stroke="#1e1e1e" stroke-width="2" fill="none"></path></g><g transform="translate(1329.6992302974509 731.3592245482332) rotate(0 0.222015305756031 27.866458968145707)"><path d="M9.51 31.3 C6.8 41.39, 3.61 48.84, 0.57 54.65 M9.51 31.3 C6.21 38.69, 5.22 45.07, 0.57 54.65" stroke="#1e1e1e" stroke-width="2" fill="none"></path></g></g><mask></mask><g stroke-linecap="round" transform="translate(1220.9206307308673 806.9430897953998) rotate(0 110.60306120474888 49.14760347767515)"><path d="M24.57 0 C83.28 1.63, 141.59 -0.25, 196.63 0 C210.49 2.76, 219.07 7.04, 221.21 24.57 C222.17 37.73, 219.63 42.48, 221.21 73.72 C218.38 87.82, 213.95 97.66, 196.63 98.3 C130.78 99.59, 66.1 94.88, 24.57 98.3 C8.6 99.59, -3.29 91, 0 73.72 C2.89 59.91, 2.53 44.71, 0 24.57 C-3.57 10.59, 8.92 0.32, 24.57 0" stroke="none" stroke-width="0" fill="#ffffff"></path><path d="M24.57 0 C67.87 -1.36, 108.64 0.02, 196.63 0 M24.57 0 C70.33 -0.84, 114.8 -0.46, 196.63 0 M196.63 0 C212.33 -0.93, 221.19 9.21, 221.21 24.57 M196.63 0 C213.06 0.79, 221.15 6.09, 221.21 24.57 M221.21 24.57 C222.33 42.64, 221.02 61.66, 221.21 73.72 M221.21 24.57 C220.56 43.3, 220.44 63.19, 221.21 73.72 M221.21 73.72 C221.72 88.31, 214.62 97.84, 196.63 98.3 M221.21 73.72 C223.07 88.66, 214.41 100.14, 196.63 98.3 M196.63 98.3 C137.94 99.04, 80.57 96.44, 24.57 98.3 M196.63 98.3 C141.94 99.43, 90 98.77, 24.57 98.3 M24.57 98.3 C9.43 98.31, -1.17 90.47, 0 73.72 M24.57 98.3 C8.91 100.18, 0.22 88.46, 0 73.72 M0 73.72 C1.2 56.55, -0.3 39.45, 0 24.57 M0 73.72 C-0.86 55.2, 0.09 35.69, 0 24.57 M0 24.57 C1.16 8.41, 7.78 1.88, 24.57 0 M0 24.57 C1.67 6.06, 5.92 -0.04, 24.57 0" stroke="#1e1e1e" stroke-width="2" fill="none"></path></g><g transform="translate(1270.4037425947959 843.590693273075) rotate(0 61.11994934082031 12.5)"><text x="61.11994934082031" y="17.52" font-family="Virgil, Segoe UI Emoji" font-size="20px" fill="#1e1e1e" text-anchor="middle" style="white-space: pre;" direction="ltr" dominant-baseline="alphabetic">data source</text></g><g transform="translate(599.955133559522 57.04423247154591) rotate(0 80.47797393798828 22.5)"><text x="0" y="31.536" font-family="Virgil, Segoe UI Emoji" font-size="36px" fill="#1e1e1e" text-anchor="start" style="white-space: pre;" direction="ltr" dominant-baseline="alphabetic">UI Layer</text></g><g transform="translate(1230.0508256215348 57.04423207961918) rotate(0 106.0379638671875 22.5)"><text x="0" y="31.536" font-family="Virgil, Segoe UI Emoji" font-size="36px" fill="#1e1e1e" text-anchor="start" style="white-space: pre;" direction="ltr" dominant-baseline="alphabetic">Data Layer</text></g><g transform="translate(273.3068218491876 768.3407306470426) rotate(0 100.90796661376953 22.5)"><text x="0" y="31.536" font-family="Virgil, Segoe UI Emoji" font-size="36px" fill="#1e1e1e" text-anchor="start" style="white-space: pre;" direction="ltr" dominant-baseline="alphabetic">Android App</text></g><g stroke-linecap="round" transform="translate(891.7445895600126 806.9430896513704) rotate(0 110.60306120474888 49.14760347767515)"><path d="M24.57 0 C60.48 3.26, 94.94 0.95, 196.63 0 C209.79 -3.13, 221.43 9.91, 221.21 24.57 C218.78 33.4, 222.54 47.11, 221.21 73.72 C221.09 88.8, 213.17 97.07, 196.63 98.3 C146.8 102.96, 89.51 98.34, 24.57 98.3 C6.83 95.09, -1.28 86.94, 0 73.72 C2.56 57.98, -0.02 41.74, 0 24.57 C2.34 11.79, 10.45 0.71, 24.57 0" stroke="none" stroke-width="0" fill="#ffffff"></path><path d="M24.57 0 C64.64 -0.2, 104.33 -0.43, 196.63 0 M24.57 0 C83.43 0, 143.3 0.61, 196.63 0 M196.63 0 C212.18 0.07, 219.37 6.8, 221.21 24.57 M196.63 0 C214.66 2.09, 219.67 6.43, 221.21 24.57 M221.21 24.57 C222.58 40.14, 220.51 56.57, 221.21 73.72 M221.21 24.57 C221.44 37.94, 221.49 53.29, 221.21 73.72 M221.21 73.72 C221.94 91.02, 213.76 97.71, 196.63 98.3 M221.21 73.72 C220.49 90.34, 215.04 99.21, 196.63 98.3 M196.63 98.3 C144.34 98.08, 91.06 99.33, 24.57 98.3 M196.63 98.3 C133.97 98.24, 69.45 97.82, 24.57 98.3 M24.57 98.3 C8.63 96.92, 1.51 89.95, 0 73.72 M24.57 98.3 C10.13 98.59, 0.93 88.68, 0 73.72 M0 73.72 C-2.33 58.31, 1.02 45.38, 0 24.57 M0 73.72 C-0.38 55.92, 1.01 36.85, 0 24.57 M0 24.57 C1.15 9.26, 9.89 0.56, 24.57 0 M0 24.57 C-0.28 7.73, 9.44 -0.85, 24.57 0" stroke="#1e1e1e" stroke-width="2" fill="none"></path></g><g transform="translate(963.1776907427889 843.5906931290456) rotate(0 39.169960021972656 12.5)"><text x="39.169960021972656" y="17.52" font-family="Virgil, Segoe UI Emoji" font-size="20px" fill="#1e1e1e" text-anchor="middle" style="white-space: pre;" direction="ltr" dominant-baseline="alphabetic">usecase</text></g><g stroke-linecap="round" transform="translate(891.7445896004988 622.6468837365219) rotate(0 110.60306120474888 49.14760347767515)"><path d="M24.57 0 C80.89 5.23, 128.2 4.43, 196.63 0 C212.47 2.24, 218.04 11.32, 221.21 24.57 C219.78 32.95, 221.75 49.1, 221.21 73.72 C223.52 93.25, 210.16 100.11, 196.63 98.3 C150.89 98.73, 108.66 99.35, 24.57 98.3 C9.92 97.3, 2.35 87.14, 0 73.72 C-0.76 57.09, -2.28 35.2, 0 24.57 C2.32 8.61, 6.03 0.93, 24.57 0" stroke="none" stroke-width="0" fill="#ffffff"></path><path d="M24.57 0 C70.95 -1.03, 119.4 -1.6, 196.63 0 M196.63 0 C211.06 -0.58, 222.03 9.88, 221.21 24.57 M221.21 24.57 C219.45 38.83, 221.87 50.62, 221.21 73.72 M221.21 73.72 C219.54 91.99, 211.8 99.06, 196.63 98.3 M196.63 98.3 C148.07 96.83, 101.38 96.79, 24.57 98.3 M24.57 98.3 C6.25 99.16, -0.83 91.8, 0 73.72 M0 73.72 C-2.23 57.45, 0.25 39.56, 0 24.57 M0 24.57 C1.82 6.89, 8.25 -1.59, 24.57 0" stroke="#1e1e1e" stroke-width="2.5" fill="none" stroke-dasharray="8 10"></path></g><g transform="translate(947.1476996333727 646.794487214197) rotate(0 55.199951171875 25)"><text x="55.199951171875" y="17.52" font-family="Virgil, Segoe UI Emoji" font-size="20px" fill="#1e1e1e" text-anchor="middle" style="white-space: pre;" direction="ltr" dominant-baseline="alphabetic">&lt;interface&gt;</text><text x="55.199951171875" y="42.519999999999996" font-family="Virgil, Segoe UI Emoji" font-size="20px" fill="#1e1e1e" text-anchor="middle" style="white-space: pre;" direction="ltr" dominant-baseline="alphabetic">repository</text></g><g stroke-linecap="round"><g transform="translate(798.6851431023147 862.1341513170128) rotate(0 43.741009828650476 -1.9017546479581142)"><path d="M-1.01 -0.99 C13.47 -1.79, 71.55 -3.44, 86.39 -3.85 M0.66 1.1 C15.54 0.42, 74.05 -1.83, 88.53 -2.34" stroke="#1e1e1e" stroke-width="2" fill="none"></path></g><g transform="translate(798.6851431023147 862.1341513170128) rotate(0 43.741009828650476 -1.9017546479581142)"><path d="M65.37 7.08 C69.58 3.04, 77.08 3.29, 88.53 -2.34 M65.37 7.08 C72.07 3.39, 80.6 0.75, 88.53 -2.34" stroke="#1e1e1e" stroke-width="2" fill="none"></path></g><g transform="translate(798.6851431023147 862.1341513170128) rotate(0 43.741009828650476 -1.9017546479581142)"><path d="M64.73 -10.01 C69.24 -9.67, 76.9 -5.03, 88.53 -2.34 M64.73 -10.01 C71.65 -8.11, 80.39 -5.16, 88.53 -2.34" stroke="#1e1e1e" stroke-width="2" fill="none"></path></g></g><mask></mask><g transform="translate(890.7374350990176 57.04423221214347) rotate(0 117.57595825195312 22.5)"><text x="0" y="31.536" font-family="Virgil, Segoe UI Emoji" font-size="36px" fill="#1e1e1e" text-anchor="start" style="white-space: pre;" direction="ltr" dominant-baseline="alphabetic">Domain Layer</text></g><g stroke-linecap="round"><g transform="translate(1002.175937420031 797.9489525600065) rotate(0 -2.8527045192272453 -31.379423248697094)"><path d="M0.62 0.31 C-0.64 -9.82, -5.47 -51.05, -6.42 -61.75 M-0.52 -0.57 C-1.49 -10.94, -3.26 -52.91, -4.08 -63.34" stroke="#1e1e1e" stroke-width="2" fill="none"></path></g><g transform="translate(1002.175937420031 797.9489525600065) rotate(0 -2.8527045192272453 -31.379423248697094)"><path d="M5.83 -40.39 C2.62 -50.59, -0.13 -57.35, -4.08 -63.34 M5.83 -40.39 C3.75 -46.14, 0.75 -50.64, -4.08 -63.34" stroke="#1e1e1e" stroke-width="2" fill="none"></path></g><g transform="translate(1002.175937420031 797.9489525600065) rotate(0 -2.8527045192272453 -31.379423248697094)"><path d="M-11.24 -39.39 C-7.7 -50.07, -3.71 -57.23, -4.08 -63.34 M-11.24 -39.39 C-9.8 -45.22, -9.27 -49.92, -4.08 -63.34" stroke="#1e1e1e" stroke-width="2" fill="none"></path></g></g><mask></mask><g stroke-linecap="round"><g transform="translate(1213.2738954241609 670.52943236997) rotate(0 -43.741009828650476 -0.9508773239786024)"><path d="M-0.24 -1.17 C-14.56 -1.43, -72.27 -1.82, -86.92 -2.06 M1.83 0.83 C-12.5 0.81, -72.39 -0.19, -87.57 -0.61" stroke="#1e1e1e" stroke-width="2" fill="none"></path></g><g transform="translate(1213.2738954241609 670.52943236997) rotate(0 -43.741009828650476 -0.9508773239786024)"><path d="M-63.9 -8.66 C-70.93 -6.05, -74.3 -6.34, -87.57 -0.61 M-63.9 -8.66 C-69.79 -6.43, -75.35 -5.46, -87.57 -0.61" stroke="#1e1e1e" stroke-width="2" fill="none"></path></g><g transform="translate(1213.2738954241609 670.52943236997) rotate(0 -43.741009828650476 -0.9508773239786024)"><path d="M-64.26 8.43 C-71.14 7.4, -74.43 3.46, -87.57 -0.61 M-64.26 8.43 C-69.89 6.58, -75.37 3.45, -87.57 -0.61" stroke="#1e1e1e" stroke-width="2" fill="none"></path></g></g><mask></mask><g stroke-linecap="round" transform="translate(519.6767338079922 136.02186174668896) rotate(0 470.42577766464547 180.32369608219915)"><path d="M32 0 C277.83 4.58, 524.18 6.22, 908.85 0 C930.23 -2.52, 944.32 9.17, 940.85 32 C944.39 90.32, 943.7 151.48, 940.85 328.65 C943.64 352.75, 927.72 358.18, 908.85 360.65 C665.52 357.82, 420.86 358.89, 32 360.65 C10.72 358.37, -0.16 347.14, 0 328.65 C-0.75 214.93, -0.86 98.44, 0 32 C3.46 7.45, 8.95 0.29, 32 0" stroke="none" stroke-width="0" fill="#a5d8ff"></path><path d="M32 0 C377.86 -1.68, 723.66 -0.77, 908.85 0 M32 0 C235.01 -0.32, 438.66 -0.22, 908.85 0 M908.85 0 C929.41 -1.16, 942.62 8.82, 940.85 32 M908.85 0 C929.25 -2.04, 941.28 12.33, 940.85 32 M940.85 32 C939.62 91.57, 938.15 151.28, 940.85 328.65 M940.85 32 C940.03 146.86, 939.81 263.72, 940.85 328.65 M940.85 328.65 C940.99 351.4, 929.64 360.8, 908.85 360.65 M940.85 328.65 C941.31 351.32, 928.79 360.65, 908.85 360.65 M908.85 360.65 C645.1 361.11, 383.43 361.39, 32 360.65 M908.85 360.65 C643.3 359.34, 376.92 359.32, 32 360.65 M32 360.65 C10.29 362.47, 0.56 350.7, 0 328.65 M32 360.65 C8.96 360.79, -0.59 351.74, 0 328.65 M0 328.65 C0.75 226.22, 1.06 127.11, 0 32 M0 328.65 C0.34 256.58, 0.32 183.9, 0 32 M0 32 C-1.17 10.6, 10.78 0.97, 32 0 M0 32 C-2.08 12.67, 11.26 -1.84, 32 0" stroke="#1e1e1e" stroke-width="2" fill="none"></path></g><g stroke-linecap="round"><g transform="translate(435.6632121876105 224.22748191856954) rotate(0 56.365457961652965 0.628687606657877)"><path d="M-0.79 1.15 C8.96 0.67, 40 -2.51, 58.89 -2.24 C77.77 -1.98, 103.62 1.99, 112.5 2.73 M1 0.7 C10.61 0.3, 39.81 -1.7, 58.24 -1.13 C76.68 -0.57, 102.64 3.38, 111.62 4.08" stroke="#1e1e1e" stroke-width="2" fill="none"></path></g><g transform="translate(435.6632121876105 224.22748191856954) rotate(0 56.365457961652965 0.628687606657877)"><path d="M87.33 10 C97.3 9.16, 102.11 5.84, 111.62 4.08 M87.33 10 C95.41 8.14, 101.77 5.91, 111.62 4.08" stroke="#1e1e1e" stroke-width="2" fill="none"></path></g><g transform="translate(435.6632121876105 224.22748191856954) rotate(0 56.365457961652965 0.628687606657877)"><path d="M89.21 -7 C98.64 -2.19, 102.83 0.15, 111.62 4.08 M89.21 -7 C96.64 -3.68, 102.42 -0.74, 111.62 4.08" stroke="#1e1e1e" stroke-width="2" fill="none"></path></g></g><mask></mask><g transform="translate(78.79595949290524 199.4711318493728) rotate(0 172.69195556640625 22.5)"><text x="0" y="31.536" font-family="Virgil, Segoe UI Emoji" font-size="36px" fill="#1e1e1e" text-anchor="start" style="white-space: pre;" direction="ltr" dominant-baseline="alphabetic">Entry Point for iOS</text></g><g stroke-linecap="round" transform="translate(569.8300455167632 361.74569176062414) rotate(0 110.60306120474888 49.14760347767515)"><path d="M24.57 0 C92.84 0.67, 150.6 3.14, 196.63 0 C215.23 3.34, 219.47 10.6, 221.21 24.57 C219.42 37.36, 221.11 56.17, 221.21 73.72 C220.16 91.72, 210.5 98.21, 196.63 98.3 C144 93.5, 94.7 98.87, 24.57 98.3 C10.78 101.04, 0.19 92.71, 0 73.72 C-2.57 63.89, 1.84 52.62, 0 24.57 C-0.4 5.31, 7.29 0.32, 24.57 0" stroke="none" stroke-width="0" fill="#ffffff"></path><path d="M24.57 0 C84.67 -0.62, 143.8 1.64, 196.63 0 M24.57 0 C74.56 0.07, 122.38 0.11, 196.63 0 M196.63 0 C213.39 1.45, 219.22 6.91, 221.21 24.57 M196.63 0 C215.19 0.27, 221.36 6.18, 221.21 24.57 M221.21 24.57 C221.08 40.01, 219.66 55.28, 221.21 73.72 M221.21 24.57 C220.97 42.96, 221.44 61.78, 221.21 73.72 M221.21 73.72 C219.99 90.1, 213.01 97.3, 196.63 98.3 M221.21 73.72 C221.53 87.88, 212.95 99.85, 196.63 98.3 M196.63 98.3 C138.73 99.04, 82.73 96.88, 24.57 98.3 M196.63 98.3 C143.17 100.23, 88.39 99.93, 24.57 98.3 M24.57 98.3 C7.67 99.82, 0.81 89.55, 0 73.72 M24.57 98.3 C8.68 98.52, -2.2 90.82, 0 73.72 M0 73.72 C1.39 56.18, 0.59 39.81, 0 24.57 M0 73.72 C0.34 61.95, -0.62 50.07, 0 24.57 M0 24.57 C0.51 6.59, 7.81 -1.61, 24.57 0 M0 24.57 C-1.86 7.3, 7.33 -0.97, 24.57 0" stroke="#1e1e1e" stroke-width="2" fill="none"></path></g><g transform="translate(634.4631512771762 398.3932952382993) rotate(0 45.96995544433594 12.5)"><text x="45.96995544433594" y="17.52" font-family="Virgil, Segoe UI Emoji" font-size="20px" fill="#1e1e1e" text-anchor="middle" style="white-space: pre;" direction="ltr" dominant-baseline="alphabetic">viewModel</text></g><g stroke-linecap="round" transform="translate(1225.4857278777022 177.4494871088682) rotate(0 110.60306120474888 49.14760347767515)"><path d="M24.57 0 C71.24 2.5, 111.74 1.57, 196.63 0 C213.39 2.79, 223.98 5.72, 221.21 24.57 C219.97 37.57, 218.5 47.25, 221.21 73.72 C221.39 90.16, 210.74 98.14, 196.63 98.3 C161.17 103.23, 120.72 103.08, 24.57 98.3 C4.8 101.76, -3.22 88.39, 0 73.72 C-1.06 55.7, -1.57 43.77, 0 24.57 C-2.54 8.72, 9.22 1.72, 24.57 0" stroke="none" stroke-width="0" fill="#ffffff"></path><path d="M24.57 0 C67.79 -1.9, 110.43 0.64, 196.63 0 M24.57 0 C60.48 2.25, 95.02 0.88, 196.63 0 M196.63 0 C214.91 0.24, 221.34 6.44, 221.21 24.57 M196.63 0 C213.54 2.06, 220.51 7.53, 221.21 24.57 M221.21 24.57 C222.17 38.42, 222.14 51.44, 221.21 73.72 M221.21 24.57 C220.7 39.7, 221.3 54.33, 221.21 73.72 M221.21 73.72 C221.48 88.17, 212.96 99.64, 196.63 98.3 M221.21 73.72 C221.94 90.18, 211.42 97.39, 196.63 98.3 M196.63 98.3 C128.59 97.72, 61.87 98.66, 24.57 98.3 M196.63 98.3 C138.56 99.17, 81.4 98.13, 24.57 98.3 M24.57 98.3 C8.61 98.49, -1.92 90.73, 0 73.72 M24.57 98.3 C8.93 96.99, -0.83 91.38, 0 73.72 M0 73.72 C-1.09 60.82, -0.15 50.38, 0 24.57 M0 73.72 C0.7 55.78, 0.25 38.64, 0 24.57 M0 24.57 C-1.62 7.41, 7.44 -0.84, 24.57 0 M0 24.57 C1.76 8.22, 6.58 2.22, 24.57 0" stroke="#1e1e1e" stroke-width="2" fill="none"></path></g><g transform="translate(1288.04884920208 214.09709058654335) rotate(0 48.039939880371094 12.5)"><text x="48.039939880371094" y="17.52" font-family="Virgil, Segoe UI Emoji" font-size="20px" fill="#1e1e1e" text-anchor="middle" style="white-space: pre;" direction="ltr" dominant-baseline="alphabetic">repository</text></g><g stroke-linecap="round" transform="translate(567.6368859858071 177.36358474200824) rotate(0 110.60306120474888 49.14760347767515)"><path d="M24.57 0 C92.53 0.71, 162.52 -4.54, 196.63 0 C210.55 -0.78, 222.3 7.15, 221.21 24.57 C220.77 41.58, 218.31 58.32, 221.21 73.72 C218.37 93.12, 215.55 100.88, 196.63 98.3 C128.49 104, 63.9 98.82, 24.57 98.3 C8.48 100.98, -0.86 89.7, 0 73.72 C-2.32 63.44, 1.25 53.82, 0 24.57 C-0.35 11.66, 5.9 -1.35, 24.57 0" stroke="none" stroke-width="0" fill="#ffffff"></path><path d="M24.57 0 C67.72 -2.33, 112.79 -1.15, 196.63 0 M24.57 0 C89.57 1.22, 152.75 0.23, 196.63 0 M196.63 0 C213.47 1.79, 220.6 7.62, 221.21 24.57 M196.63 0 C212.53 -2.28, 220.03 9.86, 221.21 24.57 M221.21 24.57 C221.71 40.06, 222.72 53.53, 221.21 73.72 M221.21 24.57 C221.34 38.35, 221.18 54.73, 221.21 73.72 M221.21 73.72 C221.85 90.17, 211.63 97.51, 196.63 98.3 M221.21 73.72 C223.44 90.49, 212.76 98.58, 196.63 98.3 M196.63 98.3 C148.98 97.29, 100.02 98.26, 24.57 98.3 M196.63 98.3 C132.07 97.92, 66.12 98.13, 24.57 98.3 M24.57 98.3 C8.83 97.16, -0.72 91.21, 0 73.72 M24.57 98.3 C6.78 98.66, -1.47 88.94, 0 73.72 M0 73.72 C0.99 60.05, 1.76 50.51, 0 24.57 M0 73.72 C-0.72 62.52, -0.28 51.68, 0 24.57 M0 24.57 C1.53 8.22, 6.79 1.93, 24.57 0 M0 24.57 C-0.96 5.91, 8.81 1.41, 24.57 0" stroke="#1e1e1e" stroke-width="2" fill="none"></path></g><g transform="translate(635.7799786236615 214.0111882196834) rotate(0 42.45996856689453 12.5)"><text x="42.45996856689453" y="17.52" font-family="Virgil, Segoe UI Emoji" font-size="20px" fill="#1e1e1e" text-anchor="middle" style="white-space: pre;" direction="ltr" dominant-baseline="alphabetic">Swift UI</text></g><g stroke-linecap="round"><g transform="translate(669.0477448238839 288.56909587648624) rotate(0 1.2029368310154496 26.27963733916431)"><path d="M0.22 0.87 C0.51 9.68, 0.66 43.15, 1.21 51.79 M-1.12 0.28 C-0.45 9.32, 2.55 43.95, 3.3 52.92" stroke="#1e1e1e" stroke-width="2" fill="none"></path></g><g transform="translate(669.0477448238839 288.56909587648624) rotate(0 1.2029368310154496 26.27963733916431)"><path d="M-7.21 30.24 C-3.24 34.11, -3.24 43.88, 3.3 52.92 M-7.21 30.24 C-3.69 38.3, -0.95 44.19, 3.3 52.92" stroke="#1e1e1e" stroke-width="2" fill="none"></path></g><g transform="translate(669.0477448238839 288.56909587648624) rotate(0 1.2029368310154496 26.27963733916431)"><path d="M9.83 28.79 C9.37 33.07, 4.94 43.22, 3.3 52.92 M9.83 28.79 C8.04 37.15, 5.47 43.49, 3.3 52.92" stroke="#1e1e1e" stroke-width="2" fill="none"></path></g></g><mask></mask><g stroke-linecap="round"><g transform="translate(1329.6992297903566 286.161827598582) rotate(0 0.222015305756031 27.866458968146162)"><path d="M-1.19 -0.77 C-0.97 8.4, 1.29 46.63, 1.58 55.87 M0.38 1.44 C0.53 10.75, 1.32 48.48, 1.23 57.49" stroke="#1e1e1e" stroke-width="2" fill="none"></path></g><g transform="translate(1329.6992297903566 286.161827598582) rotate(0 0.222015305756031 27.866458968146162)"><path d="M-7.51 34.06 C-5.84 43.5, -1.54 49.21, 1.23 57.49 M-7.51 34.06 C-5.9 38.68, -3.95 42.95, 1.23 57.49" stroke="#1e1e1e" stroke-width="2" fill="none"></path></g><g transform="translate(1329.6992297903566 286.161827598582) rotate(0 0.222015305756031 27.866458968146162)"><path d="M9.59 33.93 C5.81 43.24, 4.67 48.99, 1.23 57.49 M9.59 33.93 C7.56 38.73, 5.88 43.03, 1.23 57.49" stroke="#1e1e1e" stroke-width="2" fill="none"></path></g></g><mask></mask><g stroke-linecap="round" transform="translate(1220.920630223773 361.7456928457459) rotate(0 110.60306120474888 49.14760347767515)"><path d="M24.57 0 C74.06 -1.62, 120.24 1.07, 196.63 0 C213.07 -2.28, 221.05 5.35, 221.21 24.57 C224.58 43.62, 224.43 58.91, 221.21 73.72 C224.67 86.89, 211.3 98.58, 196.63 98.3 C129.3 97.04, 68.05 95.41, 24.57 98.3 C8.72 99.32, 1.72 89.75, 0 73.72 C2.57 54.26, 2.98 36.71, 0 24.57 C2.89 7.96, 10.33 1.97, 24.57 0" stroke="none" stroke-width="0" fill="#ffffff"></path><path d="M24.57 0 C59.3 -1.49, 91.81 -1.17, 196.63 0 M24.57 0 C91.41 -0.5, 158.15 1.22, 196.63 0 M196.63 0 C213.15 1.42, 220.66 8.35, 221.21 24.57 M196.63 0 C213.48 1.34, 219.81 8.19, 221.21 24.57 M221.21 24.57 C219.03 39.25, 222.31 54.69, 221.21 73.72 M221.21 24.57 C221.83 39.65, 220.75 54.51, 221.21 73.72 M221.21 73.72 C220.83 91.93, 213.58 99.02, 196.63 98.3 M221.21 73.72 C219.5 90.25, 212.42 100.05, 196.63 98.3 M196.63 98.3 C138.24 96.74, 80.08 99.3, 24.57 98.3 M196.63 98.3 C154.15 99.4, 112.26 98.74, 24.57 98.3 M24.57 98.3 C7.02 98.23, 0.11 91.08, 0 73.72 M24.57 98.3 C6.11 100.3, 0.59 88.26, 0 73.72 M0 73.72 C-0.38 59.16, -0.45 47.63, 0 24.57 M0 73.72 C-0.07 57.93, 0.61 44.73, 0 24.57 M0 24.57 C1.86 7.23, 9.53 0.21, 24.57 0 M0 24.57 C1.78 9.96, 6.62 -1.58, 24.57 0" stroke="#1e1e1e" stroke-width="2" fill="none"></path></g><g transform="translate(1270.4037420877016 398.39329632342105) rotate(0 61.11994934082031 12.5)"><text x="61.11994934082031" y="17.52" font-family="Virgil, Segoe UI Emoji" font-size="20px" fill="#1e1e1e" text-anchor="middle" style="white-space: pre;" direction="ltr" dominant-baseline="alphabetic">data source</text></g><g transform="translate(273.3068213420929 323.1433336973887) rotate(0 66.50997161865234 22.5)"><text x="0" y="31.536" font-family="Virgil, Segoe UI Emoji" font-size="36px" fill="#1e1e1e" text-anchor="start" style="white-space: pre;" direction="ltr" dominant-baseline="alphabetic">iOS App</text></g><g stroke-linecap="round" transform="translate(891.7445890529184 361.7456927017183) rotate(0 110.60306120474888 49.14760347767515)"><path d="M24.57 0 C76.89 -0.88, 132.54 4.49, 196.63 0 C215.6 2.75, 221.39 10.8, 221.21 24.57 C220.34 34.98, 224.74 43.95, 221.21 73.72 C220.8 87.22, 212.11 98.62, 196.63 98.3 C158.88 98.83, 121.15 96.89, 24.57 98.3 C6.84 100.31, 0.02 92.52, 0 73.72 C1.42 58.29, 2.37 37.99, 0 24.57 C0.7 5.6, 6.86 2.54, 24.57 0" stroke="none" stroke-width="0" fill="#ffffff"></path><path d="M24.57 0 C79.54 0.1, 133.66 -0.5, 196.63 0 M24.57 0 C88.4 -1.15, 152.98 -0.64, 196.63 0 M196.63 0 C211.8 0, 221.2 7.2, 221.21 24.57 M196.63 0 C213.34 -2.22, 221.14 9.74, 221.21 24.57 M221.21 24.57 C220.44 42.83, 221.56 56.98, 221.21 73.72 M221.21 24.57 C221.39 40.29, 220.37 55.34, 221.21 73.72 M221.21 73.72 C220.69 91.63, 213.82 97.74, 196.63 98.3 M221.21 73.72 C221.69 90.33, 210.81 99.01, 196.63 98.3 M196.63 98.3 C140.61 96.45, 82.69 96.4, 24.57 98.3 M196.63 98.3 C153.77 98.72, 109.89 99.11, 24.57 98.3 M24.57 98.3 C8.71 96.69, -0.38 88.5, 0 73.72 M24.57 98.3 C6.33 97.4, -0.86 89.14, 0 73.72 M0 73.72 C1.92 54.38, -1.99 37.24, 0 24.57 M0 73.72 C0.21 56.06, 0.32 38.96, 0 24.57 M0 24.57 C-1.37 6.82, 7.76 0.61, 24.57 0 M0 24.57 C-0.67 9.22, 6.58 -0.05, 24.57 0" stroke="#1e1e1e" stroke-width="2" fill="none"></path></g><g transform="translate(963.1776902356946 398.3932961793935) rotate(0 39.169960021972656 12.5)"><text x="39.169960021972656" y="17.52" font-family="Virgil, Segoe UI Emoji" font-size="20px" fill="#1e1e1e" text-anchor="middle" style="white-space: pre;" direction="ltr" dominant-baseline="alphabetic">usecase</text></g><g stroke-linecap="round" transform="translate(891.7445890934036 177.4494867868707) rotate(0 110.60306120474888 49.14760347767515)"><path d="M24.57 0 C63.81 -0.13, 106.56 2.18, 196.63 0 C214.77 -3.26, 224.34 9.12, 221.21 24.57 C218.12 33.98, 219.69 44.68, 221.21 73.72 C223.96 90.15, 210.49 101.77, 196.63 98.3 C154.4 102.47, 106 101.54, 24.57 98.3 C8.56 101.08, 2.77 87.64, 0 73.72 C-0.85 63.96, -2.32 50.89, 0 24.57 C0.18 8.25, 5.92 -0.16, 24.57 0" stroke="none" stroke-width="0" fill="#ffffff"></path><path d="M24.57 0 C74 1.02, 121.95 0.34, 196.63 0 M196.63 0 C213.17 0.4, 222.37 6.97, 221.21 24.57 M221.21 24.57 C221.48 37.38, 221.15 55.4, 221.21 73.72 M221.21 73.72 C221.85 90.17, 211.63 97.51, 196.63 98.3 M196.63 98.3 C128.59 97.72, 61.87 98.66, 24.57 98.3 M24.57 98.3 C8.91 96.81, 0.13 89.59, 0 73.72 M0 73.72 C0.22 55.41, -2.12 37.34, 0 24.57 M0 24.57 C0.64 7.06, 7.47 1.11, 24.57 0" stroke="#1e1e1e" stroke-width="2.5" fill="none" stroke-dasharray="8 10"></path></g><g transform="translate(947.1476991262775 201.59709026454584) rotate(0 55.199951171875 25)"><text x="55.199951171875" y="17.52" font-family="Virgil, Segoe UI Emoji" font-size="20px" fill="#1e1e1e" text-anchor="middle" style="white-space: pre;" direction="ltr" dominant-baseline="alphabetic">&lt;interface&gt;</text><text x="55.199951171875" y="42.519999999999996" font-family="Virgil, Segoe UI Emoji" font-size="20px" fill="#1e1e1e" text-anchor="middle" style="white-space: pre;" direction="ltr" dominant-baseline="alphabetic">repository</text></g><g stroke-linecap="round"><g transform="translate(798.6851425952195 416.936754367357) rotate(0 43.741009828650476 -1.9017546479581142)"><path d="M-0.33 0.09 C14.28 -0.57, 73.21 -2.46, 87.72 -3.11 M1.7 -0.9 C16.17 -1.98, 72.31 -4.6, 86.9 -4.86" stroke="#1e1e1e" stroke-width="2" fill="none"></path></g><g transform="translate(798.6851425952195 416.936754367357) rotate(0 43.741009828650476 -1.9017546479581142)"><path d="M63.72 4.5 C70.92 2.09, 79.04 -2.4, 86.9 -4.86 M63.72 4.5 C70.81 0.84, 77.59 -0.33, 86.9 -4.86" stroke="#1e1e1e" stroke-width="2" fill="none"></path></g><g transform="translate(798.6851425952195 416.936754367357) rotate(0 43.741009828650476 -1.9017546479581142)"><path d="M63.13 -12.59 C70.63 -9.75, 78.94 -9, 86.9 -4.86 M63.13 -12.59 C70.4 -11.12, 77.36 -7.16, 86.9 -4.86" stroke="#1e1e1e" stroke-width="2" fill="none"></path></g></g><mask></mask><g stroke-linecap="round"><g transform="translate(1002.1759369129363 352.7515556103526) rotate(0 -2.8527045192272453 -31.379423248697094)"><path d="M0.24 0.7 C-0.78 -9.78, -5.44 -52.08, -6.44 -62.76 M-1.09 0.02 C-1.69 -10.26, -3.21 -50.83, -4.11 -61.22" stroke="#1e1e1e" stroke-width="2" fill="none"></path></g><g transform="translate(1002.1759369129363 352.7515556103526) rotate(0 -2.8527045192272453 -31.379423248697094)"><path d="M5.81 -38.27 C4.25 -45.73, 0.38 -50.78, -4.11 -61.22 M5.81 -38.27 C3.26 -43.44, 1.13 -49.82, -4.11 -61.22" stroke="#1e1e1e" stroke-width="2" fill="none"></path></g><g transform="translate(1002.1759369129363 352.7515556103526) rotate(0 -2.8527045192272453 -31.379423248697094)"><path d="M-11.26 -37.27 C-8.17 -45.03, -7.38 -50.35, -4.11 -61.22 M-11.26 -37.27 C-9.54 -42.52, -7.4 -49.16, -4.11 -61.22" stroke="#1e1e1e" stroke-width="2" fill="none"></path></g></g><mask></mask><g stroke-linecap="round"><g transform="translate(1213.2738949170657 225.33203542031697) rotate(0 -43.741009828650476 -0.9508773239786024)"><path d="M-0.73 0 C-15.35 -0.53, -73.05 -1.99, -87.48 -2.5 M1.09 -1.05 C-13.71 -1.49, -73.58 -1.06, -88.43 -1.27" stroke="#1e1e1e" stroke-width="2" fill="none"></path></g><g transform="translate(1213.2738949170657 225.33203542031697) rotate(0 -43.741009828650476 -0.9508773239786024)"><path d="M-64.92 -9.76 C-72.39 -7.19, -80.91 -4.19, -88.43 -1.27 M-64.92 -9.76 C-69.38 -7.84, -75.17 -6.55, -88.43 -1.27" stroke="#1e1e1e" stroke-width="2" fill="none"></path></g><g transform="translate(1213.2738949170657 225.33203542031697) rotate(0 -43.741009828650476 -0.9508773239786024)"><path d="M-64.96 7.34 C-72.52 4.44, -81.03 1.96, -88.43 -1.27 M-64.96 7.34 C-69.41 5.78, -75.19 3.6, -88.43 -1.27" stroke="#1e1e1e" stroke-width="2" fill="none"></path></g></g><mask></mask></svg>